<?xml version="1.0" encoding="UTF-8"?>
<svg id="Layer_2" data-name="Layer 2" xmlns="http://www.w3.org/2000/svg" viewBox="0 0 298.12 232.82">
  <defs>
    <style>
      .cls-1, .cls-2, .cls-3, .cls-4, .cls-5, .cls-6 {
        stroke: #231f20;
        stroke-linecap: round;
      }

      .cls-1, .cls-2, .cls-5, .cls-6 {
        stroke-miterlimit: 10;
      }

      .cls-1, .cls-3 {
        fill: #fff;
      }

      .cls-7, .cls-8, .cls-9, .cls-10, .cls-11, .cls-12 {
        stroke-width: 0px;
      }

      .cls-2, .cls-10 {
        fill: #2e3192;
      }

      .cls-3, .cls-4 {
        stroke-miterlimit: 10;
        stroke-width: 1px;
      }

      .cls-8 {
        fill: #585aa8;
      }

      .cls-5 {
        fill: #f9f9f9;
      }

      .cls-9 {
        fill: #231f20;
      }

      .cls-6 {
        fill: #fcee21;
      }

      .cls-11 {
        fill: #797bb9;
      }

      .cls-12 {
        fill: blue;
      }
    </style>
  </defs>
  <g id="Layer_2-2" data-name="Layer 2">
    <g>
      <circle class="cls-1" cx="83.27" cy="99.31" r="19"/>
      <g>
        <path class="cls-10" d="m162.37,196.36c-2.06,2.7-3.02,6.12-3.22,9.5s.31,6.78.96,10.11c.99,5.06,2.31,10.06,3.94,14.95,3.36-4.3,6.73-8.6,10.09-12.9,1.03-1.32,2.07-2.65,2.79-4.17.57-1.21.92-2.51,1.27-3.81.91-3.4,1.83-6.83,2.06-10.34"/>
        <path class="cls-9" d="m162,196.15c-3.43,4.65-3.72,10.58-2.96,16.11.88,6.37,2.57,12.68,4.59,18.78.09.27.5.46.71.19,3.85-4.92,7.94-9.73,11.55-14.82,1.65-2.33,2.36-4.9,3.08-7.63.79-2.98,1.47-5.98,1.7-9.06.04-.55-.81-.54-.85,0-.22,3-.9,5.93-1.67,8.83s-1.51,5.39-3.24,7.77c-3.57,4.88-7.45,9.55-11.17,14.31l.71.19c-1.87-5.65-3.41-11.46-4.38-17.34s-.96-12,2.65-16.9c.32-.44-.41-.87-.73-.43h.01Z"/>
      </g>
      <path class="cls-2" d="m297.33,103.8l-46,15.77c.18-3.56.16-7.16-.11-10.81-1.33-17.71-7.97-33.73-18.2-46.7-5.61-2.4-8.23-7.29-8.14-13.65.07-5.46,1.5-10.24,5.41-13.57l-.1-1.27-20.58,14.04c-1.27-.64-2.54-1.26-3.82-1.88-6.05-.94-9.98-6.39-10.21-12.38-.18-4.68,1.56-9.11,4.83-12.14l-.4-1.81-18.69,17.19c-1.14-.26-2.28-.51-3.43-.73l-.38-.74c-.41.03-.84.02-1.3-.06-13.52-2.25-24.67-21.32-15.43-32.65l-.72-1.41-21.29,32.9c-.15-.09-.3-.17-.43-.28-36.58,12.13-61.66,47.9-58.64,88.06.28,3.71.82,7.34,1.54,10.89l112.3-11.07-84.29,58.82c16.7,14.42,38.91,22.45,62.66,20.66,31.14-2.34,57.15-20.99,70.3-46.95l31.99,37.74c-.7-1.63-1.15-3.3-1.28-4.86-.55-6.6,4.96-11.08,11.06-11.69-5.55-3.16-8.41-10.51-6.86-16.67,1.65-6.56,7.55-7.91,13.14-9.74.06-.02.12-.03.18-.05-.6-.35-1.16-.86-1.64-1.56-3.07-4.57-5.67-10.1-3.25-15.57,1.78-4.02,5.55-6.2,9.61-7.3-.15-.19-.3-.4-.44-.62-3.04-4.94-4.35-10.06-1.15-15.31,1.01-1.66,2.29-3.21,3.75-4.57v-.03Z"/>
      <polygon class="cls-5" points="93.37 158.32 100.27 130.95 81.38 132.77 93.37 158.32"/>
      <polygon class="cls-5" points="112.15 147.59 116.77 129.48 104.17 130.69 112.15 147.59"/>
      <polygon class="cls-5" points="145.5 144.14 150.11 126.03 137.52 127.24 145.5 144.14"/>
      <polygon class="cls-5" points="129.56 145.58 134.18 127.46 121.58 128.68 129.56 145.58"/>
      <polygon class="cls-5" points="149.82 136.23 153.25 149.11 160.56 144.12 149.82 136.23"/>
      <polygon class="cls-5" points="138.83 143.9 142.26 156.77 149.57 151.78 138.83 143.9"/>
      <polygon class="cls-5" points="128.39 151.7 131.82 164.58 139.12 159.59 128.39 151.7"/>
      <polygon class="cls-5" points="118.87 158.44 122.29 171.31 129.6 166.32 118.87 158.44"/>
      <polygon class="cls-5" points="105.42 161.24 110.11 179.34 120.56 172.2 105.42 161.24"/>
      <path class="cls-9" d="m115.09,45.86c-1.85-4.96-6.42-8.01-10.44-11.11-4.54-3.5-9.24-6.86-14.53-9.15s-10.94-3.78-16.58-4.88-11.36-1.69-17.06-1.26c-10.29.78-19.59,5.18-26.81,12.53-7.22,7.35-11.64,16.03-14.45,25.45-3.83,12.85-4.39,26.39-4.93,39.7-.08,1.93,2.92,1.93,3,0,.83-20.53,1.87-43.05,15.5-59.69,5.92-7.22,13.75-12.55,22.99-14.36,10.73-2.1,22.21.14,32.46,3.48,5.81,1.9,10.98,4.88,15.89,8.49,2.35,1.73,4.67,3.51,6.92,5.36,2.09,1.72,4.19,3.65,5.16,6.24.67,1.79,3.57,1.02,2.89-.8h0Z"/>
      <circle class="cls-6" cx="12" cy="108.21" r="11.5"/>
      <ellipse class="cls-3" cx="103.75" cy="94.72" rx="24.01" ry="23.06" transform="translate(-6.82 8.06) rotate(-4.31)"/>
      <ellipse class="cls-4" cx="101.59" cy="95.36" rx="5.83" ry="5.6" transform="translate(-6.88 7.9) rotate(-4.31)"/>
      <path class="cls-9" d="m192.15,187.87c-3.85,7.29-2.9,15.91.63,23.12,1.83,3.73,4.31,7.06,7.01,10.2,3.1,3.61,5.99,7.23,8.28,11.42.22.41.74.17.79-.21.61-4.63,2.05-9.04,4.2-13.18,2-3.86,4.06-7.57,5.07-11.84,1.85-7.89.75-16.23-2.68-23.54-1.92-4.09-4.54-7.81-7.64-11.09-.38-.4-.98.2-.6.6,5.56,5.88,9.51,13.3,10.64,21.35.59,4.21.41,8.53-.59,12.66-1.05,4.35-3.25,8.08-5.24,12.04s-3.41,8.45-4,13l.79-.21c-2.02-3.7-4.48-7.04-7.23-10.23s-5.29-6.27-7.27-9.89c-3.98-7.25-5.41-16.21-1.42-23.77.26-.48-.48-.91-.73-.43h0Z"/>
      <path class="cls-10" d="m192.01,194.57c-.19,1.56-.26,3.13-.2,4.7.03.75.55,1.37,1.3,1.47s1.41-.36,1.65-1.07c.12-.37.17-.76.19-1.15.03-.78-.71-1.54-1.5-1.5-.84.04-1.47.66-1.5,1.5,0,.09,0,.17-.02.25l.05-.4c-.02.17-.06.33-.12.5l2.95.4c-.05-1.57,0-3.14.2-4.7.04-.35-.2-.82-.44-1.06-.26-.26-.69-.46-1.06-.44s-.79.14-1.06.44c-.29.31-.39.64-.44,1.06h0Z"/>
      <path class="cls-10" d="m191.97,194.96c-.26,1.63-.35,3.27-.19,4.92.04.41.14.76.44,1.06.26.26.69.46,1.06.44s.79-.14,1.06-.44c.25-.28.48-.67.44-1.06-.14-1.33-.12-2.67.06-4l-.05.4c.02-.17.05-.35.08-.52.07-.41.07-.78-.15-1.16-.18-.31-.54-.61-.9-.69-.38-.09-.81-.07-1.16.15-.31.2-.63.52-.69.9h0Z"/>
      <path class="cls-10" d="m192.77,194.32c.05,2.14.27,4.27.63,6.38.12.73.98,1.18,1.65,1.07.78-.12,1.23-.71,1.3-1.47.24-2.54.47-5.07.71-7.61h-3c.11,2.52.43,5.03.96,7.5.15.72.95,1.18,1.65,1.07.79-.12,1.21-.71,1.3-1.47.29-2.57.59-5.13.88-7.7h-3c-.22,3.13-.06,6.23.39,9.33.21,1.46,2.63,1.4,2.89,0,.64-3.4.71-6.84.73-10.29,0-1.93-2.98-1.93-3,0-.04,2.95.24,5.88.78,8.78.32,1.71,2.9,1.24,2.95-.4.08-3.12.17-6.24.25-9.36h-3c-.02,3.76.31,7.5.93,11.21.21,1.24,2.21,1.49,2.74.36.81-1.74.62-3.67.61-5.55,0-2.08-.02-4.16-.02-6.25h-3c.25,3.62.65,7.22,1.2,10.8.22,1.42,2.7,1.44,2.89,0,.25-1.83.14-3.59-.03-5.42s-.31-3.5.17-5.21l-2.95-.4c.31,3.51.63,7.02.94,10.53.17,1.89,2.96,1.96,3,0,.08-3.82.15-7.64.23-11.45h-3c.45,3.71.9,7.42,1.34,11.13.1.8.62,1.5,1.5,1.5.8,0,1.52-.69,1.5-1.5-.1-3.5-.19-7.01-.29-10.51l-2.95.4c.64,3.69,1.27,7.39,1.91,11.08.29,1.66,3.04,1.28,2.95-.4-.24-4.23-.49-8.46-.73-12.68l-2.95.4c.9,3.6,1.8,7.2,2.69,10.8.4,1.6,3.13,1.31,2.95-.4-.47-4.35-.94-8.71-1.41-13.06l-2.95.4,3.21,12.16c.5,1.89,3.23,1.07,2.89-.8-.78-4.34-1.56-8.69-2.35-13.03l-2.89.8c1.15,4.25,2.29,8.5,3.44,12.75.5,1.87,3.31,1.08,2.89-.8-.99-4.46-1.99-8.92-2.98-13.38l-2.89.8c1.46,3.7,2.84,7.43,4.13,11.19.62,1.82,3.32,1.1,2.89-.8-.88-3.94-1.76-7.87-2.64-11.81l-2.89.8c1.27,3.12,2.42,6.29,3.45,9.5.59,1.83,3.38,1.08,2.89-.8l-2.53-9.81-2.74,1.16c1.06,2.18,1.89,4.45,2.51,6.8.5,1.86,3.39,1.07,2.89-.8-.69-2.59-1.64-5.1-2.82-7.51-.76-1.56-3.16-.45-2.74,1.16.84,3.27,1.68,6.54,2.53,9.81l2.89-.8c-1.03-3.21-2.18-6.38-3.45-9.5-.71-1.75-3.33-1.14-2.89.8.88,3.94,1.76,7.87,2.64,11.81l2.89-.8c-1.29-3.76-2.67-7.49-4.13-11.19-.7-1.76-3.32-1.13-2.89.8.99,4.46,1.99,8.92,2.98,13.38l2.89-.8c-1.15-4.25-2.29-8.5-3.44-12.75-.51-1.89-3.23-1.08-2.89.8.78,4.34,1.56,8.69,2.35,13.03l2.89-.8-3.21-12.16c-.42-1.58-3.13-1.32-2.95.4.47,4.35.94,8.71,1.41,13.06l2.95-.4c-.9-3.6-1.8-7.2-2.69-10.8-.4-1.61-3.05-1.31-2.95.4.24,4.23.49,8.46.73,12.68l2.95-.4c-.64-3.69-1.27-7.39-1.91-11.08-.29-1.68-2.99-1.27-2.95.4.1,3.5.19,7.01.29,10.51h3c-.45-3.71-.9-7.42-1.34-11.13-.23-1.87-2.96-1.98-3,0-.08,3.82-.15,7.64-.23,11.45h3c-.31-3.51-.63-7.02-.94-10.53-.14-1.62-2.47-2.12-2.95-.4-.99,3.56.35,7.07-.14,10.64h2.89c-.51-3.32-.86-6.66-1.09-10.01-.13-1.91-3.01-1.95-3,0,0,1.84,0,3.67.02,5.51v2.57c0,.71.1,1.53-.21,2.2l2.74.36c-.58-3.44-.84-6.92-.83-10.41,0-1.93-2.95-1.93-3,0-.08,3.12-.17,6.24-.25,9.36l2.95-.4c-.5-2.64-.71-5.3-.67-7.98h-3c-.02,3.17-.03,6.36-.62,9.49h2.89c-.42-2.82-.49-5.69-.29-8.53.06-.81-.73-1.5-1.5-1.5-.89,0-1.41.69-1.5,1.5-.29,2.57-.59,5.13-.88,7.7l2.95-.4c-.47-2.21-.75-4.44-.85-6.71-.09-1.95-2.82-1.9-3,0-.24,2.54-.47,5.07-.71,7.61l2.95-.4c-.31-1.85-.48-3.71-.52-5.58s-3.04-1.93-3,0h.03Z"/>
      <path class="cls-10" d="m211.06,186.52c.1.2.19.39.28.59.05.11.1.23.15.34.13.29-.11-.28,0,0,.17.42.33.84.48,1.28.29.85.51,1.71.69,2.59.15.77,1.11,1.28,1.85,1.05.82-.27,1.21-1.02,1.05-1.85-.38-1.91-1.03-3.76-1.9-5.5-.35-.7-1.4-.96-2.05-.54-.72.47-.91,1.3-.54,2.05h-.01Z"/>
      <path class="cls-10" d="m211.97,186.18c.37,1.12.7,2.25.99,3.39.09.36.37.71.69.9s.8.27,1.16.15c.79-.25,1.26-1.03,1.05-1.85-.29-1.14-.62-2.27-.99-3.39-.12-.37-.35-.7-.69-.9-.32-.19-.8-.27-1.16-.15s-.71.34-.9.69-.28.77-.15,1.16h0Z"/>
      <path class="cls-10" d="m195.21,202.8c-.04-.14-.07-.28-.09-.43l.05.4c0-.07-.02-.14-.02-.21,0-.21-.04-.4-.13-.58-.06-.19-.16-.35-.31-.48-.14-.15-.3-.25-.48-.31-.18-.09-.37-.14-.58-.13l-.4.05c-.25.07-.47.2-.66.39l-.23.3c-.14.23-.2.49-.2.76,0,.24.05.48.09.71.02.11.04.21.08.32.05.2.14.37.27.51.11.16.25.29.42.39.17.11.36.17.56.18.2.04.4.04.6-.03l.36-.15c.23-.13.4-.31.54-.54l.15-.36c.07-.27.07-.53,0-.8h-.02Z"/>
      <path class="cls-10" d="m191.65,197.73c-.15,1.23,0,2.46.15,3.68s.38,2.53.69,3.77c.59,2.37,1.51,4.68,2.79,6.77,1.01,1.64,3.6.14,2.59-1.51-1.16-1.88-1.95-3.91-2.49-6.05s-1.01-4.47-.74-6.65c.1-.81-.76-1.5-1.5-1.5-.89,0-1.4.69-1.5,1.5h.01Z"/>
      <path class="cls-10" d="m192.08,195.11c-.06.08-.11.17-.15.26-.1.2-.19.4-.25.62-.03.09-.05.19-.07.29-.04.22-.07.45-.08.68,0,.21.04.4.13.58.06.19.16.35.31.48.14.15.3.25.48.31.18.09.37.14.58.13l.4-.05c.25-.07.47-.2.66-.39l.23-.3c.14-.23.2-.49.2-.76,0-.07,0-.15.02-.22l-.05.4c.02-.17.07-.34.14-.5l-.15.36c.05-.13.12-.24.2-.36.11-.17.17-.36.18-.56.04-.2.04-.4-.03-.6-.05-.2-.14-.37-.27-.51-.11-.16-.25-.29-.42-.39l-.36-.15c-.27-.07-.53-.07-.8,0l-.36.15c-.23.13-.4.31-.54.54h0Z"/>
      <path class="cls-10" d="m191.78,195.54c-.14.67-.27,1.36-.31,2.04s.07,1.37.24,2.02c.1.36.36.71.69.9s.8.27,1.16.15c.77-.25,1.27-1.03,1.05-1.85-.07-.26-.13-.52-.16-.78l.05.4c-.06-.46-.04-.91.02-1.37l-.05.4c.05-.37.13-.74.21-1.12.08-.4.06-.8-.15-1.16-.18-.31-.54-.61-.9-.69-.38-.09-.81-.07-1.16.15-.32.2-.61.52-.69.9h0Z"/>
      <path class="cls-10" d="m194.54,202.72c.57,2.76,1.39,5.45,2.44,8.07.28.69.85,1.19,1.65,1.07.7-.11,1.34-.72,1.3-1.47-.16-3.13-1.07-6.1-2.04-9.06-.6-1.82-3.42-1.08-2.89.8s1.05,3.74,1.58,5.61c.47,1.68.84,3.6,1.81,5.07.75,1.14,2.94.83,2.8-.76-.32-3.46-1.51-6.84-1.28-10.34h-3c.45,3.56,1.07,7.44,2.7,10.68.66,1.32,2.89.71,2.8-.76-.21-3.41-1.38-6.72-1.18-10.16l-2.95.4c.64,3.43,1.19,6.9,2.1,10.27.44,1.61,3,1.32,2.95-.4-.1-3.42-1.2-6.76-.95-10.2l-2.95.4c.97,2.99.66,6.22,1.54,9.23.46,1.56,3.1,1.34,2.95-.4-.14-1.58-.29-3.17-.39-4.76-.08-1.22-.3-2.73.3-3.85l-2.74-.36c.76,3.07.37,6.3,1.31,9.34.49,1.58,2.98,1.34,2.95-.4-.06-3.14-.81-6.38-.04-9.48l-2.95-.4c.33,3.34.51,6.75,1.27,10.03.38,1.62,3.08,1.31,2.95-.4s-.27-3.36-.3-5.04c-.03-1.34-.24-3.13.37-4.38h-2.59c.31.6.29,1.43.34,2.09.06.72.09,1.44.13,2.17.08,1.58.19,3.15.45,4.71.27,1.65,3.12,1.29,2.95-.4-.34-3.25-.68-6.59.42-9.74h-2.89c.6,3.22.14,6.54.6,9.79.23,1.67,3.05,1.28,2.95-.4-.09-1.58-.19-3.16-.2-4.74,0-1.4.06-2.86.64-4.16l-2.74-.36c.24.68.18,1.35.16,2.07-.03.9-.04,1.79-.04,2.69,0,1.74.04,3.48.13,5.22h3c-.3-3.36.21-6.64,1.52-9.76l-2.95-.4c.06,3.42-.05,6.86-.61,10.24l2.95.4c0-2.94.53-5.8,1.56-8.55l-2.95-.4c-.18,3.6.05,7.66-1.52,11l2.74,1.16c1.01-2.75,2.07-5.48,3.17-8.2l-2.95-.4c-.2,3.31-1.2,6.49-2.44,9.55-.31.75.33,1.65,1.05,1.85.86.24,1.54-.29,1.85-1.05,1.35-3.32,2.33-6.75,2.55-10.34.05-.74-.6-1.39-1.3-1.47-.8-.09-1.36.36-1.65,1.07-1.1,2.72-2.15,5.45-3.17,8.2-.58,1.58,2.02,2.7,2.74,1.16,1.83-3.89,1.71-8.31,1.93-12.52.04-.74-.6-1.39-1.3-1.47-.78-.09-1.38.36-1.65,1.07-1.12,2.99-1.68,6.16-1.67,9.35,0,1.63,2.66,2.11,2.95.4.61-3.65.78-7.34.72-11.03,0-.74-.56-1.39-1.3-1.47-.8-.1-1.35.36-1.65,1.07-1.39,3.32-1.95,6.97-1.62,10.55.07.81.64,1.5,1.5,1.5.78,0,1.54-.69,1.5-1.5-.09-1.84-.14-3.69-.13-5.53,0-1.68.35-3.62-.23-5.24-.39-1.08-2.17-1.64-2.74-.36-1.46,3.27-1.06,6.94-.85,10.42l2.95-.4c-.46-3.25,0-6.54-.6-9.79-.29-1.57-2.45-1.27-2.89,0-1.19,3.4-.9,7.02-.53,10.54l2.95-.4c-.27-1.6-.3-3.23-.39-4.85s-.08-3.39-.83-4.84c-.5-.95-2.11-1-2.59,0-.79,1.63-.79,3.46-.79,5.24,0,1.9.16,3.8.31,5.7l2.95-.4c-.7-3.02-.86-6.15-1.16-9.23-.07-.74-.51-1.38-1.3-1.47-.72-.09-1.46.34-1.65,1.07-.84,3.41-.13,6.83-.06,10.28l2.95-.4c-.93-3.03-.54-6.27-1.31-9.34-.31-1.23-2.14-1.49-2.74-.36-.79,1.48-.82,3.11-.74,4.74.08,1.8.27,3.59.43,5.38l2.95-.4c-.88-3.02-.57-6.23-1.54-9.23-.53-1.64-2.82-1.29-2.95.4-.26,3.44.85,6.78.95,10.2l2.95-.4c-.91-3.37-1.45-6.84-2.1-10.27-.33-1.74-2.86-1.21-2.95.4-.19,3.45.97,6.74,1.18,10.16l2.8-.76c-.67-1.35-1.02-2.9-1.38-4.36-.39-1.58-.7-3.19-.9-4.81-.24-1.88-2.87-1.97-3,0-.24,3.52.96,6.87,1.28,10.34l2.8-.76c-.88-1.33-1.17-3.13-1.59-4.65-.5-1.77-1-3.55-1.49-5.32l-2.89.8c.88,2.69,1.79,5.42,1.93,8.27l2.95-.4c-1.05-2.61-1.87-5.31-2.44-8.07-.39-1.89-3.29-1.09-2.89.8h-.1Z"/>
      <path class="cls-10" d="m209.89,221.66c2.05-3.71,3.73-7.77,4.56-11.94.46-2.27.53-4.58.4-6.88s-.24-4.57-.76-6.75c-.34-1.44-2.53-1.42-2.89,0-.45,1.77-.74,3.57-.89,5.39-.16,1.92,2.84,1.91,3,0,.13-1.56.4-3.08.78-4.59h-2.89c.49,2.06.59,4.31.68,6.42s.04,4.03-.4,6c-.84,3.8-2.3,7.44-4.18,10.84-.94,1.69,1.65,3.21,2.59,1.51h0Z"/>
      <path class="cls-10" d="m211.9,194.28c.03.19.03.21,0,.08,0,.08.02.16.03.24.02.19.04.37.05.56.02.32.04.64.05.97.03.73.04,1.45.05,2.18.04,1.5.13,3,.47,4.47.17.77,1.1,1.29,1.85,1.05.8-.26,1.23-1.02,1.05-1.85-.29-1.26-.34-2.53-.37-4s-.08-3-.3-4.5c-.11-.78-1.14-1.28-1.85-1.05-.85.28-1.17,1.01-1.05,1.85h0Z"/>
      <path class="cls-10" d="m212.65,193.45c.37,1.3.45,2.66.56,4s.19,2.81.19,4.22c0,2.72-.32,5.4-1.19,7.99-.62,1.83,2.28,2.62,2.89.8.95-2.82,1.3-5.82,1.3-8.79,0-1.46-.08-2.92-.2-4.37-.13-1.55-.22-3.14-.66-4.64-.53-1.85-3.43-1.06-2.89.8h0Z"/>
      <path class="cls-10" d="m200.04,213.8c.88,2.51,1.89,5.69,4.34,7.11.63.37,1.73.21,2.05-.54.24-.56.3-1.01.24-1.61-.05-.47-.11-.95-.16-1.42-.11-.93-.22-1.86-.34-2.79-.24-1.77-.61-3.46-1.38-5.09-.28-.59-1.1-.85-1.69-.69-.68.19-1.03.78-1.1,1.45-.2,1.77.3,3.53.9,5.18.57,1.56,1.19,3.11,2.11,4.5.61.92,2.01,1.02,2.59,0,.52-.9.14-2-.02-2.96-.14-.87-.29-1.74-.43-2.6-.28-1.65-.51-3.33-1.03-4.92-.23-.71-.89-1.18-1.65-1.07-.66.09-1.4.73-1.3,1.47.23,1.75.51,3.5.89,5.22.35,1.6.66,3.42,1.77,4.69.61.7,1.94.53,2.36-.3.39-.78.3-1.53.26-2.37s-.08-1.61-.11-2.42c-.07-1.58-.15-3.16-.22-4.73-.04-.78-.66-1.54-1.5-1.5-.89.04-1.4.66-1.5,1.5-.16,1.36-.22,2.74-.13,4.11.04.67.11,1.35.28,2,.19.73.49,1.61,1.18,2.01.96.56,2.16-.03,2.44-1.06.18-.66.22-1.38.26-2.06.1-1.37.15-2.75.19-4.13h-3c0,2.04.06,4.09.59,6.07.38,1.43,2.5,1.42,2.89,0s.53-2.95.34-4.43c-.1-.78-.62-1.54-1.5-1.5-.73.03-1.61.67-1.5,1.5.17,1.29.1,2.42-.23,3.63h2.89c-.46-1.7-.47-3.45-.48-5.28,0-.78-.69-1.54-1.5-1.5s-1.47.66-1.5,1.5c-.03.98-.07,1.95-.12,2.93-.02.46-.05.92-.08,1.38-.02.24-.04.48-.07.72,0-.1,0-.05-.03.14-.06.24-.04.24.04,0l.54-.54-.08.05,1.16-.15-.1-.02.66.39c.13.12.08.18.02-.02.04.13-.05-.17-.06-.2-.08-.24-.13-.49-.18-.74-.05-.28-.08-.89-.1-1.35-.03-1.16.02-2.32.16-3.47h-3c.07,1.45.14,2.9.2,4.35.03.71.07,1.42.1,2.13.02.35.03.71.05,1.06,0,.19.02.39.03.58,0,.31-.15.39.1-.11l2.36-.3c.13.15-.1-.18-.13-.22-.2-.36.05.18-.11-.25-.12-.34-.23-.67-.32-1.02-.19-.68-.34-1.38-.49-2.07-.3-1.39-.56-2.89-.74-4.24l-2.95.4c.46,1.41.69,2.88.94,4.34.13.77.26,1.54.39,2.32.06.39.13.77.19,1.16.03.19.06.39.1.58.02.1.03.19.05.29.05.43.09.26.13-.51h2.59c-.82-1.24-1.32-2.44-1.81-3.78-.54-1.48-.96-2.83-.79-4.38l-2.8.76c.25.52.46,1.2.63,1.86.18.71.3,1.43.4,2.16.07.49.17,1.32.24,1.96.04.38.09.76.13,1.14.02.22.05.44.07.66.03.31-.07.67.17.1l2.05-.54c-.75-.44-1.28-1.35-1.77-2.3-.27-.53-.4-.84-.59-1.34-.21-.55-.41-1.11-.61-1.67-.27-.76-1.03-1.27-1.85-1.05-.74.2-1.32,1.08-1.05,1.85h.03Z"/>
      <path class="cls-10" d="m212.76,192.08c.09,1.89.59,3.72.77,5.6s.18,3.75-.08,5.6c-.11.8.2,1.61,1.05,1.85.7.19,1.73-.24,1.85-1.05.29-2.05.4-4.1.21-6.17-.18-1.95-.7-3.86-.79-5.82-.04-.81-.66-1.5-1.5-1.5-.78,0-1.54.69-1.5,1.5h-.01Z"/>
      <path class="cls-10" d="m213.12,215.3c.65-1.59,1.31-3.17,1.98-4.76.09-.21-.1-.47-.3-.52-.25-.07-.43.08-.52.3-.67,1.58-1.33,3.17-1.98,4.76-.09.21.09.47.3.52.24.07.44-.08.52-.3h0Z"/>
      <path class="cls-10" d="m212.76,215.44c1.33-2.06,2.31-4.34,2.88-6.72.13-.53-.69-.76-.82-.23-.56,2.32-1.5,4.51-2.79,6.52-.3.46.44.89.73.43h0Z"/>
      <path class="cls-10" d="m215.4,190.44c.55,0,.55-.85,0-.85s-.55.85,0,.85h0Z"/>
      <path class="cls-10" d="m216.94,197.08c-.33-2.32-.74-4.63-1.23-6.92-.12-.53-.94-.31-.82.23.49,2.29.91,4.6,1.23,6.92.03.23.32.35.52.3.25-.06.33-.3.3-.52h0Z"/>
      <path class="cls-10" d="m216.88,202.12c.16-.43.17-.89.17-1.35,0-.52-.02-1.04-.05-1.56-.05-1.02-.15-2.04-.28-3.05-.03-.23-.17-.42-.43-.43-.21,0-.45.2-.43.43.13.97.22,1.95.27,2.93.03.48.04.96.05,1.44s.03.91-.13,1.36c-.18.52.64.74.82.23h0Z"/>
      <path class="cls-10" d="m215.12,190.71c1.06,3.24,1.06,6.66,1.04,10.04,0,.55.85.55.85,0,.02-3.45,0-6.95-1.07-10.26-.17-.52-.99-.3-.82.23h0Z"/>
      <path class="cls-10" d="m215.55,209.87c.85-2.41.85-5.01,1.49-7.47.14-.53-.68-.76-.82-.23-.64,2.46-.64,5.06-1.49,7.47-.18.52.64.74.82.23h0Z"/>
      <path class="cls-10" d="m216.22,207.52c.53-1.67.66-3.45.83-5.18.18-1.83.29-3.67.09-5.51-.06-.54-.91-.54-.85,0,.19,1.77.1,3.54-.07,5.3s-.28,3.5-.82,5.16c-.17.52.65.75.82.23h0Z"/>
      <path class="cls-7" d="m213.4,183.73c1,2.27,1.86,4.6,2.59,6.96.16.52.98.3.82-.23-.76-2.44-1.65-4.83-2.68-7.17-.22-.5-.95-.07-.73.43h0Z"/>
      <path class="cls-7" d="m213.34,183.57c.18.28.34.57.48.87.03.07.07.14.1.21.02.04.04.08.05.12-.04-.1,0,.03.02.05.06.15.12.31.17.47.07.21.3.37.52.3.21-.07.37-.3.3-.52-.23-.67-.53-1.32-.91-1.92-.12-.19-.38-.28-.58-.15s-.28.38-.15.58h0Z"/>
      <path class="cls-7" d="m216.95,196.14c.08,2.71-.04,5.43-.4,8.12s-1.01,5.06-1.81,7.57c-.17.52.65.75.82.23.41-1.27.87-2.53,1.17-3.83s.49-2.56.66-3.85c.36-2.73.49-5.48.41-8.23-.02-.55-.87-.55-.85,0h0Z"/>
      <path class="cls-7" d="m213.03,182.79c.48.98,1,1.95,1.55,2.9.28.47,1.01.04.73-.43-.55-.95-1.07-1.91-1.55-2.9-.1-.21-.39-.26-.58-.15-.21.12-.25.37-.15.58h0Z"/>
      <path class="cls-12" d="m191.14,195.79c-.12,1.17-.15,2.35-.11,3.53,0,.39.16.78.44,1.06.26.26.69.46,1.06.44s.79-.14,1.06-.44.45-.66.44-1.06c-.04-1.18,0-2.36.11-3.53.04-.36-.19-.81-.44-1.06s-.69-.46-1.06-.44-.79.14-1.06.44c-.28.31-.4.64-.44,1.06h0Z"/>
      <path class="cls-10" d="m191.71,193.22c-1.03,2.71-1.21,5.66-.67,8.49.15.77,1.12,1.28,1.85,1.05.82-.27,1.21-1.02,1.05-1.85-.04-.18-.07-.37-.1-.55-.06-.33,0,.21-.02-.15-.03-.32-.06-.65-.08-.97-.03-.6,0-1.21.04-1.81,0-.14.03-.28.04-.42q.02-.18,0-.02c0-.07.02-.14.03-.21.05-.3.11-.6.17-.89.15-.64.34-1.26.57-1.87.28-.73-.31-1.68-1.05-1.85-.86-.19-1.55.26-1.85,1.05h.02Z"/>
      <path class="cls-10" d="m190.78,196.51c-.23,4.45.56,8.9,2.3,13,1.81,4.28,4.72,7.8,7.85,11.19,1.31,1.42,3.43-.71,2.12-2.12-2.87-3.1-5.56-6.3-7.23-10.22s-2.25-7.79-2.04-11.84c.1-1.93-2.9-1.92-3,0h0Z"/>
      <path class="cls-10" d="m192.95,194.5c.39,3.89.96,7.76,1.71,11.6.16.8,1.11,1.25,1.85,1.05.83-.23,1.2-1.05,1.05-1.85-.7-3.58-1.24-7.18-1.61-10.8-.08-.81-.63-1.5-1.5-1.5-.75,0-1.58.69-1.5,1.5h0Z"/>
      <path class="cls-10" d="m190.81,195.87c-.71,3.06-.08,6.22.75,9.2s1.92,5.59,3.34,8.16,3.13,4.89,5.05,7.07c2.1,2.38,4.39,4.6,6.19,7.22,1.09,1.58,3.69.08,2.59-1.51-3.22-4.67-7.68-8.29-10.61-13.19-1.38-2.31-2.5-4.76-3.31-7.33-.87-2.75-1.78-5.94-1.11-8.82.44-1.88-2.46-2.68-2.89-.8h0Z"/>
      <path class="cls-10" d="m210.05,183.56c.29.32.57.65.83.99l-.23-.3c.32.42.62.85.9,1.3.2.33.52.59.9.69.2.06.4.07.6.03.2,0,.39-.07.56-.18.32-.21.6-.51.69-.9s.06-.81-.15-1.16c-.57-.92-1.24-1.79-1.97-2.59-.25-.28-.69-.44-1.06-.44s-.81.16-1.06.44-.46.66-.44,1.06.16.76.44,1.06h-.01Z"/>
      <path class="cls-10" d="m210.72,183.28c3.92,6.48,5.48,14.39,4.01,21.85-.75,3.8-2.35,7.2-4.15,10.6s-3.65,6.92-4.36,10.78c-.35,1.89,2.54,2.7,2.89.8.75-4.04,2.77-7.58,4.65-11.18s3.44-7.34,4.08-11.41c1.23-7.92-.37-16.1-4.52-22.96-1-1.65-3.59-.14-2.59,1.51h0Z"/>
      <path class="cls-10" d="m190.88,201.75c.07.74.25,1.45.54,2.13.02.05.09,0,.07-.04-.29-.66-.46-1.37-.53-2.09,0-.05-.09-.05-.09,0h0Z"/>
      <path class="cls-10" d="m190.93,201.77c-.15,1.16.48,2.23.62,3.36,0,.05.09.05.09,0-.14-1.13-.76-2.2-.62-3.36,0-.05-.08-.05-.09,0h0Z"/>
      <path class="cls-10" d="m190.88,201.99c.18,2.15.92,4.19,1.66,6.2.02.05.1.03.08-.02-.74-2-1.47-4.03-1.65-6.17,0-.05-.09-.05-.09,0h0Z"/>
      <path class="cls-10" d="m193.88,210.97c-.81-1.45-1.48-2.98-2-4.56-.25-.76-.47-1.54-.65-2.32-.19-.83-.49-1.81-.36-2.66,0-.05-.07-.08-.08-.02-.11.77.13,1.61.29,2.36.18.84.41,1.67.67,2.49.53,1.64,1.23,3.23,2.06,4.74.03.05.1,0,.07-.04h0Z"/>
      <path class="cls-10" d="m190.97,201.51c-.06.83.09,1.67.45,2.42.02.05.1,0,.07-.04-.35-.74-.51-1.56-.44-2.37,0-.05-.08-.05-.09,0h0Z"/>
      <path class="cls-10" d="m190.93,201.64c-.11.86.13,1.68.35,2.51s.41,1.62.66,2.42c.5,1.6,1.26,3.1,2.01,4.59.02.05.1,0,.07-.04-.75-1.48-1.51-2.98-2.01-4.57-.23-.74-.42-1.5-.61-2.25-.23-.87-.51-1.75-.39-2.66,0-.05-.08-.05-.09,0h0Z"/>
      <path class="cls-10" d="m193.91,211.07l-.97-1.8s-.1,0-.07.04c.38.81.79,1.6,1.26,2.36.03.05.1,0,.07-.04-.87-1.54-1.38-3.25-1.96-4.91-.29-.81-.59-1.62-.77-2.47s-.33-1.73-.5-2.59c0-.04-.07-.04-.08,0-.12.57-.05,1.1.2,1.62.02.04.09,0,.08-.03-.1-.33-.16-.66-.2-1.01-.04-.45-.03-.21.05.1.16.56.32,1.12.48,1.68,0,.05.1.03.08-.02-.21-.75-.43-1.49-.64-2.24,0-.05-.08-.04-.08,0,0,.32.03.64.09.95,0,.07.13.57.09.23-.03-.21-.11-.41-.13-.63,0-.02,0-.44,0-.45,0,0,.1.54.11.57.07.38.14.76.22,1.14.28,1.48.8,2.87,1.3,4.29.24.68.47,1.37.74,2.04.11.28.23.55.35.83.05.11.39.85.47.75.03-.04-.48-.84-.53-.93-.15-.29-.3-.58-.45-.87-.05-.11-.21-.38-.13-.12.05.17.18.33.26.49l.57,1.06s.1,0,.07-.04h.01Z"/>
      <path class="cls-8" d="m287.95,120.43c-2.19,1.5-3.91,3.54-5.57,5.59-1.66,2.05-3.18,4.26-3.83,6.84s-.59,5.29-.26,7.86c.31,2.43,1.1,4.69,2.79,6.5,1.32,1.41,3.44-.71,2.12-2.12s-1.85-3.4-2.02-5.33c-.19-2.14-.24-4.44.37-6.52s1.88-3.81,3.21-5.43c1.41-1.71,2.86-3.54,4.71-4.8,1.58-1.08.08-3.69-1.51-2.59h0Z"/>
      <path class="cls-8" d="m281.4,145.14c-2.76.28-5.38,1.44-7.23,3.55s-2.97,5.03-3.54,7.8c-1.16,5.61-.19,11.52,2.73,16.44.99,1.66,3.58.15,2.59-1.51-2.36-3.98-3.32-8.75-2.58-13.33s2.96-9.44,8.03-9.95c1.9-.19,1.92-3.2,0-3h0Z"/>
      <path class="cls-8" d="m273.79,171.5c-1.74.48-3.06,1.79-3.96,3.31-.4.68-.73,1.4-1.06,2.12-.43.95-.78,1.85-.86,2.9-.06.78.74,1.53,1.5,1.5.87-.04,1.43-.66,1.5-1.5.02-.22-.04-.03-.01.04-.02-.05.05-.24.06-.3.04-.16.08-.31.14-.47.03-.1.07-.19.1-.29.05-.15.03-.1-.01.02.06-.17.15-.34.23-.5.3-.65.59-1.29.95-1.91.08-.14.17-.28.25-.41.05-.08.11-.17.17-.25.02-.03.17-.25.06-.09s.03-.04.06-.07c.06-.07.12-.14.18-.21.1-.11.2-.21.31-.31.07-.06.13-.12.2-.18.03-.03.23-.17.06-.05s.04-.02.07-.04c.07-.05.15-.1.23-.15.05-.03.38-.17.38-.2,0,.05-.3.11,0,0,.09-.03.17-.05.26-.08.76-.21,1.3-1.07,1.05-1.85s-1.03-1.27-1.85-1.05h-.01Z"/>
      <path class="cls-8" d="m288.48,120.01c-2.65-.12-5.18.63-7.74,1.21-2.73.61-5.5,1.06-8.25,1.56-5.66,1.02-11.34,2-17.04,2.79-1.9.26-1.09,3.15.8,2.89,5.54-.77,11.06-1.71,16.56-2.7,2.62-.47,5.25-.92,7.86-1.46s5.13-1.4,7.81-1.28c1.93.08,1.93-2.92,0-3h0Z"/>
      <path class="cls-8" d="m282.42,145.1c-4.5-2.13-9.2-2.77-14-3.86s-9.62-2.66-14.47-3.85c-1.87-.46-2.67,2.43-.8,2.89,4.69,1.15,9.3,2.65,14,3.75s9.37,1.59,13.75,3.66c1.74.82,3.26-1.76,1.51-2.59h0Z"/>
      <path class="cls-8" d="m274.72,171.02c-8.59-7.79-17.52-15.19-26.75-22.2-1.54-1.17-3.03,1.44-1.51,2.59,9.02,6.86,17.74,14.12,26.14,21.74,1.43,1.29,3.56-.82,2.12-2.12h0Z"/>
      <path class="cls-8" d="m115.47,65.89c6.43,0,6.45-10,0-10s-6.45,10,0,10h0Z"/>
      <path class="cls-8" d="m137.88,49.99c6.43,0,6.45-10,0-10s-6.45,10,0,10h0Z"/>
      <path class="cls-8" d="m134.81,65.51c6.43,0,6.45-10,0-10s-6.45,10,0,10h0Z"/>
      <path class="cls-8" d="m125.05,51.66c1.93,0,1.93-3,0-3s-1.93,3,0,3h0Z"/>
      <path class="cls-8" d="m127.35,71.39c1.93,0,1.93-3,0-3s-1.93,3,0,3h0Z"/>
      <path class="cls-8" d="m148.41,57.22c1.93,0,1.93-3,0-3s-1.93,3,0,3h0Z"/>
      <path class="cls-8" d="m156.07,45.92c1.93,0,1.93-3,0-3s-1.93,3,0,3h0Z"/>
      <path class="cls-11" d="m204.8,180.99c3.27,5.49,6.02,11.68,5.77,18.2s-3.92,12-4.59,18.33c-.2,1.92,2.8,1.9,3,0,.35-3.34,1.64-6.49,2.73-9.64s1.88-6.26,1.87-9.56c0-6.74-2.81-13.15-6.19-18.84-.99-1.66-3.58-.15-2.59,1.51h0Z"/>
      <path class="cls-11" d="m173.16,203.98c.05,3.18-1.61,5.97-3.17,8.62-1.73,2.96-3.53,5.88-5.37,8.77-1.04,1.63,1.55,3.14,2.59,1.51,1.97-3.08,3.88-6.2,5.72-9.36,1.7-2.94,3.29-6.07,3.23-9.55-.03-1.93-3.03-1.93-3,0h0Z"/>
    </g>
  </g>
</svg>