<?xml version="1.0" encoding="UTF-8"?>
<svg id="Layer_1" data-name="Layer 1" xmlns="http://www.w3.org/2000/svg" viewBox="0 0 1034.85 811.66">
  <defs>
    <style>
      .cls-1, .cls-2, .cls-3, .cls-4, .cls-5 {
        stroke-linecap: round;
        stroke-linejoin: round;
      }

      .cls-1, .cls-2, .cls-3, .cls-6 {
        stroke: #000;
      }

      .cls-7, .cls-8, .cls-9 {
        stroke-width: 0px;
      }

      .cls-7, .cls-4 {
        fill: #157eff;
      }

      .cls-2, .cls-6 {
        fill: #fff;
      }

      .cls-9, .cls-5 {
        fill: none;
      }

      .cls-3 {
        fill: #19007f;
      }

      .cls-4, .cls-5 {
        stroke: #157eff;
      }

      .cls-6 {
        stroke-miterlimit: 10;
        stroke-width: 8.5px;
      }
    </style>
  </defs>
  <path class="cls-6" d="m474.51,534.81l.6-242.04c0-1.95,1.6-3.51,3.55-3.48l320.92,5.02c1.95.03,3.49,1.65,3.43,3.6l-1.11,36.87c-.06,1.92,1.44,3.52,3.36,3.59l26.68,1.02c2.15.08,3.72,2.07,3.29,4.18l-20.3,100.04c-.43,2.14,1.19,4.15,3.37,4.18l162.57,2.27c1.85.03,3.36,1.49,3.44,3.34l1.67,39.23c.08,1.99-1.51,3.65-3.5,3.64l-249.44-1.19c-1.36,0-2.6.78-3.18,2.02l-18.62,39.95c-.57,1.23-1.81,2.02-3.18,2.02l-230.05-.75c-1.93,0-3.48-1.57-3.48-3.5Z"/>
  <g>
    <path class="cls-8" d="m123.24,516.54c6.39,33.12,12.79,66.22,19.18,99.34,10.1,52.35,20.23,104.73,30.34,157.08,2.31,11.98,4.64,23.97,6.95,35.95.3,1.6,2.08,2.78,3.64,2.76,6.17-.05,12.36-.1,18.53-.13l50.21-.41c24.68-.19,49.36-.38,74.02-.57,30.23-.24,60.46-.49,90.69-.71,33.13-.27,66.24-.52,99.37-.79,33.28-.27,66.56-.52,99.85-.79,31.18-.24,62.36-.49,93.55-.73h79.04s37.88-.75,56.81-.88c8.93-.08,26.83-.12,26.83-.12h1.01c1.28,0,2.66-.7,3.26-1.85,5.24-10.22,10.45-20.45,15.68-30.64,12.55-24.53,25.11-49.08,37.68-73.61,15.21-29.69,30.39-59.38,45.6-89.1,13.15-25.68,26.28-51.36,39.44-77.05,6.36-12.4,13.66-24.73,19.22-37.53.08-.18.18-.35.28-.55,1.28-2.51-.28-5.66-3.26-5.66h-120.37v8h15.41c5.12,0,5.15-8,0-8h-15.41c-5.12,0-5.15,8,0,8h120.08l-3.25-5.64c-5.22,10.19-10.41,20.37-15.63,30.53l-37.55,73.35c-15.15,29.58-30.28,59.17-45.44,88.77-13.11,25.59-26.19,51.18-39.29,76.77l-12.96,25.34c-1.87,3.64-5.19,8.04-6.17,12.06-.05.17-.2.37-.27.55l3.25-1.85c-6.14.05-12.31.1-18.45.12l-50.45.41c-24.68.19-49.36.38-74.02.57-30.23.24-60.46.49-90.69.71-33.13.27-66.24.52-99.37.79-33.28.27-66.56.52-99.85.79-31.18.24-62.36.49-93.55.73l-78.32.59c-19.41.13-38.84.28-58.25.41l-16.89.13c-2.98,0-6.21-.3-9.16.08-.38.05-.8,0-1.18,0l3.63,2.75c-6.38-33.07-12.77-66.12-19.15-99.2-10.09-52.28-20.2-104.58-30.29-156.86-2.3-11.97-4.63-23.94-6.94-35.9-.93-4.73-8.16-2.73-7.24,2h-.14Z"/>
    <path class="cls-8" d="m10.6,220.21c7.65,8.4,15.3,16.78,22.98,25.18,18.38,20.15,36.76,40.31,55.14,60.46,22.15,24.28,44.31,48.59,66.44,72.87,19.15,21,38.28,41.98,57.44,62.99,9.28,10.18,18.2,20.93,27.96,30.66.15.15.28.3.4.45,3.25,3.58,8.55-1.75,5.3-5.3-7.65-8.4-15.3-16.78-22.98-25.18-18.38-20.15-36.76-40.31-55.14-60.46l-66.44-72.87c-19.15-21-38.28-41.98-57.44-62.99-9.28-10.18-18.2-20.93-27.96-30.66-.15-.15-.28-.3-.4-.45-3.25-3.58-8.55,1.75-5.3,5.3h0Z"/>
    <path class="cls-8" d="m10,223.46c6.65,9.28,13.3,18.53,19.98,27.81,15.93,22.15,31.83,44.33,47.76,66.49,19.25,26.81,38.48,53.61,57.74,80.39,16.68,23.23,33.36,46.46,50.04,69.69,8.05,11.23,16,22.53,24.18,33.66.13.15.23.33.35.48,2.8,3.88,9.3.15,6.48-3.78-6.65-9.28-13.3-18.53-19.98-27.81-15.93-22.15-31.83-44.33-47.76-66.49-19.25-26.81-38.48-53.61-57.74-80.39-16.68-23.23-33.36-46.46-50.04-69.69-8.05-11.23-16-22.53-24.18-33.66-.13-.15-.23-.33-.35-.48-2.8-3.88-9.3-.15-6.48,3.78h0Z"/>
    <path class="cls-8" d="m212.47,516.54c-.02-.23-.3-1.45-.08-.38-.05-.28-.08-.55-.1-.83-.08-.65-.1-1.3-.13-1.95-.05-1.2,0-2.43.1-3.63,0-.28.05-.55.08-.83.08-.8-.13.75.02-.25.1-.6.2-1.2.33-1.78.28-1.28.65-2.53,1.08-3.75.65-1.85-.75-4.18-2.63-4.63-2.1-.48-3.9.63-4.63,2.63-1.98,5.58-2.33,11.55-1.33,17.38.33,1.95,2.83,3.2,4.63,2.63,2.1-.68,2.98-2.53,2.63-4.63h.03Z"/>
    <path class="cls-8" d="m239.52,469.94c.33-.43-.38.33-.45.4-.65.63.3-.1-.48.35-.35.2-.68.4-1.03.58-.1.05-1.05.48-.55.28-1.38.58-2.8.98-4.2,1.48-3.2,1.13-6.23,2.65-8.93,4.7-5.58,4.2-9.7,9.78-12,16.38-.68,1.93.75,4.1,2.63,4.63,2.08.58,3.95-.7,4.63-2.63.5-1.43.85-2.28,1.68-3.75.35-.65.75-1.3,1.15-1.93.23-.35.45-.68.7-1,0,0,.68-.88.4-.55,1.88-2.38,4.08-4.38,6.3-5.85,2.73-1.78,4.78-2.53,7.78-3.55,3.55-1.2,6.58-2.7,8.9-5.73,1.23-1.6.25-4.2-1.35-5.13-1.93-1.13-3.9-.28-5.13,1.35h0l-.05-.03Z"/>
    <path class="cls-8" d="m210.77,499.22c-2.7,5.3-3.95,10.89-3.48,16.83.15,2.03,1.6,3.66,3.75,3.71,32.71.59,65.44,1.51,98.15,1.78,9.85.07,19.7,0,29.53,0l-3.63-2.72c1.98,7.33,3.98,14.67,5.95,22,.43,1.58,1.98,2.72,3.63,2.72h353.55c4.73,0,9.63.35,14.35,0h.6c1.23,0,2.7-.69,3.25-1.83,6.83-14.67,13.68-29.33,20.5-44l-3.25,1.83h295.58c4.83,0,4.83-7,0-7h-295.58c-1.23,0-2.7.69-3.25,1.83-6.83,14.67-13.68,29.33-20.5,44l3.25-1.83h-353.55c-4.53,0-9.85-.77-14.35,0-.2.02-.43,0-.6,0l3.63,2.72c-1.98-7.33-3.98-14.67-5.95-22-.43-1.58-1.98-2.72-3.63-2.72-35.98,0-71.94-.77-107.9-1.41-6.6-.12-13.2-.25-19.78-.37l3.75,3.71c-.38-4.63.35-8.91,2.45-13.07s-4.3-8.02-6.48-3.74v-.45Z"/>
    <path class="cls-8" d="m6.7,226.69c-.75,13.15-.08,26.26,1.8,39.28.3,2,2.83,3.1,4.63,2.63,2.15-.6,2.9-2.6,2.63-4.63-1.78-12.33-2.25-24.86-1.55-37.28.28-4.83-7.23-4.8-7.5,0h0Z"/>
    <path class="cls-8" d="m7.07,265.2c-4.8,3.75-7.33,10.2-7.05,16.2s4.45,16.9,12.38,13.58c2.03-.85,3.65-2.65,4.5-4.63.45-1.03.8-2.05,1.13-3.1.08-.25.18-.48.25-.73.05-.18.23-.53.05-.18.2-.48.48-.9.78-1.3,1.15-1.6.33-4.25-1.35-5.13-1.93-1.03-3.93-.38-5.13,1.35-1.15,1.6-1.73,3.6-2.3,5.48l-.13.38c.13-.3.13-.25-.08.13-.03.05-.63.93-.2.4-.15.18-.33.35-.5.5.28-.18.3-.2.08-.08-.25.13-.18.13.15,0-.43.13-.4.13.05.05.18,0,.35.05.48.15.23.13.18.1-.18-.1.65.68-.58-.75-.18-.28.25.28-.38-.55-.45-.65-.18-.28-.33-.53-.48-.8-.18-.33-.3-.68-.5-.98-.1-.25-.1-.2.08.18-.08-.2-.15-.4-.23-.58-.23-.65-.4-1.3-.55-1.95-.05-.2-.2-1.33-.1-.4-.03-.3-.08-.63-.08-.95-.05-.73-.05-1.48,0-2.2,0-.33.05-.63.08-.95-.1.9,0-.05.05-.25.15-.73.33-1.43.55-2.13.1-.3.2-.6.33-.88-.33.85.18-.38.28-.53.28-.55.6-1.1.95-1.63.13-.18.23-.35.35-.5-.25.3-.28.35-.1.15.25-.25.48-.55.73-.83.5-.53,1.05-1.03,1.63-1.48,1.55-1.23,1.38-4.05,0-5.3-1.65-1.5-3.65-1.3-5.3,0h0l.02-.07Z"/>
    <path class="cls-8" d="m12.77,267.52c-1.3-17.03-.98-34.13.98-51.09.23-2.03-1.9-3.73-3.75-3.75-2.23,0-3.53,1.75-3.75,3.75-1.95,16.95-2.28,34.06-.98,51.09.38,4.78,7.88,4.83,7.5,0h0Z"/>
    <path class="cls-8" d="m10.27,212.28c-1.18,6.53,4.9,8.88,10.18,10,7.33,1.55,14.68,3,22.03,4.38,14.93,2.78,29.91,5.23,44.93,7.28,29.81,4.1,59.79,6.85,89.84,8.15,30.06,1.3,60.31,1.18,90.42-.4,30.11-1.58,59.76-5,88.99-12.68,32.11-8.43,63.11-20.43,94.02-32.41,4.45-1.73,2.53-8.98-2-7.23-26.51,10.28-53.09,20.55-80.37,28.58-27.28,8.03-55.14,13.13-83.62,15.18-57.94,4.15-116.3,2.8-174.01-3.75-16.15-1.83-32.26-4.1-48.29-6.78-7.98-1.33-15.95-2.78-23.91-4.3-3.98-.78-7.95-1.55-11.9-2.38-1.98-.4-3.98-.8-5.95-1.25-.58-.13-1.15-.23-1.7-.43-.93-.33-1.28-1.08-1.48.05.85-4.73-6.38-6.75-7.23-2h0l.03-.02Z"/>
    <path class="cls-8" d="m458.77,192.98v299.04c0,13.75-.53,27.61,0,41.36v.6c0,4.83,8,4.83,8,0V234.94c0-13.75.53-27.61,0-41.36v-.6c0-4.83-8-4.83-8,0h0Z"/>
    <path class="cls-8" d="m451.94,191.98c-1.63,11.58-3.25,23.18-4.85,34.76-3.85,27.61-7.73,55.21-11.58,82.82-4.65,33.36-9.33,66.71-13.98,100.1l-12.13,86.79c-1.95,14.05-3.95,28.08-5.88,42.13-.02.2-.05.38-.08.58-.28,2.03.5,4,2.63,4.63,1.75.5,4.33-.63,4.63-2.63,1.63-11.58,3.25-23.18,4.85-34.76,3.85-27.61,7.73-55.21,11.58-82.82,4.65-33.36,9.33-66.71,13.98-100.1,4.05-28.93,8.08-57.86,12.13-86.79,1.95-14.05,3.95-28.08,5.88-42.13.02-.2.05-.38.08-.58.28-2.03-.5-4-2.63-4.63-1.75-.5-4.33.63-4.63,2.63h0Z"/>
    <rect class="cls-1" x="441.27" y="178.04" width="40" height="15"/>
    <polygon class="cls-1" points="455.27 1.6 468.27 .5 468.27 178.04 455.27 178.04 455.27 1.6"/>
    <rect class="cls-3" x="601.27" y="361.04" width="68" height="83"/>
    <polygon class="cls-3" points="688.27 361.04 688.27 447.04 775.62 447.04 793.43 361.04 688.27 361.04"/>
    <path class="cls-8" d="m989.77,495.31v-15.68c0-2.08-1.84-4.11-4-4s-4,1.76-4,4v15.68c0,2.08,1.84,4.11,4,4s4-1.76,4-4h0Z"/>
    <path class="cls-7" d="m480.07,532.54h202.67c9.21,0,18.54.42,27.75,0h.4c1.81,0,2.95-1.19,3.59-2.72,5.62-13.67,11.24-27.33,16.86-41l-3.59,2.72h219.32c10.77,0,21.65.45,32.43,0h.45c5.15,0,5.15-8,0-8h-221.42c-10,0-20.1-.42-30.11,0h-.42c-1.81,0-2.95,1.19-3.59,2.72-5.62,13.67-11.24,27.33-16.86,41l3.59-2.72h-200.76c-9.92,0-19.97-.45-29.89,0h-.43c-5.15,0-5.15,8,0,8h0Z"/>
    <path class="cls-7" d="m480.25,537.54h225.6c4.83,0,4.83-8,0-8h-225.6c-4.83,0-4.83,8,0,8h0Z"/>
    <path class="cls-7" d="m708.52,535.6c4.83,0,4.83-7.5,0-7.5s-4.83,7.5,0,7.5h0Z"/>
    <path class="cls-7" d="m708.52,536.4c4.83,0,4.83-7.5,0-7.5s-4.83,7.5,0,7.5h0Z"/>
    <path class="cls-7" d="m708.85,536.4c4.83,0,4.83-7.5,0-7.5s-4.83,7.5,0,7.5h0Z"/>
    <path class="cls-7" d="m709,537.31c4.83,0,4.83-7.5,0-7.5s-4.83,7.5,0,7.5h0Z"/>
    <path class="cls-7" d="m722.77,484.94c-4.05,7.08-6.25,15.28-9.4,22.8-1.6,3.83-3.3,7.63-5.05,11.38s-3.58,7.2-4.65,11.08c-1.33,4.65,5.93,6.63,7.23,2,1.08-3.78,2.98-7.25,4.6-10.8s3.23-7.23,4.78-10.88,2.98-7.25,4.38-10.9,2.63-7.43,4.6-10.88c2.4-4.2-4.08-7.98-6.48-3.78h0v-.02Z"/>
    <polyline class="cls-5" points="710.9 535.1 732 490.04 788.39 490.04 810.27 490.04"/>
    <polygon class="cls-4" points="480.27 337.04 797.77 338.85 798.44 325.04 480.27 325.04 480.27 337.04"/>
    <polygon class="cls-2" points="183.19 808.04 873.33 803.03 1025.15 500.04 733.9 495.59 713.4 540.04 345.07 540.04 132.75 543.27 183.19 808.04"/>
    <g>
      <polyline class="cls-8" points="268.34 470.11 250.92 468.45 248.82 419.54 233.85 419.54 234.77 408.54 278.77 408.54 278.77 419.54 263.77 418.54 263.77 463.54"/>
      <path class="cls-8" d="m267.85,468.09c-5.83-.58-11.63-1.13-17.45-1.7l3.75,3.75-2.1-50.04c-.08-2.03-3.75-3.57-3.75-3.57h-14.71l3.74,4c.3-4,.62-8,.92-12l-3.74,4h44l-3.74-4v12l3.74-4c-4.99-.37-10.01-.75-15-1.09-2.02-.16-3.74,1.95-3.74,4v45.43c0,5.15,8,5.15,8,0v-45.8l-4.5,3.75c5,.35,10.03.7,15.03,1.03,2.03.15,3.75-1.83,3.47-3.75v-11.25c.28-2.03-1.44-3.75-3.47-4.31h-44.08c-2.15.56-3.58,2.29-3.75,4.31-.3,3.75-.63,7.5-.93,11.25-.18,2.03,3.75,3.43,3.75,3.43h15l-3.75-3.43,2.1,50.04c.1,2.18,1.65,3.55,3.75,3.75,5.83.58,11.63,1.13,17.45,1.7,4.8.48,4.78-7.03,0-7.5h0Z"/>
    </g>
    <path class="cls-8" d="m213.39,510.07c2.08-4.03,4.15-8.05,6.23-12.08l4.25-8.25c.43-.8,2.38-3.43,2.25-4.35.15,1.03-2.28,1.7-.48.8.93-.45,1.8-1.03,2.68-1.53l8.1-4.63,8.1-4.63c.8-.48,1.65-.9,2.45-1.4.2-.13.6-.25.78-.45.75-.85-1.23.7-1.55.33.48.55,3.78.43,4.45.5l9.28,1.03,9.43,1.03c1.65.18,4.2.98,5.85.65.8-.15-1.88-1.13-1.18-.2.53.68,1.73,1.23,2.4,1.73l7.85,5.58c1.98,1.4,4,3.28,6.15,4.38,1.38.7-1.03-1.58-.7-.73.35.9,1.13,1.78,1.65,2.58l5.68,8.93c.43.65.95,2.05,1.6,2.5.02,0-.1-2.23-.43-1.3-.2.58,0,1.55,0,2.15,0,2.5-.85,7,.5,9.28,1.28,2.15,4.33,3.75,6.25,5.3,2.63,2.1,7.6.28,6.28-3.65-3.93-11.53-8.6-23.21-17.18-32.11-8.58-8.9-19.15-13.6-30.81-15.13-2.03-.28-3.73,1.93-3.75,3.75,0,2.25,1.75,3.48,3.75,3.75,9.98,1.33,19.38,6.28,26.18,13.65,7.25,7.85,11.18,18.1,14.58,28.06l6.28-3.65-5.68-4.53,1.1,2.65c0-3.9,1.05-9.23-1.03-12.68-2.7-4.5-5.53-9.03-8.5-13.38-.9-1.3-2.15-2.08-3.43-2.98l-7.25-5.15c-3.13-2.23-6.68-5.9-10.63-6.35-5.2-.6-10.43-1.15-15.65-1.73-4.2-.45-8.88-1.63-13.13-1.45-1.58.08-3,1.13-4.33,1.9l-7.35,4.2c-4.38,2.5-9.15,4.75-13.3,7.6-1.45,1-1.93,2.23-2.7,3.73l-4.35,8.43c-2.4,4.68-4.8,9.35-7.2,14-2.2,4.28,4.28,8.08,6.48,3.78h0l.02.07Z"/>
    <polygon class="cls-1" points="213.29 512.17 303.61 515.67 292.78 485.24 255.8 471.41 239.77 475.89 229.12 483.04 222.87 483.04 213.29 512.17"/>
    <path class="cls-8" d="m205.14,512.54h-72.37c-4.83,0-4.83,7.95,0,8,23.18.21,46.36.43,69.54.64,36.96.35,73.94.69,110.9,1.04,8.53.08,17.05.16,25.56.24l-3.63-2.93,5.95,23.71,3.63-5.07c-23.96.4-47.91.77-71.87,1.17-37.93.61-75.89,1.23-113.82,1.84-8.75.13-17.5.29-26.28.43-4.83.08-4.83,8.08,0,8,23.96-.4,47.91-.77,71.87-1.17,37.93-.61,75.89-1.23,113.82-1.84,8.75-.13,17.5-.29,26.28-.43,2.45-.03,4.25-2.53,3.63-5.07l-5.95-23.71c-.43-1.71-1.98-2.93-3.63-2.93-23.18-.21-46.36-.43-69.54-.64-36.96-.35-73.94-.69-110.9-1.04-8.53-.08-17.05-.16-25.56-.24v8h72.37c4.83,0,4.83-8,0-8h0Z"/>
    <rect class="cls-1" x="133.27" y="515.04" width="213" height="25"/>
  </g>
  <line class="cls-9" x1="474.77" y1="288.54" x2="798.77" y2="291.54"/>
  <line class="cls-9" x1="985.77" y1="484.54" x2="981.77" y2="448.54"/>
  <line class="cls-9" x1="989.77" y1="479.54" x2="721.77" y2="476.54"/>
  <line class="cls-9" x1="722.77" y1="481.54" x2="703.77" y2="524.54"/>
  <line class="cls-9" x1="476.77" y1="521.54" x2="703.77" y2="524.54"/>
</svg>