<?xml version="1.0" encoding="UTF-8"?>
<svg id="Layer_3" data-name="Layer 3" xmlns="http://www.w3.org/2000/svg" viewBox="0 0 519.83 518.95">
  <defs>
    <style>
      .cls-1, .cls-2, .cls-3 {
        stroke: #000;
      }

      .cls-1, .cls-2, .cls-3, .cls-4, .cls-5 {
        stroke-linecap: round;
        stroke-linejoin: round;
      }

      .cls-6, .cls-7 {
        stroke-width: 0px;
      }

      .cls-6, .cls-4 {
        fill: #157eff;
      }

      .cls-2 {
        fill: #fff;
      }

      .cls-3 {
        fill: #19007f;
      }

      .cls-4, .cls-5 {
        stroke: #157eff;
      }

      .cls-5 {
        fill: none;
      }
    </style>
  </defs>
  <path class="cls-7" d="m94.53,270.29c2.55,13.21,5.1,26.41,7.65,39.62,4.03,20.88,8.07,41.77,12.1,62.65.92,4.78,1.85,9.56,2.77,14.34.12.64.83,1.11,1.45,1.1,2.46-.02,4.93-.04,7.39-.05l20.12-.15c9.87-.07,19.74-.14,29.6-.21,12.09-.09,24.18-.18,36.27-.26,13.25-.1,26.49-.19,39.74-.29,13.31-.1,26.62-.19,39.93-.29,12.47-.09,24.94-.18,37.41-.27l31.61-.23c7.57-.05,15.15-.11,22.72-.16,3.57-.03,7.16.04,10.73-.08.16,0,.31,0,.47,0,.51,0,1.06-.28,1.3-.74,2.09-4.08,4.17-8.16,6.26-12.23,5.01-9.79,10.02-19.59,15.04-29.38,6.07-11.85,12.13-23.7,18.2-35.56,5.25-10.25,10.49-20.5,15.74-30.75,2.54-4.95,5.45-9.87,7.67-14.98.03-.07.07-.14.11-.22.51-1-.11-2.26-1.3-2.26-16,0-32,0-48,0v3c1.93,0,3.86,0,5.78,0s1.93-3,0-3-3.86,0-5.78,0-1.93,3,0,3c16,0,32,0,48,0l-1.3-2.26c-2.09,4.08-4.17,8.16-6.26,12.23l-15.04,29.38c-6.07,11.85-12.13,23.7-18.2,35.56-5.25,10.25-10.49,20.5-15.74,30.75l-5.19,10.15c-.75,1.46-2.08,3.22-2.47,4.83-.02.07-.08.15-.11.22l1.3-.74c-2.46.02-4.93.04-7.39.05l-20.12.15c-9.87.07-19.74.14-29.6.21-12.09.09-24.18.18-36.27.26-13.25.1-26.49.19-39.74.29-13.31.1-26.62.19-39.93.29-12.47.09-24.94.18-37.41.27l-31.61.23c-7.57.05-15.15.11-22.72.16l-7.06.05c-1.19,0-2.48-.12-3.66.03-.15.02-.32,0-.47,0l1.45,1.1c-2.55-13.21-5.1-26.41-7.65-39.62-4.03-20.88-8.07-41.77-12.1-62.65-.92-4.78-1.85-9.56-2.77-14.34-.37-1.89-3.26-1.09-2.89.8h0Z"/>
  <path class="cls-7" d="m49.44,151.56c3.06,3.36,6.12,6.71,9.19,10.07,7.35,8.06,14.7,16.12,22.05,24.18,8.86,9.71,17.72,19.43,26.57,29.14,7.66,8.4,15.31,16.79,22.97,25.19,3.71,4.07,7.28,8.37,11.18,12.26.06.06.11.12.16.18,1.3,1.43,3.42-.7,2.12-2.12-3.06-3.36-6.12-6.71-9.19-10.07-7.35-8.06-14.7-16.12-22.05-24.18l-26.57-29.14c-7.66-8.4-15.31-16.79-22.97-25.19-3.71-4.07-7.28-8.37-11.18-12.26-.06-.06-.11-.12-.16-.18-1.3-1.43-3.42.7-2.12,2.12h0Z"/>
  <path class="cls-7" d="m49.2,152.86c2.66,3.71,5.32,7.41,7.99,11.12,6.37,8.86,12.73,17.73,19.1,26.59,7.7,10.72,15.39,21.44,23.09,32.15,6.67,9.29,13.34,18.58,20.01,27.87,3.22,4.49,6.4,9.01,9.67,13.46.05.06.09.13.14.19,1.12,1.55,3.72.06,2.59-1.51-2.66-3.71-5.32-7.41-7.99-11.12-6.37-8.86-12.73-17.73-19.1-26.59-7.7-10.72-15.39-21.44-23.09-32.15-6.67-9.29-13.34-18.58-20.01-27.87-3.22-4.49-6.4-9.01-9.67-13.46-.05-.06-.09-.13-.14-.19-1.12-1.55-3.72-.06-2.59,1.51h0Z"/>
  <path class="cls-7" d="m130.17,270.16c-.01-.09-.12-.58-.03-.15-.02-.11-.03-.22-.04-.33-.03-.26-.04-.52-.05-.78-.02-.48,0-.97.04-1.45,0-.11.02-.22.03-.33.03-.32-.05.3.01-.1.04-.24.08-.48.13-.71.11-.51.26-1.01.43-1.5.26-.74-.3-1.67-1.05-1.85-.84-.19-1.56.25-1.85,1.05-.79,2.23-.93,4.62-.53,6.95.13.78,1.13,1.28,1.85,1.05.84-.27,1.19-1.01,1.05-1.85h0Z"/>
  <path class="cls-7" d="m140.99,251.43c.13-.17-.15.13-.18.16-.26.25.12-.04-.19.14-.14.08-.27.16-.41.23-.04.02-.42.19-.22.11-.55.23-1.12.39-1.68.59-1.28.45-2.49,1.06-3.57,1.88-2.23,1.68-3.88,3.91-4.8,6.55-.27.77.3,1.64,1.05,1.85.83.23,1.58-.28,1.85-1.05.2-.57.34-.91.67-1.5.14-.26.3-.52.46-.77.09-.14.18-.27.28-.4,0,0,.27-.35.16-.22.75-.95,1.63-1.75,2.52-2.34,1.09-.71,1.91-1.01,3.11-1.42,1.42-.48,2.63-1.08,3.56-2.29.49-.64.1-1.68-.54-2.05-.77-.45-1.56-.11-2.05.54h0Z"/>
  <path class="cls-7" d="m129.57,263.1c-1.08,2.14-1.58,4.4-1.39,6.8.06.82.64,1.48,1.5,1.5,13.08.24,26.17.61,39.25.72,3.94.03,7.88,0,11.81,0l-1.45-1.1c.79,2.96,1.59,5.93,2.38,8.89.17.64.79,1.1,1.45,1.1h141.39c1.89,0,3.85.14,5.74,0,.08,0,.16,0,.24,0,.49,0,1.08-.28,1.3-.74,2.73-5.93,5.47-11.85,8.2-17.78l-1.3.74c30.67,0,61.35,0,92.02,0,8.7,0,17.4,0,26.11,0,1.93,0,1.93-3,0-3-30.67,0-61.35,0-92.02,0-8.7,0-17.4,0-26.11,0-.49,0-1.08.28-1.3.74-2.73,5.93-5.47,11.85-8.2,17.78l1.3-.74h-141.39c-1.81,0-3.94-.31-5.74,0-.08.01-.17,0-.24,0l1.45,1.1c-.79-2.96-1.59-5.93-2.38-8.89-.17-.64-.79-1.1-1.45-1.1-14.39,0-28.77-.31-43.15-.57-2.64-.05-5.28-.1-7.91-.15l1.5,1.5c-.15-1.87.14-3.6.98-5.28s-1.72-3.24-2.59-1.51h0Z"/>
  <path class="cls-7" d="m47.88,154.15c-.3,5.26-.03,10.5.72,15.71.12.8,1.13,1.24,1.85,1.05.86-.24,1.16-1.04,1.05-1.85-.71-4.93-.9-9.94-.62-14.91.11-1.93-2.89-1.92-3,0h0Z"/>
  <path class="cls-7" d="m48.03,169.55c-1.92,1.5-2.93,4.08-2.82,6.48s1.78,6.76,4.95,5.43c.81-.34,1.46-1.06,1.8-1.85.18-.41.32-.82.45-1.24.03-.1.07-.19.1-.29.02-.07.09-.21.02-.07.08-.19.19-.36.31-.52.46-.64.13-1.7-.54-2.05-.77-.41-1.57-.15-2.05.54-.46.64-.69,1.44-.92,2.19l-.05.15c.05-.12.05-.1-.03.05-.01.02-.25.37-.08.16-.06.07-.13.14-.2.2.11-.07.12-.08.03-.03-.1.05-.07.05.06,0-.17.05-.16.05.02.02.07,0,.14.02.19.06.09.05.07.04-.07-.04.26.27-.23-.3-.07-.11.1.11-.15-.22-.18-.26-.07-.11-.13-.21-.19-.32-.07-.13-.12-.27-.2-.39-.04-.1-.04-.08.03.07-.03-.08-.06-.16-.09-.23-.09-.26-.16-.52-.22-.78-.02-.08-.08-.53-.04-.16-.01-.12-.03-.25-.03-.38-.02-.29-.02-.59,0-.88,0-.13.02-.25.03-.38-.04.36,0-.02.02-.1.06-.29.13-.57.22-.85.04-.12.08-.24.13-.35-.13.34.07-.15.11-.21.11-.22.24-.44.38-.65.05-.07.09-.14.14-.2-.1.12-.11.14-.04.06.1-.1.19-.22.29-.33.2-.21.42-.41.65-.59.62-.49.55-1.62,0-2.12-.66-.6-1.46-.52-2.12,0h0Z"/>
  <path class="cls-7" d="m50.31,170.48c-.52-6.81-.39-13.65.39-20.43.09-.81-.76-1.49-1.5-1.5-.89,0-1.41.7-1.5,1.5-.78,6.78-.91,13.62-.39,20.43.15,1.91,3.15,1.93,3,0h0Z"/>
  <path class="cls-7" d="m49.31,148.39c-.47,2.61,1.96,3.55,4.07,4,2.93.62,5.87,1.2,8.81,1.75,5.97,1.11,11.96,2.09,17.97,2.91,11.92,1.64,23.91,2.74,35.93,3.26s24.12.47,36.16-.16,23.9-2,35.59-5.07c12.84-3.37,25.24-8.17,37.6-12.96,1.78-.69,1.01-3.59-.8-2.89-10.6,4.11-21.23,8.22-32.14,11.43s-22.05,5.25-33.44,6.07c-23.17,1.66-46.51,1.12-69.59-1.5-6.46-.73-12.9-1.64-19.31-2.71-3.19-.53-6.38-1.11-9.56-1.72-1.59-.31-3.18-.62-4.76-.95-.79-.16-1.59-.32-2.38-.5-.23-.05-.46-.09-.68-.17-.37-.13-.51-.43-.59.02.34-1.89-2.55-2.7-2.89-.8h0Z"/>
  <path class="cls-7" d="m228.61,140.67v119.59c0,5.5-.2,11.04,0,16.54,0,.08,0,.16,0,.24,0,1.93,3,1.93,3,0v-119.59c0-5.5.2-11.04,0-16.54,0-.08,0-.16,0-.24,0-1.93-3-1.93-3,0h0Z"/>
  <path class="cls-7" d="m225.94,140.27c-.65,4.63-1.3,9.27-1.94,13.9-1.54,11.04-3.09,22.08-4.63,33.12-1.86,13.34-3.73,26.68-5.59,40.03l-4.85,34.71c-.78,5.62-1.58,11.23-2.35,16.85-.01.08-.02.15-.03.23-.11.81.2,1.6,1.05,1.85.7.2,1.73-.25,1.85-1.05.65-4.63,1.3-9.27,1.94-13.9,1.54-11.04,3.09-22.08,4.63-33.12,1.86-13.34,3.73-26.68,5.59-40.03,1.62-11.57,3.23-23.14,4.85-34.71.78-5.62,1.58-11.23,2.35-16.85.01-.08.02-.15.03-.23.11-.81-.2-1.6-1.05-1.85-.7-.2-1.73.25-1.85,1.05h0Z"/>
  <rect class="cls-1" x="221.5" y="134.5" width="16" height="6"/>
  <polygon class="cls-1" points="227.38 63.94 232.5 63.5 232.5 134.5 227.38 134.5 227.38 63.94"/>
  <path class="cls-7" d="m233.71,180.36c0,25.72,0,51.44,0,77.16,0,7.3,0,14.6,0,21.9,0,1.93,3,1.93,3,0,0-25.72,0-51.44,0-77.16v-21.9c0-1.93-3-1.93-3,0h0Z"/>
  <path class="cls-7" d="m235.54,180.85c10.78-.24,21.57-.48,32.35-.71,1.93-.04,1.93-3.04,0-3-10.78.24-21.57.48-32.35.71-1.93.04-1.93,3.04,0,3h0Z"/>
  <path class="cls-7" d="m268.92,180.15c25.3.51,50.6,1.03,75.9,1.54,7.16.15,14.31.29,21.47.44,1.93.04,1.93-2.96,0-3-25.3-.51-50.6-1.03-75.9-1.54-7.16-.15-14.31-.29-21.47-.44-1.93-.04-1.93,2.96,0,3h0Z"/>
  <path class="cls-7" d="m364.44,182.06v9.53c0,.78.69,1.54,1.5,1.5s1.5-.66,1.5-1.5v-9.53c0-.78-.69-1.54-1.5-1.5s-1.5.66-1.5,1.5h0Z"/>
  <path class="cls-7" d="m364.78,192.62v4.77c0,.78.69,1.54,1.5,1.5s1.5-.66,1.5-1.5v-4.77c0-.78-.69-1.54-1.5-1.5s-1.5.66-1.5,1.5h0Z"/>
  <path class="cls-7" d="m367.64,199.9c3.29,0,6.58,0,9.87,0,.78,0,1.54-.69,1.5-1.5s-.66-1.5-1.5-1.5c-3.29,0-6.58,0-9.87,0-.78,0-1.54.69-1.5,1.5s.66,1.5,1.5,1.5h0Z"/>
  <path class="cls-7" d="m237.5,274h78.9c3.63,0,7.31.17,10.95,0,.05,0,.1,0,.15,0,.7,0,1.22-.47,1.45-1.1,2.03-5.67,4.06-11.33,6.1-17l-1.45,1.1h92.85c4.27,0,8.59.19,12.86,0,.06,0,.12,0,.19,0,.79,0,1.52-.69,1.5-1.5-.12-4.27-.25-8.53-.37-12.8-.02-.81-.67-1.5-1.5-1.5h-68.88l1.45,1.9c2.68-14.62,6.21-29.08,9.58-43.56.44-1.88-2.45-2.68-2.89-.8-3.37,14.48-6.9,28.93-9.58,43.56-.17.94.4,1.9,1.45,1.9h68.88l-1.5-1.5c.12,4.27.25,8.53.37,12.8l1.5-1.5h-92.85c-4.27,0-8.59-.19-12.86,0-.06,0-.12,0-.19,0-.7,0-1.22.47-1.45,1.1-2.03,5.67-4.06,11.33-6.1,17l1.45-1.1h-78.9c-3.63,0-7.31-.17-10.95,0-.05,0-.1,0-.15,0-1.93,0-1.93,3,0,3h0Z"/>
  <rect class="cls-3" x="285.6" y="207.8" width="27.23" height="33.15"/>
  <polygon class="cls-3" points="320.32 207.8 320.32 242.32 355.38 242.32 362.53 207.8 320.32 207.8"/>
  <path class="cls-7" d="m441,261.38v-5.88c0-.78-.69-1.54-1.5-1.5s-1.5.66-1.5,1.5v5.88c0,.78.69,1.54,1.5,1.5s1.5-.66,1.5-1.5h0Z"/>
  <path class="cls-6" d="m237.5,276.5h80.64c3.72,0,7.49.17,11.21,0,.05,0,.11,0,.16,0,.73,0,1.19-.48,1.45-1.1,2.27-5.52,4.54-11.04,6.81-16.56l-1.45,1.1h88.1c4.04,0,8.12.17,12.16,0,.06,0,.11,0,.17,0,1.93,0,1.93-3,0-3h-88.1c-4.04,0-8.12-.17-12.16,0-.06,0-.11,0-.17,0-.73,0-1.19.48-1.45,1.1-2.27,5.52-4.54,11.04-6.81,16.56l1.45-1.1h-80.64c-3.72,0-7.49-.17-11.21,0-.05,0-.11,0-.16,0-1.93,0-1.93,3,0,3h0Z"/>
  <path class="cls-6" d="m237.26,278.54c23.43,0,46.85,0,70.28,0,6.65,0,13.29,0,19.94,0,1.93,0,1.93-3,0-3-23.43,0-46.85,0-70.28,0-6.65,0-13.29,0-19.94,0-1.93,0-1.93,3,0,3h0Z"/>
  <path class="cls-6" d="m328.55,277.69c1.93,0,1.93-3,0-3s-1.93,3,0,3h0Z"/>
  <path class="cls-6" d="m328.55,278.01c1.93,0,1.93-3,0-3s-1.93,3,0,3h0Z"/>
  <path class="cls-6" d="m328.68,278.01c1.93,0,1.93-3,0-3s-1.93,3,0,3h0Z"/>
  <path class="cls-6" d="m328.74,278.37c1.93,0,1.93-3,0-3s-1.93,3,0,3h0Z"/>
  <path class="cls-6" d="m334.06,257.43c-1.62,2.83-2.5,6.11-3.76,9.12-.64,1.53-1.32,3.05-2.02,4.55s-1.43,2.88-1.86,4.43c-.53,1.86,2.37,2.65,2.89.8.43-1.51,1.19-2.9,1.84-4.32s1.29-2.89,1.91-4.35,1.19-2.9,1.75-4.36,1.05-2.97,1.84-4.35c.96-1.68-1.63-3.19-2.59-1.51h0Z"/>
  <polyline class="cls-5" points="329.5 277.5 337.94 259.48 360.49 259.48 369.43 259.48"/>
  <polygon class="cls-4" points="237.26 198.4 364.23 199.14 364.5 193.5 237.26 193.5 237.26 198.4"/>
  <polygon class="cls-2" points="118.5 386.5 394.5 384.5 455.13 263.5 338.7 261.72 330.5 279.5 183.13 279.5 98.36 280.79 118.5 386.5"/>
  <g>
    <polyline class="cls-7" points="152.32 252.19 145.34 251.51 144.5 231.5 138.5 231.5 138.87 227 156.5 227 156.5 231.5 150.49 231.09 150.49 249.47"/>
    <path class="cls-7" d="m152.32,250.69c-2.33-.23-4.65-.45-6.98-.68l1.5,1.5c-.28-6.67-.56-13.34-.84-20.01-.03-.81-.66-1.5-1.5-1.5h-6l1.5,1.5c.12-1.5.25-3,.37-4.5l-1.5,1.5h17.63l-1.5-1.5v4.5l1.5-1.5c-2-.14-4.01-.28-6.01-.41-.81-.06-1.5.73-1.5,1.5v18.38c0,1.93,3,1.93,3,0v-18.38l-1.5,1.5c2,.14,4.01.28,6.01.41.81.06,1.5-.73,1.5-1.5v-4.5c0-.81-.69-1.5-1.5-1.5h-17.63c-.86,0-1.43.69-1.5,1.5-.12,1.5-.25,3-.37,4.5-.07.81.74,1.5,1.5,1.5h6l-1.5-1.5c.28,6.67.56,13.34.84,20.01.04.87.66,1.42,1.5,1.5,2.33.23,4.65.45,6.98.68,1.92.19,1.91-2.81,0-3h0Z"/>
  </g>
  <path class="cls-7" d="m130.54,267.48c.83-1.61,1.66-3.22,2.49-4.83l1.7-3.3c.17-.32.95-1.37.9-1.74.06.41-.91.68-.19.32.37-.18.72-.41,1.07-.61l3.24-1.85,3.24-1.85c.32-.19.66-.36.98-.56.08-.05.24-.1.31-.18.3-.34-.49.28-.62.13.19.22,1.51.17,1.78.2l3.71.41,3.77.41c.66.07,1.68.39,2.34.26.32-.06-.75-.45-.47-.08.21.27.69.49.96.69l3.14,2.23c.79.56,1.6,1.31,2.46,1.75.55.28-.41-.63-.28-.29.14.36.45.71.66,1.03l2.27,3.57c.17.26.38.82.64,1,.01,0-.04-.89-.17-.52-.08.23,0,.62,0,.86,0,1-.34,2.8.2,3.71.51.86,1.73,1.5,2.5,2.12,1.05.84,3.04.11,2.51-1.46-1.57-4.61-3.44-9.28-6.87-12.84s-7.66-5.44-12.32-6.05c-.81-.11-1.49.77-1.5,1.5,0,.9.7,1.39,1.5,1.5,3.99.53,7.75,2.51,10.47,5.46,2.9,3.14,4.47,7.24,5.83,11.22l2.51-1.46-2.27-1.81.44,1.06c0-1.56.42-3.69-.41-5.07-1.08-1.8-2.21-3.61-3.4-5.35-.36-.52-.86-.83-1.37-1.19l-2.9-2.06c-1.25-.89-2.67-2.36-4.25-2.54-2.08-.24-4.17-.46-6.26-.69-1.68-.18-3.55-.65-5.25-.58-.63.03-1.2.45-1.73.76l-2.94,1.68c-1.75,1-3.66,1.9-5.32,3.04-.58.4-.77.89-1.08,1.49l-1.74,3.37c-.96,1.87-1.92,3.74-2.88,5.6-.88,1.71,1.71,3.23,2.59,1.51h0Z"/>
  <polygon class="cls-1" points="130.5 268.49 166.62 269.89 162.29 257.72 147.5 252.19 141.09 253.98 136.83 256.84 134.33 256.84 130.5 268.49"/>
  <path class="cls-7" d="m127.3,268.39c-9.65,0-19.29,0-28.94,0-1.93,0-1.93,2.98,0,3,9.27.08,18.54.16,27.81.24,14.78.13,29.57.26,44.35.39,3.41.03,6.82.06,10.22.09l-1.45-1.1,2.38,8.89,1.45-1.9c-9.58.15-19.16.29-28.74.44-15.17.23-30.35.46-45.52.69-3.5.05-7,.11-10.51.16-1.93.03-1.93,3.03,0,3,9.58-.15,19.16-.29,28.74-.44,15.17-.23,30.35-.46,45.52-.69,3.5-.05,7-.11,10.51-.16.98-.01,1.7-.95,1.45-1.9l-2.38-8.89c-.17-.64-.79-1.1-1.45-1.1-9.27-.08-18.54-.16-27.81-.24-14.78-.13-29.57-.26-44.35-.39-3.41-.03-6.82-.06-10.22-.09v3c9.65,0,19.29,0,28.94,0,1.93,0,1.93-3,0-3h0Z"/>
  <rect class="cls-1" x="98.5" y="269.5" width="85" height="10"/>
</svg>