<?xml version="1.0" encoding="UTF-8"?>
<svg id="Layer_1" data-name="Layer 1" xmlns="http://www.w3.org/2000/svg" viewBox="0 0 1284.1 574.48">
  <defs>
    <style>
      .cls-1, .cls-2 {
        fill: #999;
      }

      .cls-1, .cls-3, .cls-4, .cls-5, .cls-6, .cls-7, .cls-8, .cls-9, .cls-10, .cls-11 {
        stroke-width: 0px;
      }

      .cls-12, .cls-13, .cls-2, .cls-14, .cls-15, .cls-16, .cls-17, .cls-18, .cls-19, .cls-20, .cls-21, .cls-22, .cls-23, .cls-24, .cls-25, .cls-26, .cls-27, .cls-28 {
        stroke-miterlimit: 10;
      }

      .cls-12, .cls-14, .cls-17, .cls-21, .cls-25 {
        stroke: #231f20;
        stroke-linecap: round;
      }

      .cls-12, .cls-7, .cls-26, .cls-27 {
        fill: #fff;
      }

      .cls-13, .cls-15, .cls-16, .cls-18, .cls-19, .cls-20, .cls-22, .cls-24, .cls-26, .cls-27, .cls-28 {
        stroke: #000;
      }

      .cls-13, .cls-21 {
        fill: none;
      }

      .cls-2 {
        stroke: #999;
      }

      .cls-29, .cls-30, .cls-31, .cls-32 {
        font-family: Bahnschrift, Bahnschrift;
        font-variation-settings: 'wght' 400, 'wdth' 100;
      }

      .cls-29, .cls-31, .cls-11 {
        fill: blue;
      }

      .cls-29, .cls-32 {
        font-size: 8.5px;
      }

      .cls-15, .cls-25 {
        fill: #fcee21;
      }

      .cls-3 {
        fill: #e6e6e6;
      }

      .cls-16 {
        fill: #754c24;
      }

      .cls-17, .cls-9 {
        fill: #2e3192;
      }

      .cls-18 {
        fill: #8e8e8e;
      }

      .cls-33 {
        letter-spacing: -.03em;
      }

      .cls-19 {
        fill: #39b54a;
      }

      .cls-20, .cls-5 {
        fill: #ccc;
      }

      .cls-30, .cls-31 {
        font-size: 17.01px;
      }

      .cls-6 {
        fill: #585aa8;
      }

      .cls-22 {
        fill: #666;
      }

      .cls-23 {
        fill: #c69c6d;
        stroke: #c69c6d;
      }

      .cls-24 {
        fill: #333;
      }

      .cls-8 {
        fill: #231f20;
      }

      .cls-34 {
        letter-spacing: -.02em;
      }

      .cls-35 {
        letter-spacing: -.01em;
      }

      .cls-36 {
        letter-spacing: -.02em;
      }

      .cls-27, .cls-28 {
        stroke-width: .71px;
      }

      .cls-10 {
        fill: #797bb9;
      }

      .cls-28 {
        fill: #29abe2;
      }
    </style>
  </defs>
  <g>
    <path class="cls-9" d="m878.89,196.37c-2.06,2.7-3.02,6.12-3.22,9.5s.31,6.78.96,10.11c.99,5.06,2.31,10.06,3.94,14.95,3.36-4.3,6.73-8.6,10.09-12.9,1.03-1.32,2.07-2.65,2.79-4.17.57-1.21.92-2.51,1.27-3.81.91-3.4,1.83-6.83,2.06-10.34"/>
    <path class="cls-8" d="m878.52,196.16c-3.43,4.65-3.72,10.58-2.96,16.11.88,6.37,2.57,12.68,4.59,18.78.09.27.5.46.71.19,3.85-4.92,7.94-9.73,11.55-14.82,1.65-2.33,2.36-4.9,3.08-7.63.79-2.98,1.47-5.98,1.7-9.06.04-.55-.81-.54-.85,0-.22,3-.9,5.93-1.67,8.83s-1.51,5.39-3.24,7.77c-3.57,4.88-7.45,9.55-11.17,14.31l.71.19c-1.87-5.65-3.41-11.46-4.38-17.34s-.96-12,2.65-16.9c.32-.44-.41-.87-.73-.43h0Z"/>
  </g>
  <path class="cls-17" d="m1013.85,103.81l-46,15.77c.18-3.56.16-7.16-.11-10.81-1.33-17.71-7.97-33.73-18.2-46.7-5.61-2.4-8.23-7.29-8.14-13.65.07-5.46,1.5-10.24,5.41-13.57l-.1-1.27-20.58,14.04c-1.27-.64-2.54-1.26-3.82-1.88-6.05-.94-9.98-6.39-10.21-12.38-.18-4.68,1.56-9.11,4.83-12.14l-.4-1.81-18.69,17.19c-1.14-.26-2.28-.51-3.43-.73l-.38-.74c-.41.03-.84.02-1.3-.06-13.52-2.25-24.67-21.32-15.43-32.65l-.72-1.41-21.29,32.9c-.15-.09-.3-.17-.43-.28-36.58,12.13-61.66,47.9-58.64,88.06.28,3.71.82,7.34,1.54,10.89l112.3-11.07-84.29,58.82c16.7,14.42,38.91,22.45,62.66,20.66,31.14-2.34,57.15-20.99,70.3-46.95l31.99,37.74c-.7-1.63-1.15-3.3-1.28-4.86-.55-6.6,4.96-11.08,11.06-11.69-5.55-3.16-8.41-10.51-6.86-16.67,1.65-6.56,7.55-7.91,13.14-9.74.06-.02.12-.03.18-.05-.6-.35-1.16-.86-1.64-1.56-3.07-4.57-5.67-10.1-3.25-15.57,1.78-4.02,5.55-6.2,9.61-7.3-.15-.19-.3-.4-.44-.62-3.04-4.94-4.35-10.06-1.15-15.31,1.01-1.66,2.29-3.21,3.75-4.57Z"/>
  <circle class="cls-12" cx="799.56" cy="99.36" r="19"/>
  <polygon class="cls-20" points="192.75 256.31 172.75 270.31 170.75 128.31 80.75 128.31 80.75 61.31 192.75 61.31 192.75 256.31"/>
  <polygon class="cls-20" points="308.75 33.31 193.75 33.31 193.75 257.31 310.75 257.31 308.75 33.31"/>
  <g>
    <rect class="cls-5" x="514.75" y="237.31" width="111" height="272"/>
    <path class="cls-4" d="m625.25,237.81v271h-110V237.81h110m1-1h-112v273h112V236.81h0Z"/>
  </g>
  <polygon class="cls-16" points="519.5 524.5 508.11 523.55 511.9 494.11 518.08 495.06 519.5 524.5"/>
  <polygon class="cls-18" points="155.67 554.31 123.75 570.31 124.83 164.16 171.75 129.31 172.75 270.31 153.75 283.31 155.67 554.31"/>
  <polygon class="cls-18" points="509.75 521.31 484.75 572.31 485.75 63.31 508.75 37.31 509.75 521.31"/>
  <polygon class="cls-18" points="331.75 532.31 308.75 557.31 308.75 282.31 330.75 259.31 331.75 532.31"/>
  <polygon class="cls-18" points="651.75 484.31 625.75 509.91 626.75 237.31 651.75 210.31 651.75 484.31"/>
  <g>
    <rect class="cls-5" x=".75" y="165.31" width="123" height="404"/>
    <path class="cls-4" d="m123.25,165.81v403H1.25V165.81h122m1-1H.25v405h124V164.81h0Z"/>
  </g>
  <g>
    <rect class="cls-5" x="154.75" y="283.31" width="154" height="273"/>
    <path class="cls-4" d="m308.25,283.81v272h-153v-272h153m1-1h-155v274h155v-274h0Z"/>
  </g>
  <g>
    <rect class="cls-5" x="331.75" y="62.31" width="153" height="507"/>
    <path class="cls-4" d="m484.25,62.81v506h-152V62.81h152m1-1h-154v508h154V61.81h0Z"/>
  </g>
  <line class="cls-13" x1="192.75" y1="33.31" x2="308.75" y2="33.31"/>
  <polyline class="cls-22" points="193.75 33.31 198.75 29.31 196.75 29.31 121.75 30.31 80.75 62.31 192.75 62.31 193.25 32.77 230.75 7.31 332.75 7.31 308.75 33.31"/>
  <rect class="cls-24" x="203.75" y="44.31" width="11" height="27"/>
  <rect class="cls-24" x="203.75" y="82.31" width="11" height="27"/>
  <rect class="cls-24" x="282.75" y="44.31" width="11" height="27"/>
  <rect class="cls-24" x="257.75" y="44.31" width="11" height="27"/>
  <rect class="cls-15" x="230.75" y="44.31" width="11" height="27"/>
  <rect class="cls-24" x="203.75" y="140.31" width="11" height="27"/>
  <rect class="cls-24" x="282.75" y="82.31" width="11" height="27"/>
  <rect class="cls-24" x="256.75" y="82.31" width="11" height="27"/>
  <rect class="cls-24" x="230.75" y="82.31" width="11" height="27"/>
  <rect class="cls-24" x="282.75" y="139.31" width="11" height="27"/>
  <rect class="cls-24" x="256.75" y="140.31" width="11" height="27"/>
  <rect class="cls-24" x="230.75" y="140.31" width="11" height="27"/>
  <rect class="cls-15" x="256.75" y="180.31" width="11" height="27"/>
  <rect class="cls-24" x="230.75" y="180.31" width="11" height="27"/>
  <rect class="cls-24" x="203.75" y="180.31" width="11" height="27"/>
  <rect class="cls-24" x="282.75" y="180.31" width="11" height="27"/>
  <rect class="cls-24" x="7.75" y="509.31" width="31" height="50"/>
  <rect class="cls-24" x="45.75" y="509.31" width="31" height="50"/>
  <rect class="cls-24" x="84.75" y="509.31" width="31" height="50"/>
  <rect class="cls-24" x="7.75" y="451.31" width="31" height="50"/>
  <rect class="cls-24" x="45.75" y="374.31" width="31" height="50"/>
  <rect class="cls-15" x="84.75" y="451.31" width="31" height="50"/>
  <rect class="cls-15" x="45.75" y="451.31" width="31" height="50"/>
  <rect class="cls-24" x="7.75" y="303.31" width="31" height="50"/>
  <rect class="cls-15" x="45.75" y="303.31" width="31" height="50"/>
  <rect class="cls-24" x="84.75" y="303.31" width="31" height="50"/>
  <rect class="cls-24" x="84.75" y="243.31" width="31" height="50"/>
  <rect class="cls-15" x="45.75" y="243.31" width="31" height="50"/>
  <rect class="cls-24" x="7.75" y="243.31" width="31" height="50"/>
  <rect class="cls-24" x="45.75" y="174.31" width="31" height="50"/>
  <rect class="cls-15" x="163.75" y="422.31" width="31" height="50"/>
  <rect class="cls-15" x="267.75" y="357.31" width="31" height="50"/>
  <rect class="cls-24" x="162.75" y="293.31" width="31" height="50"/>
  <rect class="cls-15" x="267.75" y="498.31" width="31" height="50"/>
  <rect class="cls-15" x="231.75" y="380.31" width="11" height="27"/>
  <rect class="cls-15" x="249.75" y="380.31" width="11" height="27"/>
  <rect class="cls-15" x="236.75" y="316.31" width="11" height="27"/>
  <rect class="cls-24" x="218.75" y="316.31" width="11" height="27"/>
  <rect class="cls-24" x="200.75" y="316.31" width="11" height="27"/>
  <rect class="cls-15" x="214.75" y="380.31" width="11" height="27"/>
  <rect class="cls-15" x="232.75" y="521.31" width="11" height="27"/>
  <rect class="cls-15" x="249.75" y="521.31" width="11" height="27"/>
  <rect class="cls-15" x="237.75" y="445.31" width="11" height="27"/>
  <rect class="cls-15" x="220.75" y="445.31" width="11" height="27"/>
  <rect class="cls-15" x="203.75" y="445.31" width="11" height="27"/>
  <rect class="cls-24" x="171.75" y="513.31" width="11" height="27" transform="translate(704.06 349.56) rotate(90)"/>
  <rect class="cls-15" x="216.75" y="521.31" width="11" height="27"/>
  <rect class="cls-24" x="279.75" y="285.31" width="11" height="27" transform="translate(584.06 13.56) rotate(90)"/>
  <rect class="cls-15" x="281.75" y="414.31" width="11" height="27" transform="translate(715.06 140.56) rotate(90)"/>
  <rect class="cls-15" x="170.75" y="349.31" width="11" height="27" transform="translate(539.06 186.56) rotate(90)"/>
  <rect class="cls-15" x="344.75" y="140.31" width="11" height="27"/>
  <rect class="cls-24" x="343.75" y="90.31" width="11" height="27"/>
  <rect class="cls-15" x="170.75" y="72.31" width="11" height="27"/>
  <rect class="cls-24" x="150.75" y="72.31" width="11" height="27"/>
  <rect class="cls-24" x="131.75" y="72.31" width="11" height="27"/>
  <rect class="cls-15" x="110.75" y="72.31" width="11" height="27"/>
  <rect class="cls-24" x="90.75" y="72.31" width="11" height="27"/>
  <rect class="cls-15" x="414.75" y="90.31" width="11" height="27"/>
  <rect class="cls-15" x="344.75" y="519.31" width="11" height="27"/>
  <rect class="cls-24" x="345.75" y="471.31" width="11" height="27"/>
  <rect class="cls-15" x="345.75" y="425.31" width="11" height="27"/>
  <rect class="cls-24" x="345.75" y="380.31" width="11" height="27"/>
  <rect class="cls-15" x="345.75" y="331.31" width="11" height="27"/>
  <rect class="cls-24" x="345.75" y="284.31" width="11" height="27"/>
  <rect class="cls-15" x="344.75" y="237.31" width="11" height="27"/>
  <rect class="cls-24" x="343.75" y="190.31" width="11" height="27"/>
  <rect class="cls-24" x="414.75" y="425.31" width="11" height="27"/>
  <rect class="cls-15" x="414.75" y="380.31" width="11" height="27"/>
  <rect class="cls-15" x="414.75" y="331.31" width="11" height="27"/>
  <rect class="cls-15" x="414.75" y="285.31" width="11" height="27"/>
  <rect class="cls-24" x="414.75" y="241.31" width="11" height="27"/>
  <rect class="cls-15" x="414.75" y="190.31" width="11" height="27"/>
  <rect class="cls-15" x="414.75" y="139.31" width="11" height="27"/>
  <rect class="cls-15" x="414.75" y="523.31" width="11" height="27"/>
  <rect class="cls-15" x="414.75" y="471.31" width="11" height="27"/>
  <rect class="cls-15" x="450.75" y="140.31" width="11" height="27" transform="translate(610.06 -302.44) rotate(90)"/>
  <rect class="cls-15" x="378.75" y="140.31" width="11" height="27" transform="translate(538.06 -230.44) rotate(90)"/>
  <rect class="cls-15" x="450.75" y="90.31" width="11" height="27" transform="translate(560.06 -352.44) rotate(90)"/>
  <rect class="cls-24" x="378.75" y="90.31" width="11" height="27" transform="translate(488.06 -280.44) rotate(90)"/>
  <rect class="cls-24" x="377.75" y="284.31" width="11" height="27" transform="translate(681.06 -85.44) rotate(90)"/>
  <rect class="cls-24" x="450.75" y="240.31" width="11" height="27" transform="translate(710.06 -202.44) rotate(90)"/>
  <rect class="cls-15" x="377.75" y="240.31" width="11" height="27" transform="translate(129.44 637.06) rotate(-90)"/>
  <rect class="cls-15" x="450.75" y="190.31" width="11" height="27" transform="translate(660.06 -252.44) rotate(90)"/>
  <rect class="cls-24" x="378.75" y="190.31" width="11" height="27" transform="translate(588.06 -180.44) rotate(90)"/>
  <rect class="cls-24" x="377.75" y="380.31" width="11" height="27" transform="translate(777.06 10.56) rotate(90)"/>
  <rect class="cls-15" x="450.75" y="331.31" width="11" height="27" transform="translate(111.44 801.06) rotate(-90)"/>
  <rect class="cls-15" x="378.75" y="331.31" width="11" height="27" transform="translate(729.06 -39.44) rotate(90)"/>
  <rect class="cls-15" x="450.75" y="285.31" width="11" height="27" transform="translate(755.06 -157.44) rotate(90)"/>
  <rect class="cls-15" x="378.75" y="425.31" width="11" height="27" transform="translate(823.06 54.56) rotate(90)"/>
  <rect class="cls-24" x="446.75" y="425.31" width="11" height="27" transform="translate(891.06 -13.44) rotate(90)"/>
  <rect class="cls-15" x="446.75" y="380.31" width="11" height="27" transform="translate(846.06 -58.44) rotate(90)"/>
  <rect class="cls-15" x="377.75" y="519.31" width="11" height="27" transform="translate(916.06 149.56) rotate(90)"/>
  <rect class="cls-24" x="377.75" y="471.31" width="11" height="27" transform="translate(868.06 101.56) rotate(90)"/>
  <rect class="cls-15" x="445.75" y="470.31" width="11" height="27" transform="translate(935.06 32.56) rotate(90)"/>
  <rect class="cls-15" x="445.75" y="519.31" width="11" height="27" transform="translate(984.06 81.56) rotate(90)"/>
  <rect class="cls-24" x="560.75" y="336.31" width="11" height="27"/>
  <rect class="cls-24" x="525.75" y="335.31" width="11" height="27"/>
  <rect class="cls-15" x="595.75" y="293.31" width="11" height="27"/>
  <rect class="cls-24" x="560.75" y="293.31" width="11" height="27"/>
  <rect class="cls-24" x="530.75" y="297.31" width="11" height="27"/>
  <rect class="cls-24" x="595.75" y="251.31" width="11" height="27"/>
  <rect class="cls-24" x="560.75" y="251.31" width="11" height="27"/>
  <rect class="cls-24" x="525.75" y="251.31" width="11" height="27"/>
  <rect class="cls-15" x="560.75" y="379.31" width="11" height="27"/>
  <rect class="cls-24" x="525.75" y="377.31" width="11" height="27"/>
  <rect class="cls-24" x="595.75" y="335.31" width="11" height="27"/>
  <rect class="cls-24" x="595.75" y="422.31" width="11" height="27"/>
  <rect class="cls-24" x="560.75" y="422.31" width="11" height="27"/>
  <rect class="cls-24" x="525.75" y="419.31" width="11" height="27"/>
  <rect class="cls-24" x="595.75" y="380.31" width="11" height="27"/>
  <rect class="cls-24" x="595.75" y="466.31" width="11" height="27"/>
  <rect class="cls-15" x="561.75" y="466.31" width="11" height="27"/>
  <rect class="cls-24" x="525.75" y="466.31" width="11" height="27"/>
  <rect class="cls-23" x="199.75" y="115.31" width="5" height="9"/>
  <rect class="cls-23" x="209.75" y="122.31" width="5" height="9"/>
  <rect class="cls-23" x="299.75" y="127.31" width="5" height="12"/>
  <rect class="cls-23" x="290.75" y="119.31" width="5" height="11"/>
  <rect class="cls-23" x="272.75" y="204.31" width="5" height="11"/>
  <rect class="cls-23" x="281.75" y="211.31" width="5" height="11"/>
  <rect class="cls-2" x="9.75" y="176.31" width="5" height="11"/>
  <rect class="cls-2" x="83.75" y="426.31" width="5" height="11" transform="translate(518.06 345.56) rotate(90)"/>
  <rect class="cls-2" x="17.75" y="185.31" width="5" height="11"/>
  <rect class="cls-2" x="94.75" y="434.31" width="5" height="11" transform="translate(-342.56 537.06) rotate(-90)"/>
  <rect class="cls-2" x="433.75" y="171.31" width="5" height="11"/>
  <rect class="cls-2" x="441.75" y="178.31" width="5" height="11"/>
  <rect class="cls-2" x="343.75" y="71.31" width="5" height="11"/>
  <rect class="cls-2" x="337.75" y="66.31" width="5" height="11"/>
  <rect class="cls-2" x="552.75" y="279.31" width="5" height="11"/>
  <rect class="cls-2" x="544.75" y="272.31" width="5" height="11"/>
  <rect class="cls-2" x="180.75" y="393.31" width="5" height="11"/>
  <rect class="cls-2" x="171.75" y="386.31" width="5" height="11"/>
  <rect class="cls-2" x="466.75" y="551.31" width="5" height="11"/>
  <rect class="cls-2" x="459.75" y="546.31" width="5" height="11"/>
  <rect class="cls-2" x="277.75" y="452.31" width="5" height="11"/>
  <rect class="cls-2" x="284.75" y="460.31" width="5" height="11"/>
  <polyline class="cls-22" points="124.25 164.81 171.75 129.31 61.75 129.31 .25 164.81"/>
  <polyline class="cls-22" points="485.25 62.81 508.75 35.31 368.75 35.31 331.25 62.81"/>
  <polyline class="cls-22" points="309.25 282.81 332.25 257.31 192.93 256.49 155.93 282.49"/>
  <polyline class="cls-22" points="626.25 236.81 651.75 210.31 552.75 211.31 514.25 236.81"/>
  <path class="cls-19" d="m163.75,512.62c.64-1.56,1-3.26,1-5.05,0-7.32-5.93-13.25-13.25-13.25-.49,0-.96.03-1.44.08-2.39-2.37-5.68-3.83-9.31-3.83-7.32,0-13.25,5.93-13.25,13.25,0,2.22.55,4.31,1.51,6.15-1.12,1.94-1.76,4.2-1.76,6.6,0,7.32,5.93,13.25,13.25,13.25,1.09,0,2.15-.13,3.17-.38,2.32,3.83,6.53,6.38,11.33,6.38,7.32,0,13.25-5.93,13.25-13.25,0-3.96-1.74-7.52-4.5-9.95Z"/>
  <polyline class="cls-16" points="141.25 530.31 132.75 570.31 153.25 570.31 145.25 530.31"/>
  <path class="cls-19" d="m659.25,461.68c0-6.18-4.57-11.19-10.21-11.19-3.36,0-6.34,1.78-8.2,4.53-1.47-4.21-5.18-7.2-9.54-7.2-5.14,0-9.39,4.16-10.1,9.58-3.85,1.6-6.58,5.68-6.58,10.46,0,6.18,4.57,11.19,10.21,11.19,1.91,0,3.7-.58,5.22-1.58,1.53,1,3.31,1.58,5.22,1.58.74,0,1.45-.09,2.15-.25,0,.15-.01.3-.01.46,0,6.18,4.57,11.19,10.21,11.19s10.21-5.01,10.21-11.19c0-3.23-1.25-6.13-3.24-8.18,2.81-1.99,4.67-5.46,4.67-9.39Z"/>
  <polygon class="cls-16" points="637.9 508.83 626.5 507.88 630.3 478.44 636.47 479.39 637.9 508.83"/>
  <path class="cls-19" d="m519.86,523.35c0-6.18-4.57-11.19-10.21-11.19-3.36,0-6.34,1.78-8.2,4.53-1.47-4.21-5.18-7.2-9.54-7.2-5.14,0-9.39,4.16-10.1,9.58-3.85,1.6-6.58,5.68-6.58,10.46,0,6.18,4.57,11.19,10.21,11.19,1.91,0,3.7-.58,5.22-1.58,1.53,1,3.31,1.58,5.22,1.58.74,0,1.45-.09,2.15-.25,0,.15-.01.3-.01.46,0,6.18,4.57,11.19,10.21,11.19,5.64,0,10.21-5.01,10.21-11.19,0-3.23-1.25-6.13-3.24-8.18,2.81-1.99,4.67-5.46,4.67-9.39Z"/>
  <path class="cls-19" d="m675.54,488.62c.64-1.56,1-3.26,1-5.05,0-7.32-5.93-13.25-13.25-13.25-.49,0-.96.03-1.44.08-2.39-2.37-5.68-3.83-9.31-3.83-7.32,0-13.25,5.93-13.25,13.25,0,2.22.55,4.31,1.51,6.15-1.12,1.94-1.76,4.2-1.76,6.6,0,7.32,5.93,13.25,13.25,13.25,1.09,0,2.15-.13,3.17-.38,2.32,3.83,6.53,6.38,11.33,6.38,7.32,0,13.25-5.93,13.25-13.25,0-3.96-1.74-7.52-4.5-9.95Z"/>
  <polyline class="cls-16" points="651.04 506.31 642.54 546.31 663.04 546.31 655.04 506.31"/>
  <path class="cls-19" d="m539.86,476.35c0-6.18-4.57-11.19-10.21-11.19-3.36,0-6.34,1.78-8.2,4.53-1.47-4.21-5.18-7.2-9.54-7.2-5.14,0-9.39,4.16-10.1,9.58-3.85,1.6-6.58,5.68-6.58,10.46,0,6.18,4.57,11.19,10.21,11.19,1.91,0,3.7-.58,5.22-1.58,1.53,1,3.31,1.58,5.22,1.58.74,0,1.45-.09,2.15-.25,0,.15-.01.3-.01.46,0,6.18,4.57,11.19,10.21,11.19,5.64,0,10.21-5.01,10.21-11.19,0-3.23-1.25-6.13-3.24-8.18,2.81-1.99,4.67-5.46,4.67-9.39Z"/>
  <polygon class="cls-16" points="498.5 570.5 487.11 569.55 490.9 540.11 497.08 541.06 498.5 570.5"/>
  <rect class="cls-2" x="372.75" y="361.31" width="5" height="11"/>
  <rect class="cls-2" x="377.75" y="366.31" width="5" height="11"/>
  <polygon class="cls-18" points="331.75 257.31 310.75 257.31 308.75 33.31 333.75 7.31 331.75 257.31"/>
  <polygon class="cls-21" points="809.89 158.33 816.79 130.96 797.9 132.78 809.89 158.33"/>
  <polygon class="cls-21" points="828.67 147.6 833.29 129.49 820.69 130.7 828.67 147.6"/>
  <polygon class="cls-21" points="862.02 144.15 866.63 126.04 854.04 127.25 862.02 144.15"/>
  <polygon class="cls-21" points="846.08 145.59 850.7 127.47 838.1 128.69 846.08 145.59"/>
  <polygon class="cls-21" points="866.34 136.24 869.77 149.12 877.08 144.13 866.34 136.24"/>
  <polygon class="cls-21" points="855.35 143.91 858.78 156.78 866.09 151.79 855.35 143.91"/>
  <polygon class="cls-21" points="844.91 151.71 848.34 164.59 855.65 159.6 844.91 151.71"/>
  <polygon class="cls-21" points="835.39 158.45 838.81 171.32 846.12 166.33 835.39 158.45"/>
  <polygon class="cls-21" points="821.94 161.25 826.63 179.35 837.08 172.21 821.94 161.25"/>
  <path class="cls-8" d="m831.61,45.87c-1.85-4.96-6.42-8.01-10.44-11.11-4.54-3.5-9.24-6.86-14.53-9.15s-10.94-3.78-16.58-4.88-11.36-1.69-17.06-1.26c-10.29.78-19.59,5.18-26.81,12.53s-11.64,16.03-14.45,25.45c-3.83,12.85-4.39,26.39-4.93,39.7-.08,1.93,2.92,1.93,3,0,.83-20.53,1.87-43.05,15.5-59.69,5.92-7.22,13.75-12.55,22.99-14.36,10.73-2.1,22.21.14,32.46,3.48,5.81,1.9,10.98,4.88,15.89,8.49,2.35,1.73,4.67,3.51,6.92,5.36,2.09,1.72,4.19,3.65,5.16,6.24.67,1.79,3.57,1.02,2.89-.8h0Z"/>
  <circle class="cls-25" cx="728.52" cy="108.22" r="11.5"/>
  <ellipse class="cls-12" cx="820.26" cy="94.73" rx="24.01" ry="23.06" transform="translate(-4.8 61.86) rotate(-4.31)"/>
  <ellipse class="cls-14" cx="818.1" cy="95.37" rx="5.83" ry="5.6" transform="translate(-4.85 61.7) rotate(-4.31)"/>
  <path class="cls-8" d="m908.67,187.88c-3.85,7.29-2.9,15.91.63,23.12,1.83,3.73,4.31,7.06,7.01,10.2,3.1,3.61,5.99,7.23,8.28,11.42.22.41.74.17.79-.21.61-4.63,2.05-9.04,4.2-13.18,2-3.86,4.06-7.57,5.07-11.84,1.85-7.89.75-16.23-2.68-23.54-1.92-4.09-4.54-7.81-7.64-11.09-.38-.4-.98.2-.6.6,5.56,5.88,9.51,13.3,10.64,21.35.59,4.21.41,8.53-.59,12.66-1.05,4.35-3.25,8.08-5.24,12.04s-3.41,8.45-4,13l.79-.21c-2.02-3.7-4.48-7.04-7.23-10.23s-5.29-6.27-7.27-9.89c-3.98-7.25-5.41-16.21-1.42-23.77.26-.48-.48-.91-.73-.43h0Z"/>
  <path class="cls-9" d="m908.53,194.58c-.19,1.56-.26,3.13-.2,4.7.03.75.55,1.37,1.3,1.47s1.41-.36,1.65-1.07c.12-.37.17-.76.19-1.15.03-.78-.71-1.54-1.5-1.5-.84.04-1.47.66-1.5,1.5,0,.09,0,.17-.02.25l.05-.4c-.02.17-.06.33-.12.5l2.95.4c-.05-1.57.01-3.14.2-4.7.04-.35-.2-.82-.44-1.06-.26-.26-.69-.46-1.06-.44s-.79.14-1.06.44c-.29.31-.39.64-.44,1.06h0Z"/>
  <path class="cls-9" d="m908.49,194.97c-.26,1.63-.35,3.27-.19,4.92.04.41.14.76.44,1.06.26.26.69.46,1.06.44s.79-.14,1.06-.44c.25-.28.48-.67.44-1.06-.14-1.33-.12-2.67.06-4l-.05.4c.02-.17.05-.35.08-.52.07-.41.07-.78-.15-1.16-.18-.31-.54-.61-.9-.69-.38-.09-.81-.07-1.16.15-.31.2-.63.52-.69.9h0Z"/>
  <path class="cls-9" d="m909.29,194.33c.05,2.14.27,4.27.63,6.38.12.73.98,1.18,1.65,1.07.78-.12,1.23-.71,1.3-1.47.24-2.54.47-5.07.71-7.61h-3c.11,2.52.43,5.03.96,7.5.15.72.95,1.18,1.65,1.07.79-.12,1.21-.71,1.3-1.47.29-2.57.59-5.13.88-7.7h-3c-.22,3.13-.06,6.23.39,9.33.21,1.46,2.63,1.4,2.89,0,.64-3.4.71-6.84.73-10.29.01-1.93-2.98-1.93-3,0-.04,2.95.24,5.88.78,8.78.32,1.71,2.9,1.24,2.95-.4.08-3.12.17-6.24.25-9.36h-3c-.02,3.76.31,7.5.93,11.21.21,1.24,2.21,1.49,2.74.36.81-1.74.62-3.67.61-5.55,0-2.08-.02-4.16-.02-6.25h-3c.25,3.62.65,7.22,1.2,10.8.22,1.42,2.7,1.44,2.89,0,.25-1.83.14-3.59-.03-5.42s-.31-3.5.17-5.21l-2.95-.4c.31,3.51.63,7.02.94,10.53.17,1.89,2.96,1.96,3,0,.08-3.82.15-7.64.23-11.45h-3c.45,3.71.9,7.42,1.34,11.13.1.8.62,1.5,1.5,1.5.8,0,1.52-.69,1.5-1.5-.1-3.5-.19-7.01-.29-10.51l-2.95.4c.64,3.69,1.27,7.39,1.91,11.08.29,1.66,3.04,1.28,2.95-.4-.24-4.23-.49-8.46-.73-12.68l-2.95.4c.9,3.6,1.8,7.2,2.69,10.8.4,1.6,3.13,1.31,2.95-.4-.47-4.35-.94-8.71-1.41-13.06l-2.95.4,3.21,12.16c.5,1.89,3.23,1.07,2.89-.8-.78-4.34-1.56-8.69-2.35-13.03l-2.89.8c1.15,4.25,2.29,8.5,3.44,12.75.5,1.87,3.31,1.08,2.89-.8-.99-4.46-1.99-8.92-2.98-13.38l-2.89.8c1.46,3.7,2.84,7.43,4.13,11.19.62,1.82,3.32,1.1,2.89-.8-.88-3.94-1.76-7.87-2.64-11.81l-2.89.8c1.27,3.12,2.42,6.29,3.45,9.5.59,1.83,3.38,1.08,2.89-.8l-2.53-9.81-2.74,1.16c1.06,2.18,1.89,4.45,2.51,6.8.5,1.86,3.39,1.07,2.89-.8-.69-2.59-1.64-5.1-2.82-7.51-.76-1.56-3.16-.45-2.74,1.16.84,3.27,1.68,6.54,2.53,9.81l2.89-.8c-1.03-3.21-2.18-6.38-3.45-9.5-.71-1.75-3.33-1.14-2.89.8.88,3.94,1.76,7.87,2.64,11.81l2.89-.8c-1.29-3.76-2.67-7.49-4.13-11.19-.7-1.76-3.32-1.13-2.89.8.99,4.46,1.99,8.92,2.98,13.38l2.89-.8c-1.15-4.25-2.29-8.5-3.44-12.75-.51-1.89-3.23-1.08-2.89.8.78,4.34,1.56,8.69,2.35,13.03l2.89-.8-3.21-12.16c-.42-1.58-3.13-1.32-2.95.4.47,4.35.94,8.71,1.41,13.06l2.95-.4c-.9-3.6-1.8-7.2-2.69-10.8-.4-1.61-3.05-1.31-2.95.4.24,4.23.49,8.46.73,12.68l2.95-.4c-.64-3.69-1.27-7.39-1.91-11.08-.29-1.68-2.99-1.27-2.95.4.1,3.5.19,7.01.29,10.51h3c-.45-3.71-.9-7.42-1.34-11.13-.23-1.87-2.96-1.98-3,0-.08,3.82-.15,7.64-.23,11.45h3c-.31-3.51-.63-7.02-.94-10.53-.14-1.62-2.47-2.12-2.95-.4-.99,3.56.35,7.07-.14,10.64h2.89c-.51-3.32-.86-6.66-1.09-10.01-.13-1.91-3.01-1.95-3,0,0,1.84.01,3.67.02,5.51,0,.86,0,1.71,0,2.57,0,.71.1,1.53-.21,2.2l2.74.36c-.58-3.44-.84-6.92-.83-10.41,0-1.93-2.95-1.93-3,0-.08,3.12-.17,6.24-.25,9.36l2.95-.4c-.5-2.64-.71-5.3-.67-7.98h-3c-.02,3.17-.03,6.36-.62,9.49h2.89c-.42-2.82-.49-5.69-.29-8.53.06-.81-.73-1.5-1.5-1.5-.89,0-1.41.69-1.5,1.5-.29,2.57-.59,5.13-.88,7.7l2.95-.4c-.47-2.21-.75-4.44-.85-6.71-.09-1.95-2.82-1.9-3,0-.24,2.54-.47,5.07-.71,7.61l2.95-.4c-.31-1.85-.48-3.71-.52-5.58s-3.04-1.93-3,0h0Z"/>
  <path class="cls-9" d="m927.58,186.53c.1.2.19.39.28.59.05.11.1.23.15.34.13.29-.11-.28,0-.01.17.42.33.84.48,1.28.29.85.51,1.71.69,2.59.15.77,1.11,1.28,1.85,1.05.82-.27,1.21-1.02,1.05-1.85-.38-1.91-1.03-3.76-1.9-5.5-.35-.7-1.4-.96-2.05-.54-.72.47-.91,1.3-.54,2.05h0Z"/>
  <path class="cls-9" d="m928.49,186.19c.37,1.12.7,2.25.99,3.39.09.36.37.71.69.9s.8.27,1.16.15c.79-.25,1.26-1.03,1.05-1.85-.29-1.14-.62-2.27-.99-3.39-.12-.37-.35-.7-.69-.9-.32-.19-.8-.27-1.16-.15s-.71.34-.9.69-.28.77-.15,1.16h0Z"/>
  <path class="cls-9" d="m911.73,202.81c-.04-.14-.07-.28-.09-.43l.05.4c0-.07-.02-.14-.02-.21,0-.21-.04-.4-.13-.58-.06-.19-.16-.35-.31-.48-.14-.15-.3-.25-.48-.31-.18-.09-.37-.14-.58-.13l-.4.05c-.25.07-.47.2-.66.39l-.23.3c-.14.23-.2.49-.2.76.01.24.05.48.09.71.02.11.04.21.08.32.05.2.14.37.27.51.11.16.25.29.42.39.17.11.36.17.56.18.2.04.4.04.6-.03l.36-.15c.23-.13.4-.31.54-.54l.15-.36c.07-.27.07-.53,0-.8h0Z"/>
  <path class="cls-9" d="m908.17,197.74c-.15,1.23-.01,2.46.15,3.68s.38,2.53.69,3.77c.59,2.37,1.51,4.68,2.79,6.77,1.01,1.64,3.6.14,2.59-1.51-1.16-1.88-1.95-3.91-2.49-6.05s-1.01-4.47-.74-6.65c.1-.81-.76-1.5-1.5-1.5-.89,0-1.4.69-1.5,1.5h0Z"/>
  <path class="cls-9" d="m908.6,195.12c-.06.08-.11.17-.15.26-.1.2-.19.4-.25.62-.03.09-.05.19-.07.29-.04.22-.07.45-.08.68,0,.21.04.4.13.58.06.19.16.35.31.48.14.15.3.25.48.31.18.09.37.14.58.13l.4-.05c.25-.07.47-.2.66-.39l.23-.3c.14-.23.2-.49.2-.76,0-.07,0-.15.02-.22l-.05.4c.02-.17.07-.34.14-.5l-.15.36c.05-.13.12-.24.2-.36.11-.17.17-.36.18-.56.04-.2.04-.4-.03-.6-.05-.2-.14-.37-.27-.51-.11-.16-.25-.29-.42-.39l-.36-.15c-.27-.07-.53-.07-.8,0l-.36.15c-.23.13-.4.31-.54.54h0Z"/>
  <path class="cls-9" d="m908.3,195.55c-.14.67-.27,1.36-.31,2.04s.07,1.37.24,2.02c.1.36.36.71.69.9s.8.27,1.16.15c.77-.25,1.27-1.03,1.05-1.85-.07-.26-.13-.52-.16-.78l.05.4c-.06-.46-.04-.91.02-1.37l-.05.4c.05-.37.13-.74.21-1.12.08-.4.06-.8-.15-1.16-.18-.31-.54-.61-.9-.69-.38-.09-.81-.07-1.16.15-.32.2-.61.52-.69.9h0Z"/>
  <path class="cls-9" d="m912.04,211.62c.03.13.07.26.12.38.09.24.19.47.3.7.06.11.13.22.2.33.14.21.3.42.47.61.14.15.3.25.48.31.18.09.37.14.58.13.21,0,.4-.04.58-.13.19-.06.35-.16.48-.31l.23-.3c.14-.23.2-.49.2-.76l-.05-.4c-.07-.25-.2-.47-.39-.66-.04-.05-.09-.1-.13-.16l.23.3c-.17-.22-.31-.47-.42-.72l.15.36c-.06-.15-.12-.31-.16-.47-.05-.2-.14-.37-.27-.51-.11-.16-.25-.29-.42-.39-.17-.11-.36-.17-.56-.18-.2-.04-.4-.04-.6.03l-.36.15c-.23.13-.4.31-.54.54l-.15.36c-.07.27-.07.53,0,.8h0Z"/>
  <path class="cls-9" d="m912.46,212.68c.73,1.34,1.46,2.69,2.37,3.92.5.66,1.02,1.3,1.61,1.88.27.27.56.53.83.81.14.14.27.27.4.42.06.06.11.13.17.19.27.32-.17-.24.08.1.46.64,1.33,1.01,2.05.54.63-.41,1.03-1.37.54-2.05s-1.09-1.3-1.71-1.9c-.28-.27-.55-.54-.81-.82-.13-.14-.25-.29-.37-.43-.05-.07-.11-.13-.16-.2-.15-.18.2.28-.04-.05-.91-1.23-1.64-2.57-2.37-3.92-.37-.69-1.39-.97-2.05-.54-.7.45-.94,1.31-.54,2.05h0Z"/>
  <path class="cls-9" d="m911.95,211.79c.17.42.35.84.57,1.23s.5.75.78,1.1c.14.15.3.25.48.31.18.09.37.14.58.13.21,0,.4-.04.58-.13.19-.06.35-.16.48-.31.26-.29.46-.66.44-1.06l-.05-.4c-.07-.25-.2-.47-.39-.66-.03-.04-.06-.08-.09-.11l.23.3c-.33-.43-.61-.91-.83-1.41l.15.36s-.04-.09-.06-.14c-.05-.2-.14-.37-.27-.51-.11-.16-.25-.29-.42-.39-.17-.11-.36-.17-.56-.18-.2-.04-.4-.04-.6.03-.36.12-.71.34-.9.69l-.15.36c-.07.27-.07.53,0,.8h0Z"/>
  <path class="cls-9" d="m911.07,202.73c.57,2.76,1.39,5.45,2.44,8.07.28.69.85,1.19,1.65,1.07.7-.11,1.34-.72,1.3-1.47-.16-3.13-1.07-6.1-2.04-9.06-.6-1.82-3.42-1.08-2.89.8s1.05,3.74,1.58,5.61c.47,1.68.84,3.6,1.81,5.07.75,1.14,2.94.83,2.8-.76-.32-3.46-1.51-6.84-1.28-10.34h-3c.45,3.56,1.07,7.44,2.7,10.68.66,1.32,2.89.71,2.8-.76-.21-3.41-1.38-6.72-1.18-10.16l-2.95.4c.64,3.43,1.19,6.9,2.1,10.27.44,1.61,3,1.32,2.95-.4-.1-3.42-1.2-6.76-.95-10.2l-2.95.4c.97,2.99.66,6.22,1.54,9.23.46,1.56,3.1,1.34,2.95-.4-.14-1.58-.29-3.17-.39-4.76-.08-1.22-.3-2.73.3-3.85l-2.74-.36c.76,3.07.37,6.3,1.31,9.34.49,1.58,2.98,1.34,2.95-.4-.06-3.14-.81-6.38-.04-9.48l-2.95-.4c.33,3.34.51,6.75,1.27,10.03.38,1.62,3.08,1.31,2.95-.4s-.27-3.36-.3-5.04c-.03-1.34-.24-3.13.37-4.38h-2.59c.31.6.29,1.43.34,2.09.06.72.09,1.44.13,2.17.08,1.58.19,3.15.45,4.71.27,1.65,3.12,1.29,2.95-.4-.34-3.25-.68-6.59.42-9.74h-2.89c.6,3.22.14,6.54.6,9.79.23,1.67,3.05,1.28,2.95-.4-.09-1.58-.19-3.16-.2-4.74,0-1.4.06-2.86.64-4.16l-2.74-.36c.24.68.18,1.35.16,2.07-.03.9-.04,1.79-.04,2.69,0,1.74.04,3.48.13,5.22h3c-.3-3.36.21-6.64,1.52-9.76l-2.95-.4c.06,3.42-.05,6.86-.61,10.24l2.95.4c0-2.94.53-5.8,1.56-8.55l-2.95-.4c-.18,3.6.05,7.66-1.52,11l2.74,1.16c1.01-2.75,2.07-5.48,3.17-8.2l-2.95-.4c-.2,3.31-1.2,6.49-2.44,9.55-.31.75.33,1.65,1.05,1.85.86.24,1.54-.29,1.85-1.05,1.35-3.32,2.33-6.75,2.55-10.34.05-.74-.6-1.39-1.3-1.47-.8-.09-1.36.36-1.65,1.07-1.1,2.72-2.15,5.45-3.17,8.2-.58,1.58,2.02,2.7,2.74,1.16,1.83-3.89,1.71-8.31,1.93-12.52.04-.74-.6-1.39-1.3-1.47-.78-.09-1.38.36-1.65,1.07-1.12,2.99-1.68,6.16-1.67,9.35,0,1.63,2.66,2.11,2.95.4.61-3.65.78-7.34.72-11.03-.01-.74-.56-1.39-1.3-1.47-.8-.1-1.35.36-1.65,1.07-1.39,3.32-1.95,6.97-1.62,10.55.07.81.64,1.5,1.5,1.5.78,0,1.54-.69,1.5-1.5-.09-1.84-.14-3.69-.13-5.53,0-1.68.35-3.62-.23-5.24-.39-1.08-2.17-1.64-2.74-.36-1.46,3.27-1.06,6.94-.85,10.42l2.95-.4c-.46-3.25,0-6.54-.6-9.79-.29-1.57-2.45-1.27-2.89,0-1.19,3.4-.9,7.02-.53,10.54l2.95-.4c-.27-1.6-.3-3.23-.39-4.85s-.08-3.39-.83-4.84c-.5-.95-2.11-1-2.59,0-.79,1.63-.79,3.46-.79,5.24,0,1.9.16,3.8.31,5.7l2.95-.4c-.7-3.02-.86-6.15-1.16-9.23-.07-.74-.51-1.38-1.3-1.47-.72-.09-1.46.34-1.65,1.07-.84,3.41-.13,6.83-.06,10.28l2.95-.4c-.93-3.03-.54-6.27-1.31-9.34-.31-1.23-2.14-1.49-2.74-.36-.79,1.48-.82,3.11-.74,4.74.08,1.8.27,3.59.43,5.38l2.95-.4c-.88-3.02-.57-6.23-1.54-9.23-.53-1.64-2.82-1.29-2.95.4-.26,3.44.85,6.78.95,10.2l2.95-.4c-.91-3.37-1.45-6.84-2.1-10.27-.33-1.74-2.86-1.21-2.95.4-.19,3.45.97,6.74,1.18,10.16l2.8-.76c-.67-1.35-1.02-2.9-1.38-4.36-.39-1.58-.7-3.19-.9-4.81-.24-1.88-2.87-1.97-3,0-.24,3.52.96,6.87,1.28,10.34l2.8-.76c-.88-1.33-1.17-3.13-1.59-4.65-.5-1.77-1-3.55-1.49-5.32l-2.89.8c.88,2.69,1.79,5.42,1.93,8.27l2.95-.4c-1.05-2.61-1.87-5.31-2.44-8.07-.39-1.89-3.29-1.09-2.89.8h0Z"/>
  <path class="cls-9" d="m926.41,221.67c2.05-3.71,3.73-7.77,4.56-11.94.46-2.27.53-4.58.4-6.88s-.24-4.57-.76-6.75c-.34-1.44-2.53-1.42-2.89,0-.45,1.77-.74,3.57-.89,5.39-.16,1.92,2.84,1.91,3,0,.13-1.56.4-3.08.78-4.59h-2.89c.49,2.06.59,4.31.68,6.42s.04,4.03-.4,6c-.84,3.8-2.3,7.44-4.18,10.84-.94,1.69,1.65,3.21,2.59,1.51h0Z"/>
  <path class="cls-9" d="m928.42,194.29c.03.19.03.21.01.08,0,.08.02.16.03.24.02.19.04.37.05.56.02.32.04.64.05.97.03.73.04,1.45.05,2.18.04,1.5.13,3,.47,4.47.17.77,1.1,1.29,1.85,1.05.8-.26,1.23-1.02,1.05-1.85-.29-1.26-.34-2.53-.37-4s-.08-3-.3-4.5c-.11-.78-1.14-1.28-1.85-1.05-.85.28-1.17,1.01-1.05,1.85h0Z"/>
  <path class="cls-9" d="m929.17,193.46c.37,1.3.45,2.66.56,4s.19,2.81.19,4.22c0,2.72-.32,5.4-1.19,7.99-.62,1.83,2.28,2.62,2.89.8.95-2.82,1.3-5.82,1.3-8.79,0-1.46-.08-2.92-.2-4.37-.13-1.55-.22-3.14-.66-4.64-.53-1.85-3.43-1.06-2.89.8h0Z"/>
  <path class="cls-9" d="m916.83,212.83c.72,2.32,1.89,4.42,3.42,6.3.4.49,1.3.57,1.82.23.59-.38.82-1.01.69-1.69-.28-1.42-1.17-2.59-2.09-3.67-.86-1.01-1.77-2.05-2.96-2.68-.57-.3-1.36-.27-1.82.23s-.6,1.24-.23,1.82c1.42,2.29,2.84,4.69,4.68,6.68.41.44,1.11.53,1.64.31s.98-.79.92-1.37c-.09-.92-.31-1.72-.7-2.55-.34-.71-1.41-.95-2.05-.54-.73.47-.9,1.29-.54,2.05.07.15.07.14,0-.04.03.07.06.15.08.22.04.11.07.22.11.33s.06.23.08.34c.02.08.03.15.04.23-.03-.21-.03-.22-.01-.05l2.56-1.06c-.22-.23-.43-.48-.63-.72-.04-.05-.37-.46-.14-.17-.1-.13-.19-.25-.29-.38-.36-.48-.69-.98-1.02-1.48-.73-1.1-1.44-2.2-2.13-3.32l-2.05,2.05c.13.07.26.14.38.22.07.05.49.28.14.09.24.14.46.4.65.59.39.39.75.81,1.11,1.23.19.22.39.45.56.68-.23-.31,0,0,.03.05.09.12.17.24.25.36.14.23.34.5.41.76-.11-.4.01.07.04.15.04.14.07.28.1.42l2.51-1.46c-.05-.06-.38-.43-.12-.14-.07-.08-.14-.18-.2-.27-.16-.21-.31-.43-.45-.65-.28-.42-.54-.86-.78-1.31-.12-.22-.23-.43-.33-.65-.07-.14-.13-.27-.19-.41-.04-.08-.18-.4-.03-.06-.22-.48-.38-.99-.54-1.49-.23-.75-1.06-1.3-1.85-1.05s-1.3,1.04-1.05,1.85h0Z"/>
  <path class="cls-9" d="m916.56,213.81c.88,2.51,1.89,5.69,4.34,7.11.63.37,1.73.21,2.05-.54.24-.56.3-1.01.24-1.61-.05-.47-.11-.95-.16-1.42-.11-.93-.22-1.86-.34-2.79-.24-1.77-.61-3.46-1.38-5.09-.28-.59-1.1-.85-1.69-.69-.68.19-1.03.78-1.1,1.45-.2,1.77.3,3.53.9,5.18.57,1.56,1.19,3.11,2.11,4.5.61.92,2.01,1.02,2.59,0,.52-.9.14-2-.02-2.96-.14-.87-.29-1.74-.43-2.6-.28-1.65-.51-3.33-1.03-4.92-.23-.71-.89-1.18-1.65-1.07-.66.09-1.4.73-1.3,1.47.23,1.75.51,3.5.89,5.22.35,1.6.66,3.42,1.77,4.69.61.7,1.94.53,2.36-.3.39-.78.3-1.53.26-2.37s-.08-1.61-.11-2.42c-.07-1.58-.15-3.16-.22-4.73-.04-.78-.66-1.54-1.5-1.5-.89.04-1.4.66-1.5,1.5-.16,1.36-.22,2.74-.13,4.11.04.67.11,1.35.28,2,.19.73.49,1.61,1.18,2.01.96.56,2.16-.03,2.44-1.06.18-.66.22-1.38.26-2.06.1-1.37.15-2.75.19-4.13h-3c.01,2.04.06,4.09.59,6.07.38,1.43,2.5,1.42,2.89,0s.53-2.95.34-4.43c-.1-.78-.62-1.54-1.5-1.5-.73.03-1.61.67-1.5,1.5.17,1.29.1,2.42-.23,3.63h2.89c-.46-1.7-.47-3.45-.48-5.28,0-.78-.69-1.54-1.5-1.5s-1.47.66-1.5,1.5c-.03.98-.07,1.95-.12,2.93-.02.46-.05.92-.08,1.38-.02.24-.04.48-.07.72,0-.1,0-.05-.03.14-.06.24-.04.24.04,0l.54-.54-.08.05,1.16-.15-.1-.02.66.39c.13.12.08.18.02-.02.04.13-.05-.17-.06-.2-.08-.24-.13-.49-.18-.74-.05-.28-.08-.89-.1-1.35-.03-1.16.02-2.32.16-3.47h-3c.07,1.45.14,2.9.2,4.35.03.71.07,1.42.1,2.13.02.35.03.71.05,1.06,0,.19.02.39.03.58,0,.31-.15.39.1-.11l2.36-.3c.13.15-.1-.18-.13-.22-.2-.36.05.18-.11-.25-.12-.34-.23-.67-.32-1.02-.19-.68-.34-1.38-.49-2.07-.3-1.39-.56-2.89-.74-4.24l-2.95.4c.46,1.41.69,2.88.94,4.34.13.77.26,1.54.39,2.32.06.39.13.77.19,1.16.03.19.06.39.1.58.02.1.03.19.05.29.05.43.09.26.13-.51h2.59c-.82-1.24-1.32-2.44-1.81-3.78-.54-1.48-.96-2.83-.79-4.38l-2.8.76c.25.52.46,1.2.63,1.86.18.71.3,1.43.4,2.16.07.49.17,1.32.24,1.96.04.38.09.76.13,1.14.02.22.05.44.07.66.03.31-.07.67.17.1l2.05-.54c-.75-.44-1.28-1.35-1.77-2.3-.27-.53-.4-.84-.59-1.34-.21-.55-.41-1.11-.61-1.67-.27-.76-1.03-1.27-1.85-1.05-.74.2-1.32,1.08-1.05,1.85h0Z"/>
  <path class="cls-9" d="m924.74,223.54c-.11-.21-.21-.43-.31-.65l.15.36c-.3-.73-.51-1.49-.62-2.27l.05.4c-.03-.24-.05-.48-.07-.72-.02-.4-.15-.77-.44-1.06-.26-.26-.69-.46-1.06-.44s-.79.14-1.06.44-.46.66-.44,1.06c.09,1.55.49,3.02,1.21,4.4.36.7,1.4.96,2.05.54.71-.46.93-1.31.54-2.05h0Z"/>
  <path class="cls-9" d="m923.7,222.18c-.77-.79-1.54-1.59-2.3-2.39-.36-.39-.73-.77-1.09-1.16-.08-.08-.15-.17-.23-.25-.04-.04-.07-.09-.11-.13-.13-.15.04.07.08.1-.17-.16-.29-.44-.38-.65l.15.36c-.03-.08-.06-.16-.09-.24-.25-.74-1.05-1.31-1.85-1.05-.74.24-1.31,1.05-1.05,1.85.42,1.24,1.35,2.14,2.23,3.07.83.88,1.66,1.75,2.5,2.61.55.56,1.58.59,2.12,0s.59-1.52,0-2.12h0Z"/>
  <path class="cls-9" d="m924.78,223.83c.4-.73.73-1.51.97-2.3.06-.2.07-.4.03-.6,0-.2-.07-.39-.18-.56-.09-.17-.22-.32-.39-.42-.14-.13-.31-.22-.51-.27-.38-.09-.81-.07-1.16.15s-.57.51-.69.9c-.1.33-.22.66-.36.98l.15-.36c-.14.33-.29.65-.47.97-.19.35-.26.77-.15,1.16.05.2.14.37.27.51.11.16.25.29.42.39.35.18.77.28,1.16.15.37-.12.71-.34.9-.69h0Z"/>
  <path class="cls-9" d="m925.27,223.77c.31-.73.54-1.48.71-2.25.08-.4.06-.8-.15-1.16-.18-.31-.54-.61-.9-.69-.38-.09-.81-.07-1.16.15-.32.2-.61.51-.69.9-.16.77-.4,1.53-.71,2.25-.06.2-.07.4-.03.6,0,.2.07.39.18.56.18.31.54.61.9.69.38.09.81.07,1.16-.15l.3-.23c.19-.19.31-.41.39-.66h0Z"/>
  <path class="cls-9" d="m929.28,192.09c.09,1.89.59,3.72.77,5.6s.18,3.75-.08,5.6c-.11.8.2,1.61,1.05,1.85.7.19,1.73-.24,1.85-1.05.29-2.05.4-4.1.21-6.17-.18-1.95-.7-3.86-.79-5.82-.04-.81-.66-1.5-1.5-1.5-.78,0-1.54.69-1.5,1.5h0Z"/>
  <path class="cls-9" d="m923.86,226.12c-.92-1.15-1.81-2.32-2.67-3.5-.13-.19-.37-.28-.58-.15-.18.11-.29.4-.15.58.91,1.25,1.84,2.47,2.81,3.68.14.18.45.15.6,0,.18-.18.14-.42,0-.6h0Z"/>
  <path class="cls-9" d="m924.25,227.35c-1.01-1.67-2.03-3.4-3.44-4.78-.39-.38-.99.22-.6.6,1.35,1.33,2.33,3,3.3,4.61.28.47,1.02.04.73-.43h0Z"/>
  <path class="cls-9" d="m924.49,227.55c.08-1.48.56-2.92.95-4.34.14-.53-.68-.75-.82-.23-.41,1.5-.9,3-.98,4.56-.03.55.82.55.85,0h0Z"/>
  <path class="cls-9" d="m924.19,225.84l-.09-.79c0-.06,0-.11-.04-.16-.02-.05-.05-.1-.09-.14-.07-.07-.19-.13-.3-.12s-.22.04-.3.12c-.07.08-.14.19-.12.3l.09.79c0,.06,0,.11.04.16.02.05.05.1.09.14.07.07.19.13.3.12s.22-.04.3-.12c.07-.08.14-.19.12-.3h0Z"/>
  <path class="cls-9" d="m924.06,228.45c.55,0,.55-.85,0-.85s-.55.85,0,.85h0Z"/>
  <path class="cls-9" d="m924.74,226.4l1.69-4.72c.18-.52-.64-.74-.82-.23l-1.69,4.72c-.18.52.64.74.82.23h0Z"/>
  <path class="cls-9" d="m929.64,215.31c.65-1.59,1.31-3.17,1.98-4.76.09-.21-.1-.47-.3-.52-.25-.07-.43.08-.52.3-.67,1.58-1.33,3.17-1.98,4.76-.09.21.09.47.3.52.24.07.44-.08.52-.3h0Z"/>
  <path class="cls-9" d="m929.28,215.45c1.33-2.06,2.31-4.34,2.88-6.72.13-.53-.69-.76-.82-.23-.56,2.32-1.5,4.51-2.79,6.52-.3.46.44.89.73.43h0Z"/>
  <path class="cls-9" d="m931.92,190.45c.55,0,.55-.85,0-.85s-.55.85,0,.85h0Z"/>
  <path class="cls-9" d="m933.46,197.09c-.33-2.32-.74-4.63-1.23-6.92-.12-.53-.94-.31-.82.23.49,2.29.91,4.6,1.23,6.92.03.23.32.35.52.3.25-.06.33-.3.3-.52h0Z"/>
  <path class="cls-9" d="m933.4,202.13c.16-.43.17-.89.17-1.35,0-.52-.02-1.04-.05-1.56-.05-1.02-.15-2.04-.28-3.05-.03-.23-.17-.42-.43-.43-.21,0-.45.2-.43.43.13.97.22,1.95.27,2.93.03.48.04.96.05,1.44s.03.91-.13,1.36c-.18.52.64.74.82.23h0Z"/>
  <path class="cls-9" d="m931.64,190.72c1.06,3.24,1.06,6.66,1.04,10.04,0,.55.85.55.85,0,.02-3.45.01-6.95-1.07-10.26-.17-.52-.99-.3-.82.23h0Z"/>
  <path class="cls-9" d="m932.07,209.88c.85-2.41.85-5.01,1.49-7.47.14-.53-.68-.76-.82-.23-.64,2.46-.64,5.06-1.49,7.47-.18.52.64.74.82.23h0Z"/>
  <path class="cls-9" d="m932.74,207.53c.53-1.67.66-3.45.83-5.18.18-1.83.29-3.67.09-5.51-.06-.54-.91-.54-.85,0,.19,1.77.1,3.54-.07,5.3s-.28,3.5-.82,5.16c-.17.52.65.75.82.23h0Z"/>
  <path class="cls-4" d="m929.92,183.74c1,2.27,1.86,4.6,2.59,6.96.16.52.98.3.82-.23-.76-2.44-1.65-4.83-2.68-7.17-.22-.5-.95-.07-.73.43h0Z"/>
  <path class="cls-4" d="m929.86,183.58c.18.28.34.57.48.87.03.07.07.14.1.21.02.04.04.08.05.12-.04-.1.01.03.02.05.06.15.12.31.17.47.07.21.3.37.52.3.21-.07.37-.3.3-.52-.23-.67-.53-1.32-.91-1.92-.12-.19-.38-.28-.58-.15s-.28.38-.15.58h0Z"/>
  <path class="cls-4" d="m933.47,196.15c.08,2.71-.04,5.43-.4,8.12s-1.01,5.06-1.81,7.57c-.17.52.65.75.82.23.41-1.27.87-2.53,1.17-3.83s.49-2.56.66-3.85c.36-2.73.49-5.48.41-8.23-.02-.55-.87-.55-.85,0h0Z"/>
  <path class="cls-4" d="m929.56,182.8c.48.98,1,1.95,1.55,2.9.28.47,1.01.04.73-.43-.55-.95-1.07-1.91-1.55-2.9-.1-.21-.39-.26-.58-.15-.21.12-.25.37-.15.58h0Z"/>
  <path class="cls-4" d="m911.06,212.27c1.82,3.02,3.89,5.73,6.22,8.38s4.62,5.2,6.39,8.2c.28.47,1.01.04.73-.43-1.71-2.9-3.93-5.43-6.15-7.95-2.4-2.73-4.58-5.51-6.46-8.63-.28-.47-1.02-.04-.73.43h0Z"/>
  <path class="cls-4" d="m924.91,228.82c.07-.19.12-.39.15-.59.02-.06.02-.11,0-.17,0-.06-.02-.11-.05-.16-.03-.05-.06-.09-.11-.12-.04-.04-.09-.06-.14-.08-.11-.02-.23-.02-.33.04l-.09.07c-.05.05-.09.12-.11.19-.03.2-.08.4-.15.59-.02.06-.02.11,0,.17,0,.06.02.11.05.16.03.05.06.09.11.12.04.04.09.06.14.08.11.02.23.02.33-.04l.09-.07c.05-.05.09-.12.11-.19h0Z"/>
  <path class="cls-4" d="m924.84,228.81c1.11-3.13,2.08-6.37,3.61-9.32.64-1.24,1.25-2.46,1.79-3.74.59-1.4,1.18-2.79,2.07-4.04.32-.45-.42-.87-.73-.43-.87,1.22-1.47,2.59-2.04,3.97s-1.28,2.73-1.96,4.1c-1.48,2.95-2.45,6.14-3.55,9.24-.18.52.64.74.82.23h0Z"/>
  <path class="cls-11" d="m907.66,195.8c-.12,1.17-.15,2.35-.11,3.53.01.39.16.78.44,1.06.26.26.69.46,1.06.44s.79-.14,1.06-.44.45-.66.44-1.06c-.04-1.18,0-2.36.11-3.53.04-.36-.19-.81-.44-1.06-.26-.26-.69-.46-1.06-.44s-.79.14-1.06.44c-.28.31-.4.64-.44,1.06h0Z"/>
  <path class="cls-9" d="m908.23,193.23c-1.03,2.71-1.21,5.66-.67,8.49.15.77,1.12,1.28,1.85,1.05.82-.27,1.21-1.02,1.05-1.85-.04-.18-.07-.37-.1-.55-.06-.33.01.21-.02-.15-.03-.32-.06-.65-.08-.97-.03-.6-.01-1.21.04-1.81.01-.14.03-.28.04-.42.02-.18.02-.18,0-.02.01-.07.02-.14.03-.21.05-.3.11-.6.17-.89.15-.64.34-1.26.57-1.87.28-.73-.31-1.68-1.05-1.85-.86-.19-1.55.26-1.85,1.05h0Z"/>
  <path class="cls-9" d="m907.3,196.52c-.23,4.45.56,8.9,2.3,13,1.81,4.28,4.72,7.8,7.85,11.19,1.31,1.42,3.43-.71,2.12-2.12-2.87-3.1-5.56-6.3-7.23-10.22s-2.25-7.79-2.04-11.84c.1-1.93-2.9-1.92-3,0h0Z"/>
  <path class="cls-9" d="m909.47,194.51c.39,3.89.96,7.76,1.71,11.6.16.8,1.11,1.25,1.85,1.05.83-.23,1.2-1.05,1.05-1.85-.7-3.58-1.24-7.18-1.61-10.8-.08-.81-.63-1.5-1.5-1.5-.75,0-1.58.69-1.5,1.5h0Z"/>
  <path class="cls-9" d="m907.33,195.88c-.71,3.06-.08,6.22.75,9.2s1.92,5.59,3.34,8.16,3.13,4.89,5.05,7.07c2.1,2.38,4.39,4.6,6.19,7.22,1.09,1.58,3.69.08,2.59-1.51-3.22-4.67-7.68-8.29-10.61-13.19-1.38-2.31-2.5-4.76-3.31-7.33-.87-2.75-1.78-5.94-1.11-8.82.44-1.88-2.46-2.68-2.89-.8h0Z"/>
  <path class="cls-9" d="m926.57,183.57c.29.32.57.65.83.99l-.23-.3c.32.42.62.85.9,1.3.2.33.52.59.9.69.2.06.4.07.6.03.2,0,.39-.07.56-.18.32-.21.6-.51.69-.9s.06-.81-.15-1.16c-.57-.92-1.24-1.79-1.97-2.59-.25-.28-.69-.44-1.06-.44s-.81.16-1.06.44-.46.66-.44,1.06.16.76.44,1.06h0Z"/>
  <path class="cls-9" d="m927.24,183.29c3.92,6.48,5.48,14.39,4.01,21.85-.75,3.8-2.35,7.2-4.15,10.6s-3.65,6.92-4.36,10.78c-.35,1.89,2.54,2.7,2.89.8.75-4.04,2.77-7.58,4.65-11.18s3.44-7.34,4.08-11.41c1.23-7.92-.37-16.1-4.52-22.96-1-1.65-3.59-.14-2.59,1.51h0Z"/>
  <path class="cls-9" d="m924.6,229.03c-.09-.18-.17-.37-.29-.53-.07-.1-.15-.2-.23-.3-.02-.02-.03-.04-.05-.06.03.03.03.03,0,0-.03-.04-.06-.08-.08-.13-.23-.38-.44-.77-.66-1.16-.11-.19-.39-.28-.58-.15s-.27.38-.15.58c.22.39.43.78.66,1.16.07.11.14.21.22.3.03.04.06.08.1.12.02.02.03.04.05.06-.03-.04-.03-.03,0,0,.11.17.2.35.29.53.1.2.4.27.58.15.21-.13.26-.37.15-.58h0Z"/>
  <path class="cls-9" d="m919.54,223.87c.95.93,1.76,1.96,2.46,3.09.67,1.06,1.56,1.99,2.07,3.14.22.5.96.07.73-.43-.53-1.18-1.45-2.14-2.13-3.23-.72-1.15-1.56-2.22-2.54-3.17-.39-.38-.99.22-.6.6h0Z"/>
  <path class="cls-9" d="m924.96,229.73c.17-.69.32-1.39.46-2.09.04-.22-.06-.47-.3-.52-.21-.05-.48.06-.52.3-.14.7-.29,1.4-.46,2.09-.05.22.07.47.3.52s.47-.07.52-.3h0Z"/>
  <path class="cls-9" d="m924.78,228.43c-.05-.47-.13-.93-.24-1.39-.06-.22-.31-.37-.52-.3s-.36.29-.3.52c.09.33.15.67.2,1.01l-.02-.11c.01.09.02.18.03.27.01.12.04.22.12.3.07.07.19.13.3.12s.22-.04.3-.12c.07-.08.14-.19.12-.3h0Z"/>
  <path class="cls-9" d="m924.78,227.81c.06-.19.13-.38.2-.57.03-.09.07-.17.1-.26.01-.04.03-.07.05-.11.01-.02.02-.05.03-.07-.02.04-.02.04,0,0,.15-.35.32-.7.51-1.04.11-.2.05-.47-.15-.58s-.47-.06-.58.15c-.39.72-.72,1.48-.97,2.26-.07.21.08.47.3.52.23.05.45-.07.52-.3h0Z"/>
  <path class="cls-9" d="m920.04,224.14c.13.34.33.62.56.9.21.25.42.5.62.75.07.08.2.12.3.12.1,0,.23-.05.3-.12s.13-.19.12-.3-.05-.21-.12-.3c-.2-.24-.4-.47-.59-.71-.04-.05-.09-.11-.13-.16.01.01.05.07.02.02-.01-.01-.02-.03-.03-.04-.02-.03-.04-.06-.06-.08-.04-.06-.08-.12-.11-.19-.02-.03-.03-.06-.05-.09,0-.02-.01-.03-.02-.05-.02-.05.04.1,0,.02-.04-.11-.09-.19-.2-.25-.09-.05-.23-.08-.33-.04-.2.06-.38.3-.3.52h0Z"/>
  <path class="cls-9" d="m920.61,225.13c1.21,1.56,2.31,3.19,3.32,4.89.28.47,1.01.04.73-.43-1.04-1.76-2.2-3.45-3.45-5.06-.14-.18-.45-.15-.6,0-.18.18-.14.42,0,.6h0Z"/>
  <path class="cls-9" d="m924.19,230.24c.09.14.18.27.26.42.03.05.1,0,.07-.04-.08-.14-.17-.28-.26-.42-.01-.02-.04-.03-.06-.02-.02.01-.03.04-.02.06h0Z"/>
  <path class="cls-9" d="m924.12,230.18c.05.07.1.13.14.21.01.02.04.03.06.02s.03-.04.02-.06c-.04-.07-.09-.14-.14-.21,0,0-.01-.02-.03-.02-.01,0-.02,0-.03,0-.02.01-.03.04-.02.06h0Z"/>
  <path class="cls-9" d="m924.1,230.18c.22.29.34.65.56.93.03.04.09-.02.06-.06-.22-.28-.34-.63-.55-.92-.03-.04-.11,0-.07.04h0Z"/>
  <path class="cls-9" d="m924.74,230.94v-.2s-.01-.04-.04-.04-.04.02-.04.04v.2s.01.04.04.04.04-.02.04-.04h0Z"/>
  <path class="cls-9" d="m924.75,230.89c.02-.27.05-.55.1-.82,0-.05-.07-.08-.08-.02-.05.28-.08.56-.1.84,0,.05.08.05.09,0h0Z"/>
  <path class="cls-9" d="m924.39,230.38c.02.11.06.22.1.33.02.05.09.01.08-.03-.04-.2-.11-.38-.19-.56-.02-.05-.1-.03-.08.02.05.17.12.35.19.51,0,.02.02.03.05.03.02,0,.04-.02.04-.04-.01-.21-.13-.39-.26-.54-.03-.04-.09.01-.07.05.07.16.16.31.26.45.01.02.05.03.07,0,.03-.04.02-.08,0-.13-.02-.05-.03-.09-.05-.14-.04-.09-.09-.18-.16-.26-.03-.04-.1,0-.07.04.04.09.08.18.13.27.02.04.04.09.07.13.02.04.04.08.08.1.03.01.06,0,.06-.04,0-.17-.08-.33-.15-.48-.02-.04-.09-.01-.08.03.04.12.09.24.15.36,0,.02.04.03.06.02.06-.04.02-.12,0-.18-.03-.08-.05-.16-.08-.24l-.08.02c.04.12.08.23.14.34.01.02.05.03.07,0,.04-.05.03-.11.01-.17-.02-.08-.04-.15-.06-.22-.01-.05-.09-.03-.08.02.01.08.03.16.05.23.01.05.04.17.12.13.06-.03.04-.13.03-.18,0-.08-.02-.16-.05-.23-.01-.04-.09-.04-.08.01,0,.07.01.15.03.22.01.06.03.13.08.18.03.03.07,0,.07-.03,0-.13,0-.26-.03-.39-.01-.05-.08-.03-.08.01,0,.08,0,.17.02.25.01.04.07.04.08,0,.02-.09.03-.18.03-.28,0-.05-.08-.05-.09,0,0,.09,0,.17-.03.25h.08c-.02-.07-.03-.15-.02-.23h-.08c.03.13.03.26.03.38l.07-.03s-.05-.1-.06-.15c-.01-.06-.02-.12-.02-.19h-.08c.02.06.03.12.04.17,0,.03,0,.06,0,.09,0,.02,0,.06,0,.08,0,.02,0,.01.04,0,0,0,0-.02,0-.02,0-.01,0-.02-.01-.04,0-.03-.02-.05-.02-.08-.01-.06-.03-.11-.04-.17l-.08.02c.02.06.03.12.04.17,0,.03.01.06.02.09,0,.01.01.04,0,.05h.07c-.06-.09-.1-.2-.13-.31-.02-.05-.1-.03-.08.02.02.06.04.12.06.18,0,.03.02.06.03.09,0,.01,0,.03.01.04,0,0,0,0,0,.01,0,0,0,0,0,0l.06.02c-.05-.11-.1-.22-.14-.34l-.08.03c.07.14.14.28.14.44l.06-.04s-.05-.07-.07-.1c-.02-.04-.04-.08-.06-.12-.04-.08-.08-.17-.12-.25l-.07.04c.05.07.1.14.13.21.02.04.04.07.05.11,0,.02.01.04.02.05,0,.01,0,.02.01.03h0s0,.02,0,.01h.07c-.1-.13-.18-.28-.26-.44l-.07.05c.12.14.23.3.24.48h.08c-.07-.18-.13-.35-.19-.53l-.08.02c.08.18.15.37.19.56l.08-.03c-.05-.1-.08-.2-.1-.31,0-.05-.09-.03-.08.02h0Z"/>
  <path class="cls-9" d="m924.9,229.71c-.05.23-.09.45-.12.68s-.05.45-.1.67h.08c-.05-.13-.11-.27-.18-.39-.02-.03-.08-.02-.08.02,0,.07.04.13.09.18.03.03.08,0,.07-.04-.03-.1-.06-.19-.1-.28l-.07.04c.05.08.09.15.13.24.02.04.08.02.08-.02,0-.12-.01-.23-.04-.34-.01-.05-.08-.04-.08.01,0,.1,0,.2.05.3.01.04.07.04.08,0,.03-.12.03-.23,0-.35-.01-.05-.08-.03-.08.01,0,.07,0,.14.02.21.01.04.07.04.08,0,.03-.09.04-.18.03-.27,0-.05-.07-.06-.08-.01-.01.04-.01.08,0,.12,0,.02.02.03.04.03.02,0,.03,0,.05-.01.05-.03,0-.1-.04-.07h-.01s.03.02.04.03c0-.02,0-.05,0-.07h-.08c0,.07,0,.15-.02.23h.08c-.02-.06-.03-.12-.02-.19h-.08c.02.11.02.21,0,.31h.08c-.04-.09-.05-.18-.05-.28h-.08c.03.12.04.22.04.33l.08-.02c-.04-.08-.08-.16-.13-.24-.03-.05-.1,0-.07.04.04.08.07.17.1.26l.07-.04s-.06-.07-.06-.12l-.08.02c.07.12.12.24.17.37.01.04.07.04.08,0,.05-.22.06-.45.1-.67s.07-.45.12-.68c.01-.05-.07-.08-.08-.02h0Z"/>
  <path class="cls-9" d="m926.14,225.18c.34-1.01.71-2.01,1.1-3,.02-.05-.06-.07-.08-.02-.39.99-.75,1.99-1.1,3-.02.05.06.07.08.02h0Z"/>
  <path class="cls-9" d="m926.96,222.78c.1-.23.2-.45.31-.67.02-.05-.05-.09-.07-.04-.11.22-.21.44-.31.67,0,.02,0,.05.02.06.02.01.05,0,.06-.02h0Z"/>
  <path class="cls-9" d="m926.13,225.19c.12-.3.22-.6.3-.91.01-.05-.07-.08-.08-.02-.08.31-.18.62-.3.91-.02.05.06.07.08.02h0Z"/>
  <path class="cls-9" d="m919.35,223.25c.05,0,.05-.09,0-.09s-.05.09,0,.09h0Z"/>
  <path class="cls-9" d="m919.29,223.19s-.01.02-.02.02c-.01,0-.02.03-.02.04,0,.02.01.03.03.04,0,0,0,0,0,0,0,0,0,0,.01,0,0,0,.01,0,.02.01.01.01.03.03.04.04,0,0,.02.03.03.04.01.02.02.03.03.05.04.07.08.14.15.18.05.03.09-.05.04-.07-.03-.02-.05-.04-.07-.07-.02-.03-.04-.07-.06-.1-.04-.07-.09-.14-.17-.17v.08s.05-.03.06-.06c0-.02,0-.05-.02-.06-.02-.01-.05,0-.06.02h0Z"/>
  <path class="cls-9" d="m919.34,223.43l.17.25s.04.03.06.02c.02-.01.03-.04.02-.06l-.17-.25s-.04-.03-.06-.02c-.02.01-.03.04-.02.06h0Z"/>
  <path class="cls-9" d="m919.33,223.48l1.43,1.74s.09-.02.06-.06l-1.43-1.74s-.09.02-.06.06h0Z"/>
  <path class="cls-9" d="m907.4,201.76c.07.74.25,1.45.54,2.13.02.05.09,0,.07-.04-.29-.66-.46-1.37-.53-2.09,0-.05-.09-.05-.09,0h0Z"/>
  <path class="cls-9" d="m907.45,201.78c-.15,1.16.48,2.23.62,3.36,0,.05.09.05.09,0-.14-1.13-.76-2.2-.62-3.36,0-.05-.08-.05-.09,0h0Z"/>
  <path class="cls-9" d="m907.4,202c.18,2.15.92,4.19,1.66,6.2.02.05.1.03.08-.02-.74-2-1.47-4.03-1.65-6.17,0-.05-.09-.05-.09,0h0Z"/>
  <path class="cls-9" d="m910.4,210.98c-.81-1.45-1.48-2.98-2-4.56-.25-.76-.47-1.54-.65-2.32-.19-.83-.49-1.81-.36-2.66,0-.05-.07-.08-.08-.02-.11.77.13,1.61.29,2.36.18.84.41,1.67.67,2.49.53,1.64,1.23,3.23,2.06,4.74.03.05.1,0,.07-.04h0Z"/>
  <path class="cls-9" d="m907.49,201.52c-.06.83.09,1.67.45,2.42.02.05.1,0,.07-.04-.35-.74-.51-1.56-.44-2.37,0-.05-.08-.05-.09,0h0Z"/>
  <path class="cls-9" d="m907.45,201.65c-.11.86.13,1.68.35,2.51s.41,1.62.66,2.42c.5,1.6,1.26,3.1,2.01,4.59.02.05.1,0,.07-.04-.75-1.48-1.51-2.98-2.01-4.57-.23-.74-.42-1.5-.61-2.25-.23-.87-.51-1.75-.39-2.66,0-.05-.08-.05-.09,0h0Z"/>
  <path class="cls-9" d="m910.43,211.08l-.97-1.8s-.1,0-.07.04c.38.81.79,1.6,1.26,2.36.03.05.1,0,.07-.04-.87-1.54-1.38-3.25-1.96-4.91-.29-.81-.59-1.62-.77-2.47s-.33-1.73-.5-2.59c0-.04-.07-.04-.08,0-.12.57-.05,1.1.2,1.62.02.04.09.01.08-.03-.1-.33-.16-.66-.2-1.01-.04-.45-.03-.21.05.1.16.56.32,1.12.48,1.68.01.05.1.03.08-.02-.21-.75-.43-1.49-.64-2.24-.01-.05-.08-.04-.08.01,0,.32.03.64.09.95.01.07.13.57.09.23-.03-.21-.11-.41-.13-.63,0-.02,0-.44.01-.45,0,0,.1.54.11.57.07.38.14.76.22,1.14.28,1.48.8,2.87,1.3,4.29.24.68.47,1.37.74,2.04.11.28.23.55.35.83.05.11.39.85.47.75.03-.04-.48-.84-.53-.93-.15-.29-.3-.58-.45-.87-.05-.11-.21-.38-.13-.12.05.17.18.33.26.49l.57,1.06s.1,0,.07-.04h0Z"/>
  <path class="cls-6" d="m1003.18,110.41c-1.02,1.89-.79,4.09-.52,6.14.28,2.15.83,4.13,2.18,5.87.5.64,1.6.52,2.12,0,.63-.63.5-1.48,0-2.12.07.08.05.05-.06-.09-.06-.09-.12-.18-.18-.27-.11-.19-.22-.38-.31-.57-.16-.32-.19-.43-.32-.86-.11-.37-.21-.74-.29-1.12-.04-.22-.08-.44-.12-.66-.02-.11-.03-.22-.05-.33.01.09.01.09,0-.02-.1-.81-.18-1.62-.2-2.43s0-1.42.34-2.03c.39-.71.18-1.63-.54-2.05s-1.67-.18-2.05.54h0Z"/>
  <path class="cls-6" d="m1004.47,120.44c-2.19,1.5-3.91,3.54-5.57,5.59s-3.18,4.26-3.83,6.84c-.64,2.52-.59,5.29-.26,7.86.31,2.43,1.1,4.69,2.79,6.5,1.32,1.41,3.44-.71,2.12-2.12s-1.85-3.4-2.02-5.33c-.19-2.14-.24-4.44.37-6.52s1.88-3.81,3.21-5.43c1.41-1.71,2.86-3.54,4.71-4.8,1.58-1.08.08-3.69-1.51-2.59h0Z"/>
  <path class="cls-6" d="m997.92,145.15c-2.76.28-5.38,1.44-7.23,3.55s-2.97,5.03-3.54,7.8c-1.16,5.61-.19,11.52,2.73,16.44.99,1.66,3.58.15,2.59-1.51-2.36-3.98-3.32-8.75-2.58-13.33.73-4.47,2.96-9.44,8.03-9.95,1.9-.19,1.92-3.2,0-3h0Z"/>
  <path class="cls-6" d="m990.31,171.51c-1.74.48-3.06,1.79-3.96,3.31-.4.68-.73,1.4-1.06,2.12-.43.95-.78,1.85-.86,2.9-.06.78.74,1.53,1.5,1.5.87-.04,1.43-.66,1.5-1.5.02-.22-.04-.03-.01.04-.02-.05.05-.24.06-.3.04-.16.08-.31.14-.47.03-.1.07-.19.1-.29.05-.15.03-.1-.01.02.06-.17.15-.34.23-.5.3-.65.59-1.29.95-1.91.08-.14.17-.28.25-.41.05-.08.11-.17.17-.25.02-.03.17-.25.06-.09s.03-.04.06-.07c.06-.07.12-.14.18-.21.1-.11.2-.21.31-.31.07-.06.13-.12.2-.18.03-.03.23-.17.06-.05s.04-.02.07-.04c.07-.05.15-.1.23-.15.05-.03.38-.17.38-.2,0,.05-.3.11,0,.01.09-.03.17-.05.26-.08.76-.21,1.3-1.07,1.05-1.85s-1.03-1.27-1.85-1.05h0Z"/>
  <path class="cls-6" d="m1005,120.02c-2.65-.12-5.18.63-7.74,1.21-2.73.61-5.5,1.06-8.25,1.56-5.66,1.02-11.34,2-17.04,2.79-1.9.26-1.09,3.15.8,2.89,5.54-.77,11.06-1.71,16.56-2.7,2.62-.47,5.25-.92,7.86-1.46s5.13-1.4,7.81-1.28c1.93.08,1.93-2.92,0-3h0Z"/>
  <path class="cls-6" d="m998.94,145.11c-4.5-2.13-9.2-2.77-14-3.86s-9.62-2.66-14.47-3.85c-1.87-.46-2.67,2.43-.8,2.89,4.69,1.15,9.3,2.65,14,3.75s9.37,1.59,13.75,3.66c1.74.82,3.26-1.76,1.51-2.59h0Z"/>
  <path class="cls-6" d="m991.24,171.03c-8.59-7.79-17.52-15.19-26.75-22.2-1.54-1.17-3.03,1.44-1.51,2.59,9.02,6.86,17.74,14.12,26.14,21.74,1.43,1.29,3.56-.82,2.12-2.12h0Z"/>
  <path class="cls-6" d="m831.99,65.9c6.43,0,6.45-10,0-10s-6.45,10,0,10h0Z"/>
  <path class="cls-6" d="m854.4,50c6.43,0,6.45-10,0-10s-6.45,10,0,10h0Z"/>
  <path class="cls-6" d="m851.34,65.52c6.43,0,6.45-10,0-10s-6.45,10,0,10h0Z"/>
  <path class="cls-6" d="m841.57,51.67c1.93,0,1.93-3,0-3s-1.93,3,0,3h0Z"/>
  <path class="cls-6" d="m843.87,71.4c1.93,0,1.93-3,0-3s-1.93,3,0,3h0Z"/>
  <path class="cls-6" d="m864.93,57.23c1.93,0,1.93-3,0-3s-1.93,3,0,3h0Z"/>
  <path class="cls-6" d="m872.59,45.93c1.93,0,1.93-3,0-3s-1.93,3,0,3h0Z"/>
  <path class="cls-7" d="m47.25,181.25c-.26,4.17-.27,8.34-.04,12.51.05.81.66,1.5,1.5,1.5.78,0,1.55-.69,1.5-1.5-.23-4.17-.22-8.34.04-12.51.05-.81-.73-1.5-1.5-1.5-.85,0-1.45.69-1.5,1.5h0Z"/>
  <path class="cls-7" d="m10.93,250.57c-.59,3.17-.76,6.39-.42,9.59.08.78.63,1.54,1.5,1.5.74-.03,1.59-.66,1.5-1.5-.32-2.96-.21-5.99.31-8.79.14-.77-.21-1.66-1.05-1.85-.74-.17-1.69.22-1.85,1.05h0Z"/>
  <path class="cls-7" d="m48.97,250.31c-.48,2.83-.67,5.7-.48,8.57.05.78.65,1.54,1.5,1.5.77-.03,1.55-.66,1.5-1.5-.09-1.34-.1-2.68-.03-4.02.03-.66.08-1.31.15-1.97.02-.16.03-.31.05-.47,0-.02.06-.48.03-.23.05-.36.11-.73.17-1.09.13-.77-.2-1.65-1.05-1.85-.73-.17-1.7.22-1.85,1.05h0Z"/>
  <path class="cls-7" d="m87.75,250.31c-.9,3.11-1.36,6.35-1.36,9.59,0,.78.69,1.54,1.5,1.5s1.5-.66,1.5-1.5c0-3.07.39-5.83,1.25-8.79.22-.75-.27-1.67-1.05-1.85s-1.61.24-1.85,1.05h0Z"/>
  <path class="cls-7" d="m10.8,309.94c-.3,2.86-.22,5.71.17,8.56.11.78,1.15,1.27,1.85,1.05.86-.28,1.16-1.01,1.05-1.85.03.24-.02-.19-.03-.24-.02-.19-.04-.37-.06-.56-.03-.32-.06-.64-.08-.96-.05-.67-.08-1.34-.08-2-.02-1.34.05-2.67.19-4,.08-.78-.75-1.53-1.5-1.5-.88.04-1.41.66-1.5,1.5h0Z"/>
  <path class="cls-7" d="m49.45,311.07c-.34,2.42-.47,4.85-.3,7.29.05.78.65,1.54,1.5,1.5.77-.03,1.56-.66,1.5-1.5-.08-1.13-.1-2.26-.06-3.38.02-.54.05-1.08.1-1.62.02-.27.05-.54.08-.81.02-.16.04-.31.05-.47,0-.07.02-.13.03-.2-.02.17-.02.17,0,0,.06-.42.07-.78-.15-1.16-.18-.31-.54-.61-.9-.69-.71-.16-1.73.22-1.85,1.05h0Z"/>
  <path class="cls-7" d="m88.18,309.43c-.19,3.23-.16,6.47.09,9.7.06.78.65,1.54,1.5,1.5.76-.03,1.57-.66,1.5-1.5-.25-3.23-.29-6.47-.09-9.7.05-.78-.72-1.53-1.5-1.5-.85.04-1.45.66-1.5,1.5h0Z"/>
  <path class="cls-7" d="m48.49,381.04c-.64,3.76-.57,7.56.25,11.3.17.79,1.09,1.25,1.85,1.05.82-.22,1.22-1.05,1.05-1.85-.69-3.17-.79-6.5-.25-9.7.13-.8-.21-1.62-1.05-1.85-.72-.2-1.71.24-1.85,1.05h0Z"/>
  <path class="cls-7" d="m164.88,299.08c-.45,2.75-.63,5.53-.48,8.32.04.78.66,1.54,1.5,1.5.78-.03,1.55-.66,1.5-1.5-.07-1.3-.08-2.6-.01-3.89.03-.64.08-1.27.15-1.9.03-.3.07-.61.11-.91-.04.27.02-.15.03-.21.03-.2.06-.4.09-.6.13-.77-.2-1.65-1.05-1.85-.72-.16-1.71.22-1.85,1.05h0Z"/>
  <path class="cls-7" d="m202.35,321.69c-.13,1.71-.09,3.42.12,5.12.05.41.13.76.44,1.06.26.26.69.46,1.06.44s.79-.14,1.06-.44c.25-.27.49-.68.44-1.06-.21-1.7-.25-3.41-.12-5.12.06-.78-.73-1.53-1.5-1.5-.86.04-1.44.66-1.5,1.5h0Z"/>
  <path class="cls-7" d="m220.71,322.71v4.85c0,.78.69,1.54,1.5,1.5s1.5-.66,1.5-1.5v-4.85c0-.78-.69-1.54-1.5-1.5s-1.5.66-1.5,1.5h0Z"/>
  <path class="cls-7" d="m11.03,458.28c-.25,2.23-.29,4.47-.1,6.71.06.78.64,1.54,1.5,1.5.76-.03,1.57-.66,1.5-1.5-.19-2.24-.15-4.48.1-6.71.09-.78-.75-1.53-1.5-1.5-.89.04-1.4.66-1.5,1.5h0Z"/>
  <path class="cls-7" d="m49.49,457.9c-.24,2.63-.13,5.26.26,7.87.11.78,1.14,1.28,1.85,1.05.85-.28,1.17-1.01,1.05-1.85-.01-.1-.03-.19-.04-.29.02.14.02.15,0,.04-.02-.14-.04-.29-.05-.43-.04-.31-.07-.62-.09-.93-.05-.6-.08-1.2-.1-1.8-.03-1.23.01-2.45.13-3.67.07-.78-.74-1.53-1.5-1.5-.87.04-1.42.66-1.5,1.5h0Z"/>
  <path class="cls-7" d="m88.8,457.9c-.36,3.01-.28,6.02.13,9.02.11.78,1.15,1.27,1.85,1.05.86-.28,1.16-1.01,1.05-1.85.03.19-.03-.29-.04-.34-.02-.17-.04-.33-.05-.5-.04-.36-.07-.72-.09-1.08-.05-.69-.07-1.38-.08-2.08,0-1.41.08-2.83.24-4.23.09-.78-.76-1.53-1.5-1.5-.89.04-1.4.66-1.5,1.5h0Z"/>
  <path class="cls-7" d="m11.97,515.54c0,2.62.08,5.24.25,7.85.05.78.65,1.54,1.5,1.5.77-.03,1.56-.66,1.5-1.5-.18-2.61-.26-5.23-.25-7.85,0-.78-.69-1.54-1.5-1.5s-1.5.66-1.5,1.5h0Z"/>
  <path class="cls-7" d="m50.87,516.3c-.27,2.61-.27,5.24.02,7.85.09.78.63,1.54,1.5,1.5.74-.03,1.59-.66,1.5-1.5-.29-2.61-.29-5.24-.02-7.85.08-.78-.75-1.53-1.5-1.5-.88.04-1.41.66-1.5,1.5h0Z"/>
  <path class="cls-7" d="m89.25,514.95c-.57,3.19-.57,6.4.01,9.59.14.77,1.12,1.28,1.85,1.05.83-.27,1.2-1.02,1.05-1.85-.23-1.26-.35-2.58-.35-4,0-.68.03-1.36.08-2.04.07-.79.12-1.19.26-1.96s-.21-1.65-1.05-1.85c-.73-.17-1.7.22-1.85,1.05h0Z"/>
  <path class="cls-7" d="m167.29,428.22c-.42,3.37-.56,6.76-.43,10.15.03.81.67,1.5,1.5,1.5.79,0,1.53-.69,1.5-1.5-.13-3.39.02-6.78.43-10.15.1-.81-.76-1.5-1.5-1.5-.89,0-1.4.69-1.5,1.5h0Z"/>
  <path class="cls-7" d="m206.04,450.61c-.71,2.35-.97,4.85-.72,7.29.08.78.63,1.54,1.5,1.5.74-.03,1.59-.66,1.5-1.5-.12-1.14-.13-2.28-.02-3.42.01-.15.03-.3.05-.45.04-.33-.04.25.02-.11.04-.28.09-.55.14-.83.11-.57.26-1.13.43-1.69.23-.75-.27-1.67-1.05-1.85s-1.6.24-1.85,1.05h0Z"/>
  <path class="cls-7" d="m223.86,450.05c-.77,2.06-1.09,4.32-.9,6.52.07.78.64,1.54,1.5,1.5.76-.03,1.57-.66,1.5-1.5-.04-.53-.06-1.05-.05-1.58,0-.23.02-.45.03-.68.01-.15.03-.3.04-.45v-.11c.03-.17.03-.15,0,.06.04-.05.04-.27.05-.34.02-.13.05-.26.07-.39.05-.24.1-.48.16-.72.13-.51.29-1.02.48-1.51.28-.74-.31-1.68-1.05-1.85-.85-.19-1.55.26-1.85,1.05h0Z"/>
  <path class="cls-7" d="m241.28,450.42c-.61,1.99-.96,4.06-1.08,6.13-.04.78.72,1.53,1.5,1.5.85-.04,1.45-.66,1.5-1.5.03-.47.06-.93.12-1.4.01-.09.05-.58.01-.14,0-.11.03-.21.05-.32.04-.23.07-.46.12-.69.17-.94.4-1.87.68-2.78.23-.75-.27-1.67-1.05-1.85-.81-.18-1.6.24-1.85,1.05h0Z"/>
  <path class="cls-7" d="m219.08,526.44c-.5,2.55-.5,5.12,0,7.68.15.77,1.12,1.28,1.85,1.05.82-.27,1.21-1.02,1.05-1.85-.05-.28-.1-.56-.14-.84-.02-.11-.01-.09,0,.08-.01-.09-.02-.17-.03-.26-.01-.13-.03-.26-.04-.39-.05-.54-.07-1.09-.07-1.63s.03-1.09.08-1.63c.01-.13.03-.26.04-.39.04-.36-.04.21.01-.12.05-.3.1-.6.16-.9.15-.77-.22-1.66-1.05-1.85-.74-.17-1.68.22-1.85,1.05h0Z"/>
  <path class="cls-7" d="m235.46,527.79c-.27,2.22-.41,4.46-.41,6.7,0,.78.69,1.54,1.5,1.5s1.5-.66,1.5-1.5c0-2.24.13-4.48.41-6.7.04-.35-.2-.82-.44-1.06-.26-.26-.69-.46-1.06-.44-.89.04-1.4.66-1.5,1.5h0Z"/>
  <path class="cls-7" d="m252.83,528.18l.03,5.74c0,.78.69,1.54,1.5,1.5s1.5-.66,1.5-1.5l-.03-5.74c0-.78-.69-1.54-1.5-1.5s-1.5.66-1.5,1.5h0Z"/>
  <path class="cls-7" d="m217.15,385.7c-.24,1.66-.33,3.32-.19,5,.03.4.15.77.44,1.06.26.26.69.46,1.06.44.76-.03,1.57-.66,1.5-1.5-.12-1.47-.08-2.96.11-4.42l-.05.4c0-.06.02-.12.03-.18.06-.42.07-.78-.15-1.16-.18-.31-.54-.61-.9-.69-.38-.09-.81-.07-1.16.15-.3.2-.64.52-.69.9h0Z"/>
  <path class="cls-7" d="m234.1,387.43l-.41,4.59c-.03.36.19.81.44,1.06s.69.46,1.06.44.79-.14,1.06-.44.4-.64.44-1.06l.41-4.59c.03-.36-.19-.81-.44-1.06s-.69-.46-1.06-.44-.79.14-1.06.44-.4.64-.44,1.06h0Z"/>
  <path class="cls-7" d="m252.1,387.05l-.41,4.98c-.06.78.74,1.53,1.5,1.5.87-.04,1.43-.66,1.5-1.5l.41-4.98c.06-.78-.74-1.53-1.5-1.5-.87.04-1.43.66-1.5,1.5h0Z"/>
  <path class="cls-7" d="m271.02,362.73c-.16,2.62-.12,5.24.12,7.85.07.78.64,1.54,1.5,1.5.75-.03,1.58-.66,1.5-1.5-.24-2.61-.28-5.23-.12-7.85.05-.78-.72-1.53-1.5-1.5-.85.04-1.45.66-1.5,1.5h0Z"/>
  <path class="cls-7" d="m239.07,322.13l-.19,5.17c-.03.78.71,1.54,1.5,1.5.84-.04,1.47-.66,1.5-1.5l.19-5.17c.03-.78-.71-1.54-1.5-1.5-.84.04-1.47.66-1.5,1.5h0Z"/>
  <path class="cls-7" d="m271.1,503.86c.03,5.04.06,10.08.09,15.13.01,1.93,3.01,1.93,3,0-.03-5.04-.06-10.08-.09-15.13-.01-1.93-3.01-1.93-3,0h0Z"/>
  <path class="cls-7" d="m347.29,525.11c-.3,2.35-.47,4.71-.51,7.08-.01.78.7,1.54,1.5,1.5s1.49-.66,1.5-1.5c.04-2.37.21-4.73.51-7.08.1-.78-.76-1.53-1.5-1.5-.9.04-1.39.66-1.5,1.5h0Z"/>
  <path class="cls-7" d="m347.82,476.85l-.19,6.89c-.02.78.71,1.54,1.5,1.5s1.48-.66,1.5-1.5l.19-6.89c.02-.78-.71-1.54-1.5-1.5s-1.48.66-1.5,1.5h0Z"/>
  <path class="cls-7" d="m347.93,430.69c-.48,2.43-.52,4.85-.18,7.3.05.34.41.73.69.9.32.19.8.27,1.16.15s.71-.34.9-.69c.2-.38.21-.73.15-1.16.05.36,0-.02-.01-.1-.02-.15-.03-.29-.05-.44-.02-.25-.04-.5-.05-.75-.03-.52-.03-1.05-.02-1.57s.05-1,.1-1.5c.01-.12.02-.25.04-.37-.07.35,0-.02.02-.1.04-.29.1-.58.15-.87.15-.77-.22-1.66-1.05-1.85-.74-.17-1.68.22-1.85,1.05h0Z"/>
  <path class="cls-7" d="m348.21,386.47l-.19,6.89c-.02.78.71,1.54,1.5,1.5s1.48-.66,1.5-1.5l.19-6.89c.02-.78-.71-1.54-1.5-1.5s-1.48.66-1.5,1.5h0Z"/>
  <path class="cls-7" d="m347.51,337.07l.25,5.18c.04.78.66,1.54,1.5,1.5.78-.03,1.54-.66,1.5-1.5l-.25-5.18c-.04-.78-.66-1.54-1.5-1.5-.78.03-1.54.66-1.5,1.5h0Z"/>
  <path class="cls-7" d="m348.06,290.15c-.36,2.82-.27,5.65.19,8.45.13.78,1.13,1.28,1.85,1.05.84-.27,1.18-1.01,1.05-1.85-.03-.18-.05-.36-.08-.54-.02-.11-.01-.1,0,.01-.01-.08-.02-.15-.03-.23-.04-.33-.08-.67-.1-1-.05-.65-.09-1.29-.09-1.94-.02-1.32.06-2.64.23-3.95.1-.78-.76-1.53-1.5-1.5-.9.04-1.39.66-1.5,1.5h0Z"/>
  <path class="cls-7" d="m347.86,242.28c-.21,2.48-.27,4.98-.19,7.47.02.78.67,1.54,1.5,1.5s1.53-.66,1.5-1.5c-.08-2.49-.02-4.98.19-7.47.07-.78-.74-1.53-1.5-1.5-.87.04-1.43.66-1.5,1.5h0Z"/>
  <path class="cls-7" d="m346.32,194.98c-.21,2.29-.27,4.59-.19,6.89.03.78.67,1.54,1.5,1.5s1.53-.66,1.5-1.5c-.08-2.3-.02-4.6.19-6.89.07-.78-.74-1.53-1.5-1.5-.87.04-1.42.66-1.5,1.5h0Z"/>
  <path class="cls-7" d="m347.47,144.62c-.2,1.97-.27,3.96-.19,5.94.03.78.67,1.54,1.5,1.5.79-.04,1.53-.66,1.5-1.5-.08-1.98-.01-3.96.19-5.94.08-.78-.75-1.53-1.5-1.5-.88.04-1.41.66-1.5,1.5h0Z"/>
  <path class="cls-7" d="m205.78,184.07c-.23,2.16-.22,4.34.03,6.5.05.41.14.76.44,1.06.26.26.69.46,1.06.44.74-.03,1.6-.67,1.5-1.5-.25-2.16-.26-4.34-.03-6.5.08-.78-.75-1.53-1.5-1.5-.88.04-1.41.66-1.5,1.5h0Z"/>
  <path class="cls-7" d="m233.19,184.45l.25,6.13c.03.78.67,1.54,1.5,1.5.79-.04,1.53-.66,1.5-1.5l-.25-6.13c-.03-.78-.67-1.54-1.5-1.5-.79.04-1.53.66-1.5,1.5h0Z"/>
  <path class="cls-7" d="m258.83,186.37c-.26,2.1-.4,4.21-.41,6.32,0,.78.69,1.54,1.5,1.5s1.5-.66,1.5-1.5c.01-2.11.15-4.22.41-6.32.04-.35-.2-.82-.44-1.06-.26-.26-.69-.46-1.06-.44s-.79.14-1.06.44c-.29.31-.39.64-.44,1.06h0Z"/>
  <path class="cls-7" d="m285.05,185.41v5.74c0,.78.69,1.54,1.5,1.5s1.5-.66,1.5-1.5v-5.74c0-.78-.69-1.54-1.5-1.5s-1.5.66-1.5,1.5h0Z"/>
  <path class="cls-7" d="m284.49,144.24c-.27,2.35-.27,4.73,0,7.08.09.78.63,1.54,1.5,1.5.74-.03,1.6-.67,1.5-1.5-.27-2.35-.27-4.73,0-7.08.09-.78-.75-1.53-1.5-1.5-.89.04-1.4.66-1.5,1.5h0Z"/>
  <path class="cls-7" d="m259.47,144.99c-.49,2.47-.61,4.98-.28,7.48.05.41.13.75.44,1.06.26.26.69.46,1.06.44.72-.03,1.61-.67,1.5-1.5-.15-1.15-.22-2.32-.18-3.48.02-.57.05-1.14.12-1.71.01-.14.03-.27.05-.41-.04.33.01-.07.02-.14.05-.32.11-.63.17-.94.15-.77-.22-1.66-1.05-1.85-.74-.17-1.68.22-1.85,1.05h0Z"/>
  <path class="cls-7" d="m233.36,145.58l.31,5.37c.05.78.66,1.54,1.5,1.5.77-.03,1.55-.66,1.5-1.5l-.31-5.37c-.05-.78-.66-1.54-1.5-1.5-.77.03-1.55.66-1.5,1.5h0Z"/>
  <path class="cls-7" d="m205.75,145.77l-.2,6.13c-.03.79.71,1.54,1.5,1.5.83-.04,1.47-.66,1.5-1.5l.2-6.13c.03-.79-.71-1.54-1.5-1.5-.83.04-1.47.66-1.5,1.5h0Z"/>
  <path class="cls-7" d="m206.18,87.18c-.26,2.1-.29,4.22-.09,6.32.04.41.14.76.44,1.06.26.26.69.46,1.06.44.75-.03,1.58-.66,1.5-1.5-.2-2.11-.17-4.22.09-6.32.04-.35-.2-.82-.44-1.06-.26-.26-.69-.46-1.06-.44s-.79.14-1.06.44c-.29.31-.39.64-.44,1.06h0Z"/>
  <path class="cls-7" d="m233.05,86.4c-.39,1.96-.53,3.96-.37,5.95.06.78.65,1.54,1.5,1.5.76-.03,1.57-.66,1.5-1.5-.07-.91-.09-1.82-.04-2.74.02-.45.07-.89.12-1.34.04-.37-.05.34,0-.03.02-.11.03-.21.05-.32.04-.25.08-.49.13-.74.15-.77-.22-1.66-1.05-1.85-.74-.17-1.68.22-1.85,1.05h0Z"/>
  <path class="cls-7" d="m258.61,86.6v6.32c-.01.78.68,1.54,1.49,1.5s1.5-.66,1.5-1.5v-6.32c.01-.78-.68-1.54-1.49-1.5s-1.5.66-1.5,1.5h0Z"/>
  <path class="cls-7" d="m285.06,87.37c-.26,2.16-.4,4.33-.41,6.51,0,.78.69,1.54,1.5,1.5s1.5-.66,1.5-1.5c.01-2.18.15-4.35.41-6.51.04-.35-.2-.82-.44-1.06-.26-.26-.69-.46-1.06-.44-.89.04-1.4.66-1.5,1.5h0Z"/>
  <path class="cls-7" d="m259.53,50.03l.15,5.17c.02.78.67,1.54,1.5,1.5s1.52-.66,1.5-1.5l-.15-5.17c-.02-.78-.67-1.54-1.5-1.5s-1.52.66-1.5,1.5h0Z"/>
  <path class="cls-7" d="m284.64,49.45c-.07,1.91-.13,3.83-.2,5.74-.03.79.71,1.54,1.5,1.5.84-.04,1.47-.66,1.5-1.5.07-1.91.13-3.83.2-5.74.03-.79-.71-1.54-1.5-1.5-.84.04-1.47.66-1.5,1.5h0Z"/>
  <path class="cls-7" d="m232.78,50.03c-.13,1.93.03,3.87.41,5.76.15.77,1.11,1.28,1.85,1.05.82-.27,1.21-1.02,1.05-1.85-.09-.44-.16-.88-.22-1.33l.05.4c-.17-1.34-.22-2.69-.13-4.03.05-.78-.73-1.53-1.5-1.5-.86.04-1.45.66-1.5,1.5h0Z"/>
  <path class="cls-7" d="m206.43,48.68c-.41,2.35-.53,4.72-.28,7.1.04.41.14.76.44,1.06.26.26.69.46,1.06.44.74-.03,1.59-.66,1.5-1.5-.12-1.09-.16-2.19-.13-3.29.02-.54.05-1.08.1-1.61.01-.13.03-.26.04-.39.01-.12.05-.39.01-.11.04-.3.09-.6.14-.89.13-.77-.21-1.65-1.05-1.85-.73-.17-1.7.22-1.85,1.05h0Z"/>
  <path class="cls-7" d="m93.24,76.63c-.29,1.66-.37,3.33-.15,5,.05.41.13.75.44,1.06.26.26.69.46,1.06.44s.79-.14,1.06-.44c.25-.27.49-.68.44-1.06-.17-1.33-.17-2.67,0-3.99l-.05.4c.03-.21.06-.41.1-.62.07-.41.06-.79-.15-1.16-.18-.31-.54-.61-.9-.69-.73-.17-1.7.22-1.85,1.05h0Z"/>
  <path class="cls-7" d="m113.47,77.79v3.83c0,.78.69,1.54,1.5,1.5s1.5-.66,1.5-1.5v-3.83c0-.78-.69-1.54-1.5-1.5s-1.5.66-1.5,1.5h0Z"/>
  <path class="cls-7" d="m134.61,76.44c-.4,1.89-.58,3.83-.46,5.76.05.78.66,1.54,1.5,1.5.77-.03,1.55-.66,1.5-1.5-.08-1.28-.03-2.56.14-3.83l-.05.4c.07-.51.16-1.02.27-1.53.16-.77-.23-1.66-1.05-1.85-.75-.17-1.67.23-1.85,1.05h0Z"/>
  <path class="cls-7" d="m152.74,77.6c-.21,1.65-.33,3.31-.34,4.98,0,.78.7,1.54,1.5,1.5s1.49-.66,1.5-1.5c.02-1.66.13-3.32.34-4.98.05-.35-.2-.82-.44-1.06-.26-.26-.69-.46-1.06-.44s-.79.14-1.06.44c-.29.31-.39.64-.44,1.06h0Z"/>
  <path class="cls-7" d="m173.63,77.03l-.59,5.36c-.04.36.2.82.44,1.06.26.26.69.46,1.06.44s.79-.14,1.06-.44c.29-.31.39-.64.44-1.06l.59-5.36c.04-.36-.2-.82-.44-1.06-.26-.26-.69-.46-1.06-.44s-.79.14-1.06.44c-.29.31-.39.64-.44,1.06h0Z"/>
  <path class="cls-7" d="m345.65,94.82c-.41,2.35-.53,4.72-.28,7.09.04.41.14.76.44,1.06.26.26.69.46,1.06.44.74-.03,1.59-.66,1.5-1.5-.12-1.09-.16-2.19-.13-3.29.02-.54.05-1.08.1-1.61.01-.13.03-.26.04-.39.01-.12.04-.39.01-.11.04-.3.09-.6.14-.89.14-.77-.21-1.65-1.05-1.85-.73-.17-1.7.22-1.85,1.05h0Z"/>
  <path class="cls-7" d="m416.85,95.2c-.33,1.74-.33,3.46-.02,5.2.06.35.39.72.69.9.32.19.8.27,1.16.15s.71-.34.9-.69c.2-.38.23-.74.15-1.16-.03-.17-.06-.34-.08-.5l.05.4c-.14-1.07-.15-2.15,0-3.23l-.05.4c.03-.23.07-.45.11-.67.08-.4.06-.79-.15-1.16-.18-.31-.54-.61-.9-.69-.74-.17-1.69.22-1.85,1.05h0Z"/>
  <path class="cls-7" d="m417.05,144.22c-.35,1.97-.45,3.96-.24,5.95.04.41.14.76.44,1.06.26.26.69.46,1.06.44.74-.03,1.59-.66,1.5-1.5-.1-.91-.13-1.82-.11-2.73.01-.45.04-.89.09-1.34.01-.11.02-.21.03-.32,0-.07.02-.14.03-.21l-.03.19c0-.24.08-.5.12-.74.07-.41.06-.79-.15-1.16-.18-.31-.54-.61-.9-.69-.73-.17-1.7.22-1.85,1.05h0Z"/>
  <path class="cls-7" d="m417.01,195.37c-.25,2.23-.29,4.47-.1,6.7.07.78.64,1.54,1.5,1.5.76-.03,1.57-.66,1.5-1.5-.19-2.23-.16-4.48.1-6.7.09-.78-.75-1.53-1.5-1.5-.89.04-1.4.66-1.5,1.5h0Z"/>
  <path class="cls-7" d="m417.16,245.73l-.19,4.6c-.03.78.71,1.54,1.5,1.5.84-.04,1.46-.66,1.5-1.5l.19-4.6c.03-.78-.71-1.54-1.5-1.5-.84.04-1.46.66-1.5,1.5h0Z"/>
  <path class="cls-7" d="m416.79,290.73c-.19,1.52-.26,3.06-.19,4.6.03.78.67,1.54,1.5,1.5.78-.04,1.54-.66,1.5-1.5-.07-1.53,0-3.07.19-4.6.04-.35-.2-.82-.44-1.06-.26-.26-.69-.46-1.06-.44s-.79.14-1.06.44l-.23.3c-.14.23-.2.49-.2.76h0Z"/>
  <path class="cls-7" d="m416.87,336.87c-.66,1.89-.92,3.95-.76,5.95.06.78.64,1.54,1.5,1.5.76-.03,1.57-.66,1.5-1.5-.04-.48-.06-.96-.05-1.43,0-.21.01-.41.03-.61,0-.14.02-.27.03-.41,0-.07,0-.26.03-.31-.03.21-.04.26-.02.14,0-.05.01-.1.02-.15.02-.12.04-.24.06-.35.04-.22.09-.44.14-.65.11-.47.25-.93.4-1.38.26-.74-.29-1.67-1.05-1.85-.84-.19-1.57.25-1.85,1.05h0Z"/>
  <path class="cls-7" d="m416.99,385.13c-.22,2.04-.22,4.09.01,6.12.05.41.14.76.44,1.06.26.26.69.46,1.06.44.74-.03,1.59-.66,1.5-1.5-.23-2.04-.23-4.09-.01-6.12.08-.78-.75-1.53-1.5-1.5-.89.04-1.41.66-1.5,1.5h0Z"/>
  <path class="cls-7" d="m527.92,255.86c-.31,2.1-.48,4.21-.45,6.33.01.78.68,1.54,1.5,1.5s1.51-.66,1.5-1.5c-.01-.97.01-1.95.07-2.92.03-.47.07-.93.12-1.4.02-.23.05-.46.08-.7,0-.04.07-.5.03-.26s.03-.22.04-.26c.06-.42.07-.78-.15-1.16-.18-.31-.54-.61-.9-.69-.71-.16-1.72.22-1.85,1.05h0Z"/>
  <path class="cls-7" d="m562.51,256.26c-.28,2.18-.22,4.35.1,6.52.05.35.4.73.69.9.32.19.8.27,1.16.15s.71-.34.9-.69c.2-.38.21-.73.15-1.16-.02-.17-.02-.16,0,.05,0-.06-.02-.12-.02-.18-.01-.12-.03-.23-.04-.35-.03-.25-.05-.51-.07-.76-.03-.49-.05-.98-.06-1.48,0-1,.06-2.01.19-3,.05-.35-.2-.82-.44-1.06-.26-.26-.69-.46-1.06-.44s-.79.14-1.06.44c-.29.31-.38.64-.44,1.06h0Z"/>
  <path class="cls-7" d="m598.11,256.83c-.09,2.24-.19,4.47-.28,6.71-.03.78.71,1.54,1.5,1.5.84-.04,1.46-.66,1.5-1.5.09-2.24.19-4.47.28-6.71.03-.78-.71-1.54-1.5-1.5-.84.04-1.46.66-1.5,1.5h0Z"/>
  <path class="cls-7" d="m532.66,301.84c-.23,1.91-.24,3.83-.01,5.74.05.41.14.76.44,1.06.26.26.69.46,1.06.44.73-.03,1.6-.67,1.5-1.5-.22-1.91-.22-3.83.01-5.74.04-.35-.2-.82-.44-1.06-.26-.26-.69-.46-1.06-.44s-.79.14-1.06.44c-.29.31-.39.64-.44,1.06h0Z"/>
  <path class="cls-7" d="m562.76,297.8c-.32,2.39-.32,4.73.01,7.11.05.34.4.73.69.9.32.19.8.27,1.16.15s.71-.34.9-.69c.2-.38.21-.73.15-1.16.05.37,0,0,0-.08-.02-.14-.03-.28-.05-.42-.02-.24-.04-.49-.06-.73-.03-.51-.05-1.01-.05-1.52s.01-.97.04-1.46c.02-.24.03-.49.06-.73.01-.14.03-.28.04-.42,0-.08.07-.53.01-.15.06-.42.07-.77-.15-1.16-.18-.31-.54-.61-.9-.69-.7-.16-1.73.22-1.85,1.05h0Z"/>
  <path class="cls-7" d="m598.2,298.56c-.31,2.1-.48,4.21-.45,6.33.01.78.68,1.54,1.5,1.5s1.51-.66,1.5-1.5c-.01-.97.01-1.95.07-2.92.03-.47.07-.93.12-1.4.02-.23.05-.46.08-.7,0-.04.07-.5.03-.26s.03-.22.04-.26c.06-.42.07-.78-.15-1.16-.18-.31-.54-.61-.9-.69-.71-.16-1.72.22-1.85,1.05h0Z"/>
  <path class="cls-7" d="m527.81,339.36l-.21,6.7c-.02.79.71,1.54,1.5,1.5.83-.04,1.47-.66,1.5-1.5l.21-6.7c.02-.79-.71-1.54-1.5-1.5-.83.04-1.47.66-1.5,1.5h0Z"/>
  <path class="cls-7" d="m563.08,341.28c-.28,2.31-.16,4.63.27,6.91.14.77,1.12,1.28,1.85,1.05.83-.27,1.2-1.02,1.05-1.85-.05-.27-.1-.54-.14-.81,0-.06-.02-.12-.03-.19.03.19.03.2,0,.02-.01-.12-.03-.25-.04-.37-.05-.52-.09-1.04-.11-1.57-.03-1.07.02-2.14.15-3.2.04-.36-.2-.82-.44-1.06-.26-.26-.69-.46-1.06-.44-.89.04-1.4.66-1.5,1.5h0Z"/>
  <path class="cls-7" d="m598.22,340.13c-.68,2.02-.95,4.21-.75,6.33.04.41.14.76.44,1.06.26.26.69.46,1.06.44.75-.03,1.58-.66,1.5-1.5-.09-.98-.09-1.97.03-2.95.01-.1,0-.42,0-.04,0-.12.04-.26.06-.38.04-.23.09-.47.14-.7.11-.5.25-.99.42-1.47.25-.74-.29-1.67-1.05-1.85-.83-.19-1.58.25-1.85,1.05h0Z"/>
  <path class="cls-7" d="m527.29,382.64c.12,1.85.24,3.7.36,5.55.05.78.65,1.54,1.5,1.5.77-.03,1.55-.66,1.5-1.5-.12-1.85-.24-3.7-.36-5.55-.05-.78-.65-1.54-1.5-1.5-.77.03-1.55.66-1.5,1.5h0Z"/>
  <path class="cls-7" d="m563.35,383.78c-.16.99-.27,1.98-.28,2.98s.08,1.99.21,2.99c.05.34.41.73.69.9.32.19.8.27,1.16.15s.71-.34.9-.69c.2-.38.21-.73.15-1.16v-.1c0,.13.02.27.04.4-.2-1.52-.19-3.06,0-4.58l-.05.4c.02-.16.05-.33.07-.49.07-.41.07-.78-.15-1.16-.18-.31-.54-.61-.9-.69-.72-.16-1.71.22-1.85,1.05h0Z"/>
  <path class="cls-7" d="m597.2,386.66c.13,1.66.27,3.32.4,4.98.03.4.15.77.44,1.06.26.26.69.46,1.06.44.76-.03,1.57-.66,1.5-1.5-.13-1.66-.27-3.32-.4-4.98-.03-.4-.15-.77-.44-1.06-.26-.26-.69-.46-1.06-.44-.76.03-1.57.66-1.5,1.5h0Z"/>
  <path class="cls-7" d="m416.38,429.94l-.2,6.51c-.02.79.71,1.54,1.5,1.5.83-.04,1.47-.66,1.5-1.5l.2-6.51c.02-.79-.71-1.54-1.5-1.5-.83.04-1.47.66-1.5,1.5h0Z"/>
  <path class="cls-7" d="m416.62,477.05c-.1,1.6-.05,3.2.15,4.79.05.41.13.76.44,1.06.26.26.69.46,1.06.44s.79-.14,1.06-.44c.25-.27.49-.68.44-1.06-.19-1.59-.24-3.19-.15-4.79.05-.78-.72-1.53-1.5-1.5-.85.04-1.45.66-1.5,1.5h0Z"/>
  <path class="cls-7" d="m417.39,529.71c-.25,2.16-.29,4.34-.12,6.51.06.78.65,1.54,1.5,1.5.76-.03,1.56-.66,1.5-1.5-.17-2.17-.13-4.35.12-6.51.09-.78-.75-1.53-1.5-1.5-.89.04-1.4.66-1.5,1.5h0Z"/>
  <path class="cls-7" d="m563.35,427.06c-.68,1.85-.79,3.84-.47,5.78.06.35.4.73.69.9.32.19.8.27,1.16.15s.71-.34.9-.69c.2-.38.22-.74.15-1.16-.02-.12-.04-.24-.05-.36l.05.4c-.11-.84-.11-1.68,0-2.52l-.05.4c.1-.72.27-1.42.52-2.1.13-.35.03-.85-.15-1.16s-.54-.61-.9-.69c-.85-.19-1.56.26-1.85,1.05h0Z"/>
  <path class="cls-7" d="m528.13,422.85c-.52,2.56-.54,5.13-.07,7.69.14.77,1.12,1.28,1.85,1.05.83-.27,1.2-1.02,1.05-1.85-.03-.15-.05-.3-.08-.45,0-.04-.06-.45-.04-.25s-.03-.28-.03-.32c-.01-.13-.03-.26-.04-.39-.04-.54-.06-1.09-.06-1.63s.04-1.09.09-1.63c.01-.12.02-.27.04-.39-.08.34,0-.04.02-.12.05-.3.1-.6.16-.9.16-.77-.22-1.66-1.05-1.85-.75-.17-1.68.23-1.85,1.05h0Z"/>
  <path class="cls-7" d="m597.56,428.22c-.2,1.72-.27,3.44-.19,5.17.03.78.67,1.54,1.5,1.5.78-.04,1.54-.66,1.5-1.5-.08-1.73-.01-3.45.19-5.17.04-.36-.2-.82-.44-1.06-.26-.26-.69-.46-1.06-.44s-.79.14-1.06.44c-.29.31-.39.64-.44,1.06h0Z"/>
  <path class="cls-7" d="m564.12,471.67c-.28,2.04-.43,4.08-.38,6.14.02.78.68,1.54,1.5,1.5s1.52-.66,1.5-1.5c-.02-.94,0-1.88.04-2.82.03-.45.06-.9.1-1.35.02-.22.04-.45.07-.67.02-.13.03-.26.05-.39.05-.41-.03.21.01-.11.06-.42.07-.78-.15-1.16-.18-.31-.54-.61-.9-.69-.38-.09-.81-.07-1.16.15-.3.2-.64.52-.69.9h0Z"/>
  <path class="cls-7" d="m598.68,471.88l-.2,5.94c-.03.79.71,1.54,1.5,1.5.84-.04,1.47-.66,1.5-1.5l.2-5.94c.03-.79-.71-1.54-1.5-1.5-.84.04-1.47.66-1.5,1.5h0Z"/>
  <path class="cls-10" d="m921.32,181c3.27,5.49,6.02,11.68,5.77,18.2s-3.92,12-4.59,18.33c-.2,1.92,2.8,1.9,3,0,.35-3.34,1.64-6.49,2.73-9.64s1.88-6.26,1.87-9.56c0-6.74-2.81-13.15-6.19-18.84-.99-1.66-3.58-.15-2.59,1.51h0Z"/>
  <path class="cls-10" d="m889.68,203.99c.05,3.18-1.61,5.97-3.17,8.62-1.73,2.96-3.53,5.88-5.37,8.77-1.04,1.63,1.55,3.14,2.59,1.51,1.97-3.08,3.88-6.2,5.72-9.36,1.7-2.94,3.29-6.07,3.23-9.55-.03-1.93-3.03-1.93-3,0h0Z"/>
  <path class="cls-27" d="m926.41,471.7l-3.8-34.02c1.02-2.99,11.23-57.16,10.55-58.95-.08-.21-.13-.43-.14-.65l-15.56-83.19c-.08-1.25-1.72-3.11-2.97-3.03l-12.37,1.58c-1.25.08-2.2,1.16-2.12,2.41l5.33,23.71c-.06-.01.91,24.02.86,24.01,1.68,5.08.53,28.92-4.19,31.98-6.46,4.18-16.72-2.16-23.99-2.14-6.28.01-19.91,7.59-27.03,4.84-5.15-2.08-10.64-27.13-8.8-33.05.08-.26,1.03-21.77,1.13-21.99l3.68-26.38.12-2.15c.07-1.25-.89-2.33-2.15-2.4l-12.46-1.21c-1.25-.07-2.47,63.22-2.39,65.07l-15.29,24.49c-.16-.41-.19-.23-.25-.06-.41,1.31-.73,2.95-1.01,4.32l9.18,30.21-4.19,30.98-9.13,21.95c-1.19,30.99-9.25,41.95,20.77,44.1l77.98-1.51c23.05-8.86,18.23-38.89,18.23-38.89Z"/>
  <path class="cls-26" d="m847,297.03s-.78,49.16,4.08,63.21c1,2.88,2.94,10.02,9.67,6.12,5.19-3,24.54,1.06,30.28,1.12,3,.03,8.98,4.05,5.75-4.76-4.92-13.45,3.67-65.18,3.67-65.18"/>
  <path class="cls-3" d="m923.61,429.86c1.03-4.48,2.06-8.95,3.1-13.43.11-.48,0-.9-.23-1.21-.06-.53-.42-1.03-.91-1.23-.33-.57-1.08-.76-1.74-.55-.58,0-1.14.33-1.33,1.05-1.69,6.31-3.72,12.63-4.98,19.04-.61,3.09-.73,6.11-.33,9.23.3,2.33.67,4.65,1.04,6.97-.02.17,0,.36.05.56.04.13.07.27.1.4.1.6.19,1.2.28,1.81.05.35.19.6.38.78.79,3.14,1.47,6.3,2.03,9.48.18,2.52.37,5.03.55,7.55.04.55.32.93.68,1.17.47,4.38.73,8.79.76,13.21.01,1.93,3.01,1.95,3,.02-.05-7.51-.74-15.01-2.03-22.4-.14-1.88-.27-3.76-.41-5.64.26-.32.38-.74.23-1.26-.16-.55-.3-1.1-.44-1.66-.26-3.59-.52-7.18-.78-10.77-.16-2.22-.34-4.44-.18-6.66.16-2.18.67-4.32,1.16-6.45Z"/>
  <path class="cls-3" d="m816.37,456.1c-.47,1.56-.92,3.13-1.55,4.63-.67,1.6-1.6,2.96-2.58,4.38-1.99,2.88-1.35,6.41-1.05,9.7-.26,2.91-.86,5.81-.47,8.74.1.8.63,1.49,1.51,1.49.74,0,1.59-.71,1.49-1.51-.33-2.5.06-4.97.35-7.46.13-.22.2-.48.17-.81-.01-.16-.03-.31-.04-.47.11-1.19.16-2.38.07-3.57-.03-.37-.17-.71-.4-.97,0-.07,0-.15,0-.22-.01-.74.02-1.5.29-2.19.29-.75.82-1.39,1.29-2.03,1.92-2.66,2.91-5.81,3.84-8.92.56-1.85-2.35-2.62-2.9-.77Z"/>
  <path class="cls-3" d="m831.34,414.38c-1.1-3.69-2.39-7.32-3.85-10.88-.31-.76-.98-1.28-1.84-1.06-.15.04-.29.11-.43.21-.25-.68-.5-1.37-.76-2.05.07-.58-.16-1.19-.68-1.5-.41-.44-1.02-.56-1.56-.44-.32-.71-.98-1.19-1.8-.98-.71.18-1.36,1.09-1.06,1.84,1.51,3.74,2.97,7.5,4.29,11.31.64,1.85,1,3.55.62,5.5-.39,1.97-.86,3.93-1.3,5.9-.08.37-.03.69.1.97l-.39,2.73c-.12.15-.21.32-.25.52-.45,1.95-.76,3.94-.94,5.93-.01.16.02.33.07.48-.33,1.46,1.86,2.58,2.76,1.07,1.57-2.64,2.83-5.45,3.76-8.38.45,0,.89-.21,1.16-.75.82-1.63,1.77-3.26,2.44-4.96.73-1.88.19-3.62-.36-5.46Z"/>
  <path class="cls-3" d="m838.19,352.21c-.97-7.74-1.71-15.47-2.08-23.26.1-.27.15-.57.08-.9-.57-2.97-.85-5.87-.86-8.96,0-.32-.12-.63-.31-.89.1-1.81.2-3.63.31-5.44.39-6.36.83-12.73,1.3-19.09.14-1.93-2.86-1.94-3-.02-.81,10.9-1.5,21.81-2.08,32.73-.3,5.54-.56,11.08-.8,16.63-.12,2.73-.23,5.46-.33,8.19-.05,1.32-.1,2.65-.14,3.97-.04,1.21.03,2.5-.28,3.68-.32,1.24-1.28,2.05-2.12,2.95-.88.95-1.69,1.94-2.47,2.97-1.66,2.21-3.02,4.61-4.12,7.14-.09.21-.14.44-.15.66-1,1.35-1.88,2.78-2.6,4.3-.21.45-.25,1-.05,1.44-.02.22,0,.44.08.66-.3.55-.16,1.34.26,1.77.62.63,1.49.52,2.12.01,2.9-2.31,5.72-4.74,8.44-7.26.21-.11.42-.25.58-.49.03-.05.07-.1.1-.15.53-.5,1.06-.99,1.58-1.49.46-.45.53-.98.38-1.44,1.47-2.25,2.88-4.55,4.17-6.9.84-1.55,1.62-3.19,1.97-4.93.39-1.96.27-3.91.02-5.88Z"/>
  <path class="cls-3" d="m909.82,316.24c-1.79-7.03-3.58-14.07-5.38-21.1-.46-1.82-3.21-1.13-2.92.64-.22.26-.37.58-.34.93.34,4.86,1.36,9.65,3.08,14.21.05.14.13.27.21.39.17,1.67.42,3.34.79,4.98.37,1.61,1,3.13.88,4.81-.26,3.58-.35,7.08-.26,10.67.02.73.47,1.19,1.01,1.37-.16,1.15-.33,2.3-.49,3.44-.11.81.76,1.5,1.49,1.51.9.01,1.4-.69,1.51-1.49.48-3.45,1-6.89,1.45-10.34.45-3.5-.17-6.63-1.04-10.02Z"/>
  <path class="cls-1" d="m905.9,347.38c-.3-4.59.06-9.18-.19-13.78-.26-4.72-.52-9.45-.78-14.17-.03-.46-.23-.8-.51-1.05-.55-2.85-1.11-5.7-1.66-8.55,0-.02-.01-.03-.01-.04-.34-2.6-.85-5.17-1.52-7.71.02-.19.04-.37.07-.56.03-.24-.13-.37-.31-.39-.02-.08-.04-.16-.06-.24-.15-.53-.97-.3-.82.23.1.35.18.7.27,1.05-.32,2.59-.61,5.19-.85,7.79-.07.17-.13.36-.13.56,0,.19-.02.38-.03.57-.13,2.85-.59,5.67-1.06,8.48-.07.26-.15.52-.23.77-.05.14,0,.24.06.33-.07.45-.15.9-.22,1.36-.02.11-.04.23-.07.34-.03.13-.04.25-.04.38-.28,1.87-.5,3.76-.57,5.66,0,.06.01.11.03.16-.13.96-.26,1.92-.37,2.89-.51,4.75-.63,9.53-.62,14.31,0,2.47.05,4.95.1,7.42.04,2.13.09,4.3.59,6.39.28,1.18.79,2.31.93,3.52.13,1.06.02,2.17-.15,3.23-.09.53-.13,2.05-.55,2.45-.3.29-1.29.28-1.68.3-.44.02-.87-.03-1.29-.1-.22-.41-.62-.73-1.23-.75-4.48-.14-8.95-.56-13.37-1.29-.28-.05-.55-.01-.8.05-3.71-.59-7.46-.93-11.21-1.02-.13-.09-.27-.16-.43-.18-2.18-.35-4.16.19-6.16,1.02-.88.37-1.74.76-2.61,1.14-.38.17-.77.36-1.09.47-.07.02-.14.05-.21.07-.57-.05-1.14-.2-1.71-.52-.65-.36-1.23-.8-1.79-1.28-.09-.08-.31-.25-.55-.44-.45-.72-.82-1.5-1.13-2.19-1.08-2.4-1.68-5-2.16-7.58-.94-5.07-1.63-10.19-2.39-15.29,0-.04.02-.08.01-.14-.3-2.26-.52-4.53-.69-6.8.06-.66.07-1.33-.1-2,0-.03-.03-.03-.04-.06-.05-.93-.11-1.85-.14-2.78.11-1.2.16-2.4-.07-3.57,0-.07,0-.14,0-.22,0-2.57.09-5.13.23-7.7.07-1.22.09-2.41-.08-3.62-.11-.77-.23-1.53-.3-2.3.14-2.53.17-5.08.74-7.55.12-.53-.7-.76-.82-.23-.46,2-.58,4.04-.68,6.08-.07.07-.13.16-.14.29-.03.5,0,.99.04,1.47-.05.92-.12,1.84-.23,2.76-.24,1.95-.59,3.88-.91,5.82-.25,1.5-.56,3-.38,4.52-.33.37-.48.89-.38,1.41.19.95,0,1.96-.09,2.91-.11,1.08-.18,2.15-.22,3.23-.08,2.2-.03,4.41.15,6.61.01.16.05.32.1.46-.17.23-.28.52-.26.9.08,1.79-.51,3.43-.81,5.17-.28,1.65-.23,3.26-.04,4.91.4,3.49.99,6.95,1.78,10.37.78,3.37,1.77,6.69,2.94,9.94.96,2.66,2.15,6.2,5.22,6.99.08.02.15.03.23.04,1.22.45,2.43.54,3.84.26,1.79-.36,3.57-.85,5.33-1.34,2.22-.61,4.4-1.54,6.61-2.27,1.33-.33,2.66-.65,3.99-.98,3.01-.74,5.92-1.3,9.02-.71,4.54.86,8.87,2.89,13.42,3.13.8.17,1.65.2,2.46.16,1.15-.05,2.26-.25,3.32-.7,1.8-.77,3.33-2.59,3.3-4.62,4.26-7.16,2.71-15.74,2.19-23.64Z"/>
  <path class="cls-3" d="m899.76,376c-4.72,4.4-12.27-.27-17.33-1.39-3.43-.76-6.47-.35-9.68,1.03-3.37,1.44-6.72,2.59-10.36,3.15-.29.04-.51.16-.68.3-.86-.13-1.72-.3-2.57-.51-1.87-.48-2.67,2.41-.8,2.89,3.74.96,7.58,1.13,11.39.5,3.8-.63,7.24-2.29,11.16-2.08,6.76.37,14.18,3.73,20.38-.63.45-.32.64-.76.66-1.2,1.29-1.32-.78-3.36-2.17-2.06Z"/>
  <text class="cls-32" transform="translate(848.52 446.85)"><tspan x="0" y="0">Li</tspan><tspan class="cls-35" x="7.01" y="0">fe</tspan><tspan class="cls-33" x="14.02" y="0"></tspan><tspan x="15.24" y="0">s Better</tspan><tspan x="5.42" y="10.21">With Joja</tspan></text>
  <text class="cls-30" transform="translate(837.32 422.7)"><tspan x="0" y="0">J</tspan><tspan class="cls-36" x="8.6" y="0">O</tspan><tspan class="cls-34" x="19.24" y="0">J</tspan><tspan x="27.42" y="0">AMart</tspan></text>
  <text class="cls-31" transform="translate(839.05 422.92)"><tspan x="0" y="0">J</tspan><tspan class="cls-36" x="8.6" y="0">O</tspan><tspan class="cls-34" x="19.24" y="0">J</tspan><tspan x="27.42" y="0">AMart</tspan></text>
  <text class="cls-29" transform="translate(849.38 446.61)"><tspan x="0" y="0">Li</tspan><tspan class="cls-35" x="7.01" y="0">fe</tspan><tspan class="cls-33" x="14.02" y="0"></tspan><tspan x="15.24" y="0">s Better</tspan><tspan x="5.42" y="10.21">With Joja</tspan></text>
  <circle class="cls-28" cx="1219.25" cy="103.81" r="64.5"/>
  <path class="cls-7" d="m1171.91,133.92c7.54,13.26,20.96,21.51,36.09,22.76,6.41.53,6.38-9.47,0-10-11.58-.96-21.75-7.78-27.45-17.81-3.18-5.59-11.82-.56-8.63,5.05h0Z"/>
  <path class="cls-7" d="m1172.1,106.19c-5.57-17.63,8.86-37.43,23.49-45.71,5.6-3.17.57-11.81-5.05-8.63-18.48,10.45-35,35.08-28.08,57,1.93,6.12,11.59,3.5,9.64-2.66h0Z"/>
  <path class="cls-7" d="m1226.93,152.86v.19c-.03.69.12,1.33.43,1.93.2.62.55,1.16,1.03,1.61.45.49.99.83,1.61,1.03.6.31,1.24.46,1.93.43l1.33-.18c.85-.24,1.58-.67,2.21-1.29l.78-1.01c.45-.78.68-1.62.68-2.52v-.19c.03-.69-.12-1.33-.43-1.93-.2-.62-.55-1.16-1.03-1.61-.45-.49-.99-.83-1.61-1.03-.6-.31-1.24-.46-1.93-.43l-1.33.18c-.85.24-1.58.67-2.21,1.29l-.78,1.01c-.45.78-.68,1.62-.68,2.52h0Z"/>
</svg>