<?xml version="1.0" encoding="UTF-8"?>
<svg id="Layer_2" data-name="Layer 2" xmlns="http://www.w3.org/2000/svg" viewBox="0 0 129.71 129.71">
  <defs>
    <style>
      .cls-1 {
        fill: #29abe2;
        stroke: #000;
        stroke-miterlimit: 10;
        stroke-width: .71px;
      }

      .cls-2 {
        fill: #fff;
        stroke-width: 0px;
      }
    </style>
  </defs>
  <g id="Layer_1-2" data-name="Layer 1">
    <g>
      <circle class="cls-1" cx="64.85" cy="64.85" r="64.5"/>
      <path class="cls-2" d="M17.51,94.96c7.54,13.26,20.96,21.51,36.09,22.76,6.41.53,6.38-9.47,0-10-11.58-.96-21.75-7.78-27.45-17.81-3.18-5.59-11.82-.56-8.63,5.05h0Z"/>
      <path class="cls-2" d="M17.71,67.23c-5.57-17.63,8.86-37.43,23.49-45.71,5.6-3.17.57-11.81-5.05-8.63C17.66,23.34,1.14,47.97,8.06,69.89c1.93,6.12,11.59,3.5,9.64-2.66h0Z"/>
      <path class="cls-2" d="M72.54,113.9v.19c-.03.69.12,1.33.43,1.93.2.62.55,1.16,1.03,1.61.45.49.99.83,1.61,1.03.6.31,1.24.46,1.93.43l1.33-.18c.85-.24,1.58-.67,2.21-1.29l.78-1.01c.45-.78.68-1.62.68-2.52v-.19c.03-.69-.12-1.33-.43-1.93-.2-.62-.55-1.16-1.03-1.61-.45-.49-.99-.83-1.61-1.03-.6-.31-1.24-.46-1.93-.43l-1.33.18c-.85.24-1.58.67-2.21,1.29l-.78,1.01c-.45.78-.68,1.62-.68,2.52h0Z"/>
    </g>
  </g>
</svg>