<?xml version="1.0" encoding="UTF-8"?>
<svg id="Layer_1" data-name="Layer 1" xmlns="http://www.w3.org/2000/svg" viewBox="0 0 680.54 568.42">
  <defs>
    <style>
      .cls-1, .cls-2 {
        stroke-width: 0px;
      }

      .cls-1, .cls-3 {
        fill: #ccc;
      }

      .cls-4 {
        fill: #754c24;
      }

      .cls-4, .cls-5, .cls-6, .cls-7, .cls-8, .cls-9, .cls-3, .cls-10, .cls-11, .cls-12 {
        stroke-miterlimit: 10;
      }

      .cls-4, .cls-6, .cls-7, .cls-8, .cls-9, .cls-3, .cls-11, .cls-12 {
        stroke: #000;
      }

      .cls-2 {
        fill: #000;
      }

      .cls-5 {
        fill: #999;
        stroke: #999;
      }

      .cls-6 {
        fill: #8e8e8e;
      }

      .cls-7 {
        fill: none;
      }

      .cls-8 {
        fill: #39b54a;
      }

      .cls-9 {
        fill: #333;
      }

      .cls-10 {
        fill: #c69c6d;
        stroke: #c69c6d;
      }

      .cls-11 {
        fill: #fcee21;
      }

      .cls-12 {
        fill: #666;
      }
    </style>
  </defs>
  <polygon class="cls-3" points="192.75 250.25 172.75 264.25 170.75 122.25 80.75 122.25 80.75 55.25 192.75 55.25 192.75 250.25"/>
  <polygon class="cls-3" points="308.75 27.25 193.75 27.25 193.75 251.25 310.75 251.25 308.75 27.25"/>
  <g>
    <rect class="cls-1" x="514.75" y="231.25" width="111" height="272"/>
    <path class="cls-2" d="M625.25,231.75v271h-110V231.75h110M626.25,230.75h-112v273h112V230.75h0Z"/>
  </g>
  <polygon class="cls-4" points="519.5 518.44 508.11 517.49 511.9 488.05 518.08 489 519.5 518.44"/>
  <polygon class="cls-6" points="155.67 548.25 123.75 564.25 124.83 158.1 171.75 123.25 172.75 264.25 153.75 277.25 155.67 548.25"/>
  <polygon class="cls-6" points="509.75 515.25 484.75 566.25 485.75 57.25 508.75 31.25 509.75 515.25"/>
  <polygon class="cls-6" points="331.75 526.25 308.75 551.25 308.75 276.25 330.75 253.25 331.75 526.25"/>
  <polygon class="cls-6" points="651.75 478.25 625.75 503.85 626.75 231.25 651.75 204.25 651.75 478.25"/>
  <g>
    <rect class="cls-1" x=".75" y="159.25" width="123" height="404"/>
    <path class="cls-2" d="M123.25,159.75v403H1.25V159.75h122M124.25,158.75H.25v405h124V158.75h0Z"/>
  </g>
  <g>
    <rect class="cls-1" x="154.75" y="277.25" width="154" height="273"/>
    <path class="cls-2" d="M308.25,277.75v272h-153v-272h153M309.25,276.75h-155v274h155v-274h0Z"/>
  </g>
  <g>
    <rect class="cls-1" x="331.75" y="56.25" width="153" height="507"/>
    <path class="cls-2" d="M484.25,56.75v506h-152V56.75h152M485.25,55.75h-154v508h154V55.75h0Z"/>
  </g>
  <line class="cls-7" x1="192.75" y1="27.25" x2="308.75" y2="27.25"/>
  <polyline class="cls-12" points="193.75 27.25 198.75 23.25 196.75 23.25 121.75 24.25 80.75 56.25 192.75 56.25 193.25 26.71 230.75 1.25 332.75 1.25 308.75 27.25"/>
  <rect class="cls-9" x="203.75" y="38.25" width="11" height="27"/>
  <rect class="cls-9" x="203.75" y="76.25" width="11" height="27"/>
  <rect class="cls-9" x="282.75" y="38.25" width="11" height="27"/>
  <rect class="cls-9" x="257.75" y="38.25" width="11" height="27"/>
  <rect class="cls-11" x="230.75" y="38.25" width="11" height="27"/>
  <rect class="cls-9" x="203.75" y="134.25" width="11" height="27"/>
  <rect class="cls-9" x="282.75" y="76.25" width="11" height="27"/>
  <rect class="cls-9" x="256.75" y="76.25" width="11" height="27"/>
  <rect class="cls-9" x="230.75" y="76.25" width="11" height="27"/>
  <rect class="cls-9" x="282.75" y="133.25" width="11" height="27"/>
  <rect class="cls-9" x="256.75" y="134.25" width="11" height="27"/>
  <rect class="cls-9" x="230.75" y="134.25" width="11" height="27"/>
  <rect class="cls-11" x="256.75" y="174.25" width="11" height="27"/>
  <rect class="cls-9" x="230.75" y="174.25" width="11" height="27"/>
  <rect class="cls-9" x="203.75" y="174.25" width="11" height="27"/>
  <rect class="cls-9" x="282.75" y="174.25" width="11" height="27"/>
  <rect class="cls-9" x="7.75" y="503.25" width="31" height="50"/>
  <rect class="cls-9" x="45.75" y="503.25" width="31" height="50"/>
  <rect class="cls-9" x="84.75" y="503.25" width="31" height="50"/>
  <rect class="cls-9" x="7.75" y="445.25" width="31" height="50"/>
  <rect class="cls-9" x="45.75" y="368.25" width="31" height="50"/>
  <rect class="cls-11" x="84.75" y="445.25" width="31" height="50"/>
  <rect class="cls-11" x="45.75" y="445.25" width="31" height="50"/>
  <rect class="cls-9" x="7.75" y="297.25" width="31" height="50"/>
  <rect class="cls-11" x="45.75" y="297.25" width="31" height="50"/>
  <rect class="cls-9" x="84.75" y="297.25" width="31" height="50"/>
  <rect class="cls-9" x="84.75" y="237.25" width="31" height="50"/>
  <rect class="cls-11" x="45.75" y="237.25" width="31" height="50"/>
  <rect class="cls-9" x="7.75" y="237.25" width="31" height="50"/>
  <rect class="cls-9" x="45.75" y="168.25" width="31" height="50"/>
  <rect class="cls-11" x="163.75" y="416.25" width="31" height="50"/>
  <rect class="cls-11" x="267.75" y="351.25" width="31" height="50"/>
  <rect class="cls-9" x="162.75" y="287.25" width="31" height="50"/>
  <rect class="cls-11" x="267.75" y="492.25" width="31" height="50"/>
  <rect class="cls-11" x="231.75" y="374.25" width="11" height="27"/>
  <rect class="cls-11" x="249.75" y="374.25" width="11" height="27"/>
  <rect class="cls-11" x="236.75" y="310.25" width="11" height="27"/>
  <rect class="cls-9" x="218.75" y="310.25" width="11" height="27"/>
  <rect class="cls-9" x="200.75" y="310.25" width="11" height="27"/>
  <rect class="cls-11" x="214.75" y="374.25" width="11" height="27"/>
  <rect class="cls-11" x="232.75" y="515.25" width="11" height="27"/>
  <rect class="cls-11" x="249.75" y="515.25" width="11" height="27"/>
  <rect class="cls-11" x="237.75" y="439.25" width="11" height="27"/>
  <rect class="cls-11" x="220.75" y="439.25" width="11" height="27"/>
  <rect class="cls-11" x="203.75" y="439.25" width="11" height="27"/>
  <rect class="cls-9" x="171.75" y="507.25" width="11" height="27" transform="translate(698 343.5) rotate(90)"/>
  <rect class="cls-11" x="216.75" y="515.25" width="11" height="27"/>
  <rect class="cls-9" x="279.75" y="279.25" width="11" height="27" transform="translate(578 7.5) rotate(90)"/>
  <rect class="cls-11" x="281.75" y="408.25" width="11" height="27" transform="translate(709 134.5) rotate(90)"/>
  <rect class="cls-11" x="170.75" y="343.25" width="11" height="27" transform="translate(533 180.5) rotate(90)"/>
  <rect class="cls-11" x="344.75" y="134.25" width="11" height="27"/>
  <rect class="cls-9" x="343.75" y="84.25" width="11" height="27"/>
  <rect class="cls-11" x="170.75" y="66.25" width="11" height="27"/>
  <rect class="cls-9" x="150.75" y="66.25" width="11" height="27"/>
  <rect class="cls-9" x="131.75" y="66.25" width="11" height="27"/>
  <rect class="cls-11" x="110.75" y="66.25" width="11" height="27"/>
  <rect class="cls-9" x="90.75" y="66.25" width="11" height="27"/>
  <rect class="cls-11" x="414.75" y="84.25" width="11" height="27"/>
  <rect class="cls-11" x="344.75" y="513.25" width="11" height="27"/>
  <rect class="cls-9" x="345.75" y="465.25" width="11" height="27"/>
  <rect class="cls-11" x="345.75" y="419.25" width="11" height="27"/>
  <rect class="cls-9" x="345.75" y="374.25" width="11" height="27"/>
  <rect class="cls-11" x="345.75" y="325.25" width="11" height="27"/>
  <rect class="cls-9" x="345.75" y="278.25" width="11" height="27"/>
  <rect class="cls-11" x="344.75" y="231.25" width="11" height="27"/>
  <rect class="cls-9" x="343.75" y="184.25" width="11" height="27"/>
  <rect class="cls-9" x="414.75" y="419.25" width="11" height="27"/>
  <rect class="cls-11" x="414.75" y="374.25" width="11" height="27"/>
  <rect class="cls-11" x="414.75" y="325.25" width="11" height="27"/>
  <rect class="cls-11" x="414.75" y="279.25" width="11" height="27"/>
  <rect class="cls-9" x="414.75" y="235.25" width="11" height="27"/>
  <rect class="cls-11" x="414.75" y="184.25" width="11" height="27"/>
  <rect class="cls-11" x="414.75" y="133.25" width="11" height="27"/>
  <rect class="cls-11" x="414.75" y="517.25" width="11" height="27"/>
  <rect class="cls-11" x="414.75" y="465.25" width="11" height="27"/>
  <rect class="cls-11" x="450.75" y="134.25" width="11" height="27" transform="translate(604 -308.5) rotate(90)"/>
  <rect class="cls-11" x="378.75" y="134.25" width="11" height="27" transform="translate(532 -236.5) rotate(90)"/>
  <rect class="cls-11" x="450.75" y="84.25" width="11" height="27" transform="translate(554 -358.5) rotate(90)"/>
  <rect class="cls-9" x="378.75" y="84.25" width="11" height="27" transform="translate(482 -286.5) rotate(90)"/>
  <rect class="cls-9" x="377.75" y="278.25" width="11" height="27" transform="translate(675 -91.5) rotate(90)"/>
  <rect class="cls-9" x="450.75" y="234.25" width="11" height="27" transform="translate(704 -208.5) rotate(90)"/>
  <rect class="cls-11" x="377.75" y="234.25" width="11" height="27" transform="translate(135.5 631) rotate(-90)"/>
  <rect class="cls-11" x="450.75" y="184.25" width="11" height="27" transform="translate(654 -258.5) rotate(90)"/>
  <rect class="cls-9" x="378.75" y="184.25" width="11" height="27" transform="translate(582 -186.5) rotate(90)"/>
  <rect class="cls-9" x="377.75" y="374.25" width="11" height="27" transform="translate(771 4.5) rotate(90)"/>
  <rect class="cls-11" x="450.75" y="325.25" width="11" height="27" transform="translate(117.5 795) rotate(-90)"/>
  <rect class="cls-11" x="378.75" y="325.25" width="11" height="27" transform="translate(723 -45.5) rotate(90)"/>
  <rect class="cls-11" x="450.75" y="279.25" width="11" height="27" transform="translate(749 -163.5) rotate(90)"/>
  <rect class="cls-11" x="378.75" y="419.25" width="11" height="27" transform="translate(817 48.5) rotate(90)"/>
  <rect class="cls-9" x="446.75" y="419.25" width="11" height="27" transform="translate(885 -19.5) rotate(90)"/>
  <rect class="cls-11" x="446.75" y="374.25" width="11" height="27" transform="translate(840 -64.5) rotate(90)"/>
  <rect class="cls-11" x="377.75" y="513.25" width="11" height="27" transform="translate(910 143.5) rotate(90)"/>
  <rect class="cls-9" x="377.75" y="465.25" width="11" height="27" transform="translate(862 95.5) rotate(90)"/>
  <rect class="cls-11" x="445.75" y="464.25" width="11" height="27" transform="translate(929 26.5) rotate(90)"/>
  <rect class="cls-11" x="445.75" y="513.25" width="11" height="27" transform="translate(978 75.5) rotate(90)"/>
  <rect class="cls-9" x="560.75" y="330.25" width="11" height="27"/>
  <rect class="cls-9" x="525.75" y="329.25" width="11" height="27"/>
  <rect class="cls-11" x="595.75" y="287.25" width="11" height="27"/>
  <rect class="cls-9" x="560.75" y="287.25" width="11" height="27"/>
  <rect class="cls-9" x="530.75" y="291.25" width="11" height="27"/>
  <rect class="cls-9" x="595.75" y="245.25" width="11" height="27"/>
  <rect class="cls-9" x="560.75" y="245.25" width="11" height="27"/>
  <rect class="cls-9" x="525.75" y="245.25" width="11" height="27"/>
  <rect class="cls-11" x="560.75" y="373.25" width="11" height="27"/>
  <rect class="cls-9" x="525.75" y="371.25" width="11" height="27"/>
  <rect class="cls-9" x="595.75" y="329.25" width="11" height="27"/>
  <rect class="cls-9" x="595.75" y="416.25" width="11" height="27"/>
  <rect class="cls-9" x="560.75" y="416.25" width="11" height="27"/>
  <rect class="cls-9" x="525.75" y="413.25" width="11" height="27"/>
  <rect class="cls-9" x="595.75" y="374.25" width="11" height="27"/>
  <rect class="cls-9" x="595.75" y="460.25" width="11" height="27"/>
  <rect class="cls-11" x="561.75" y="460.25" width="11" height="27"/>
  <rect class="cls-9" x="525.75" y="460.25" width="11" height="27"/>
  <rect class="cls-10" x="199.75" y="109.25" width="5" height="9"/>
  <rect class="cls-10" x="209.75" y="116.25" width="5" height="9"/>
  <rect class="cls-10" x="299.75" y="121.25" width="5" height="12"/>
  <rect class="cls-10" x="290.75" y="113.25" width="5" height="11"/>
  <rect class="cls-10" x="272.75" y="198.25" width="5" height="11"/>
  <rect class="cls-10" x="281.75" y="205.25" width="5" height="11"/>
  <rect class="cls-5" x="9.75" y="170.25" width="5" height="11"/>
  <rect class="cls-5" x="83.75" y="420.25" width="5" height="11" transform="translate(512 339.5) rotate(90)"/>
  <rect class="cls-5" x="17.75" y="179.25" width="5" height="11"/>
  <rect class="cls-5" x="94.75" y="428.25" width="5" height="11" transform="translate(-336.5 531) rotate(-90)"/>
  <rect class="cls-5" x="433.75" y="165.25" width="5" height="11"/>
  <rect class="cls-5" x="441.75" y="172.25" width="5" height="11"/>
  <rect class="cls-5" x="343.75" y="65.25" width="5" height="11"/>
  <rect class="cls-5" x="337.75" y="60.25" width="5" height="11"/>
  <rect class="cls-5" x="552.75" y="273.25" width="5" height="11"/>
  <rect class="cls-5" x="544.75" y="266.25" width="5" height="11"/>
  <rect class="cls-5" x="180.75" y="387.25" width="5" height="11"/>
  <rect class="cls-5" x="171.75" y="380.25" width="5" height="11"/>
  <rect class="cls-5" x="466.75" y="545.25" width="5" height="11"/>
  <rect class="cls-5" x="459.75" y="540.25" width="5" height="11"/>
  <rect class="cls-5" x="277.75" y="446.25" width="5" height="11"/>
  <rect class="cls-5" x="284.75" y="454.25" width="5" height="11"/>
  <polyline class="cls-12" points="124.25 158.75 171.75 123.25 61.75 123.25 .25 158.75"/>
  <polyline class="cls-12" points="485.25 56.75 508.75 29.25 368.75 29.25 331.25 56.75"/>
  <polyline class="cls-12" points="309.25 276.75 332.25 251.25 192.93 250.42 155.93 276.42"/>
  <polyline class="cls-12" points="626.25 230.75 651.75 204.25 552.75 205.25 514.25 230.75"/>
  <path class="cls-8" d="M163.75,506.56c.64-1.56,1-3.26,1-5.05,0-7.32-5.93-13.25-13.25-13.25-.49,0-.96.03-1.44.08-2.39-2.37-5.68-3.83-9.31-3.83-7.32,0-13.25,5.93-13.25,13.25,0,2.22.55,4.31,1.51,6.15-1.12,1.94-1.76,4.2-1.76,6.6,0,7.32,5.93,13.25,13.25,13.25,1.09,0,2.15-.13,3.17-.38,2.32,3.83,6.53,6.38,11.33,6.38,7.32,0,13.25-5.93,13.25-13.25,0-3.96-1.74-7.52-4.5-9.95Z"/>
  <polyline class="cls-4" points="141.25 524.25 132.75 564.25 153.25 564.25 145.25 524.25"/>
  <path class="cls-8" d="M659.25,455.62c0-6.18-4.57-11.19-10.21-11.19-3.36,0-6.34,1.78-8.2,4.53-1.47-4.21-5.18-7.2-9.54-7.2-5.14,0-9.39,4.16-10.1,9.58-3.85,1.6-6.58,5.68-6.58,10.46,0,6.18,4.57,11.19,10.21,11.19,1.91,0,3.7-.58,5.22-1.58,1.53,1,3.31,1.58,5.22,1.58.74,0,1.45-.09,2.15-.25,0,.15-.01.3-.01.46,0,6.18,4.57,11.19,10.21,11.19s10.21-5.01,10.21-11.19c0-3.23-1.25-6.13-3.24-8.18,2.81-1.99,4.67-5.46,4.67-9.39Z"/>
  <polygon class="cls-4" points="637.9 502.77 626.5 501.82 630.3 472.38 636.47 473.33 637.9 502.77"/>
  <path class="cls-8" d="M519.86,517.29c0-6.18-4.57-11.19-10.21-11.19-3.36,0-6.34,1.78-8.2,4.53-1.47-4.21-5.18-7.2-9.54-7.2-5.14,0-9.39,4.16-10.1,9.58-3.85,1.6-6.58,5.68-6.58,10.46,0,6.18,4.57,11.19,10.21,11.19,1.91,0,3.7-.58,5.22-1.58,1.53,1,3.31,1.58,5.22,1.58.74,0,1.45-.09,2.15-.25,0,.15-.01.3-.01.46,0,6.18,4.57,11.19,10.21,11.19,5.64,0,10.21-5.01,10.21-11.19,0-3.23-1.25-6.13-3.24-8.18,2.81-1.99,4.67-5.46,4.67-9.39Z"/>
  <path class="cls-8" d="M675.54,482.56c.64-1.56,1-3.26,1-5.05,0-7.32-5.93-13.25-13.25-13.25-.49,0-.96.03-1.44.08-2.39-2.37-5.68-3.83-9.31-3.83-7.32,0-13.25,5.93-13.25,13.25,0,2.22.55,4.31,1.51,6.15-1.12,1.94-1.76,4.2-1.76,6.6,0,7.32,5.93,13.25,13.25,13.25,1.09,0,2.15-.13,3.17-.38,2.32,3.83,6.53,6.38,11.33,6.38,7.32,0,13.25-5.93,13.25-13.25,0-3.96-1.74-7.52-4.5-9.95Z"/>
  <polyline class="cls-4" points="651.04 500.25 642.54 540.25 663.04 540.25 655.04 500.25"/>
  <path class="cls-8" d="M539.86,470.29c0-6.18-4.57-11.19-10.21-11.19-3.36,0-6.34,1.78-8.2,4.53-1.47-4.21-5.18-7.2-9.54-7.2-5.14,0-9.39,4.16-10.1,9.58-3.85,1.6-6.58,5.68-6.58,10.46,0,6.18,4.57,11.19,10.21,11.19,1.91,0,3.7-.58,5.22-1.58,1.53,1,3.31,1.58,5.22,1.58.74,0,1.45-.09,2.15-.25,0,.15-.01.3-.01.46,0,6.18,4.57,11.19,10.21,11.19,5.64,0,10.21-5.01,10.21-11.19,0-3.23-1.25-6.13-3.24-8.18,2.81-1.99,4.67-5.46,4.67-9.39Z"/>
  <polygon class="cls-4" points="498.5 564.44 487.11 563.49 490.9 534.05 497.08 535 498.5 564.44"/>
  <rect class="cls-5" x="372.75" y="355.25" width="5" height="11"/>
  <rect class="cls-5" x="377.75" y="360.25" width="5" height="11"/>
  <polygon class="cls-6" points="331.75 251.25 310.75 251.25 308.75 27.25 333.75 1.25 331.75 251.25"/>
</svg>