<?xml version="1.0" encoding="UTF-8"?>
<svg id="Layer_2" data-name="Layer 2" xmlns="http://www.w3.org/2000/svg" viewBox="0 0 39 94.08">
  <defs>
    <style>
      .cls-1 {
        fill: #ffe5d4;
      }

      .cls-1, .cls-2 {
        stroke-width: 0px;
      }

      .cls-2 {
        fill: #000;
      }

      .cls-3 {
        fill: #fff;
      }

      .cls-3, .cls-4, .cls-5, .cls-6, .cls-7 {
        stroke: #000;
        stroke-miterlimit: 10;
      }

      .cls-4 {
        fill: none;
      }

      .cls-5 {
        fill: #aaffb1;
      }

      .cls-6 {
        fill: #63390f;
      }

      .cls-7 {
        fill: #5f7aff;
      }
    </style>
  </defs>
  <g id="Layer_1-2" data-name="Layer 1">
    <rect class="cls-7" x="11.96" y="73.23" width="6" height="20.37" rx="3" ry="3" transform="translate(12.55 -1.3) rotate(8.54)"/>
    <rect class="cls-7" x="19.67" y="73.23" width="6" height="20.43" rx="3" ry="3" transform="translate(57.48 162.6) rotate(171.46)"/>
    <g>
      <path class="cls-1" d="M19.5,38.5C9.02,38.5.5,29.98.5,19.5S9.02.5,19.5.5s19,8.52,19,19-8.52,19-19,19Z"/>
      <path class="cls-2" d="M19.5,1c10.2,0,18.5,8.3,18.5,18.5s-8.3,18.5-18.5,18.5S1,29.7,1,19.5,9.3,1,19.5,1M19.5,0C8.73,0,0,8.73,0,19.5s8.73,19.5,19.5,19.5,19.5-8.73,19.5-19.5S30.27,0,19.5,0h0Z"/>
    </g>
    <circle class="cls-3" cx="12" cy="9" r="5.5"/>
    <circle class="cls-3" cx="23" cy="9" r="5.5"/>
    <circle class="cls-6" cx="10" cy="11" r="1.5"/>
    <circle class="cls-6" cx="21" cy="11" r="1.5"/>
    <path class="cls-4" d="M11.5,19.5c.72,1.67,2.25,2.82,4,3,2.07.21,4.1-1,5-3"/>
    <path class="cls-5" d="M19.5,39c-2.98,0-5.79-.69-8.31-1.88-3.44,4.53-5.69,11.97-5.69,20.38,0,13.81,6.04,25,13.5,25s13.5-11.19,13.5-25c0-8.2-2.13-15.47-5.42-20.03-2.33.98-4.89,1.53-7.58,1.53Z"/>
    <path class="cls-4" d="M22.69,59.83c.46-.28,1.63-1.08,2.25-2.63.97-2.4-.21-4.57-.38-4.87"/>
    <line class="cls-4" x1="9" y1="74.5" x2="28.5" y2="74.5"/>
  </g>
</svg>