<svg xmlns="http://www.w3.org/2000/svg" id="Layer_4" data-name="Layer 4" viewBox="0 0 552.5 490.9">
  <defs>
    <style>
    .cls-10,.cls-11,.cls-2,.cls-3,.cls-4,.cls-5,.cls-6,.cls-7,.cls-8,.cls-9{stroke:#000;stroke-miterlimit:10}.cls-2{fill:#cccccb}.cls-3{fill:#a83433}.cls-13,.cls-6{fill:#8e8e8e}.cls-13,.cls-14{stroke-width:0}.cls-14,.cls-4{fill:#fff}.cls-5{fill:#666766}.cls-7{fill:#bccdd6}.cls-8{fill:#f4f4f5}.cls-9{fill:#d12e30}.cls-10{fill:#bcced6}.cls-11{fill:#d12f30}
    
    
.exhaust {
   animation: exhaustMove 5s infinite;
}

@keyframes exhaustMove {
  0% {
    transform: translateY(5%);
    opacity: 0;
  }
  
  50% {
    transform: translate(5%, 0);
    opacity: 1;
  }
  
  100% {
    transform: translate(3%);
    opacity: 0;
  }
} 

    </style>
  </defs>
  <g class="exhaust">
    <path fill="#cccccb" stroke-width="0" d="M40 175c-14.3-5.3-8.7-16.3-11.2-29.4-10-6-30-17.5-25.3-26.6-4.7-2.7-3.7-7.6-2.6-12.7 1.3-6 4.1-9.6 10.7-8.6a29.4 29.4 0 0 1 14-13.4l1.8-1.6c1-2.7 3.4-4.6 6-5.7 1.6-.5 2.8-1.8 2.6-3.1-.5-15.3 11.8-23 25.3-25.3 2.5-.3 4-2.9 2.6-5.2-.9-.6-7.7-6.6-6.9-15 .4-6.1 4.7-10.2 5.8-11.1a14.4 14.4 0 0 1 13-10.8c6.6-6 21-7.7 36.6-4.3 6.8 1.5 11.7-.4 16.8 2.4a23.6 23.6 0 0 1 19.7-4l6.2 2.2a52 52 0 0 1 28.7-1.1c16.5 3.6 29 12 30.7 21.4a23.5 23.5 0 0 1 20.7-4.5 23.7 23.7 0 0 1 15.9 11.2c3-.5 6.4-.6 10 .2 11.6 2.5 19.6 12 17.7 20.7l-.2.8c-1.5 9-12.6 21.2-27.8 20.4-4.3-.2-8.6-.7-12.2-1.9-3 7.6-9.9 14.7-19.8 15.8l-7.8-1.7a54.1 54.1 0 0 1-31.4 9.2c.1 4.1-2.8 8.4-6.8 11.7-4.6 3-9.1 4.1-12.7 3l-1 2.2v.4l.2.9.2 1.2v.4l.4.1-.4 1.6.3.9-.2.8c-1.3 6.2-8 10.1-14.8 8.6h-.5l-1.4-.4-.4-.5h-.4a10 10 0 0 1-1.7-1.2l-.4-.1-.9-.6c-3 3-6.5 5.5-10.1 6.8-9.4 3.3-18.6-.8-26.7-5.8-1.2-1.1-3.1-1.1-4.3-.2-5.6 5.3-14.4 7-22.7 4.6a5 5 0 0 0-4 1.1l-2.6 2.8-1 .5-3.6 3-8.1 6.4-.5 9c10.7 6 12.9 18 7.7 24.2-5 4.7-14.8 5.8-23.2.3Z"/>
    <path d="M203.7 93.9c1.6 5.8.7 14.6-5.5 18.4-4.9 2.7-12.4 2-18.1-.6l-2.7 1.2c.6 1.8.6 4 .2 5.5-2.1 9.8-15.3 15-30 11.8l-6.8-1.9-8 1.3c-4.9 4.9-13.6 7.2-22.3 5.3a26 26 0 0 1-13-6.6l-10.3-3.6a27.8 27.8 0 0 1-9.3 7c2.7 4.5 3.5 9.7 2.2 14.5-1.2 5.3-6 11.5-15.2 14.6l-.7 5c-1.5 7-6.4 11.8-11.9 12.7-2.7 3.7-8 5.6-13.4 4.4-6-1.3-10.2-6.5-10-11.6-5-8.5-4.9-18.5.4-26.3 2.8-4.1 6.7-6.3 10.3-7.6l-.2-1.3c-1-1.5-1.2-3.3-.7-5.3 1-4.7 3.7-9 7.9-12C47 112.3 52 105.2 60 101l7.8-2.5 6.6-5.9c.7-5.8 5-12 11.8-16.6l.5-.3 1.6-.5c9.5-6 18.4-7 24.7-3.1l4.8.2c5-5 10.3-14.9 17.9-18.8 15-7.4 30.4-9.1 40.7-5.6 4.6 1 8.5 3.1 10.8 5.8 7.6-1.8 16.4 3.9 20 9.4 4.7 7 7 24.6-2.5 30.2l-1.1.7Z" class="cls-13"/>
    <path d="M115.2 172.3c-10-3.9-17.1-12.7-18.7-23-7-4.6-9.5-13.4-6-20.6-3.2-2-4.8-6-3.9-10 1-4.8 5.4-7.7 10-7 1.8-3.6 5.3-8.7 10.2-11l1.3-1.3a8.5 8.5 0 0 1 4.4-4.6c1-.4 2-1.5 1.9-2.5 0-12.1 8.7-18.4 18.4-20.5 1.7-.3 2.8-2.3 1.9-4.2-.6-.4-6.3-10.1-5.6-16.8.4-4.9 3.5-8.1 4.3-9 .7-2.7 2.3-5 4.6-6.8 1.2-1 3-1.6 4.8-1.9 4.8-4.8 15-6.5 26-4.1 4.8 1 9 2.6 12.5 4.7 3.4-3.2 8.8-4.7 14-3.5l4.4 1.6c5.2-2.5 12.8-3.1 20.3-1.5 11.6 2.6 20.2 9.7 21.3 17.1 3.5-3.5 9-5.2 14.8-4 5.1 1.2 9.1 4.7 11 8.7a16 16 0 0 1 7-.1c8.2 1.7 14.7 14.2 13.2 21.1l-.2.6c-1.2 7.3-10 13.2-20.7 12.8-3 0-6-.3-8.6-1.2-2.3 6-7.3 11.9-14.3 13L238 97a37 37 0 0 1-22.4 8c0 3.2-2.1 6.6-5 9.3-3.3 2.5-6.6 3.5-9.1 2.6l-.7 1.8-.1.3.2.7.1 1v.3h.3l-.3 1.3.2.7-.2.7a9 9 0 0 1-10.7 7.1h-.3l-1-.3-.2-.3-.4-.1-1.1-1h-.3l-.6-.4a21.5 21.5 0 0 1-7.3 5.6c-6.7 2.7-13.2-.3-18.8-4.1-.8-.9-2.2-.8-3 0-4.1 4.2-10.4 5.8-16.2 4-1-.2-2 .2-2.9 1l-1.8 2.2-.8.5-2.5 2.4-6 5.2-.5 7c7.5 4.7 8.8 14.1 5 19.2-3.5 3.8-10.5 4.9-16.4.7Z" class="cls-13"/>
  </g>
  <g id="pipe">
    <path d="M27.3 490.4v-65.7L31 161.8h26.5v328.6H27.3z" class="cls-11"/>
    <path d="M87.7 490.4v-65.7L84 161.8H57.5v328.6h30.2z" class="cls-3"/>
    <path d="M25.7 182.7h31.8v18.5H25.7z" class="cls-8"/>
    <path d="M57.9 182.7h31.8v18.5H57.9z" class="cls-10"/>
    <path d="M25.5 214.5h31.8V233H25.5z" class="cls-8"/>
    <path d="M57.7 214.5h31.8V233H57.7z" class="cls-10"/>
  </g>
  <g id="pipe-2" data-name="pipe">
    <path d="M110.7 490.4v-65.7l3.7-262.9h26.5v328.6h-30.2z" class="cls-11"/>
    <path d="M171 490.4v-65.7l-3.6-262.9h-26.5v328.6H171z" class="cls-3"/>
    <path d="M109.1 182.7h31.8v18.5h-31.8z" class="cls-8"/>
    <path d="M141.2 182.7H173v18.5h-31.8z" class="cls-10"/>
    <path d="M108.9 214.5h31.8V233h-31.8z" class="cls-8"/>
    <path d="M141 214.5h31.8V233H141z" class="cls-10"/>
  </g>
  <path d="M441.2 214v276.4H340v-274h-9.2v-20.3H441V214h.2z" class="cls-2"/>
  <path d="M552 196.1v20.3h-9.6v274H236V270.9h104v104.4h98V196.1h114z" class="cls-6"/>
  <path d="M340 216.4h202.4v9.4H340z" class="cls-5"/>
  <path d="m236 270.9-83.3 55.2v-55.2H236z" class="cls-6"/>
  <path d="M236 270.9v219.5H70.2V326.1l83.3-55.2v54.6l82.5-54.6z" class="cls-2"/>
  <path fill="#f9f9fa" stroke="#000" stroke-miterlimit="10" d="M144.4 410.5v33H71.1v46.9H27.3v-59.1l43.8-20.8h73.3z"/>
  <path d="M27.3 431.3H113v59H27.3z" class="cls-2"/>
  <path d="M101.5 490.4h41.6l2.2-79.9-43.8 20.8v59.1z" class="cls-6"/>
  <path d="M141.3 456.4v9h19l2.4 2.9v22.1h9.2v-29.5l-4.6-4.5h-26zM56 425.7v-8.5h16.1l2.1-2.7v-20.8h7.7v27.8l-3.9 4.2H56z" class="cls-13"/>
  <path d="M81.9 392.1v8.8H63.6l-2.4 2.8v21.5h-8.8v-28.7l4.4-4.4h25.1zM119.2 450.4v10.7h18.3l2.4 3.3v26h8.8v-34.7l-4.4-5.3h-25.1z" class="cls-9"/>
  <g>
    <g>
      <path d="M451.1 277.2H529v24.1h-77.9z" class="cls-7"/>
      <path d="M520.8 277.2h8.2v24.1h-8.2z" class="cls-5"/>
    </g>
    <path d="M464.7 281.7c-2.7-.2-5.3-.2-8-.2-1.2 0-2.4.8-2.3 1.6 0 .8 1 1.6 2.3 1.6 2.7 0 5.3 0 8 .2a3 3 0 0 0 1.6-.5c.4-.2.7-.7.7-1s-.2-1-.7-1.2c-.5-.3-1-.4-1.6-.5Z" class="cls-14"/>
  </g>
  <g>
    <g>
      <path d="M451.1 240.2H529v24.1h-77.9z" class="cls-7"/>
      <path d="M520.8 240.2h8.2v24.1h-8.2z" class="cls-5"/>
    </g>
    <path d="M464.7 244.8c-2.7-.2-5.3-.3-8-.2-1.2 0-2.4.7-2.3 1.6 0 .8 1 1.6 2.3 1.5 2.7 0 5.3 0 8 .2a3 3 0 0 0 1.6-.4c.4-.3.7-.7.7-1.1s-.2-.9-.7-1.2c-.5-.3-1-.4-1.6-.4Z" class="cls-14"/>
  </g>
  <g>
    <g>
      <path d="M451.1 351.1H529v24.1h-77.9z" class="cls-7"/>
      <path d="M520.8 351.1h8.2v24.1h-8.2z" class="cls-5"/>
    </g>
    <path d="M464.7 355.7c-2.7-.2-5.3-.3-8-.2-1.2 0-2.4.7-2.3 1.6 0 .8 1 1.6 2.3 1.5 2.7 0 5.3 0 8 .2a3 3 0 0 0 1.6-.4c.4-.3.7-.8.7-1.1s-.2-.9-.7-1.2c-.5-.3-1-.4-1.6-.4Z" class="cls-14"/>
  </g>
  <g>
    <g>
      <path d="M451.1 314.1H529v24.1h-77.9z" class="cls-7"/>
      <path d="M520.8 314.1h8.2v24.1h-8.2z" class="cls-5"/>
    </g>
    <path d="M464.7 318.7c-2.7-.2-5.3-.3-8-.2-1.2 0-2.4.7-2.3 1.6 0 .8 1 1.6 2.3 1.6 2.7-.1 5.3 0 8 .2a3 3 0 0 0 1.6-.5c.4-.3.7-.7.7-1.1s-.2-.9-.7-1.1c-.5-.4-1-.5-1.6-.5Z" class="cls-14"/>
  </g>
  <path d="M467 444.3h41.3v46.1H467z" class="cls-7"/>
  <path d="M500 444.3h8.2v46.1H500z" class="cls-5"/>
  <g>
    <g>
      <path d="M235 391h294.1v29.2H235z" class="cls-7"/>
      <path d="M522.5 391h6.5v29.2h-6.5z" class="cls-5"/>
    </g>
    <path d="M165.9 391.1h70v29.2h-70z" class="cls-4"/>
  </g>
  <g id="window">
    <path d="M235 346h89.9v29.2H235z" class="cls-7"/>
    <path d="M165.9 346h70v29.2h-70z" class="cls-4"/>
    <path d="M318.4 346h6.5v29.2h-6.5z" class="cls-5"/>
  </g>
</svg>