<?xml version="1.0" encoding="UTF-8"?>
<svg id="Layer_2" data-name="Layer 2" xmlns="http://www.w3.org/2000/svg" viewBox="0 0 130.89 66">
  <defs>
    <style>
      .cls-1 {
        fill: #2e3192;
      }

      .cls-1, .cls-2, .cls-3, .cls-4 {
        stroke-width: 0px;
      }

      .cls-2 {
        fill: #000;
      }

      .cls-3 {
        fill: #0071bc;
      }

      .cls-4 {
        fill: #231f20;
      }
    </style>
  </defs>
  <g id="Layer_1-2" data-name="Layer 1">
    <g>
      <g>
        <path class="cls-3" d="M1.63,34.28c2.76,3.23,6.19,5.83,9.58,8.39,7.17,5.42,14.52,10.93,23.1,13.62,8.35,2.61,17.31,2.35,26.04,1.69,6.3-.48,12.65-1.16,18.63-3.19,7.93-2.69,14.99-7.7,20.58-13.94"/>
        <path class="cls-4" d="M.88,35.03c2.37,2.74,5.17,5.02,8.04,7.22s5.8,4.42,8.78,6.51c5.81,4.07,12.08,7.63,19.03,9.29,7.57,1.81,15.44,1.59,23.15,1.02s15.08-1.39,22.08-4.28,13.26-7.55,18.35-13.2c.91-1.01-.58-2.52-1.5-1.5-4.41,4.89-9.64,9-15.6,11.84-6.71,3.2-14.1,4.27-21.44,4.87s-14.89,1.03-22.19-.32-13.18-4.42-19-8.32c-3.14-2.11-6.16-4.39-9.18-6.68-3.2-2.43-6.37-4.91-9.01-7.96-.9-1.04-2.4.47-1.5,1.5h0Z"/>
      </g>
      <g>
        <path class="cls-3" d="M1.06,34.05c5.94-6.1,12.28-11.88,19.43-16.49,7.15-4.62,15.17-8.05,23.61-9.18,3.56-.48,7.17-.54,10.76-.47,9.14.18,18.37,1.26,26.92,4.49s16.42,8.78,21.3,16.51"/>
        <path class="cls-4" d="M1.81,34.8C12.27,24.08,24.35,14.06,39.2,10.39c7.72-1.91,15.92-1.7,23.79-.99s15.29,2.3,22.22,5.61c6.79,3.25,12.87,8.05,16.95,14.44.73,1.15,2.57.08,1.84-1.07-8.06-12.63-22.57-18.72-36.92-20.64-8.1-1.09-16.69-1.5-24.77-.15s-15.02,4.45-21.6,8.59C13.15,20.91,6.51,26.94.31,33.3c-.96.98.55,2.49,1.5,1.5h0Z"/>
      </g>
      <g>
        <path class="cls-3" d="M103.52,29.18c1.8-2.78,4.94-4.36,7.95-5.76,6.05-2.82,12.19-5.46,18.39-7.93-1.89,3.36-2.3,7.34-3.79,10.89-1.59,3.77-4.44,6.99-7.98,9.02-.32.19-.67.38-.85.7-.33.57-.04,1.29.24,1.89,3.88,8.35,4.58,18.13,1.94,26.96-3.24-2.92-6.48-5.85-9.71-8.77-4.67-4.22-9.62-8.93-10.64-15.14"/>
        <path class="cls-2" d="M104.44,29.72c2.47-3.65,7.27-5.27,11.12-7.01,4.81-2.18,9.68-4.24,14.58-6.19l-1.2-1.56c-1.73,3.19-2.28,6.77-3.51,10.15s-3.34,6.16-6.12,8.23c-1.08.8-2.89,1.39-3.23,2.85-.37,1.56,1.01,3.48,1.53,4.89,1.29,3.49,2.05,7.16,2.26,10.88.24,4.31-.26,8.59-1.47,12.73l1.78-.47c-4.17-3.76-8.44-7.44-12.49-11.34-3.49-3.36-6.72-7.19-7.59-12.1-.24-1.34-2.29-.77-2.05.57.88,4.97,4.06,9.01,7.56,12.48,4.18,4.13,8.7,7.96,13.06,11.9.59.53,1.54.32,1.78-.47,2.04-6.96,2.14-14.43.26-21.45-.46-1.71-1.04-3.39-1.73-5.02-.19-.44-.4-.87-.58-1.31-.24-.57-.22-.77.23-1.14.64-.51,1.41-.88,2.07-1.38,2.53-1.93,4.62-4.44,5.98-7.32,1.76-3.73,2.13-7.96,4.11-11.59.4-.74-.28-1.93-1.2-1.56-5.23,2.08-10.41,4.28-15.54,6.61-4.15,1.88-8.78,3.64-11.43,7.57-.77,1.14,1.07,2.2,1.84,1.07h0Z"/>
      </g>
      <path class="cls-3" d="M4.31,35.63c25.53-1.27,50.74,4.53,76.24,4.66,3.49.02,6.99.02,10.47.31,1.67.14,3.52.7,5.19.5.67-.08,1.27-.34,1.84-.7.19-.12.36-.25.54-.37.17-.12.35-.24.53-.35.35-.14.35-.18,0-.14,1.71.89,3.23-1.7,1.51-2.59-1.04-.54-2.03-.43-3.03.14-.46.26-.86.68-1.34.9-.69.3-1.46.06-2.18-.04-3.19-.44-6.41-.58-9.62-.63-6.5-.09-12.98-.16-19.47-.64-12.97-.95-25.85-2.77-38.82-3.69-7.27-.51-14.57-.73-21.85-.37-1.92.1-1.93,3.1,0,3h0Z"/>
      <path class="cls-3" d="M24.35,31.15l-.68.54c-1.31,1.04.18,2.72,1.46,2.51,8.37-1.37,16.77-2.35,25.2-3.25s16.85-1.97,25.32-1.53l-.76-2.8c-.2.15-.39.29-.59.44-1.53,1.14-.03,3.75,1.51,2.59.2-.15.39-.29.59-.44,1.17-.87.82-2.71-.76-2.8-8.62-.45-17.22.66-25.78,1.58s-17.06,1.92-25.53,3.31l1.46,2.51.68-.54c1.51-1.2-.62-3.31-2.12-2.12h0Z"/>
      <path class="cls-3" d="M33.45,27.23c-1.34,1.77-2.57,3.61-3.68,5.53-.91,1.57,1.09,2.83,2.36,1.82,2.67-2.14,5.35-4.27,8.02-6.41l-2.36-1.82c-2.01,2.97-4.63,5.44-7.23,7.89-1.42,1.33.69,3.4,2.12,2.12,3.32-2.95,7.04-5.38,11.06-7.28l-1.82-2.36c-2.55,2.88-5.3,5.56-8.24,8.04l2.12,2.12c3.02-2.88,6.34-5.36,9.96-7.44l-1.82-2.36c-2.39,2.6-4.77,5.21-7.16,7.81-1.32,1.44.66,3.37,2.12,2.12,3.74-3.21,7.53-6.39,12.04-8.47l-1.82-2.36c-3.32,3.15-6.77,6.16-10.34,9.03l2.12,2.12c3.68-3.19,7.71-5.91,12.03-8.16l-1.82-2.36c-2.7,2.41-5.4,4.81-8.1,7.22-1.45,1.29.67,3.37,2.12,2.12,2.98-2.58,6.23-4.8,9.68-6.69l-1.82-2.36c-3.42,3.87-7.47,7.06-11.53,10.23l2.12,2.12c4.62-3.66,9.6-6.84,14.83-9.55l-1.82-2.36c-3.55,3.29-7.27,6.4-11.15,9.3l1.82,2.36c3.99-3.14,8.07-6.36,12.79-8.34l-1.46-2.51c-3.42,3.36-7.09,6.41-11.04,9.13l1.82,2.36c4.85-3.82,9.99-7.27,15.34-10.33l-1.82-2.36c-3.51,3.43-7.31,6.51-11.39,9.23l1.82,2.36c4.83-3.81,9.8-7.69,15.67-9.77l-1.46-2.51c-3.62,3.66-7.57,6.95-11.84,9.84l1.82,2.36c4.78-3.93,9.63-7.83,15.27-10.45l-2.05-2.05c-1.43,2.3-4.12,3.83-6.28,5.37-2.39,1.7-4.83,3.34-7.31,4.92l1.82,2.36c3.89-3.04,8.11-5.74,12.76-7.45l-1.46-2.51c-3.71,3.53-7.71,6.69-12.02,9.47l1.82,2.36c4.7-3.95,9.85-7.3,15.33-10.05l-1.82-2.36c-3.83,3.4-7.87,6.55-12.1,9.43l1.82,2.36c4.43-3.59,9.06-7.14,14.54-8.94l-1.46-2.51c-3.6,3.26-7.43,6.23-11.48,8.91l1.51,2.59c5.01-3.77,10.12-7.63,16.05-9.83l-1.46-2.51c-3.44,3.38-7.35,6.18-11.65,8.37l1.82,2.36c4.2-3.47,8.45-6.92,13.43-9.21l-1.82-2.36c-3.92,3.64-8.3,6.71-12.69,9.75l1.51,2.59c4.39-3.1,8.79-6.89,13.84-8.85l-1.85-1.05c.1-.38.02-.4-.21-.05-.17.15-.33.31-.5.46-.34.3-.68.6-1.02.9-.74.64-1.5,1.26-2.28,1.87-1.57,1.22-3.21,2.34-4.89,3.4l1.82,2.36c3.55-3.17,7.41-5.94,11.53-8.31l-2.2-1.69c-.36.99-1.58,1.64-2.37,2.23-1.11.82-2.23,1.64-3.35,2.45-2.24,1.62-4.5,3.22-6.77,4.79-1.57,1.09-.08,3.69,1.51,2.59,4.48-3.08,8.95-6.16,13.43-9.25l-2.26-1.3c-.02.27-.87.86-1.06,1.03-.34.31-.67.63-1.02.94-.79.72-1.6,1.44-2.41,2.14-1.65,1.42-3.33,2.8-5.05,4.13l1.82,2.36c3.44-3,7.14-5.64,11.09-7.94l-1.82-2.36c-2.81,2.82-5.74,5.51-8.81,8.05-1.3,1.07.45,3.38,1.82,2.36,3.47-2.61,6.94-5.22,10.41-7.84l-1.82-2.36c-3.21,2.9-6.43,5.81-9.64,8.71-1.44,1.3.67,3.37,2.12,2.12,2.65-2.28,5.48-4.31,8.48-6.09l-2.05-2.05c-1.47,2.23-3.27,4.17-5.35,5.85l2.12,2.12c2.4-2.42,4.96-4.65,7.71-6.65l-1.82-2.36c-1.81,2.13-3.62,4.25-5.42,6.38-1.26,1.49.63,3.34,2.12,2.12,2.11-1.72,4.16-3.51,6.14-5.39l-2.36-1.82c-1.19,1.81-2.45,3.58-3.8,5.27-1.18,1.48.67,3.46,2.12,2.12,1.79-1.65,3.54-3.34,5.26-5.07l-2.36-1.82c-.9,1.59-1.87,3.14-2.89,4.66-.97,1.43,1.17,3,2.36,1.82,1.37-1.37,2.73-2.74,4.1-4.11l-2.51-1.46c-.67,1.64-1.34,3.28-2.02,4.91-.56,1.36,1.6,2.6,2.51,1.46,1.29-1.62,2.38-3.33,3.21-5.23l-2.74-1.16c-.39,1.41-.57,2.85-.55,4.31.02,1.18,1.72,2.14,2.56,1.06,1.18-1.51,2.03-3.13,2.48-5l-2.95-.4c.05.9.11,1.81.16,2.71.09,1.52,1.95,2,2.8.76s1.3-2.65,1.48-4.18h-3c-.12,1.26-.12,2.51,0,3.77.16,1.71,2.33,2,2.95.4.44-1.15.68-2.3.81-3.52h-3c-.02.74-.04,1.47-.06,2.21-.05,1.54,2.03,1.97,2.8.76.52-.82.75-1.67.74-2.64l-2.95.4c.06.4.11.8.17,1.2.11.81,1.14,1.23,1.85,1.05.87-.23,1.16-1.05,1.05-1.85-.06-.4-.11-.8-.17-1.2-.23-1.69-2.97-1.26-2.95.4,0,.49-.07.72-.33,1.13l2.8.76c.02-.74.04-1.47.06-2.21.06-1.97-2.8-1.88-3,0-.1.94-.36,1.84-.71,2.72l2.95.4c-.12-1.26-.12-2.51,0-3.77.18-1.93-2.78-1.89-3,0-.11,1-.51,1.85-1.07,2.67l2.8.76c-.05-.9-.11-1.81-.16-2.71-.1-1.62-2.53-2.12-2.95-.4-.32,1.34-.86,2.59-1.71,3.68l2.56,1.06c-.02-1.21.12-2.34.44-3.51.43-1.58-2.04-2.75-2.74-1.16s-1.62,3.21-2.75,4.62l2.51,1.46c.67-1.64,1.34-3.28,2.02-4.91.59-1.45-1.52-2.44-2.51-1.46-1.37,1.37-2.73,2.74-4.1,4.11l2.36,1.82c1.03-1.52,1.99-3.07,2.89-4.66.83-1.47-1.14-3.05-2.36-1.82-1.71,1.73-3.47,3.42-5.26,5.07l2.12,2.12c1.51-1.9,2.94-3.85,4.27-5.88.96-1.46-1.15-2.96-2.36-1.82-1.98,1.87-4.03,3.67-6.14,5.39l2.12,2.12c1.81-2.13,3.62-4.25,5.42-6.38,1.02-1.2-.34-3.43-1.82-2.36-2.96,2.16-5.74,4.52-8.32,7.12-1.39,1.4.65,3.31,2.12,2.12,2.28-1.84,4.21-4.02,5.81-6.46.84-1.28-.8-2.79-2.05-2.05-3.22,1.91-6.26,4.11-9.09,6.56l2.12,2.12c3.21-2.9,6.43-5.81,9.64-8.71,1.24-1.12-.44-3.39-1.82-2.36-3.47,2.61-6.94,5.22-10.41,7.84l1.82,2.36c3.07-2.54,6-5.22,8.81-8.05,1.2-1.21-.33-3.22-1.82-2.36-4.16,2.42-8.07,5.24-11.7,8.41-1.26,1.1.46,3.4,1.82,2.36,2.17-1.67,4.3-3.39,6.36-5.2.98-.86,1.95-1.74,2.9-2.63s1.65-1.66,1.77-3c.1-1.1-1.36-1.91-2.26-1.3-4.48,3.08-8.95,6.16-13.43,9.25l1.51,2.59c2.67-1.85,5.32-3.73,7.95-5.65,2.12-1.55,4.96-3.02,5.91-5.61.47-1.27-1.14-2.31-2.2-1.69-4.34,2.5-8.4,5.45-12.14,8.78-1.27,1.13.38,3.26,1.82,2.36,2.22-1.4,4.34-2.93,6.38-4.58,1.61-1.3,4.45-2.98,3.9-5.38-.17-.73-1.11-1.33-1.85-1.05-5.35,2.07-9.92,5.87-14.56,9.15-1.56,1.1-.08,3.7,1.51,2.59,4.6-3.19,9.19-6.41,13.3-10.22,1.33-1.23-.36-3.03-1.82-2.36-5.2,2.4-9.65,6.06-14.04,9.68-1.37,1.13.38,3.09,1.82,2.36,4.51-2.3,8.64-5.29,12.25-8.84,1.01-1-.01-3.04-1.46-2.51-6.21,2.3-11.52,6.18-16.77,10.13-1.5,1.13-.13,3.68,1.51,2.59,4.26-2.81,8.31-5.94,12.09-9.38,1.1-1-.05-2.97-1.46-2.51-6,1.98-11.01,5.78-15.86,9.71-1.32,1.07.41,3.31,1.82,2.36,4.44-3.03,8.69-6.33,12.71-9.9,1.33-1.18-.36-3.09-1.82-2.36-5.72,2.87-11.05,6.4-15.94,10.52-1.3,1.09.39,3.27,1.82,2.36,4.51-2.91,8.74-6.23,12.62-9.94,1.04-.99-.03-3.04-1.46-2.51-5.17,1.91-9.76,4.84-14.08,8.23-1.34,1.05.4,3.26,1.82,2.36,2.74-1.75,5.44-3.58,8.08-5.48,2.37-1.71,5.01-3.36,6.58-5.89.85-1.37-.78-2.64-2.05-2.05-5.87,2.73-10.91,6.84-15.88,10.92-1.31,1.07.41,3.31,1.82,2.36,4.47-3.03,8.65-6.47,12.45-10.31,1-1.01,0-3.03-1.46-2.51-6.39,2.27-11.72,6.39-16.99,10.54-1.33,1.05.41,3.29,1.82,2.36,4.29-2.85,8.31-6.09,12-9.69,1.23-1.2-.34-3.2-1.82-2.36-5.59,3.2-10.9,6.82-15.95,10.8-1.33,1.05.42,3.32,1.82,2.36,4.15-2.86,8.05-6.06,11.65-9.59.99-.98-.02-3.11-1.46-2.51-5.24,2.2-9.68,5.61-14.11,9.11-1.32,1.04.45,3.38,1.82,2.36,4.09-3.05,8.01-6.3,11.75-9.77,1.29-1.2-.35-3.11-1.82-2.36-5.47,2.82-10.62,6.19-15.44,10.02-1.52,1.2.62,3.29,2.12,2.12,4.06-3.17,8.11-6.36,11.53-10.23,1.11-1.26-.28-3.2-1.82-2.36-3.68,2.02-7.11,4.42-10.29,7.16l2.12,2.12c2.7-2.41,5.4-4.81,8.1-7.22,1.32-1.17-.36-3.12-1.82-2.36-4.54,2.37-8.76,5.27-12.63,8.63-1.48,1.28.64,3.31,2.12,2.12,3.57-2.87,7.02-5.87,10.34-9.03,1.31-1.24-.35-3.03-1.82-2.36-4.74,2.18-8.73,5.57-12.65,8.94l2.12,2.12c2.39-2.6,4.77-5.21,7.16-7.81,1.13-1.23-.3-3.23-1.82-2.36-3.83,2.2-7.37,4.86-10.57,7.91-1.42,1.35.67,3.35,2.12,2.12,2.94-2.48,5.69-5.16,8.24-8.04,1.16-1.3-.28-3.09-1.82-2.36-4.25,2.01-8.15,4.63-11.67,7.75l2.12,2.12c2.79-2.63,5.54-5.3,7.7-8.49,1.03-1.52-1.13-2.8-2.36-1.82-2.67,2.14-5.35,4.27-8.02,6.41l2.36,1.82c1.11-1.92,2.33-3.76,3.68-5.53,1.17-1.54-1.44-3.03-2.59-1.51h0Z"/>
      <path class="cls-3" d="M103.14,34.81c-.08-1.39-.63-2.69-1.74-3.57-1.49-1.18-3.43.64-2.12,2.12s3.65,1.48,5.1.18c.76-.67.46-1.86-.3-2.36-.08-.04-.14-.1-.18-.18l-1.3,2.26h.77c1.65.03,2.1-2.64.4-2.94-.53-.09-1.3-.15-1.72-.53-.53-.47-.73-1.02-1.5-1.22-.68-.17-1.44-.05-2.14-.02-.82.04-1.64.09-2.47.14-3.2.22-6.41.6-9.5,1.49-1.85.53-1.07,3.42.8,2.89,2.03-.57,4.08-1.02,6.16-1.36l-1.85-1.05.04.19v-.8c.22-.28.22-.34.02-.2-.13.07-.26.15-.39.22-.21.12-.43.25-.64.37-.47.27-.95.55-1.42.82-1.43.83-.49,3.32,1.16,2.74,1.93-.68,3.9-1.2,5.91-1.54l-1.46-2.51c-1.09.99-2.3,1.77-3.61,2.41-1.58.77-.44,3.11,1.16,2.74,1.87-.43,3.74-.86,5.62-1.3l-1.69-2.2c-.15.24-.31.31-.56.43l1.51,2.59c.62-.46,1.26-.82,1.99-1.05l-1.85-1.85c-.03.11-.01.05-.19.19l2.51,1.46.38-.9c.31-.75-.34-1.65-1.05-1.85-.87-.24-1.53.3-1.85,1.05l-.38.9c-.25.6.17,1.39.69,1.69.62.36,1.29.18,1.82-.23.49-.39.79-.92.96-1.52.31-1.07-.75-2.19-1.85-1.85-.97.3-1.89.74-2.7,1.35-1.53,1.14-.25,3.45,1.51,2.59.7-.34,1.22-.86,1.64-1.51.74-1.15-.48-2.48-1.69-2.2-1.87.43-3.74.86-5.62,1.3l1.16,2.74c1.55-.75,2.95-1.73,4.22-2.88.49-.44.56-1.26.23-1.82-.36-.61-1.03-.8-1.69-.69-2.02.34-3.99.85-5.91,1.54l1.16,2.74c1.53-.89,4.23-1.8,3.77-4-.18-.85-1.09-1.17-1.85-1.05-2.08.34-4.13.79-6.16,1.36l.8,2.89c2.09-.6,4.23-.98,6.4-1.19,1.07-.11,2.15-.19,3.23-.25.51-.03,1.03-.06,1.54-.08.47-.02,1.15-.17,1.57,0l-.66-.39c.52.46.86,1.04,1.53,1.38s1.39.52,2.13.65l.4-2.95h-.77c-1.09-.03-1.93,1.29-1.3,2.25.35.52.73.91,1.26,1.25l-.3-2.36c-.29.26-.65.06-.86-.18l-2.12,2.12c.48.38.83.82.86,1.45.11,1.92,3.11,1.93,3,0h0Z"/>
      <path class="cls-4" d="M45.69,39.58c3.8,4.18,9.83,3.98,14.88,2.7,5.57-1.42,10.66-4.23,15.64-7.02.75-.42.63-1.39,0-1.84-8.89-6.29-20.02-9.96-30.82-6.92-1.32.37-.76,2.42.57,2.05,10.28-2.89,20.75.75,29.18,6.71v-1.84c-4.44,2.49-8.94,4.99-13.85,6.45-4.62,1.37-10.49,2.16-14.09-1.8-.92-1.01-2.42.49-1.5,1.5h0Z"/>
      <path class="cls-2" d="M37.44,9.57c1.37,0,1.37-2.13,0-2.13s-1.37,2.13,0,2.13h0Z"/>
      <g>
        <path class="cls-3" d="M37.47,8.52c.13-2.56,2.44-4.47,4.78-5.52,5.33-2.39,11.44-2.05,17.27-1.66,6.1.41,12.39.86,17.83,3.65-1.58,1.03-2.73,2.71-3.11,4.55"/>
        <path class="cls-2" d="M38.53,8.52c.31-3.38,4.5-4.92,7.29-5.62,3.39-.85,6.93-.85,10.4-.69,6.89.32,14.31.55,20.6,3.7v-1.84c-1.82,1.26-3.09,3.02-3.6,5.19-.32,1.33,1.73,1.9,2.05.57.38-1.61,1.25-2.97,2.62-3.92.61-.42.77-1.45,0-1.84-3.57-1.79-7.42-2.69-11.37-3.19S58.46.11,54.44.02s-7.98.17-11.67,1.62c-3.08,1.21-6.05,3.34-6.37,6.88-.12,1.36,2,1.35,2.13,0h0Z"/>
      </g>
      <path class="cls-1" d="M69.25,8.99c.16-1.75,1.25-3.34,2.79-4.17.48-.26.05-.99-.43-.73-1.82.98-3.03,2.86-3.21,4.9-.02.23.21.43.43.43.25,0,.4-.2.43-.43h0Z"/>
      <path class="cls-1" d="M63.87,8.9c.47-2.11,1.81-3.96,3.69-5.03.48-.27.05-1.01-.43-.73-2.06,1.17-3.57,3.22-4.08,5.54-.12.53.7.76.82.23h0Z"/>
      <path class="cls-1" d="M59.69,8.6c.05-.6.33-1.19.61-1.72.26-.48.56-.93.91-1.35.72-.85,1.59-1.55,2.58-2.05.49-.25.06-.98-.43-.73-1.1.56-2.09,1.35-2.86,2.31s-1.54,2.24-1.66,3.54c-.05.55.8.54.85,0h0Z"/>
      <path class="cls-1" d="M55.8,8.34c-.06-.27.1-.56.2-.79.12-.26.25-.52.39-.77.27-.48.57-.95.91-1.38.69-.87,1.51-1.64,2.43-2.26.45-.3.03-1.04-.43-.73-1.07.72-2,1.6-2.78,2.62-.38.49-.71,1.01-1,1.56-.31.6-.71,1.29-.55,1.98.12.53.94.31.82-.23h0Z"/>
      <path class="cls-1" d="M51.39,8.3c-.12-.55.09-1.1.3-1.6s.44-1.04.72-1.52c.55-.92,1.41-1.59,2.25-2.24.18-.14.28-.36.15-.58-.1-.18-.4-.29-.58-.15-.99.76-1.98,1.53-2.61,2.63-.31.55-.56,1.14-.8,1.73-.25.63-.41,1.28-.26,1.95.12.53.94.31.82-.23h0Z"/>
      <path class="cls-1" d="M46.79,8.38c.35-2.08,1.37-3.98,2.94-5.41.41-.37-.2-.97-.6-.6-1.66,1.51-2.79,3.57-3.15,5.78-.09.54.73.77.82.23h0Z"/>
      <path class="cls-1" d="M42.27,8.22c.04-.85.46-1.58.81-2.33.17-.35.31-.74.59-1.02.32-.32.68-.6,1.02-.89.41-.36-.19-.96-.6-.6-.36.31-.75.6-1.07.95s-.5.79-.71,1.21c-.41.87-.84,1.7-.89,2.69-.03.55.82.55.85,0h0Z"/>
      <path class="cls-1" d="M43.9,31.94c9.73-3.43,19.67-.69,28.89,2.9.51.2.73-.62.23-.82-9.36-3.65-19.49-6.39-29.35-2.9-.51.18-.29,1,.23.82h0Z"/>
      <path class="cls-1" d="M44.34,35.31c9.4-.07,18.8-.31,28.2-.48.55-.01.55-.86,0-.85-9.4.18-18.8.41-28.2.48-.55,0-.55.85,0,.85h0Z"/>
      <path class="cls-1" d="M47.47,37.51c1.51,1.22,3.3,1.61,5.2,1.68,2.24.09,4.63.11,6.87-.12,2.1-.22,4.18-1.17,6.17-1.83,2.32-.77,4.65-1.55,6.97-2.32.52-.17.3-.99-.23-.82-3.91,1.3-7.83,2.89-11.82,3.91-1.93.49-4.09.32-6.08.34-2.25.02-4.64.05-6.48-1.44-.42-.34-1.03.26-.6.6h0Z"/>
      <path class="cls-1" d="M106.18,32.02c3.13-3.2,7.01-5.02,11-6.89s7.29-3.97,10.41-6.79c.41-.37-.2-.97-.6-.6-3.27,2.96-6.96,5.13-10.94,6.99s-7.48,3.64-10.47,6.7c-.38.39.22.99.6.6h0Z"/>
      <path class="cls-1" d="M109.74,34.38c1.7-1.19,3.71-1.82,5.44-2.98s3.39-2.45,4.96-3.83c2.94-2.59,5.99-5.59,7.36-9.34.19-.51-.63-.74-.82-.23-1.34,3.69-4.48,6.65-7.38,9.17-1.52,1.32-3.13,2.56-4.82,3.67s-3.56,1.67-5.17,2.8c-.45.31-.02,1.05.43.73h0Z"/>
      <path class="cls-1" d="M102.62,38.97c.59,2.45,1.33,4.59,2.79,6.67s2.99,4.09,4.78,5.87,3.72,3.41,5.16,5.56c.7,1.04,1.39,2.08,1.77,3.28.28.89.52,1.71,1.19,2.39.38.39.99-.21.6-.6-.77-.79-.88-1.93-1.3-2.9s-1.05-1.89-1.65-2.77c-1.29-1.91-2.93-3.42-4.6-5-1.83-1.73-3.39-3.69-4.86-5.74-1.57-2.19-2.45-4.37-3.07-6.98-.13-.53-.95-.31-.82.23h0Z"/>
      <path class="cls-1" d="M107.91,36.84c3.03,3.49,5.02,7.68,6.78,11.91.89,2.15,1.56,4.29,2.08,6.56.56,2.44,1.19,4.88,1.46,7.38.06.54.91.54.85,0-.53-4.93-1.83-10-3.74-14.57-1.78-4.24-3.79-8.4-6.83-11.89-.36-.41-.96.19-.6.6h0Z"/>
      <path class="cls-1" d="M38.63,13.58v.19c0,.21.04.4.13.58.06.19.16.35.31.48.14.15.3.25.48.31.18.09.37.14.58.13l.4-.05c.25-.07.47-.2.66-.39l.23-.3c.14-.23.2-.49.2-.76v-.19c0-.21-.04-.4-.13-.58-.06-.19-.16-.35-.31-.48-.14-.15-.3-.25-.48-.31-.18-.09-.37-.14-.58-.13l-.4.05c-.25.07-.47.2-.66.39l-.23.3c-.14.23-.2.49-.2.76h0Z"/>
      <path class="cls-1" d="M32.47,17.19h.1c.21,0,.4-.04.58-.13.19-.06.35-.16.48-.31.15-.14.25-.3.31-.48.09-.18.14-.37.13-.58l-.05-.4c-.07-.25-.2-.47-.39-.66l-.3-.23c-.23-.14-.49-.2-.76-.2h-.1c-.21,0-.4.04-.58.13-.19.06-.35.16-.48.31-.15.14-.25.3-.31.48-.09.18-.14.37-.13.58l.05.4c.07.25.2.47.39.66l.3.23c.23.14.49.2.76.2h0Z"/>
      <path class="cls-1" d="M40.96,19.42v-.1c0-.21-.04-.4-.13-.58-.06-.19-.16-.35-.31-.48-.14-.15-.3-.25-.48-.31-.18-.09-.37-.14-.58-.13l-.4.05c-.25.07-.47.2-.66.39l-.23.3c-.14.23-.2.49-.2.76v.1c0,.21.04.4.13.58.06.19.16.35.31.48.14.15.3.25.48.31.18.09.37.14.58.13l.4-.05c.25-.07.47-.2.66-.39l.23-.3c.14-.23.2-.49.2-.76h0Z"/>
      <path class="cls-1" d="M32.08,20.51h-.1c-.21,0-.4.04-.58.13-.19.06-.35.16-.48.31-.15.14-.25.3-.31.48-.09.18-.14.37-.13.58l.05.4c.07.25.2.47.39.66l.3.23c.23.14.49.2.76.2h.1c.21,0,.4-.04.58-.13.19-.06.35-.16.48-.31.15-.14.25-.3.31-.48.09-.18.14-.37.13-.58l-.05-.4c-.07-.25-.2-.47-.39-.66l-.3-.23c-.23-.14-.49-.2-.76-.2h0Z"/>
      <path class="cls-1" d="M24.9,22.07c1.93,0,1.93-3,0-3s-1.93,3,0,3h0Z"/>
      <path class="cls-1" d="M84.23,47.38v-.19c0-.21-.04-.4-.13-.58-.06-.19-.16-.35-.31-.48-.14-.15-.3-.25-.48-.31-.18-.09-.37-.14-.58-.13l-.4.05c-.25.07-.47.2-.66.39l-.23.3c-.14.23-.2.49-.2.76v.19c0,.21.04.4.13.58.06.19.16.35.31.48.14.15.3.25.48.31.18.09.37.14.58.13l.4-.05c.25-.07.47-.2.66-.39l.23-.3c.14-.23.2-.49.2-.76h0Z"/>
      <path class="cls-1" d="M91.25,43.33c1.93,0,1.93-3,0-3s-1.93,3,0,3h0Z"/>
      <path class="cls-1" d="M84.84,39.18h-.1c-.21,0-.4.04-.58.13-.19.06-.35.16-.48.31-.15.14-.25.3-.31.48-.09.18-.14.37-.13.58l.05.4c.07.25.2.47.39.66l.3.23c.23.14.49.2.76.2h.1c.21,0,.4-.04.58-.13.19-.06.35-.16.48-.31.15-.14.25-.3.31-.48.09-.18.14-.37.13-.58l-.05-.4c-.07-.25-.2-.47-.39-.66l-.3-.23c-.23-.14-.49-.2-.76-.2h0Z"/>
      <path class="cls-1" d="M75.55,51.75c1.93,0,1.93-3,0-3s-1.93,3,0,3h0Z"/>
      <path class="cls-1" d="M77.47,46.39c1.93,0,1.93-3,0-3s-1.93,3,0,3h0Z"/>
    </g>
  </g>
</svg>