<?xml version="1.0" encoding="UTF-8"?>
<svg id="Layer_1" data-name="Layer 1" xmlns="http://www.w3.org/2000/svg" viewBox="0 0 69.22 163.73">
  <defs>
    <style>
      .cls-1 {
        stroke-miterlimit: 10;
        stroke-width: .8px;
      }

      .cls-1, .cls-2, .cls-3, .cls-4, .cls-5 {
        stroke: #000;
      }

      .cls-1, .cls-3 {
        fill: #5da6ce;
      }

      .cls-2 {
        fill: #4c4c51;
      }

      .cls-2, .cls-3, .cls-4, .cls-6, .cls-5, .cls-7 {
        stroke-miterlimit: 10;
      }

      .cls-2, .cls-3, .cls-6, .cls-5, .cls-7 {
        stroke-width: .8px;
      }

      .cls-8, .cls-9 {
        stroke-width: 0px;
      }

      .cls-4 {
        stroke-width: .5px;
      }

      .cls-4, .cls-9 {
        fill: #1a4960;
      }

      .cls-6 {
        fill: #fce2c4;
      }

      .cls-6, .cls-7 {
        stroke: #231f20;
      }

      .cls-5 {
        fill: #e0e0e0;
      }

      .cls-7 {
        fill: #fff;
      }
    </style>
  </defs>
  <path id="left-arm" class="cls-1" d="m37.93,80.55l-5.06,31.54c-.87,5.45-6,9.16-11.46,8.29h0c-5.45-.87-9.16-6-8.29-11.46l5.06-31.54c.87-5.45,6-9.16,11.46-8.29h0c5.45.87,9.16,6,8.29,11.46Z"/>
  <path id="left-leg" class="cls-2" d="m17.28,151.08l4.93-42.56c.64-5.5,6.36-9.51,12.78-8.97h0c6.42.55,11.11,5.44,10.47,10.94l-4.93,42.56c-.64,5.5-6.36,9.51-12.78,8.97h0c-6.42-.55-11.11-5.44-10.47-10.94Z"/>
  <path id="right-leg" class="cls-2" d="m54.3,152.34l-5.47-47.23c-.64-5.5-6.36-9.51-12.78-8.97h0c-6.42.55-11.11,5.44-10.47,10.94l5.47,47.23c.64,5.5,6.36,9.51,12.78,8.97h0c6.42-.55,11.11-5.44,10.47-10.94Z"/>
  <g>
    <path class="cls-6" d="m34.61.4c18.89,0,34.21,15.32,34.21,34.21,0,21.43-20.14,33.66-34.21,34.21-1.12.04-4.41.1-8.55-1.08C13.58,64.2.4,51.45.4,34.61c0-18.89,15.32-34.21,34.21-34.21Z"/>
    <circle class="cls-7" cx="14.1" cy="34.61" r="8.81"/>
    <circle class="cls-8" cx="8.69" cy="37.48" r="2.87"/>
    <path class="cls-8" d="m4.54,51.36c.96,1.05,2.25,1.7,3.68,1.7,2.3,0,4.25-1.67,5-4.01-1.81,1.42-2.67,2.9-5.82,2.9-.31,0-2.55-.57-2.86-.59Z"/>
  </g>
  <g>
    <g>
      <path class="cls-3" d="m13.52,124.16l2-20.56,2.85-30.54,30.62-7.9,5.18,8.95,3.83,37.97c.21,2.05-.17,4.11-1.09,5.95h0c-1.63,3.27-4.05,6.08-7.04,8.19l-7.18,5.06c-2.97,2.1-6.47,3.29-10.1,3.46l-6.49.3c-2.8.12-7.01-3.25-8.67-5.52l-3.91-5.36"/>
      <rect class="cls-9" x="18.87" y="81.53" width="3.28" height="5.66" rx=".94" ry=".94"/>
      <rect class="cls-8" x="19.43" y="71.36" width="1.2" height="9"/>
      <rect class="cls-5" x="18.39" y="80.33" width="3.28" height="5.66" rx=".94" ry=".94"/>
    </g>
    <path class="cls-4" d="m26.21,70.86h0c.58-1.66-.32-3.47-1.99-4.02l-4.53-1.48c-1.66-.55-2.45-.63-2.97,1.04l-1.64,3.04c-.41,1.29.07,1.7,1.17,2.49l1.35.96c.87.62,4.86,2.43,5.85,2.04l.96-2.19c.84-.34,1.5-1.02,1.8-1.88Z"/>
    <path class="cls-9" d="m26.87,106.3c.42,4.13,2.26,8.75,3.47,8.6.89-.11,1.32-2.8,1.29-4.59-.07-4.67-3.29-9-4.38-8.62-.82.29-.52,3.27-.38,4.61Z"/>
    <g>
      <rect class="cls-9" x="24.87" y="83.16" width="3.28" height="5.66" rx=".94" ry=".94"/>
      <rect class="cls-8" x="25.05" y="71.36" width="1.2" height="10"/>
      <rect class="cls-5" x="24.01" y="81.83" width="3.28" height="5.66" rx=".94" ry=".94"/>
    </g>
    <path class="cls-3" d="m18.49,98.57l7.82,2.35c.93.27,1.62,1.06,1.77,2.02l.64,4c.36,2.27,1.43,4.36,3.03,5.99,1.36,1.38,1.81,3.59,1.08,5.58l-1.65,5.35c-.73,2.37-2.82,3.91-5,3.7l-8.35-.82c-3.54,0-6.47-2.69-7.19-6.48-.09-.45-.08-.92-.03-1.39l3.28-16.21c.22-1.06.72-2.04,1.44-2.8l.59-.62c.66-.69,1.65-.95,2.57-.68h0Z"/>
    <path class="cls-3" d="m57.9,52.2c-2.91.92-6.18,2.18-9.53,3.64-21.49,9.34-46.65,26.77-6.82,15.33,2.47-.71,5.15-.21,7.2,1.34,2.64,2,5.91,4.47,5.91,4.47,7.06-4.29,12.71-13.45,10.05-21.44-.93-2.79-3.9-4.26-6.81-3.34Z"/>
  </g>
  <path id="right-arm" class="cls-1" d="m57.94,80.27l-6.33,39.51c-.87,5.45-6,9.16-11.46,8.29h0c-5.45-.87-9.16-6-8.29-11.46l6.33-39.51c.87-5.45,6-9.16,11.46-8.29h0c5.45.87,9.16,6,8.29,11.46Z"/>
</svg>