<?xml version="1.0" encoding="UTF-8"?>
<svg id="Layer_4" data-name="Layer 4" xmlns="http://www.w3.org/2000/svg" viewBox="0 0 74.12 274.75">
  <defs>
    <style>
      .cls-1 {
        fill: #c2ccc0;
      }

      .cls-1, .cls-2, .cls-3, .cls-4, .cls-5, .cls-6, .cls-7 {
        stroke-width: 0px;
      }

      .cls-2 {
        fill: #335432;
      }

      .cls-8 {
        fill: #345432;
      }

      .cls-8, .cls-9 {
        stroke: #000;
        stroke-miterlimit: 10;
      }

      .cls-3 {
        fill: #ed2024;
      }

      .cls-4 {
        fill: #335431;
      }

      .cls-5 {
        fill: #406f3e;
      }

      .cls-6 {
        fill: #fff;
      }

      .cls-9 {
        fill: #406e3d;
      }

      .cls-7 {
        fill: #94ba91;
      }
    </style>
  </defs>
  <path class="cls-9" d="M73.62,134.72v119.85c0,10.87-7.96,19.68-17.78,19.68H18.27c-9.81,0-17.77-8.81-17.77-19.68v-119.85c0-11.47,4.94-21.67,12.59-28.13,3.22-2.71,5.03-6.74,5.18-10.95L21.57,6.02h30.96l3.3,89.62c.15,4.2,1.96,8.23,5.18,10.95,7.66,6.46,12.6,16.66,12.6,28.14Z"/>
  <polygon class="cls-1" points="53.06 52.62 51.46 6.12 22.65 6.12 21.06 52.62 53.06 52.62"/>
  <rect class="cls-6" x="9.96" y="133.17" width="54.2" height="105.73" rx="27.1" ry="27.1"/>
  <rect class="cls-5" x="9.81" y="136.04" width="54.5" height="99.98" rx="27.1" ry="27.1"/>
  <path class="cls-7" d="M10.26,254.57v-119.85c0-12.33,5.7-23.18,14.34-29.5,1.99-1.46,3.22-3.74,3.31-6.21l1.52-41.3h-8.14l-1.34,36.43c-.19,5.16-2.57,9.94-6.36,13.44-7.01,6.48-11.47,16.23-11.47,27.13v119.85c0,10.87,7.96,19.68,17.77,19.68h8.14c-9.81,0-17.77-8.81-17.77-19.68Z"/>
  <polygon class="cls-6" points="29.65 51.85 31.34 12.57 23.2 12.57 21.52 51.85 29.65 51.85"/>
  <rect class="cls-6" x="16.73" y="150.26" width="40.65" height="71.54" rx="20.33" ry="20.33"/>
  <rect class="cls-4" x="9.81" y="178.22" width="59.67" height="19.78"/>
  <path class="cls-2" d="M37.06,261.47c-13.27,0-25.03,2.25-32.42,5.71,3.26,4.32,8.16,7.07,13.63,7.07h37.57c5.48,0,10.38-2.75,13.64-7.07-7.39-3.46-19.15-5.71-32.42-5.71Z"/>
  <polygon class="cls-3" points="37.06 150.34 39.85 158.93 48.88 158.93 41.57 164.23 44.36 172.82 37.06 167.51 29.75 172.82 32.54 164.23 25.24 158.93 34.27 158.93 37.06 150.34"/>
  <polygon class="cls-3" points="37.06 30.91 38.98 36.82 45.19 36.82 40.17 40.47 42.09 46.38 37.06 42.73 32.03 46.38 33.95 40.47 28.92 36.82 35.14 36.82 37.06 30.91"/>
  <rect class="cls-8" x="18.18" y=".5" width="37.76" height="12.07" rx="6.04" ry="6.04"/>
  <rect class="cls-4" x="19.56" y="52.22" width="35" height="5.49"/>
  <g>
    <path class="cls-6" d="M8.53,187.19v6.58h-3.01v-13.23h3.01v5.32h2.45v-5.32h3.01v13.23h-3.01v-6.58h-2.45Z"/>
    <path class="cls-6" d="M21.12,190.19l1.12.42c-.12,2.25-1.16,3.38-3.13,3.38-2.55,0-3.83-1.63-3.83-4.88,0-1.58.34-2.87,1.02-3.88.68-1.01,1.55-1.51,2.6-1.51,2.21,0,3.32,1.82,3.32,5.47h-4.04c0,2.56.51,3.84,1.53,3.84.95,0,1.43-.72,1.43-2.17,0-.19,0-.42-.01-.67ZM18.18,188.1h1.65c0-2.27-.27-3.41-.8-3.41-.49,0-.76.84-.82,2.53l-.03.88Z"/>
    <path class="cls-6" d="M23.44,193.77v-9.76c.87,0,1.79-.09,2.77-.26v10.02h-2.77ZM24.84,180.21c.86,0,1.29.43,1.29,1.28s-.43,1.28-1.29,1.28-1.29-.43-1.29-1.28.43-1.28,1.29-1.28Z"/>
    <path class="cls-6" d="M35.01,193.77h-2.77v-7.17c0-.73-.16-1.1-.48-1.1s-.6.29-.84.87c-.24.58-.36,1.26-.36,2.05v5.35h-2.77v-9.79c.95,0,1.87-.08,2.77-.24v1.83c.69-1.21,1.53-1.82,2.52-1.82,1.29,0,1.93.83,1.93,2.5v7.52Z"/>
    <path class="cls-6" d="M42.04,190.19l1.12.42c-.12,2.25-1.16,3.38-3.13,3.38-2.55,0-3.83-1.63-3.83-4.88,0-1.58.34-2.87,1.02-3.88.68-1.01,1.55-1.51,2.6-1.51,2.21,0,3.32,1.82,3.32,5.47h-4.04c0,2.56.51,3.84,1.53,3.84.95,0,1.43-.72,1.43-2.17,0-.19,0-.42-.01-.67ZM39.1,188.1h1.65c0-2.27-.27-3.41-.8-3.41-.49,0-.76.84-.82,2.53l-.03.88Z"/>
    <path class="cls-6" d="M51.14,184l-1.58,2.53,2.28,7.24h-2.92l-1.33-4.3-.51.79v3.51h-2.77v-13.23c.81,0,1.74-.07,2.77-.21v8.28l2.95-4.6h1.11Z"/>
    <path class="cls-6" d="M57.99,190.19l1.12.42c-.12,2.25-1.16,3.38-3.13,3.38-2.55,0-3.83-1.63-3.83-4.88,0-1.58.34-2.87,1.02-3.88.68-1.01,1.55-1.51,2.6-1.51,2.21,0,3.32,1.82,3.32,5.47h-4.04c0,2.56.51,3.84,1.53,3.84.95,0,1.43-.72,1.43-2.17,0-.19,0-.42-.01-.67ZM55.04,188.1h1.65c0-2.27-.27-3.41-.8-3.41-.49,0-.76.84-.82,2.53l-.03.88Z"/>
    <path class="cls-6" d="M67.51,193.77h-2.77v-7.17c0-.73-.16-1.1-.48-1.1s-.6.29-.84.87c-.24.58-.36,1.26-.36,2.05v5.35h-2.77v-9.79c.95,0,1.87-.08,2.77-.24v1.83c.69-1.21,1.53-1.82,2.52-1.82,1.29,0,1.93.83,1.93,2.5v7.52Z"/>
  </g>
  <path class="cls-7" d="M49.47.99h-24.82c-1.73,0-3.29.53-4.35,1.37,1.07.84,2.62.37,4.35.37h24.82c1.73,0,3.29.47,4.35-.37-1.07-.84-2.62-1.37-4.35-1.37Z"/>
</svg>
