<svg xmlns="http://www.w3.org/2000/svg" id="Layer_4" data-name="Layer 4" viewBox="0 0 94.97 168.04">
  <defs>
    <style>
      .cls-4{stroke-width:0}.cls-5{fill:#535560}.cls-5,.cls-7,.cls-8{stroke:#000;stroke-miterlimit:10}.cls-7{fill:#545660}.cls-8{fill:#81838c}.cls-4{fill:#fff}
    </style>
  </defs>
  <path d="M26.94 97.78h41.1c12.22 0 22.14 9.92 22.14 22.14v19.86c0 15.33-12.44 27.77-27.77 27.77H32.58c-15.33 0-27.77-12.44-27.77-27.77v-19.86c0-12.22 9.92-22.14 22.14-22.14Z" class="cls-5"/>
  <path fill="#30478d" stroke="#000" stroke-miterlimit="10" d="M.5 26v109.53c0 13.19 9.86 23.89 22.02 23.89h49.94c12.16 0 22.02-10.7 22.02-23.89V26c0-6.97-5.21-12.62-11.63-12.62H12.13C5.71 13.38.5 19.03.5 26Z"/>
  <path fill="#5a7cbe" stroke-width="0" d="M22.92 134.96V13.38h-9.47c-6.21 0-11.24 5.59-11.24 12.49v108.42c0 7.26 2.95 13.75 7.58 18.09 4.04 3.53 9.37 5.56 15.23 5.56h20.72c-12.6 0-22.81-9.38-22.81-22.97Z"/>
  <path fill="#3f5fab" stroke-width="0" d="M28.83 134.96V13.38H15.77c-2.96 0-5.65 1.28-7.66 3.37v118.22c0 13.6 10.21 22.97 22.81 22.97h20.72c-12.6 0-22.81-9.38-22.81-22.97Z"/>
  <path fill="#2d3451" stroke-width="0" d="M11.97 13.26c-2.4 0-4.62.79-6.47 2.13 3.6 6.74 20.95 11.85 41.83 11.85s39.38-4.66 42.14-11.6c-1.91-1.49-4.25-2.38-6.78-2.38H11.97Z"/>
  <ellipse cx="47.49" cy="19.6" class="cls-5" rx="46.13" ry="18.48"/>
  <ellipse cx="47.49" cy="16.66" class="cls-8" rx="42.2" ry="13.81"/>
  <ellipse cx="49.86" cy="17.48" fill="#434445" stroke="#000" stroke-miterlimit="10" rx="21.03" ry="9.77"/>
  <g>
    <path d="M55.01 17.48c-.86 6.19-6.18 10.45-11.88 9.51l-24.18-3.96c-5.7-.93-9.63-6.71-8.77-12.89C11.04 3.95 16.36-.3 22.06.63l24.18 3.96c5.7.93 9.63 6.71 8.77 12.89Z" class="cls-7"/>
    <path d="M52.72 17.1c-.68 4.91-4.91 8.3-9.44 7.56l-23.84-3.9c-4.53-.74-7.65-5.33-6.96-10.24.68-4.91 4.91-8.3 9.44-7.56l23.84 3.9c4.53.74 7.65 5.33 6.96 10.24Z" class="cls-8"/>
    <path d="m29.11 7.86-1.46 10.52c-.09.65-.64 1.09-1.24.99l-5.23-.86c-3.27-.54-5.52-3.85-5.03-7.4.49-3.55 3.55-5.99 6.82-5.46l5.23.86c.59.1 1 .7.91 1.34ZM33.32 8.55l-1.46 10.52c-.09.65.32 1.25.91 1.34L42.46 22c3.27.54 6.32-1.91 6.82-5.46.49-3.55-1.76-6.86-5.03-7.4l-9.69-1.59c-.59-.1-1.15.35-1.24.99Z" class="cls-7"/>
  </g>
  <g>
    <path d="m13.54 89.79-2.04-3.17 7.79-5.01 2.04 3.17-7.79 5.01Zm14.85 19.98c-2.61 1.68-5.08 2.25-7.43 1.7-2.35-.54-4.37-2.12-6.05-4.74l3.47-2.24c1.08 1.67 2.33 2.7 3.75 3.09s2.9.1 4.41-.88c1.47-.95 2.31-2.14 2.51-3.57.21-1.43-.23-2.99-1.32-4.67L17.58 82.69l3.48-2.24 10.15 15.77c1.69 2.63 2.29 5.13 1.78 7.5s-2.04 4.38-4.6 6.03ZM45.45 98.79c-2.45 1.58-4.87 2-7.26 1.27s-4.53-2.55-6.4-5.47c-1.88-2.93-2.66-5.63-2.33-8.1.33-2.47 1.72-4.5 4.17-6.08 2.46-1.58 4.88-2.01 7.26-1.29 2.38.73 4.52 2.56 6.4 5.49 1.88 2.92 2.66 5.62 2.33 8.09-.32 2.47-1.71 4.5-4.17 6.09Zm-2.05-3.18c1.3-.84 1.97-2.01 2-3.51.03-1.5-.57-3.21-1.8-5.13-1.24-1.93-2.55-3.18-3.93-3.77-1.38-.59-2.72-.46-4.02.38-1.3.84-1.97 2.01-2.01 3.5-.04 1.5.56 3.21 1.8 5.14 1.23 1.92 2.54 3.17 3.92 3.76 1.38.59 2.72.47 4.03-.37ZM46.85 76.76l-2-3.11 7.15-4.6 2 3.11-7.15 4.6Zm4.48-11.25c-.68.44-1.42.57-2.21.4-.79-.17-1.41-.6-1.85-1.28-.44-.69-.58-1.43-.4-2.22.18-.79.6-1.41 1.28-1.84.69-.44 1.43-.58 2.22-.41.79.17 1.4.6 1.85 1.29.44.68.57 1.42.41 2.21-.17.79-.6 1.41-1.29 1.86Zm8.04 15.58-7.63-11.86 3.54-2.28 7.63 11.86-3.54 2.28Zm.64 19.2-2.19-3.03 3.15-2.45c1.69-1.31 2.66-2.67 2.9-4.07.24-1.41-.23-3.02-1.4-4.83l-3.46-5.38 3.54-2.28 3.12 4.84c1.35 2.11 2.15 4.02 2.38 5.75.23 1.73-.1 3.35-.99 4.88-.89 1.53-2.33 3.04-4.33 4.55l-2.71 2.03ZM82.24 74.87l-3.61-5.1-1.42-1.17-2.95-4.58c-.76-1.18-1.73-1.78-2.92-1.8-1.18-.02-2.61.48-4.28 1.49l-4.32 2.61-1.69-3.36 3.61-2.25c2.96-1.84 5.54-2.61 7.74-2.3 2.21.31 4.06 1.63 5.57 3.97l4.75 7.38 3.25-1.57 1.83 2.84-5.57 3.82Zm-6.14 4.19c-1.85 1.19-3.57 1.67-5.15 1.43-1.59-.24-2.9-1.17-3.95-2.8-1.21-1.87-1.43-3.76-.68-5.66.75-1.9 2.4-3.67 4.96-5.31 1.06-.68 2.04-1.23 2.96-1.63.91-.41 1.77-.69 2.59-.85l.81 2.88c-.85.31-1.65.69-2.38 1.12-.73.43-1.47.89-2.21 1.37-3.07 1.98-4.01 3.9-2.81 5.77.5.78 1.15 1.21 1.96 1.29.8.08 1.69-.19 2.66-.81 1.1-.71 1.9-1.49 2.4-2.35.5-.86.74-1.7.73-2.52-.01-.83-.22-1.55-.62-2.18l-1.25-1.94 3.96 3.88-1.4.9.22-.9c.66 1.02.97 2.03.94 3.02-.03.99-.37 1.93-1.01 2.82-.64.89-1.54 1.71-2.71 2.47Z" class="cls-4"/>
  </g>
  <path d="m81.55 85.28.14.22c3.09 4.81 2.2 10.89-1.99 13.59l-16.32 10.5c-4.19 2.7-10.1.99-13.2-3.82l-.14-.22-4.31 2.77 2.13 3.31c3.09 4.81 10.23 7.33 14.43 4.64l23.95-15.41c4.19-2.7 4.85-10.24 1.76-15.05l-2.13-3.31-4.31 2.77Z" class="cls-4"/>
</svg>