<?xml version="1.0" encoding="UTF-8"?>
<svg id="Layer_2" data-name="Layer 2" xmlns="http://www.w3.org/2000/svg" viewBox="0 0 324 253">
  <defs>
    <style>
      .cls-1 {
        fill: #000;
      }

      .cls-1, .cls-2, .cls-3 {
        stroke-width: 0px;
      }

      .cls-2 {
        fill: #e6e6e6;
      }

      .cls-3 {
        fill: #999;
      }
    </style>
  </defs>
  <g id="Layer_1-2" data-name="Layer 1">
    <g>
      <rect class="cls-3" x=".5" y=".5" width="323" height="252"/>
      <path class="cls-1" d="M323,1v251H1V1h322M324,0H0v253h324V0h0Z"/>
    </g>
    <g>
      <path class="cls-1" d="M25.79,15.08c-.18,0-.4.03-.66.07s-.49.09-.67.16c-.21.08-.36.2-.44.38-.08.18-.11.37-.11.58v7.98c0,.42-.08.86-.25,1.33-.17.47-.41.89-.74,1.25-.37.43-.82.77-1.33,1.01s-1.11.36-1.77.36c-1.03,0-1.87-.29-2.51-.87-.64-.58-.96-1.36-.96-2.34,0-.43.11-.81.33-1.14s.54-.5.97-.5c.38,0,.68.11.92.32.23.21.35.49.35.84,0,.2-.04.4-.12.61-.08.2-.17.38-.28.54-.09.15-.2.32-.32.51-.12.2-.21.37-.26.53.13.21.34.39.62.55.28.16.66.24,1.13.24s.84-.11,1.13-.32.51-.49.66-.85c.14-.33.24-.73.3-1.21.06-.48.09-1.02.09-1.61v-7.13c0-.22-.04-.41-.11-.56-.07-.15-.22-.28-.45-.39-.2-.1-.44-.18-.74-.23-.29-.05-.54-.09-.73-.1v-.67h5.94v.67Z"/>
      <path class="cls-1" d="M38.11,16c.59.62,1.06,1.37,1.39,2.24s.5,1.85.5,2.91-.17,2.04-.51,2.91c-.34.87-.82,1.62-1.42,2.23-.59.61-1.27,1.08-2.05,1.4-.78.33-1.61.49-2.49.49-.94,0-1.8-.18-2.6-.53s-1.48-.84-2.04-1.47c-.57-.61-1.02-1.36-1.34-2.23-.33-.88-.49-1.81-.49-2.81,0-1.09.17-2.07.51-2.93.34-.86.81-1.6,1.41-2.23.59-.62,1.29-1.09,2.07-1.42.79-.33,1.61-.49,2.47-.49s1.73.17,2.52.5,1.47.81,2.05,1.41ZM36.69,25.54c.35-.58.61-1.23.77-1.95s.24-1.54.24-2.44-.09-1.77-.27-2.54c-.18-.77-.44-1.43-.79-1.97-.35-.54-.79-.96-1.31-1.26-.53-.3-1.13-.45-1.8-.45-.76,0-1.4.17-1.94.52-.53.35-.96.81-1.3,1.4-.32.56-.55,1.21-.71,1.95-.16.75-.23,1.53-.23,2.35,0,.91.08,1.73.25,2.47.17.73.42,1.39.78,1.95.34.56.77.99,1.29,1.3.52.31,1.14.47,1.86.47.68,0,1.29-.16,1.83-.47s.99-.76,1.33-1.33Z"/>
      <path class="cls-1" d="M50.31,15.08c-.18,0-.4.03-.66.07s-.49.09-.67.16c-.21.08-.36.2-.44.38-.08.18-.11.37-.11.58v7.98c0,.42-.08.86-.25,1.33-.17.47-.41.89-.74,1.25-.37.43-.82.77-1.33,1.01s-1.11.36-1.77.36c-1.03,0-1.87-.29-2.51-.87-.64-.58-.96-1.36-.96-2.34,0-.43.11-.81.33-1.14s.54-.5.97-.5c.38,0,.68.11.92.32.23.21.35.49.35.84,0,.2-.04.4-.12.61-.08.2-.17.38-.28.54-.09.15-.2.32-.32.51-.12.2-.21.37-.26.53.13.21.34.39.62.55.28.16.66.24,1.13.24s.84-.11,1.13-.32.51-.49.66-.85c.14-.33.24-.73.3-1.21.06-.48.09-1.02.09-1.61v-7.13c0-.22-.04-.41-.11-.56-.07-.15-.22-.28-.45-.39-.2-.1-.44-.18-.74-.23-.29-.05-.54-.09-.73-.1v-.67h5.94v.67Z"/>
      <path class="cls-1" d="M64.3,27.87h-5.6v-.67c.49-.03.9-.09,1.23-.19.33-.1.49-.21.49-.35,0-.06,0-.13-.02-.21-.01-.08-.03-.15-.06-.22l-1.12-3.02h-4.73c-.18.44-.32.83-.43,1.16-.11.33-.21.63-.3.91-.08.27-.14.49-.17.66-.03.17-.05.31-.05.42,0,.25.2.45.6.59s.85.22,1.35.25v.67h-5.07v-.67c.16-.01.37-.05.62-.11.25-.06.45-.14.61-.24.25-.17.45-.35.59-.54.14-.19.28-.44.41-.77.68-1.69,1.42-3.59,2.24-5.69.82-2.11,1.54-3.98,2.18-5.63h.76l4.49,11.61c.09.25.2.45.32.6s.29.3.5.45c.15.09.34.16.57.22.23.06.43.09.59.1v.67ZM58.89,22.36l-2.04-5.22-2.01,5.22h4.05Z"/>
      <path class="cls-1" d="M80.99,27.87h-5.95v-.67c.21,0,.49-.03.83-.07.34-.04.57-.09.7-.16.2-.12.34-.26.43-.41.09-.16.14-.35.14-.58v-9.79h-.14l-4.59,11.47h-.47l-4.37-11.71h-.12v8.04c0,.78.05,1.37.15,1.77.1.4.25.7.45.87.14.13.43.26.86.38s.72.18.85.19v.67h-5.44v-.67c.29-.02.58-.07.9-.14.31-.07.55-.17.73-.31.22-.18.37-.45.46-.82.08-.37.12-.98.12-1.84v-6.89c0-.4-.05-.72-.14-.98s-.23-.46-.41-.62c-.2-.17-.44-.3-.72-.38-.29-.08-.57-.13-.84-.14v-.67h4.59l3.86,10.11,3.29-8.45c.12-.31.22-.63.31-.97.09-.34.13-.56.14-.68h4.39v.67c-.18,0-.4.04-.68.09-.28.05-.48.1-.6.14-.21.08-.36.2-.44.38-.08.18-.11.37-.11.58v9.71c0,.22.04.41.11.56.08.15.22.28.44.4.11.06.32.12.61.18s.52.08.69.09v.67Z"/>
      <path class="cls-1" d="M95.36,27.87h-5.6v-.67c.49-.03.9-.09,1.23-.19.33-.1.49-.21.49-.35,0-.06,0-.13-.02-.21-.01-.08-.03-.15-.06-.22l-1.12-3.02h-4.73c-.18.44-.32.83-.43,1.16-.11.33-.21.63-.3.91-.08.27-.14.49-.17.66-.03.17-.05.31-.05.42,0,.25.2.45.6.59s.85.22,1.35.25v.67h-5.07v-.67c.16-.01.37-.05.62-.11.25-.06.45-.14.61-.24.25-.17.45-.35.59-.54.14-.19.28-.44.41-.77.68-1.69,1.42-3.59,2.24-5.69.82-2.11,1.54-3.98,2.18-5.63h.76l4.49,11.61c.09.25.2.45.32.6s.29.3.5.45c.15.09.34.16.57.22.23.06.43.09.59.1v.67ZM89.94,22.36l-2.04-5.22-2.01,5.22h4.05Z"/>
      <path class="cls-1" d="M108.96,27.87h-3.63c-.8-1.26-1.53-2.35-2.17-3.26-.65-.92-1.35-1.86-2.11-2.84h-1.38v4.27c0,.22.03.42.1.58.07.17.22.3.45.38.11.04.31.09.6.12.29.04.53.06.72.07v.67h-5.69v-.67c.15-.01.37-.03.66-.07.29-.03.49-.07.6-.12.19-.08.33-.2.41-.36.09-.16.13-.36.13-.61v-9.74c0-.22-.03-.42-.09-.59s-.21-.3-.45-.39c-.16-.06-.36-.11-.62-.16s-.47-.08-.65-.09v-.67h6.21c.57,0,1.1.06,1.6.18.5.12.95.31,1.36.56.39.25.71.58.94.99.23.41.35.9.35,1.48,0,.52-.08.98-.24,1.38-.16.4-.39.74-.7,1.03-.28.27-.63.51-1.02.71s-.84.37-1.32.51c.66.88,1.22,1.62,1.66,2.22.44.6.98,1.33,1.62,2.19.28.38.53.66.75.84.22.18.45.33.67.44.16.08.37.15.62.19.25.04.45.07.62.08v.67ZM103.96,17.83c0-.81-.23-1.46-.7-1.94-.47-.48-1.13-.72-1.98-.72h-1.61v5.77h1.24c.87,0,1.6-.28,2.18-.84s.87-1.32.87-2.28Z"/>
      <path class="cls-1" d="M120.43,18.06h-.66c-.06-.23-.16-.5-.31-.81-.15-.31-.32-.61-.5-.89-.19-.29-.4-.55-.62-.76-.23-.22-.44-.34-.65-.37-.2-.03-.44-.04-.74-.06s-.57-.02-.83-.02h-.55v10.77c0,.21.04.4.13.57.09.17.24.31.46.4.11.04.35.1.72.18.36.08.65.12.85.12v.67h-6.36v-.67c.18-.01.45-.04.81-.08.36-.04.62-.09.75-.14.21-.08.36-.2.46-.36.1-.16.15-.36.15-.62v-10.85h-.55c-.2,0-.44,0-.73.01-.29,0-.57.03-.83.06-.21.03-.43.15-.65.37-.22.22-.43.48-.62.76-.19.28-.36.59-.5.91-.15.32-.25.58-.3.79h-.66v-3.65h11.74v3.65Z"/>
    </g>
    <g>
      <path class="cls-1" d="M28.93,33.46c-.1,0-.23.02-.38.04s-.28.05-.39.09c-.13.04-.21.12-.25.22-.04.1-.07.22-.07.34v4.66c0,.24-.05.5-.15.77-.1.27-.24.52-.43.73-.22.25-.48.45-.78.59-.3.14-.65.21-1.03.21-.6,0-1.09-.17-1.46-.51-.38-.34-.56-.79-.56-1.36,0-.25.06-.47.19-.67.13-.19.32-.29.56-.29.22,0,.4.06.53.19.13.12.2.29.2.49,0,.12-.02.24-.07.35-.05.12-.1.22-.16.32-.06.08-.12.18-.19.3s-.12.22-.15.31c.08.12.2.23.36.32.17.09.38.14.66.14s.49-.06.66-.19c.17-.12.3-.29.38-.5.08-.19.14-.43.17-.71.04-.28.05-.59.05-.94v-4.16c0-.13-.02-.24-.06-.32-.04-.09-.13-.16-.26-.23-.11-.06-.26-.1-.43-.14s-.31-.05-.42-.06v-.39h3.47v.39Z"/>
      <path class="cls-1" d="M34.96,38.14c0,.38-.06.76-.18,1.13-.12.37-.3.69-.52.94-.25.3-.55.51-.89.66-.34.14-.71.22-1.13.22-.35,0-.68-.07-.99-.2-.31-.13-.59-.32-.84-.57-.24-.25-.43-.55-.57-.91-.14-.36-.21-.76-.21-1.2,0-.85.25-1.55.75-2.09.5-.54,1.15-.81,1.95-.81s1.4.26,1.89.77c.5.52.75,1.2.75,2.06ZM33.81,38.15c0-.28-.03-.57-.08-.88-.05-.31-.14-.57-.25-.78-.12-.23-.27-.41-.47-.55-.19-.14-.43-.21-.71-.21s-.53.07-.73.21c-.2.14-.36.33-.49.58-.12.23-.2.48-.25.77-.05.29-.07.57-.07.84,0,.35.03.68.09.98.06.3.15.57.28.81.12.24.28.42.47.56s.43.2.71.2c.46,0,.83-.22,1.1-.67.27-.45.41-1.06.41-1.85Z"/>
      <path class="cls-1" d="M38.39,40.92h-2.63v-.37c.08,0,.17-.01.26-.02.09,0,.17-.02.24-.04.1-.03.18-.09.23-.17s.08-.19.08-.32v-3.37c0-.12-.03-.23-.08-.32-.05-.1-.13-.18-.22-.25-.07-.04-.17-.08-.3-.11s-.25-.05-.37-.06v-.37l1.93-.12.08.08v4.45c0,.13.02.24.07.32s.13.15.23.19c.08.03.16.06.24.08.08.02.16.03.26.04v.37ZM37.7,33.24c0,.21-.07.39-.21.55-.14.16-.31.23-.51.23-.19,0-.35-.07-.49-.22-.14-.15-.21-.32-.21-.51,0-.2.07-.38.21-.53.14-.15.3-.23.49-.23.21,0,.38.07.52.21.13.14.2.31.2.5Z"/>
      <path class="cls-1" d="M45.09,40.92h-2.67v-.37c.08,0,.18-.01.28-.02.1,0,.19-.02.25-.04.1-.03.18-.09.23-.17.05-.08.08-.19.08-.32v-2.81c0-.39-.09-.69-.28-.9-.18-.21-.41-.32-.67-.32-.2,0-.38.03-.54.09-.16.06-.31.14-.43.22-.12.08-.22.18-.29.27s-.12.18-.16.24v3.14c0,.13.03.23.08.31s.13.14.23.19c.08.04.16.06.25.08.09.02.18.03.28.04v.37h-2.67v-.37c.08,0,.17-.01.26-.02.09,0,.17-.02.24-.04.1-.03.18-.09.23-.17s.07-.19.07-.32v-3.37c0-.12-.03-.24-.08-.35s-.13-.19-.22-.26c-.07-.04-.15-.08-.25-.1-.1-.02-.2-.03-.31-.04v-.37l1.82-.12.08.08v.77h.03c.09-.09.2-.19.33-.32s.26-.22.38-.3c.14-.09.3-.16.49-.22.19-.06.4-.09.64-.09.52,0,.91.16,1.17.49.25.33.38.76.38,1.3v2.84c0,.13.02.23.07.31.04.08.12.14.23.19.09.04.17.06.23.08s.15.03.27.03v.37Z"/>
      <path class="cls-1" d="M54.35,40.82l-1.78.12-.08-.08v-.69h-.03c-.09.09-.19.19-.3.3-.11.1-.24.2-.38.29-.17.1-.33.18-.48.23-.15.05-.37.08-.66.08-.48,0-.85-.16-1.1-.47-.25-.32-.38-.77-.38-1.37v-2.61c0-.13-.03-.24-.08-.33s-.12-.17-.22-.23c-.07-.04-.15-.08-.25-.1-.1-.02-.21-.03-.32-.04v-.37l1.82-.13.08.08v3.79c0,.4.09.69.27.89.18.2.39.3.64.3.2,0,.38-.03.54-.09.16-.06.29-.14.4-.22.1-.08.19-.16.26-.25.08-.09.13-.17.17-.24v-3.09c0-.12-.03-.23-.08-.32-.05-.09-.12-.17-.22-.24-.07-.04-.17-.07-.3-.08-.13,0-.28-.02-.44-.02v-.37l1.99-.13.08.08v4.33c0,.13.03.23.08.32s.12.16.22.23c.07.04.15.07.24.08.09.01.19.02.3.02v.37Z"/>
      <path class="cls-1" d="M58.62,38.25c.15.13.27.29.35.46.08.17.12.39.12.64,0,.51-.19.92-.57,1.24-.38.32-.87.48-1.47.48-.32,0-.61-.06-.88-.17-.27-.11-.46-.22-.57-.32l-.11.36h-.42l-.06-1.9h.38c.03.14.09.31.19.51.1.19.21.37.35.52.14.16.32.3.52.41.2.11.43.17.68.17.35,0,.63-.08.82-.24.19-.16.29-.39.29-.69,0-.16-.03-.29-.09-.4-.06-.11-.15-.21-.27-.3-.12-.08-.27-.16-.45-.23-.18-.07-.38-.14-.59-.2-.17-.05-.37-.12-.58-.21-.21-.09-.39-.2-.55-.32-.16-.13-.29-.29-.4-.48-.1-.19-.16-.41-.16-.66,0-.45.17-.83.5-1.14.33-.31.78-.46,1.33-.46.21,0,.43.03.66.08.22.06.4.12.54.2l.13-.29h.4l.08,1.76h-.38c-.08-.39-.24-.71-.5-.96-.26-.25-.57-.37-.94-.37-.3,0-.54.08-.71.23-.17.15-.26.34-.26.55,0,.17.03.3.09.42.06.11.14.2.26.28.11.07.25.14.42.21s.38.14.62.22c.24.08.47.17.69.27.22.1.39.22.53.34Z"/>
      <path class="cls-1" d="M61.82,40.29c0,.21-.08.38-.22.53-.15.15-.33.22-.53.22s-.38-.07-.53-.22c-.15-.15-.22-.32-.22-.53s.08-.38.22-.53.33-.22.53-.22.38.07.53.22.22.33.22.53Z"/>
      <path class="cls-1" d="M72.24,35.2h-.38c-.03-.13-.09-.29-.18-.47-.09-.18-.18-.35-.29-.52-.11-.17-.23-.32-.36-.45-.13-.13-.26-.2-.38-.22-.11-.01-.26-.03-.43-.03s-.33-.01-.48-.01h-.32v6.28c0,.12.03.23.08.33s.14.18.27.24c.07.03.21.06.42.11.21.04.38.07.5.07v.39h-3.71v-.39c.1,0,.26-.02.47-.04.21-.02.36-.05.44-.08.12-.05.21-.12.27-.21.06-.09.09-.21.09-.36v-6.33h-.32c-.11,0-.26,0-.43,0s-.33.02-.49.04c-.12.01-.25.09-.38.22-.13.13-.25.28-.36.45-.11.17-.21.34-.29.53-.08.19-.14.34-.18.46h-.39v-2.13h6.85v2.13Z"/>
      <path class="cls-1" d="M78.67,40.92h-2.68v-.37c.08,0,.18-.01.28-.02.1,0,.19-.02.25-.04.1-.03.18-.09.23-.17.05-.08.07-.19.07-.32v-2.81c0-.39-.09-.69-.27-.9-.18-.21-.41-.32-.67-.32-.19,0-.37.03-.54.09-.17.06-.31.14-.44.22-.13.09-.22.18-.29.28s-.12.17-.16.23v3.14c0,.13.02.23.07.31s.13.14.23.19c.08.04.17.06.25.08.09.02.18.03.29.04v.37h-2.67v-.37c.08,0,.17-.02.26-.02.09,0,.17-.02.23-.04.1-.03.18-.09.23-.17.05-.08.08-.19.08-.32v-6.36c0-.13-.03-.25-.09-.38-.06-.13-.13-.22-.22-.28-.07-.05-.18-.08-.35-.1-.17-.02-.3-.03-.41-.04v-.35l2.02-.12.08.08v3.81h.02c.12-.12.23-.23.33-.32.1-.09.23-.19.39-.3.14-.09.31-.16.5-.22.19-.06.4-.09.64-.09.49,0,.86.15,1.13.46s.39.75.39,1.33v2.84c0,.13.02.23.07.31.05.08.12.14.23.19.08.03.16.06.23.07.07.02.16.03.27.04v.37Z"/>
      <path class="cls-1" d="M83.5,36.17c0,.19-.05.36-.14.5-.09.15-.23.22-.43.22-.21,0-.36-.05-.47-.16-.11-.11-.16-.23-.16-.35,0-.08,0-.16.02-.22s.03-.13.04-.2c-.17,0-.38.07-.61.21s-.43.34-.59.6v3.18c0,.13.02.23.07.32s.13.14.24.18c.09.04.21.06.36.08.15.02.27.03.38.04v.37h-2.88v-.37c.08,0,.17-.01.26-.02.09,0,.17-.02.24-.04.1-.03.18-.09.23-.17s.07-.19.07-.32v-3.37c0-.11-.03-.23-.08-.34-.05-.11-.13-.2-.22-.27-.07-.04-.15-.08-.25-.1-.1-.02-.2-.03-.31-.04v-.37l1.82-.12.08.08v.77h.03c.23-.3.48-.53.76-.68.28-.15.54-.23.77-.23s.42.08.57.23c.15.15.22.35.22.61Z"/>
      <path class="cls-1" d="M86.62,40.92h-2.63v-.37c.08,0,.17-.01.26-.02.09,0,.17-.02.24-.04.1-.03.18-.09.23-.17s.08-.19.08-.32v-3.37c0-.12-.03-.23-.08-.32-.05-.1-.13-.18-.22-.25-.07-.04-.17-.08-.3-.11s-.25-.05-.37-.06v-.37l1.93-.12.08.08v4.45c0,.13.02.24.07.32s.13.15.23.19c.08.03.16.06.24.08.08.02.16.03.26.04v.37ZM85.92,33.24c0,.21-.07.39-.21.55-.14.16-.31.23-.51.23-.19,0-.35-.07-.49-.22-.14-.15-.21-.32-.21-.51,0-.2.07-.38.21-.53.14-.15.3-.23.49-.23.21,0,.38.07.52.21.13.14.2.31.2.5Z"/>
      <path class="cls-1" d="M92.68,35.8c-.17.03-.32.09-.47.18-.15.09-.28.25-.38.48-.22.49-.44,1.01-.67,1.55s-.47,1.1-.73,1.69c-.07.17-.15.37-.24.6s-.16.46-.23.67h-.43c-.35-.87-.67-1.66-.97-2.37-.29-.71-.6-1.45-.92-2.19-.07-.17-.19-.3-.36-.4-.17-.09-.33-.15-.5-.18v-.37h2.53v.39c-.11,0-.25.03-.42.07-.17.04-.25.1-.25.17,0,.01,0,.04.03.09.02.05.04.1.06.16.15.38.36.9.64,1.58.28.67.5,1.22.67,1.63.13-.32.3-.71.5-1.18s.42-1,.65-1.58c.04-.1.07-.19.11-.28.03-.09.05-.17.05-.26,0-.06-.03-.12-.09-.17s-.13-.09-.22-.13c-.08-.04-.17-.06-.25-.08s-.15-.03-.2-.04v-.35h2.09v.34Z"/>
      <path class="cls-1" d="M97.77,39.64c-.23.44-.54.78-.92,1.04s-.82.39-1.32.39c-.44,0-.82-.08-1.15-.23-.33-.16-.6-.37-.82-.63s-.37-.58-.48-.93c-.11-.35-.16-.73-.16-1.12,0-.35.06-.7.17-1.04s.28-.65.5-.92c.21-.26.47-.47.78-.63.31-.16.66-.24,1.05-.24s.74.06,1.02.19.51.3.69.52c.17.21.3.45.38.73.08.28.12.59.12.91v.37h-3.62c0,.36.03.68.1.98.07.29.18.55.32.77.14.21.33.38.56.51s.51.19.83.19.61-.08.85-.23.47-.43.69-.83l.39.24ZM96.55,37.56c0-.21-.02-.43-.05-.66s-.09-.43-.17-.59c-.08-.17-.2-.31-.35-.41-.15-.11-.34-.16-.57-.16-.39,0-.71.16-.97.48-.26.32-.4.77-.42,1.34h2.53Z"/>
      <path class="cls-1" d="M100.3,40.29c0,.21-.08.38-.22.53-.15.15-.33.22-.53.22s-.38-.07-.53-.22c-.15-.15-.22-.32-.22-.53s.08-.38.22-.53.33-.22.53-.22.38.07.53.22.22.33.22.53Z"/>
    </g>
    <g>
      <rect class="cls-1" x="195" y="173" width="38.5" height="80"/>
      <g>
        <rect class="cls-2" x="172.5" y="173.5" width="38" height="79"/>
        <path class="cls-1" d="M210,174v78h-37v-78h37M211,173h-39v80h39v-80h0Z"/>
      </g>
    </g>
    <g>
      <rect class="cls-2" x="211" y="173.5" width="37.5" height="79"/>
      <path class="cls-1" d="M248,174v78h-36.5v-78h36.5M249,173h-38.5v80h38.5v-80h0Z"/>
    </g>
  </g>
</svg>