<?xml version="1.0" encoding="UTF-8"?>
<svg id="Layer_2" data-name="Layer 2" xmlns="http://www.w3.org/2000/svg" viewBox="0 0 126.34 221.75">
  <defs>
    <style>
      .cls-1 {
        letter-spacing: -.02em;
      }

      .cls-2 {
        fill: none;
      }

      .cls-2, .cls-3 {
        stroke: #000;
        stroke-miterlimit: 10;
      }

      .cls-3 {
        fill: #fff;
        stroke-width: .71px;
      }

      .cls-4 {
        letter-spacing: -.03em;
      }

      .cls-5 {
        fill: #e6e6e6;
      }

      .cls-5, .cls-6 {
        stroke-width: 0px;
      }

      .cls-6 {
        fill: #999;
      }

      .cls-7 {
        letter-spacing: -.02em;
      }

      .cls-8, .cls-9, .cls-10, .cls-11 {
        font-family: Bahnschrift, Bahnschrift;
        font-variation-settings: 'wght' 400, 'wdth' 100;
      }

      .cls-8, .cls-10 {
        fill: blue;
      }

      .cls-8, .cls-11 {
        font-size: 8.5px;
      }

      .cls-12 {
        letter-spacing: -.01em;
      }

      .cls-9, .cls-10 {
        font-size: 17.01px;
      }

      .cls-9, .cls-11 {
        fill: #000;
      }
    </style>
  </defs>
  <g id="Layer_1-2" data-name="Layer 1">
    <g>
      <path class="cls-3" d="M119.2,181l-3.8-34.02c1.02-2.99,11.23-57.16,10.55-58.95-.08-.21-.13-.43-.14-.65L110.25,4.19c-.08-1.25-1.72-3.11-2.97-3.03l-12.37,1.58c-1.25.08-2.2,1.16-2.12,2.41l5.33,23.71c-.06-.01.91,24.02.86,24.01,1.68,5.08.53,28.92-4.19,31.98-6.46,4.18-16.72-2.16-23.99-2.14-6.28.01-19.91,7.59-27.03,4.84-5.15-2.08-10.64-27.13-8.8-33.05.08-.26,1.03-21.77,1.13-21.99l3.68-26.38.12-2.15c.07-1.25-.89-2.33-2.15-2.4L25.28.35c-1.25-.07-2.47,63.22-2.39,65.07l-15.29,24.49c-.16-.41-.19-.23-.25-.06-.41,1.31-.73,2.95-1.01,4.32l9.18,30.21-4.19,30.98-9.13,21.95c-1.19,30.99-9.25,41.95,20.77,44.1l77.98-1.51c23.05-8.86,18.23-38.89,18.23-38.89Z"/>
      <path class="cls-2" d="M39.79,6.33s-.78,49.16,4.08,63.21c1,2.88,2.94,10.02,9.67,6.12,5.19-3,24.54,1.06,30.28,1.12,3,.03,8.98,4.05,5.75-4.76-4.92-13.45,3.67-65.18,3.67-65.18"/>
      <path class="cls-5" d="M116.4,139.16c1.03-4.48,2.06-8.95,3.1-13.43.11-.48,0-.9-.23-1.21-.06-.53-.42-1.03-.91-1.23-.33-.57-1.08-.76-1.74-.55-.58,0-1.14.33-1.33,1.05-1.69,6.31-3.72,12.63-4.98,19.04-.61,3.09-.73,6.11-.33,9.23.3,2.33.67,4.65,1.04,6.97-.02.17,0,.36.05.56.04.13.07.27.1.4.1.6.19,1.2.28,1.81.05.35.19.6.38.78.79,3.14,1.47,6.3,2.03,9.48.18,2.52.37,5.03.55,7.55.04.55.32.93.68,1.17.47,4.38.73,8.79.76,13.21.01,1.93,3.01,1.95,3,.02-.05-7.51-.74-15.01-2.03-22.4-.14-1.88-.27-3.76-.41-5.64.26-.32.38-.74.23-1.26-.16-.55-.3-1.1-.44-1.66-.26-3.59-.52-7.18-.78-10.77-.16-2.22-.34-4.44-.18-6.66.16-2.18.67-4.32,1.16-6.45Z"/>
      <path class="cls-5" d="M24.13,123.68c-1.1-3.69-2.39-7.32-3.85-10.88-.31-.76-.98-1.28-1.84-1.06-.15.04-.29.11-.43.21-.25-.68-.5-1.37-.76-2.05.07-.58-.16-1.19-.68-1.5-.41-.44-1.02-.56-1.56-.44-.32-.71-.98-1.19-1.8-.98-.71.18-1.36,1.09-1.06,1.84,1.51,3.74,2.97,7.5,4.29,11.31.64,1.85,1,3.55.62,5.5-.39,1.97-.86,3.93-1.3,5.9-.08.37-.03.69.1.97l-.39,2.73c-.12.15-.21.32-.25.52-.45,1.95-.76,3.94-.94,5.93-.01.16.02.33.07.48-.33,1.46,1.86,2.58,2.76,1.07,1.57-2.64,2.83-5.45,3.76-8.38.45,0,.89-.21,1.16-.75.82-1.63,1.77-3.26,2.44-4.96.73-1.88.19-3.62-.36-5.46Z"/>
      <path class="cls-5" d="M30.97,61.51c-.97-7.74-1.71-15.47-2.08-23.26.1-.27.15-.57.08-.9-.57-2.97-.85-5.87-.86-8.96,0-.32-.12-.63-.31-.89.1-1.81.2-3.63.31-5.44.39-6.36.83-12.73,1.3-19.09.14-1.93-2.86-1.94-3-.02-.81,10.9-1.5,21.81-2.08,32.73-.3,5.54-.56,11.08-.8,16.63-.12,2.73-.23,5.46-.33,8.19-.05,1.32-.1,2.65-.14,3.97-.04,1.21.03,2.5-.28,3.68-.32,1.24-1.28,2.05-2.12,2.95-.88.95-1.69,1.94-2.47,2.97-1.66,2.21-3.02,4.61-4.12,7.14-.09.21-.14.44-.15.66-1,1.35-1.88,2.78-2.6,4.3-.21.45-.25,1-.05,1.44-.02.22,0,.44.08.66-.3.55-.16,1.34.26,1.77.62.63,1.49.52,2.12.01,2.9-2.31,5.72-4.74,8.44-7.26.21-.11.42-.25.58-.49.03-.05.07-.1.1-.15.53-.5,1.06-.99,1.58-1.49.46-.45.53-.98.38-1.44,1.47-2.25,2.88-4.55,4.17-6.9.84-1.55,1.62-3.19,1.97-4.93.39-1.96.27-3.91.02-5.88Z"/>
      <path class="cls-5" d="M102.61,25.54c-1.79-7.03-3.58-14.07-5.38-21.1-.46-1.82-3.21-1.13-2.92.64-.22.26-.37.58-.34.93.34,4.86,1.36,9.65,3.08,14.21.05.14.13.27.21.39.17,1.67.42,3.34.79,4.98.37,1.61,1,3.13.88,4.81-.26,3.58-.35,7.08-.26,10.67.02.73.47,1.19,1.01,1.37-.16,1.15-.33,2.3-.49,3.44-.11.81.76,1.5,1.49,1.51.9.01,1.4-.69,1.51-1.49.48-3.45,1-6.89,1.45-10.34.45-3.5-.17-6.63-1.04-10.02Z"/>
      <path class="cls-6" d="M98.69,56.68c-.3-4.59.06-9.18-.19-13.78-.26-4.72-.52-9.45-.78-14.17-.03-.46-.23-.8-.51-1.05-.55-2.85-1.11-5.7-1.66-8.55,0-.02-.01-.03-.01-.04-.34-2.6-.85-5.17-1.52-7.71.02-.19.04-.37.07-.56.03-.24-.13-.37-.31-.39-.02-.08-.04-.16-.06-.24-.15-.53-.97-.3-.82.23.1.35.18.7.27,1.05-.32,2.59-.61,5.19-.85,7.79-.07.17-.13.36-.13.56,0,.19-.02.38-.03.57-.13,2.85-.59,5.67-1.06,8.48-.07.26-.15.52-.23.77-.05.14,0,.24.06.33-.07.45-.15.9-.22,1.36-.02.11-.04.23-.07.34-.03.13-.04.25-.04.38-.28,1.87-.5,3.76-.57,5.66,0,.06.01.11.03.16-.13.96-.26,1.92-.37,2.89-.51,4.75-.63,9.53-.62,14.31,0,2.47.05,4.95.1,7.42.04,2.13.09,4.3.59,6.39.28,1.18.79,2.31.93,3.52.13,1.06.02,2.17-.15,3.23-.09.53-.13,2.05-.55,2.45-.3.29-1.29.28-1.68.3-.44.02-.87-.03-1.29-.1-.22-.41-.62-.73-1.23-.75-4.48-.14-8.95-.56-13.37-1.29-.28-.05-.55-.01-.8.05-3.71-.59-7.46-.93-11.21-1.02-.13-.09-.27-.16-.43-.18-2.18-.35-4.16.19-6.16,1.02-.88.37-1.74.76-2.61,1.14-.38.17-.77.36-1.09.47-.07.02-.14.05-.21.07-.57-.05-1.14-.2-1.71-.52-.65-.36-1.23-.8-1.79-1.28-.09-.08-.31-.25-.55-.44-.45-.72-.82-1.5-1.13-2.19-1.08-2.4-1.68-5-2.16-7.58-.94-5.07-1.63-10.19-2.39-15.29,0-.04.02-.08.01-.14-.3-2.26-.52-4.53-.69-6.8.06-.66.07-1.33-.1-2,0-.03-.03-.03-.04-.06-.05-.93-.11-1.85-.14-2.78.11-1.2.16-2.4-.07-3.57,0-.07,0-.14,0-.22,0-2.57.09-5.13.23-7.7.07-1.22.09-2.41-.08-3.62-.11-.77-.23-1.53-.3-2.3.14-2.53.17-5.08.74-7.55.12-.53-.7-.76-.82-.23-.46,2-.58,4.04-.68,6.08-.07.07-.13.16-.14.29-.03.5,0,.99.04,1.47-.05.92-.12,1.84-.23,2.76-.24,1.95-.59,3.88-.91,5.82-.25,1.5-.56,3-.38,4.52-.33.37-.48.89-.38,1.41.19.95,0,1.96-.09,2.91-.11,1.08-.18,2.15-.22,3.23-.08,2.2-.03,4.41.15,6.61.01.16.05.32.1.46-.17.23-.28.52-.26.9.08,1.79-.51,3.43-.81,5.17-.28,1.65-.23,3.26-.04,4.91.4,3.49.99,6.95,1.78,10.37.78,3.37,1.77,6.69,2.94,9.94.96,2.66,2.15,6.2,5.22,6.99.08.02.15.03.23.04,1.22.45,2.43.54,3.84.26,1.79-.36,3.57-.85,5.33-1.34,2.22-.61,4.4-1.54,6.61-2.27,1.33-.33,2.66-.65,3.99-.98,3.01-.74,5.92-1.3,9.02-.71,4.54.86,8.87,2.89,13.42,3.13.8.17,1.65.2,2.46.16,1.15-.05,2.26-.25,3.32-.7,1.8-.77,3.33-2.59,3.3-4.62,4.26-7.16,2.71-15.74,2.19-23.64Z"/>
      <path class="cls-5" d="M92.55,85.3c-4.72,4.4-12.27-.27-17.33-1.39-3.43-.76-6.47-.35-9.68,1.03-3.37,1.44-6.72,2.59-10.36,3.15-.29.04-.51.16-.68.3-.86-.13-1.72-.3-2.57-.51-1.87-.48-2.67,2.41-.8,2.89,3.74.96,7.58,1.13,11.39.5,3.8-.63,7.24-2.29,11.16-2.08,6.76.37,14.18,3.73,20.38-.63.45-.32.64-.76.66-1.2,1.29-1.32-.78-3.36-2.17-2.06Z"/>
      <text class="cls-11" transform="translate(41.31 156.15)"><tspan x="0" y="0">Li</tspan><tspan class="cls-12" x="7.01" y="0">fe</tspan><tspan class="cls-4" x="14.02" y="0">’</tspan><tspan x="15.24" y="0">s Better</tspan><tspan x="5.42" y="10.21">With Joja</tspan></text>
      <text class="cls-9" transform="translate(30.11 132)"><tspan x="0" y="0">J</tspan><tspan class="cls-1" x="8.6" y="0">O</tspan><tspan class="cls-7" x="19.24" y="0">J</tspan><tspan x="27.42" y="0">AMart</tspan></text>
      <text class="cls-10" transform="translate(31.84 132.22)"><tspan x="0" y="0">J</tspan><tspan class="cls-1" x="8.6" y="0">O</tspan><tspan class="cls-7" x="19.24" y="0">J</tspan><tspan x="27.42" y="0">AMart</tspan></text>
      <text class="cls-8" transform="translate(42.17 155.91)"><tspan x="0" y="0">Li</tspan><tspan class="cls-12" x="7.01" y="0">fe</tspan><tspan class="cls-4" x="14.02" y="0">’</tspan><tspan x="15.24" y="0">s Better</tspan><tspan x="5.42" y="10.21">With Joja</tspan></text>
    </g>
  </g>
</svg>