<?xml version="1.0" encoding="UTF-8"?>
<svg id="Layer_2" data-name="Layer 2" xmlns="http://www.w3.org/2000/svg" viewBox="0 0 103.02 155.46">
  <defs>
    <style>
      .cls-1 {
        fill: #a0a29f;
      }

      .cls-1, .cls-2, .cls-3 {
        stroke-width: 0px;
      }

      .cls-4 {
        stroke-width: .99px;
      }

      .cls-4, .cls-5 {
        fill: #006837;
        stroke: #000;
        stroke-miterlimit: 10;
      }

      .cls-2 {
        fill: #fcfdfa;
      }

      .cls-3 {
        fill: #0b6122;
      }

      .cls-5 {
        stroke-width: 5.67px;
      }
    </style>
  </defs>
  <g id="Layer_1-2" data-name="Layer 1">
    <g>
      <line class="cls-5" x1="98.54" y1=".99" x2="98.54" y2="24"/>
      <line class="cls-5" x1="27.29" y1="1" x2="27.29" y2="23.5"/>
      <polygon class="cls-4" points="83.29 154.5 2.29 154.5 2.29 32 82.79 32.37 83.29 154.5"/>
      <polygon class="cls-4" points="101.29 141.75 83.29 154.5 83.29 32.25 101.29 24 101.29 141.75"/>
      <polygon class="cls-4" points="83.29 12.5 2.29 11.5 27.29 .5 101.29 1.5 83.29 12.5"/>
      <line class="cls-5" x1="4.79" y1="11" x2="4.73" y2="32"/>
      <line class="cls-5" x1="80.79" y1="12" x2="80.79" y2="32"/>
      <line class="cls-4" x1="2.29" y1="31.5" x2="25.29" y2="23.5"/>
      <line class="cls-4" x1="100.8" y1="24" x2="24.79" y2="24"/>
      <g>
        <path class="cls-2" d="M37.13,69.53c2.17-.19,12.31-.02,14.29.41,4.65.99,5.51,4.86,5.89,5,.21.08,2.75-1.52,3.11.15.27,1.27-2.83,5.97-3.49,7.46.13.27,2.11-1.27,3.11-.87.61.25,6.35,10.21,6.49,10.88.45,2.09-.27,5.27-1.09,7.25-.46,1.12-5.54,9.62-6.33,10.62-3.47,4.43-7.67,2.74-8.24,3.12-.17.11-.16,3.38-2.18,2.55-.42-.17-3.83-5.33-4.58-6.13-.25.15.47,2.93-.98,3.27-.6.14-11.3-.06-12.33-.2-2.22-.32-3.7-1.54-5.07-3.12-1.82-2.08-8-12.43-8.4-14.81-.69-4.1,2.46-6.16,2.51-6.74.05-.61-2.24-1.48-1.53-2.86.5-1.07,5.48-.35,6.71-.56-.86-.78-2.41-.77-2.13-2.2.11-.56,5.73-9.36,6.11-9.8,1.74-2.01,5.45-3.19,8.13-3.42Z"/>
        <g>
          <path class="cls-1" d="M42.91,78.92c2.92,3.94-.3,1.66-.49,4.44.34,1.36,7.53,1.49,8.95,2.14-.97.76-4.34,1.7-4.25,2.96.04.64,5.62,9.95,6.44,11.34-.05.21-2.35.22-2.45.15-.17-.11.13-3.21-1.96-2.76-.51.11-4.35,5.78-5.02,6.64-.32-1.2.56-3.66-.87-4.29-1.1-.48-11.21-.37-13.36-.77,2.72-4.35,1.76-2.65,3.33-2.4,4.11.65-.58-6.06-.71-7.51,1.21.45,2.15,1.75,3.38.61.47-.44,6.17-9.16,7.04-10.57Z"/>
          <g>
            <g>
              <path class="cls-3" d="M34.18,71.77c4.23-.24,7.69,4.01,7.36,6.49-.13,1-5.78,8.59-6.82,10.16l-10.2-5.46c1.09-1.77,4.71-8.11,5.56-9.09.93-1.07,2.61-2.01,4.09-2.09Z"/>
              <path class="cls-3" d="M36.8,70.96c1.72-.17,12.87.08,14.4.41,4.16.88,4.86,5.25,5.56,5.41.2.05,2.1-1.27,2.13-.87-.68.92-4.27,8.25-4.75,8.43-.48.18-9.01-1.25-10.15-1.53.38-.17,2.25-.95,2.24-1.28-1.3-1.7-4.36-7.58-5.13-8.48-.82-.96-1.99-1.27-3.22-1.48-.94-.16-4.71-.26-1.09-.61Z"/>
            </g>
            <g>
              <path class="cls-3" d="M59.27,83.11c1.2,1.84,5.76,8.94,5.95,10.47.65,5.51-7.96,8.11-10.58,5.21-.77-.85-4.85-8.56-5.78-10.32l10.42-5.36Z"/>
              <path class="cls-3" d="M64.51,97.51c.73.25-6,11.47-7.04,12.61-2.89,3.19-6.9,1.57-7.91,1.99-.42.18.09,2.46-.33,2.45-.54-1.02-5.45-7.45-5.4-7.92.05-.47,5.13-6.77,5.67-7.86.27.31.05,2.53.27,2.6.49.16,9.95.07,10.47,0,2.22-.28,3.03-2.42,4.25-3.88Z"/>
            </g>
            <g>
              <path class="cls-3" d="M26.27,108.03v.1c-1.73-2.32-7.28-11.36-7.53-13.53-.39-3.46,3.1-6.06,3.05-6.64-.01-.14-1.71-1.21-1.8-1.58,1.41.2,9.14.17,9.6.31.49.14,3.31,7.24,3.87,8.22-.93,0-1.82-1.24-2.51-.51-.34.36-5.12,7.84-5.35,8.27-1.28,2.49-.06,2.38.65,5.36Z"/>
              <path class="cls-3" d="M31.12,100.17c.86-.06,8.84.81,11.4.66l-.05,10.98c-3.11-.19-11.06.5-13.42-.82-4.38-2.44-2.39-10.53,2.07-10.83Z"/>
            </g>
          </g>
        </g>
      </g>
    </g>
  </g>
</svg>