<?xml version="1.0" encoding="UTF-8"?>
<svg id="Layer_2" data-name="Layer 2" xmlns="http://www.w3.org/2000/svg" viewBox="0 0 347.42 173.49">
  <defs>
    <style>
      .cls-1 {
        fill: #000;
      }

      .cls-1, .cls-2, .cls-3, .cls-4, .cls-5 {
        stroke: #000;
        stroke-miterlimit: 10;
      }

      .cls-2 {
        fill: #fff;
      }

      .cls-3, .cls-4 {
        fill: none;
        stroke-width: .57px;
      }

      .cls-4 {
        opacity: .6;
      }

      .cls-5 {
        fill: #fbb03b;
      }
    </style>
  </defs>
  <g id="Layer_1-2" data-name="Layer 1">
    <g>
      <path class="cls-2" d="M.51,172.85c0-.08,0-.2,0-.34-.25-29.25,11.42-55.14,21-68.66,28.56-40.3,80.61-29.37,87-60,2.12-10.16-2.03-18.55,5-29,5.87-8.72,17.63-16.07,28-14,13.44,2.68,13.18,18.92,25,29,23.66,20.17,60.86-17.09,108-9,45.24,7.77,76.39,53.09,72,60-2.5,3.93-16.51-4.5-57-13-18.46-3.88-35.07-7.27-56-7-14.68.19-52.96.68-58,16-4.45,13.54,21.05,26.59,16,41-3.71,10.59-22.34,17.45-33,12-12.08-6.18-5.97-24.14-20-34-11.07-7.78-25.96-4.38-32-3-13.84,3.16-22.63,11.14-30,18-14.36,13.36-16.08,22.14-25,33-8.28,10.08-22.98,22.22-51,29Z"/>
      <circle class="cls-2" cx="127.51" cy="19.85" r="10"/>
      <circle class="cls-2" cx="141.51" cy="17.85" r="10"/>
      <ellipse class="cls-1" cx="127.01" cy="19.85" rx="2.5" ry="1.67"/>
      <ellipse class="cls-1" cx="142.01" cy="17.85" rx="2.5" ry="1.67"/>
      <path class="cls-5" d="M133.01,35.85c-4,6-10,6-4,6h6"/>
      <path class="cls-4" d="M27.51,135.85c1.58-4.66,5.14-13.1,13-21,6.67-6.71,13.65-10.22,18-12"/>
      <path class="cls-4" d="M251.84,42.75c4.8-1.09,13.86-2.46,24.7.12,9.2,2.19,15.84,6.3,19.64,9.08"/>
      <path class="cls-3" d="M161.9,103.85l3.61,11"/>
      <path class="cls-3" d="M169.9,102.85l3.61,11"/>
    </g>
  </g>
</svg>