<?xml version="1.0" encoding="UTF-8"?>
<svg id="Layer_2" data-name="Layer 2" xmlns="http://www.w3.org/2000/svg" viewBox="0 0 680.54 568.42">
  <defs>
    <style>
      .cls-1, .cls-2, .cls-3 {
        stroke-width: 0px;
      }

      .cls-1, .cls-4 {
        fill: #ccc;
      }

      .cls-5 {
        fill: #754c24;
      }

      .cls-5, .cls-6, .cls-7, .cls-8, .cls-9, .cls-10, .cls-4, .cls-11, .cls-12, .cls-13 {
        stroke-miterlimit: 10;
      }

      .cls-5, .cls-7, .cls-8, .cls-9, .cls-10, .cls-4, .cls-12, .cls-13 {
        stroke: #000;
      }

      .cls-2 {
        fill: #000;
      }

      .cls-6 {
        fill: #999;
        stroke: #999;
      }

      .cls-7 {
        fill: #8e8e8e;
      }

      .cls-8 {
        fill: none;
      }

      .cls-9 {
        fill: #39b54a;
      }

      .cls-10 {
        fill: #333;
      }

      .cls-11 {
        fill: #c69c6d;
        stroke: #c69c6d;
      }

      .cls-12 {
        fill: #fcee21;
      }

      .cls-3 {
        fill: #fff;
      }

      .cls-13 {
        fill: #666;
      }
    </style>
  </defs>
  <g id="Layer_1-2" data-name="Layer 1">
    <polygon class="cls-4" points="192.75 250.25 172.75 264.25 170.75 122.25 80.75 122.25 80.75 55.25 192.75 55.25 192.75 250.25"/>
    <polygon class="cls-4" points="308.75 27.25 193.75 27.25 193.75 251.25 310.75 251.25 308.75 27.25"/>
    <g>
      <rect class="cls-1" x="514.75" y="231.25" width="111" height="272"/>
      <path class="cls-2" d="M625.25,231.75v271h-110V231.75h110M626.25,230.75h-112v273h112V230.75h0Z"/>
    </g>
    <polygon class="cls-5" points="519.5 518.44 508.11 517.49 511.9 488.05 518.08 489 519.5 518.44"/>
    <polygon class="cls-7" points="155.67 548.25 123.75 564.25 124.83 158.1 171.75 123.25 172.75 264.25 153.75 277.25 155.67 548.25"/>
    <polygon class="cls-7" points="509.75 515.25 484.75 566.25 485.75 57.25 508.75 31.25 509.75 515.25"/>
    <polygon class="cls-7" points="331.75 526.25 308.75 551.25 308.75 276.25 330.75 253.25 331.75 526.25"/>
    <polygon class="cls-7" points="651.75 478.25 625.75 503.85 626.75 231.25 651.75 204.25 651.75 478.25"/>
    <g>
      <rect class="cls-1" x=".75" y="159.25" width="123" height="404"/>
      <path class="cls-2" d="M123.25,159.75v403H1.25V159.75h122M124.25,158.75H.25v405h124V158.75h0Z"/>
    </g>
    <g>
      <rect class="cls-1" x="154.75" y="277.25" width="154" height="273"/>
      <path class="cls-2" d="M308.25,277.75v272h-153v-272h153M309.25,276.75h-155v274h155v-274h0Z"/>
    </g>
    <g>
      <rect class="cls-1" x="331.75" y="56.25" width="153" height="507"/>
      <path class="cls-2" d="M484.25,56.75v506h-152V56.75h152M485.25,55.75h-154v508h154V55.75h0Z"/>
    </g>
    <line class="cls-8" x1="192.75" y1="27.25" x2="308.75" y2="27.25"/>
    <polyline class="cls-13" points="193.75 27.25 198.75 23.25 196.75 23.25 121.75 24.25 80.75 56.25 192.75 56.25 193.25 26.71 230.75 1.25 332.75 1.25 308.75 27.25"/>
    <rect class="cls-10" x="203.75" y="38.25" width="11" height="27"/>
    <rect class="cls-10" x="203.75" y="76.25" width="11" height="27"/>
    <rect class="cls-10" x="282.75" y="38.25" width="11" height="27"/>
    <rect class="cls-10" x="257.75" y="38.25" width="11" height="27"/>
    <rect class="cls-12" x="230.75" y="38.25" width="11" height="27"/>
    <rect class="cls-10" x="203.75" y="134.25" width="11" height="27"/>
    <rect class="cls-10" x="282.75" y="76.25" width="11" height="27"/>
    <rect class="cls-10" x="256.75" y="76.25" width="11" height="27"/>
    <rect class="cls-10" x="230.75" y="76.25" width="11" height="27"/>
    <rect class="cls-10" x="282.75" y="133.25" width="11" height="27"/>
    <rect class="cls-10" x="256.75" y="134.25" width="11" height="27"/>
    <rect class="cls-10" x="230.75" y="134.25" width="11" height="27"/>
    <rect class="cls-12" x="256.75" y="174.25" width="11" height="27"/>
    <rect class="cls-10" x="230.75" y="174.25" width="11" height="27"/>
    <rect class="cls-10" x="203.75" y="174.25" width="11" height="27"/>
    <rect class="cls-10" x="282.75" y="174.25" width="11" height="27"/>
    <rect class="cls-10" x="7.75" y="503.25" width="31" height="50"/>
    <rect class="cls-10" x="45.75" y="503.25" width="31" height="50"/>
    <rect class="cls-10" x="84.75" y="503.25" width="31" height="50"/>
    <rect class="cls-10" x="7.75" y="445.25" width="31" height="50"/>
    <rect class="cls-10" x="45.75" y="368.25" width="31" height="50"/>
    <rect class="cls-12" x="84.75" y="445.25" width="31" height="50"/>
    <rect class="cls-12" x="45.75" y="445.25" width="31" height="50"/>
    <rect class="cls-10" x="7.75" y="297.25" width="31" height="50"/>
    <rect class="cls-12" x="45.75" y="297.25" width="31" height="50"/>
    <rect class="cls-10" x="84.75" y="297.25" width="31" height="50"/>
    <rect class="cls-10" x="84.75" y="237.25" width="31" height="50"/>
    <rect class="cls-12" x="45.75" y="237.25" width="31" height="50"/>
    <rect class="cls-10" x="7.75" y="237.25" width="31" height="50"/>
    <rect class="cls-10" x="45.75" y="168.25" width="31" height="50"/>
    <rect class="cls-12" x="163.75" y="416.25" width="31" height="50"/>
    <rect class="cls-12" x="267.75" y="351.25" width="31" height="50"/>
    <rect class="cls-10" x="162.75" y="287.25" width="31" height="50"/>
    <rect class="cls-12" x="267.75" y="492.25" width="31" height="50"/>
    <rect class="cls-12" x="231.75" y="374.25" width="11" height="27"/>
    <rect class="cls-12" x="249.75" y="374.25" width="11" height="27"/>
    <rect class="cls-12" x="236.75" y="310.25" width="11" height="27"/>
    <rect class="cls-10" x="218.75" y="310.25" width="11" height="27"/>
    <rect class="cls-10" x="200.75" y="310.25" width="11" height="27"/>
    <rect class="cls-12" x="214.75" y="374.25" width="11" height="27"/>
    <rect class="cls-12" x="232.75" y="515.25" width="11" height="27"/>
    <rect class="cls-12" x="249.75" y="515.25" width="11" height="27"/>
    <rect class="cls-12" x="237.75" y="439.25" width="11" height="27"/>
    <rect class="cls-12" x="220.75" y="439.25" width="11" height="27"/>
    <rect class="cls-12" x="203.75" y="439.25" width="11" height="27"/>
    <rect class="cls-10" x="171.75" y="507.25" width="11" height="27" transform="translate(698 343.5) rotate(90)"/>
    <rect class="cls-12" x="216.75" y="515.25" width="11" height="27"/>
    <rect class="cls-10" x="279.75" y="279.25" width="11" height="27" transform="translate(578 7.5) rotate(90)"/>
    <rect class="cls-12" x="281.75" y="408.25" width="11" height="27" transform="translate(709 134.5) rotate(90)"/>
    <rect class="cls-12" x="170.75" y="343.25" width="11" height="27" transform="translate(533 180.5) rotate(90)"/>
    <rect class="cls-12" x="344.75" y="134.25" width="11" height="27"/>
    <rect class="cls-10" x="343.75" y="84.25" width="11" height="27"/>
    <rect class="cls-12" x="170.75" y="66.25" width="11" height="27"/>
    <rect class="cls-10" x="150.75" y="66.25" width="11" height="27"/>
    <rect class="cls-10" x="131.75" y="66.25" width="11" height="27"/>
    <rect class="cls-12" x="110.75" y="66.25" width="11" height="27"/>
    <rect class="cls-10" x="90.75" y="66.25" width="11" height="27"/>
    <rect class="cls-12" x="414.75" y="84.25" width="11" height="27"/>
    <rect class="cls-12" x="344.75" y="513.25" width="11" height="27"/>
    <rect class="cls-10" x="345.75" y="465.25" width="11" height="27"/>
    <rect class="cls-12" x="345.75" y="419.25" width="11" height="27"/>
    <rect class="cls-10" x="345.75" y="374.25" width="11" height="27"/>
    <rect class="cls-12" x="345.75" y="325.25" width="11" height="27"/>
    <rect class="cls-10" x="345.75" y="278.25" width="11" height="27"/>
    <rect class="cls-12" x="344.75" y="231.25" width="11" height="27"/>
    <rect class="cls-10" x="343.75" y="184.25" width="11" height="27"/>
    <rect class="cls-10" x="414.75" y="419.25" width="11" height="27"/>
    <rect class="cls-12" x="414.75" y="374.25" width="11" height="27"/>
    <rect class="cls-12" x="414.75" y="325.25" width="11" height="27"/>
    <rect class="cls-12" x="414.75" y="279.25" width="11" height="27"/>
    <rect class="cls-10" x="414.75" y="235.25" width="11" height="27"/>
    <rect class="cls-12" x="414.75" y="184.25" width="11" height="27"/>
    <rect class="cls-12" x="414.75" y="133.25" width="11" height="27"/>
    <rect class="cls-12" x="414.75" y="517.25" width="11" height="27"/>
    <rect class="cls-12" x="414.75" y="465.25" width="11" height="27"/>
    <rect class="cls-12" x="450.75" y="134.25" width="11" height="27" transform="translate(604 -308.5) rotate(90)"/>
    <rect class="cls-12" x="378.75" y="134.25" width="11" height="27" transform="translate(532 -236.5) rotate(90)"/>
    <rect class="cls-12" x="450.75" y="84.25" width="11" height="27" transform="translate(554 -358.5) rotate(90)"/>
    <rect class="cls-10" x="378.75" y="84.25" width="11" height="27" transform="translate(482 -286.5) rotate(90)"/>
    <rect class="cls-10" x="377.75" y="278.25" width="11" height="27" transform="translate(675 -91.5) rotate(90)"/>
    <rect class="cls-10" x="450.75" y="234.25" width="11" height="27" transform="translate(704 -208.5) rotate(90)"/>
    <rect class="cls-12" x="377.75" y="234.25" width="11" height="27" transform="translate(135.5 631) rotate(-90)"/>
    <rect class="cls-12" x="450.75" y="184.25" width="11" height="27" transform="translate(654 -258.5) rotate(90)"/>
    <rect class="cls-10" x="378.75" y="184.25" width="11" height="27" transform="translate(582 -186.5) rotate(90)"/>
    <rect class="cls-10" x="377.75" y="374.25" width="11" height="27" transform="translate(771 4.5) rotate(90)"/>
    <rect class="cls-12" x="450.75" y="325.25" width="11" height="27" transform="translate(117.5 795) rotate(-90)"/>
    <rect class="cls-12" x="378.75" y="325.25" width="11" height="27" transform="translate(723 -45.5) rotate(90)"/>
    <rect class="cls-12" x="450.75" y="279.25" width="11" height="27" transform="translate(749 -163.5) rotate(90)"/>
    <rect class="cls-12" x="378.75" y="419.25" width="11" height="27" transform="translate(817 48.5) rotate(90)"/>
    <rect class="cls-10" x="446.75" y="419.25" width="11" height="27" transform="translate(885 -19.5) rotate(90)"/>
    <rect class="cls-12" x="446.75" y="374.25" width="11" height="27" transform="translate(840 -64.5) rotate(90)"/>
    <rect class="cls-12" x="377.75" y="513.25" width="11" height="27" transform="translate(910 143.5) rotate(90)"/>
    <rect class="cls-10" x="377.75" y="465.25" width="11" height="27" transform="translate(862 95.5) rotate(90)"/>
    <rect class="cls-12" x="445.75" y="464.25" width="11" height="27" transform="translate(929 26.5) rotate(90)"/>
    <rect class="cls-12" x="445.75" y="513.25" width="11" height="27" transform="translate(978 75.5) rotate(90)"/>
    <rect class="cls-10" x="560.75" y="330.25" width="11" height="27"/>
    <rect class="cls-10" x="525.75" y="329.25" width="11" height="27"/>
    <rect class="cls-12" x="595.75" y="287.25" width="11" height="27"/>
    <rect class="cls-10" x="560.75" y="287.25" width="11" height="27"/>
    <rect class="cls-10" x="530.75" y="291.25" width="11" height="27"/>
    <rect class="cls-10" x="595.75" y="245.25" width="11" height="27"/>
    <rect class="cls-10" x="560.75" y="245.25" width="11" height="27"/>
    <rect class="cls-10" x="525.75" y="245.25" width="11" height="27"/>
    <rect class="cls-12" x="560.75" y="373.25" width="11" height="27"/>
    <rect class="cls-10" x="525.75" y="371.25" width="11" height="27"/>
    <rect class="cls-10" x="595.75" y="329.25" width="11" height="27"/>
    <rect class="cls-10" x="595.75" y="416.25" width="11" height="27"/>
    <rect class="cls-10" x="560.75" y="416.25" width="11" height="27"/>
    <rect class="cls-10" x="525.75" y="413.25" width="11" height="27"/>
    <rect class="cls-10" x="595.75" y="374.25" width="11" height="27"/>
    <rect class="cls-10" x="595.75" y="460.25" width="11" height="27"/>
    <rect class="cls-12" x="561.75" y="460.25" width="11" height="27"/>
    <rect class="cls-10" x="525.75" y="460.25" width="11" height="27"/>
    <rect class="cls-11" x="199.75" y="109.25" width="5" height="9"/>
    <rect class="cls-11" x="209.75" y="116.25" width="5" height="9"/>
    <rect class="cls-11" x="299.75" y="121.25" width="5" height="12"/>
    <rect class="cls-11" x="290.75" y="113.25" width="5" height="11"/>
    <rect class="cls-11" x="272.75" y="198.25" width="5" height="11"/>
    <rect class="cls-11" x="281.75" y="205.25" width="5" height="11"/>
    <rect class="cls-6" x="9.75" y="170.25" width="5" height="11"/>
    <rect class="cls-6" x="83.75" y="420.25" width="5" height="11" transform="translate(512 339.5) rotate(90)"/>
    <rect class="cls-6" x="17.75" y="179.25" width="5" height="11"/>
    <rect class="cls-6" x="94.75" y="428.25" width="5" height="11" transform="translate(-336.5 531) rotate(-90)"/>
    <rect class="cls-6" x="433.75" y="165.25" width="5" height="11"/>
    <rect class="cls-6" x="441.75" y="172.25" width="5" height="11"/>
    <rect class="cls-6" x="343.75" y="65.25" width="5" height="11"/>
    <rect class="cls-6" x="337.75" y="60.25" width="5" height="11"/>
    <rect class="cls-6" x="552.75" y="273.25" width="5" height="11"/>
    <rect class="cls-6" x="544.75" y="266.25" width="5" height="11"/>
    <rect class="cls-6" x="180.75" y="387.25" width="5" height="11"/>
    <rect class="cls-6" x="171.75" y="380.25" width="5" height="11"/>
    <rect class="cls-6" x="466.75" y="545.25" width="5" height="11"/>
    <rect class="cls-6" x="459.75" y="540.25" width="5" height="11"/>
    <rect class="cls-6" x="277.75" y="446.25" width="5" height="11"/>
    <rect class="cls-6" x="284.75" y="454.25" width="5" height="11"/>
    <polyline class="cls-13" points="124.25 158.75 171.75 123.25 61.75 123.25 .25 158.75"/>
    <polyline class="cls-13" points="485.25 56.75 508.75 29.25 368.75 29.25 331.25 56.75"/>
    <polyline class="cls-13" points="309.25 276.75 332.25 251.25 192.93 250.42 155.93 276.42"/>
    <polyline class="cls-13" points="626.25 230.75 651.75 204.25 552.75 205.25 514.25 230.75"/>
    <path class="cls-9" d="M163.75,506.56c.64-1.56,1-3.26,1-5.05,0-7.32-5.93-13.25-13.25-13.25-.49,0-.96.03-1.44.08-2.39-2.37-5.68-3.83-9.31-3.83-7.32,0-13.25,5.93-13.25,13.25,0,2.22.55,4.31,1.51,6.15-1.12,1.94-1.76,4.2-1.76,6.6,0,7.32,5.93,13.25,13.25,13.25,1.09,0,2.15-.13,3.17-.38,2.32,3.83,6.53,6.38,11.33,6.38,7.32,0,13.25-5.93,13.25-13.25,0-3.96-1.74-7.52-4.5-9.95Z"/>
    <polyline class="cls-5" points="141.25 524.25 132.75 564.25 153.25 564.25 145.25 524.25"/>
    <path class="cls-9" d="M659.25,455.62c0-6.18-4.57-11.19-10.21-11.19-3.36,0-6.34,1.78-8.2,4.53-1.47-4.21-5.18-7.2-9.54-7.2-5.14,0-9.39,4.16-10.1,9.58-3.85,1.6-6.58,5.68-6.58,10.46,0,6.18,4.57,11.19,10.21,11.19,1.91,0,3.7-.58,5.22-1.58,1.53,1,3.31,1.58,5.22,1.58.74,0,1.45-.09,2.15-.25,0,.15-.01.3-.01.46,0,6.18,4.57,11.19,10.21,11.19s10.21-5.01,10.21-11.19c0-3.23-1.25-6.13-3.24-8.18,2.81-1.99,4.67-5.46,4.67-9.39Z"/>
    <polygon class="cls-5" points="637.9 502.77 626.5 501.82 630.3 472.38 636.47 473.33 637.9 502.77"/>
    <path class="cls-9" d="M519.86,517.29c0-6.18-4.57-11.19-10.21-11.19-3.36,0-6.34,1.78-8.2,4.53-1.47-4.21-5.18-7.2-9.54-7.2-5.14,0-9.39,4.16-10.1,9.58-3.85,1.6-6.58,5.68-6.58,10.46,0,6.18,4.57,11.19,10.21,11.19,1.91,0,3.7-.58,5.22-1.58,1.53,1,3.31,1.58,5.22,1.58.74,0,1.45-.09,2.15-.25,0,.15-.01.3-.01.46,0,6.18,4.57,11.19,10.21,11.19,5.64,0,10.21-5.01,10.21-11.19,0-3.23-1.25-6.13-3.24-8.18,2.81-1.99,4.67-5.46,4.67-9.39Z"/>
    <path class="cls-9" d="M675.54,482.56c.64-1.56,1-3.26,1-5.05,0-7.32-5.93-13.25-13.25-13.25-.49,0-.96.03-1.44.08-2.39-2.37-5.68-3.83-9.31-3.83-7.32,0-13.25,5.93-13.25,13.25,0,2.22.55,4.31,1.51,6.15-1.12,1.94-1.76,4.2-1.76,6.6,0,7.32,5.93,13.25,13.25,13.25,1.09,0,2.15-.13,3.17-.38,2.32,3.83,6.53,6.38,11.33,6.38,7.32,0,13.25-5.93,13.25-13.25,0-3.96-1.74-7.52-4.5-9.95Z"/>
    <polyline class="cls-5" points="651.04 500.25 642.54 540.25 663.04 540.25 655.04 500.25"/>
    <path class="cls-9" d="M539.86,470.29c0-6.18-4.57-11.19-10.21-11.19-3.36,0-6.34,1.78-8.2,4.53-1.47-4.21-5.18-7.2-9.54-7.2-5.14,0-9.39,4.16-10.1,9.58-3.85,1.6-6.58,5.68-6.58,10.46,0,6.18,4.57,11.19,10.21,11.19,1.91,0,3.7-.58,5.22-1.58,1.53,1,3.31,1.58,5.22,1.58.74,0,1.45-.09,2.15-.25,0,.15-.01.3-.01.46,0,6.18,4.57,11.19,10.21,11.19,5.64,0,10.21-5.01,10.21-11.19,0-3.23-1.25-6.13-3.24-8.18,2.81-1.99,4.67-5.46,4.67-9.39Z"/>
    <polygon class="cls-5" points="498.5 564.44 487.11 563.49 490.9 534.05 497.08 535 498.5 564.44"/>
    <rect class="cls-6" x="372.75" y="355.25" width="5" height="11"/>
    <rect class="cls-6" x="377.75" y="360.25" width="5" height="11"/>
    <polygon class="cls-7" points="331.75 251.25 310.75 251.25 308.75 27.25 333.75 1.25 331.75 251.25"/>
    <path class="cls-3" d="M47.25,175.19c-.26,4.17-.27,8.34-.04,12.51.05.81.66,1.5,1.5,1.5.78,0,1.55-.69,1.5-1.5-.23-4.17-.22-8.34.04-12.51.05-.81-.73-1.5-1.5-1.5-.85,0-1.45.69-1.5,1.5h0Z"/>
    <path class="cls-3" d="M10.93,244.51c-.59,3.17-.76,6.39-.42,9.59.08.78.63,1.54,1.5,1.5.74-.03,1.59-.66,1.5-1.5-.32-2.96-.21-5.99.31-8.79.14-.77-.21-1.66-1.05-1.85-.74-.17-1.69.22-1.85,1.05h0Z"/>
    <path class="cls-3" d="M48.97,244.25c-.48,2.83-.67,5.7-.48,8.57.05.78.65,1.54,1.5,1.5.77-.03,1.55-.66,1.5-1.5-.09-1.34-.1-2.68-.03-4.02.03-.66.08-1.31.15-1.97.02-.16.03-.31.05-.47,0-.02.06-.48.03-.23.05-.36.11-.73.17-1.09.13-.77-.2-1.65-1.05-1.85-.73-.17-1.7.22-1.85,1.05h0Z"/>
    <path class="cls-3" d="M87.75,244.25c-.9,3.11-1.36,6.35-1.36,9.59,0,.78.69,1.54,1.5,1.5s1.5-.66,1.5-1.5c0-3.07.39-5.83,1.25-8.79.22-.75-.27-1.67-1.05-1.85s-1.61.24-1.85,1.05h0Z"/>
    <path class="cls-3" d="M10.8,303.88c-.3,2.86-.22,5.71.17,8.56.11.78,1.15,1.27,1.85,1.05.86-.28,1.16-1.01,1.05-1.85.03.24-.02-.19-.03-.24-.02-.19-.04-.37-.06-.56-.03-.32-.06-.64-.08-.96-.05-.67-.08-1.34-.08-2-.02-1.34.05-2.67.19-4,.08-.78-.75-1.53-1.5-1.5-.88.04-1.41.66-1.5,1.5h0Z"/>
    <path class="cls-3" d="M49.45,305.01c-.34,2.42-.47,4.85-.3,7.29.05.78.65,1.54,1.5,1.5.77-.03,1.56-.66,1.5-1.5-.08-1.13-.1-2.26-.06-3.38.02-.54.05-1.08.1-1.62.02-.27.05-.54.08-.81.02-.16.04-.31.05-.47,0-.07.02-.13.03-.2-.02.17-.02.17,0,0,.06-.42.07-.78-.15-1.16-.18-.31-.54-.61-.9-.69-.71-.16-1.73.22-1.85,1.05h0Z"/>
    <path class="cls-3" d="M88.18,303.37c-.19,3.23-.16,6.47.09,9.7.06.78.65,1.54,1.5,1.5.76-.03,1.57-.66,1.5-1.5-.25-3.23-.29-6.47-.09-9.7.05-.78-.72-1.53-1.5-1.5-.85.04-1.45.66-1.5,1.5h0Z"/>
    <path class="cls-3" d="M48.49,374.98c-.64,3.76-.57,7.56.25,11.3.17.79,1.09,1.25,1.85,1.05.82-.22,1.22-1.05,1.05-1.85-.69-3.17-.79-6.5-.25-9.7.13-.8-.21-1.62-1.05-1.85-.72-.2-1.71.24-1.85,1.05h0Z"/>
    <path class="cls-3" d="M164.88,293.02c-.45,2.75-.63,5.53-.48,8.32.04.78.66,1.54,1.5,1.5.78-.03,1.55-.66,1.5-1.5-.07-1.3-.08-2.6-.01-3.89.03-.64.08-1.27.15-1.9.03-.3.07-.61.11-.91-.04.27.02-.15.03-.21.03-.2.06-.4.09-.6.13-.77-.2-1.65-1.05-1.85-.72-.16-1.71.22-1.85,1.05h0Z"/>
    <path class="cls-3" d="M202.35,315.63c-.13,1.71-.09,3.42.12,5.12.05.41.13.76.44,1.06.26.26.69.46,1.06.44s.79-.14,1.06-.44c.25-.27.49-.68.44-1.06-.21-1.7-.25-3.41-.12-5.12.06-.78-.73-1.53-1.5-1.5-.86.04-1.44.66-1.5,1.5h0Z"/>
    <path class="cls-3" d="M220.71,316.65v4.85c0,.78.69,1.54,1.5,1.5s1.5-.66,1.5-1.5v-4.85c0-.78-.69-1.54-1.5-1.5s-1.5.66-1.5,1.5h0Z"/>
    <path class="cls-3" d="M11.03,452.22c-.25,2.23-.29,4.47-.1,6.71.06.78.64,1.54,1.5,1.5.76-.03,1.57-.66,1.5-1.5-.19-2.24-.15-4.48.1-6.71.09-.78-.75-1.53-1.5-1.5-.89.04-1.4.66-1.5,1.5h0Z"/>
    <path class="cls-3" d="M49.49,451.83c-.24,2.63-.13,5.26.26,7.87.11.78,1.14,1.28,1.85,1.05.85-.28,1.17-1.01,1.05-1.85-.01-.1-.03-.19-.04-.29.02.14.02.15,0,.04-.02-.14-.04-.29-.05-.43-.04-.31-.07-.62-.09-.93-.05-.6-.08-1.2-.1-1.8-.03-1.23.01-2.45.13-3.67.07-.78-.74-1.53-1.5-1.5-.87.04-1.42.66-1.5,1.5h0Z"/>
    <path class="cls-3" d="M88.8,451.84c-.36,3.01-.28,6.02.13,9.02.11.78,1.15,1.27,1.85,1.05.86-.28,1.16-1.01,1.05-1.85.03.19-.03-.29-.04-.34-.02-.17-.04-.33-.05-.5-.04-.36-.07-.72-.09-1.08-.05-.69-.07-1.38-.08-2.08,0-1.41.08-2.83.24-4.23.09-.78-.76-1.53-1.5-1.5-.89.04-1.4.66-1.5,1.5h0Z"/>
    <path class="cls-3" d="M11.97,509.48c0,2.62.08,5.24.25,7.85.05.78.65,1.54,1.5,1.5.77-.03,1.56-.66,1.5-1.5-.18-2.61-.26-5.23-.25-7.85,0-.78-.69-1.54-1.5-1.5s-1.5.66-1.5,1.5h0Z"/>
    <path class="cls-3" d="M50.87,510.24c-.27,2.61-.27,5.24.02,7.85.09.78.63,1.54,1.5,1.5.74-.03,1.59-.66,1.5-1.5-.29-2.61-.29-5.24-.02-7.85.08-.78-.75-1.53-1.5-1.5-.88.04-1.41.66-1.5,1.5h0Z"/>
    <path class="cls-3" d="M89.25,508.89c-.57,3.19-.57,6.4.01,9.59.14.77,1.12,1.28,1.85,1.05.83-.27,1.2-1.02,1.05-1.85-.23-1.26-.35-2.58-.35-4,0-.68.03-1.36.08-2.04.07-.79.12-1.19.26-1.96s-.21-1.65-1.05-1.85c-.73-.17-1.7.22-1.85,1.05h0Z"/>
    <path class="cls-3" d="M167.29,422.16c-.42,3.37-.56,6.76-.43,10.15.03.81.67,1.5,1.5,1.5.79,0,1.53-.69,1.5-1.5-.13-3.39.02-6.78.43-10.15.1-.81-.76-1.5-1.5-1.5-.89,0-1.4.69-1.5,1.5h0Z"/>
    <path class="cls-3" d="M206.04,444.55c-.71,2.35-.97,4.85-.72,7.29.08.78.63,1.54,1.5,1.5.74-.03,1.59-.66,1.5-1.5-.12-1.14-.13-2.28-.02-3.42.01-.15.03-.3.05-.45.04-.33-.04.25.02-.11.04-.28.09-.55.14-.83.11-.57.26-1.13.43-1.69.23-.75-.27-1.67-1.05-1.85s-1.6.24-1.85,1.05h0Z"/>
    <path class="cls-3" d="M223.86,443.98c-.77,2.06-1.09,4.32-.9,6.52.07.78.64,1.54,1.5,1.5.76-.03,1.57-.66,1.5-1.5-.04-.53-.06-1.05-.05-1.58,0-.23.02-.45.03-.68.01-.15.03-.3.04-.45v-.11c.03-.17.03-.15,0,.06.04-.05.04-.27.05-.34.02-.13.05-.26.07-.39.05-.24.1-.48.16-.72.13-.51.29-1.02.48-1.51.28-.74-.31-1.68-1.05-1.85-.85-.19-1.55.26-1.85,1.05h0Z"/>
    <path class="cls-3" d="M241.28,444.36c-.61,1.99-.96,4.06-1.08,6.13-.04.78.72,1.53,1.5,1.5.85-.04,1.45-.66,1.5-1.5.03-.47.06-.93.12-1.4.01-.09.05-.58.01-.14,0-.11.03-.21.05-.32.04-.23.07-.46.12-.69.17-.94.4-1.87.68-2.78.23-.75-.27-1.67-1.05-1.85-.81-.18-1.6.24-1.85,1.05h0Z"/>
    <path class="cls-3" d="M219.08,520.38c-.5,2.55-.5,5.12,0,7.68.15.77,1.12,1.28,1.85,1.05.82-.27,1.21-1.02,1.05-1.85-.05-.28-.1-.56-.14-.84-.02-.11-.01-.09,0,.08-.01-.09-.02-.17-.03-.26-.01-.13-.03-.26-.04-.39-.05-.54-.07-1.09-.07-1.63s.03-1.09.08-1.63c.01-.13.03-.26.04-.39.04-.36-.04.21.01-.12.05-.3.1-.6.16-.9.15-.77-.22-1.66-1.05-1.85-.74-.17-1.68.22-1.85,1.05h0Z"/>
    <path class="cls-3" d="M235.46,521.73c-.27,2.22-.41,4.46-.41,6.7,0,.78.69,1.54,1.5,1.5s1.5-.66,1.5-1.5c0-2.24.13-4.48.41-6.7.04-.35-.2-.82-.44-1.06-.26-.26-.69-.46-1.06-.44-.89.04-1.4.66-1.5,1.5h0Z"/>
    <path class="cls-3" d="M252.83,522.11l.03,5.74c0,.78.69,1.54,1.5,1.5s1.5-.66,1.5-1.5l-.03-5.74c0-.78-.69-1.54-1.5-1.5s-1.5.66-1.5,1.5h0Z"/>
    <path class="cls-3" d="M217.15,379.63c-.24,1.66-.33,3.32-.19,5,.03.4.15.77.44,1.06.26.26.69.46,1.06.44.76-.03,1.57-.66,1.5-1.5-.12-1.47-.08-2.96.11-4.42l-.05.4c0-.06.02-.12.03-.18.06-.42.07-.78-.15-1.16-.18-.31-.54-.61-.9-.69-.38-.09-.81-.07-1.16.15-.3.2-.64.52-.69.9h0Z"/>
    <path class="cls-3" d="M234.1,381.37l-.41,4.59c-.03.36.19.81.44,1.06s.69.46,1.06.44.79-.14,1.06-.44.4-.64.44-1.06l.41-4.59c.03-.36-.19-.81-.44-1.06s-.69-.46-1.06-.44-.79.14-1.06.44-.4.64-.44,1.06h0Z"/>
    <path class="cls-3" d="M252.1,380.98l-.41,4.98c-.06.78.74,1.53,1.5,1.5.87-.04,1.43-.66,1.5-1.5l.41-4.98c.06-.78-.74-1.53-1.5-1.5-.87.04-1.43.66-1.5,1.5h0Z"/>
    <path class="cls-3" d="M271.02,356.66c-.16,2.62-.12,5.24.12,7.85.07.78.64,1.54,1.5,1.5.75-.03,1.58-.66,1.5-1.5-.24-2.61-.28-5.23-.12-7.85.05-.78-.72-1.53-1.5-1.5-.85.04-1.45.66-1.5,1.5h0Z"/>
    <path class="cls-3" d="M239.07,316.07l-.19,5.17c-.03.78.71,1.54,1.5,1.5.84-.04,1.47-.66,1.5-1.5l.19-5.17c.03-.78-.71-1.54-1.5-1.5-.84.04-1.47.66-1.5,1.5h0Z"/>
    <path class="cls-3" d="M271.1,497.79c.03,5.04.06,10.08.09,15.13.01,1.93,3.01,1.93,3,0-.03-5.04-.06-10.08-.09-15.13-.01-1.93-3.01-1.93-3,0h0Z"/>
    <path class="cls-3" d="M347.29,519.05c-.3,2.35-.47,4.71-.51,7.08-.01.78.7,1.54,1.5,1.5s1.49-.66,1.5-1.5c.04-2.37.21-4.73.51-7.08.1-.78-.76-1.53-1.5-1.5-.9.04-1.39.66-1.5,1.5h0Z"/>
    <path class="cls-3" d="M347.82,470.79l-.19,6.89c-.02.78.71,1.54,1.5,1.5s1.48-.66,1.5-1.5l.19-6.89c.02-.78-.71-1.54-1.5-1.5s-1.48.66-1.5,1.5h0Z"/>
    <path class="cls-3" d="M347.93,424.63c-.48,2.43-.52,4.85-.18,7.3.05.34.41.73.69.9.32.19.8.27,1.16.15s.71-.34.9-.69c.2-.38.21-.73.15-1.16.05.36,0-.02-.01-.1-.02-.15-.03-.29-.05-.44-.02-.25-.04-.5-.05-.75-.03-.52-.03-1.05-.02-1.57s.05-1,.1-1.5c.01-.12.02-.25.04-.37-.07.35,0-.02.02-.1.04-.29.1-.58.15-.87.15-.77-.22-1.66-1.05-1.85-.74-.17-1.68.22-1.85,1.05h0Z"/>
    <path class="cls-3" d="M348.21,380.41l-.19,6.89c-.02.78.71,1.54,1.5,1.5s1.48-.66,1.5-1.5l.19-6.89c.02-.78-.71-1.54-1.5-1.5s-1.48.66-1.5,1.5h0Z"/>
    <path class="cls-3" d="M347.51,331.01l.25,5.18c.04.78.66,1.54,1.5,1.5.78-.03,1.54-.66,1.5-1.5l-.25-5.18c-.04-.78-.66-1.54-1.5-1.5-.78.03-1.54.66-1.5,1.5h0Z"/>
    <path class="cls-3" d="M348.06,284.09c-.36,2.82-.27,5.65.19,8.45.13.78,1.13,1.28,1.85,1.05.84-.27,1.18-1.01,1.05-1.85-.03-.18-.05-.36-.08-.54-.02-.11-.01-.1,0,.01-.01-.08-.02-.15-.03-.23-.04-.33-.08-.67-.1-1-.05-.65-.09-1.29-.09-1.94-.02-1.32.06-2.64.23-3.95.1-.78-.76-1.53-1.5-1.5-.9.04-1.39.66-1.5,1.5h0Z"/>
    <path class="cls-3" d="M347.86,236.22c-.21,2.48-.27,4.98-.19,7.47.02.78.67,1.54,1.5,1.5s1.53-.66,1.5-1.5c-.08-2.49-.02-4.98.19-7.47.07-.78-.74-1.53-1.5-1.5-.87.04-1.43.66-1.5,1.5h0Z"/>
    <path class="cls-3" d="M346.32,188.92c-.21,2.29-.27,4.59-.19,6.89.03.78.67,1.54,1.5,1.5s1.53-.66,1.5-1.5c-.08-2.3-.02-4.6.19-6.89.07-.78-.74-1.53-1.5-1.5-.87.04-1.42.66-1.5,1.5h0Z"/>
    <path class="cls-3" d="M347.47,138.56c-.2,1.97-.27,3.96-.19,5.94.03.78.67,1.54,1.5,1.5.79-.04,1.53-.66,1.5-1.5-.08-1.98-.01-3.96.19-5.94.08-.78-.75-1.53-1.5-1.5-.88.04-1.41.66-1.5,1.5h0Z"/>
    <path class="cls-3" d="M205.78,178.01c-.23,2.16-.22,4.34.03,6.5.05.41.14.76.44,1.06.26.26.69.46,1.06.44.74-.03,1.6-.67,1.5-1.5-.25-2.16-.26-4.34-.03-6.5.08-.78-.75-1.53-1.5-1.5-.88.04-1.41.66-1.5,1.5h0Z"/>
    <path class="cls-3" d="M233.19,178.39l.25,6.13c.03.78.67,1.54,1.5,1.5.79-.04,1.53-.66,1.5-1.5l-.25-6.13c-.03-.78-.67-1.54-1.5-1.5-.79.04-1.53.66-1.5,1.5h0Z"/>
    <path class="cls-3" d="M258.83,180.31c-.26,2.1-.4,4.21-.41,6.32,0,.78.69,1.54,1.5,1.5s1.5-.66,1.5-1.5c.01-2.11.15-4.22.41-6.32.04-.35-.2-.82-.44-1.06-.26-.26-.69-.46-1.06-.44s-.79.14-1.06.44c-.29.31-.39.64-.44,1.06h0Z"/>
    <path class="cls-3" d="M285.05,179.35v5.74c0,.78.69,1.54,1.5,1.5s1.5-.66,1.5-1.5v-5.74c0-.78-.69-1.54-1.5-1.5s-1.5.66-1.5,1.5h0Z"/>
    <path class="cls-3" d="M284.49,138.18c-.27,2.35-.27,4.73,0,7.08.09.78.63,1.54,1.5,1.5.74-.03,1.6-.67,1.5-1.5-.27-2.35-.27-4.73,0-7.08.09-.78-.75-1.53-1.5-1.5-.89.04-1.4.66-1.5,1.5h0Z"/>
    <path class="cls-3" d="M259.47,138.93c-.49,2.47-.61,4.98-.28,7.48.05.41.13.75.44,1.06.26.26.69.46,1.06.44.72-.03,1.61-.67,1.5-1.5-.15-1.15-.22-2.32-.18-3.48.02-.57.05-1.14.12-1.71.01-.14.03-.27.05-.41-.04.33.01-.07.02-.14.05-.32.11-.63.17-.94.15-.77-.22-1.66-1.05-1.85-.74-.17-1.68.22-1.85,1.05h0Z"/>
    <path class="cls-3" d="M233.36,139.52l.31,5.37c.05.78.66,1.54,1.5,1.5.77-.03,1.55-.66,1.5-1.5l-.31-5.37c-.05-.78-.66-1.54-1.5-1.5-.77.03-1.55.66-1.5,1.5h0Z"/>
    <path class="cls-3" d="M205.75,139.71l-.2,6.13c-.03.79.71,1.54,1.5,1.5.83-.04,1.47-.66,1.5-1.5l.2-6.13c.03-.79-.71-1.54-1.5-1.5-.83.04-1.47.66-1.5,1.5h0Z"/>
    <path class="cls-3" d="M206.18,81.12c-.26,2.1-.29,4.22-.09,6.32.04.41.14.76.44,1.06.26.26.69.46,1.06.44.75-.03,1.58-.66,1.5-1.5-.2-2.11-.17-4.22.09-6.32.04-.35-.2-.82-.44-1.06-.26-.26-.69-.46-1.06-.44s-.79.14-1.06.44c-.29.31-.39.64-.44,1.06h0Z"/>
    <path class="cls-3" d="M233.05,80.34c-.39,1.96-.53,3.96-.37,5.95.06.78.65,1.54,1.5,1.5.76-.03,1.57-.66,1.5-1.5-.07-.91-.09-1.82-.04-2.74.02-.45.07-.89.12-1.34.04-.37-.05.34,0-.03.02-.11.03-.21.05-.32.04-.25.08-.49.13-.74.15-.77-.22-1.66-1.05-1.85-.74-.17-1.68.22-1.85,1.05h0Z"/>
    <path class="cls-3" d="M258.61,80.54v6.32c-.01.78.68,1.54,1.49,1.5s1.5-.66,1.5-1.5v-6.32c.01-.78-.68-1.54-1.49-1.5s-1.5.66-1.5,1.5h0Z"/>
    <path class="cls-3" d="M285.06,81.31c-.26,2.16-.4,4.33-.41,6.51,0,.78.69,1.54,1.5,1.5s1.5-.66,1.5-1.5c.01-2.18.15-4.35.41-6.51.04-.35-.2-.82-.44-1.06-.26-.26-.69-.46-1.06-.44-.89.04-1.4.66-1.5,1.5h0Z"/>
    <path class="cls-3" d="M259.53,43.97l.15,5.17c.02.78.67,1.54,1.5,1.5s1.52-.66,1.5-1.5l-.15-5.17c-.02-.78-.67-1.54-1.5-1.5s-1.52.66-1.5,1.5h0Z"/>
    <path class="cls-3" d="M284.64,43.39c-.07,1.91-.13,3.83-.2,5.74-.03.79.71,1.54,1.5,1.5.84-.04,1.47-.66,1.5-1.5.07-1.91.13-3.83.2-5.74.03-.79-.71-1.54-1.5-1.5-.84.04-1.47.66-1.5,1.5h0Z"/>
    <path class="cls-3" d="M232.78,43.97c-.13,1.93.03,3.87.41,5.76.15.77,1.11,1.28,1.85,1.05.82-.27,1.21-1.02,1.05-1.85-.09-.44-.16-.88-.22-1.33l.05.4c-.17-1.34-.22-2.69-.13-4.03.05-.78-.73-1.53-1.5-1.5-.86.04-1.45.66-1.5,1.5h0Z"/>
    <path class="cls-3" d="M206.43,42.61c-.41,2.35-.53,4.72-.28,7.1.04.41.14.76.44,1.06.26.26.69.46,1.06.44.74-.03,1.59-.66,1.5-1.5-.12-1.09-.16-2.19-.13-3.29.02-.54.05-1.08.1-1.61.01-.13.03-.26.04-.39.01-.12.05-.39.01-.11.04-.3.09-.6.14-.89.13-.77-.21-1.65-1.05-1.85-.73-.17-1.7.22-1.85,1.05h0Z"/>
    <path class="cls-3" d="M93.24,70.57c-.29,1.66-.37,3.33-.15,5,.05.41.13.75.44,1.06.26.26.69.46,1.06.44s.79-.14,1.06-.44c.25-.27.49-.68.44-1.06-.17-1.33-.17-2.67,0-3.99l-.05.4c.03-.21.06-.41.1-.62.07-.41.06-.79-.15-1.16-.18-.31-.54-.61-.9-.69-.73-.17-1.7.22-1.85,1.05h0Z"/>
    <path class="cls-3" d="M113.47,71.73v3.83c0,.78.69,1.54,1.5,1.5s1.5-.66,1.5-1.5v-3.83c0-.78-.69-1.54-1.5-1.5s-1.5.66-1.5,1.5h0Z"/>
    <path class="cls-3" d="M134.61,70.38c-.4,1.89-.58,3.83-.46,5.76.05.78.66,1.54,1.5,1.5.77-.03,1.55-.66,1.5-1.5-.08-1.28-.03-2.56.14-3.83l-.05.4c.07-.51.16-1.02.27-1.53.16-.77-.23-1.66-1.05-1.85-.75-.17-1.67.23-1.85,1.05h0Z"/>
    <path class="cls-3" d="M152.74,71.54c-.21,1.65-.33,3.31-.34,4.98,0,.78.7,1.54,1.5,1.5s1.49-.66,1.5-1.5c.02-1.66.13-3.32.34-4.98.05-.35-.2-.82-.44-1.06-.26-.26-.69-.46-1.06-.44s-.79.14-1.06.44c-.29.31-.39.64-.44,1.06h0Z"/>
    <path class="cls-3" d="M173.63,70.97l-.59,5.36c-.04.36.2.82.44,1.06.26.26.69.46,1.06.44s.79-.14,1.06-.44c.29-.31.39-.64.44-1.06l.59-5.36c.04-.36-.2-.82-.44-1.06-.26-.26-.69-.46-1.06-.44s-.79.14-1.06.44c-.29.31-.39.64-.44,1.06h0Z"/>
    <path class="cls-3" d="M345.65,88.76c-.41,2.35-.53,4.72-.28,7.09.04.41.14.76.44,1.06.26.26.69.46,1.06.44.74-.03,1.59-.66,1.5-1.5-.12-1.09-.16-2.19-.13-3.29.02-.54.05-1.08.1-1.61.01-.13.03-.26.04-.39.01-.12.04-.39.01-.11.04-.3.09-.6.14-.89.14-.77-.21-1.65-1.05-1.85-.73-.17-1.7.22-1.85,1.05h0Z"/>
    <path class="cls-3" d="M416.85,89.14c-.33,1.74-.33,3.46-.02,5.2.06.35.39.72.69.9.32.19.8.27,1.16.15s.71-.34.9-.69c.2-.38.23-.74.15-1.16-.03-.17-.06-.34-.08-.5l.05.4c-.14-1.07-.15-2.15,0-3.23l-.05.4c.03-.23.07-.45.11-.67.08-.4.06-.79-.15-1.16-.18-.31-.54-.61-.9-.69-.74-.17-1.69.22-1.85,1.05h0Z"/>
    <path class="cls-3" d="M417.05,138.16c-.35,1.97-.45,3.96-.24,5.95.04.41.14.76.44,1.06.26.26.69.46,1.06.44.74-.03,1.59-.66,1.5-1.5-.1-.91-.13-1.82-.11-2.73.01-.45.04-.89.09-1.34.01-.11.02-.21.03-.32,0-.07.02-.14.03-.21l-.03.19c0-.24.08-.5.12-.74.07-.41.06-.79-.15-1.16-.18-.31-.54-.61-.9-.69-.73-.17-1.7.22-1.85,1.05h0Z"/>
    <path class="cls-3" d="M417.01,189.31c-.25,2.23-.29,4.47-.1,6.7.07.78.64,1.54,1.5,1.5.76-.03,1.57-.66,1.5-1.5-.19-2.23-.16-4.48.1-6.7.09-.78-.75-1.53-1.5-1.5-.89.04-1.4.66-1.5,1.5h0Z"/>
    <path class="cls-3" d="M417.16,239.67l-.19,4.6c-.03.78.71,1.54,1.5,1.5.84-.04,1.46-.66,1.5-1.5l.19-4.6c.03-.78-.71-1.54-1.5-1.5-.84.04-1.46.66-1.5,1.5h0Z"/>
    <path class="cls-3" d="M416.79,284.67c-.19,1.52-.26,3.06-.19,4.6.03.78.67,1.54,1.5,1.5.78-.04,1.54-.66,1.5-1.5-.07-1.53,0-3.07.19-4.6.04-.35-.2-.82-.44-1.06-.26-.26-.69-.46-1.06-.44s-.79.14-1.06.44l-.23.3c-.14.23-.2.49-.2.76h0Z"/>
    <path class="cls-3" d="M416.87,330.81c-.66,1.89-.92,3.95-.76,5.95.06.78.64,1.54,1.5,1.5.76-.03,1.57-.66,1.5-1.5-.04-.48-.06-.96-.05-1.43,0-.21.01-.41.03-.61,0-.14.02-.27.03-.41,0-.07,0-.26.03-.31-.03.21-.04.26-.02.14,0-.05.01-.1.02-.15.02-.12.04-.24.06-.35.04-.22.09-.44.14-.65.11-.47.25-.93.4-1.38.26-.74-.29-1.67-1.05-1.85-.84-.19-1.57.25-1.85,1.05h0Z"/>
    <path class="cls-3" d="M416.99,379.07c-.22,2.04-.22,4.09.01,6.12.05.41.14.76.44,1.06.26.26.69.46,1.06.44.74-.03,1.59-.66,1.5-1.5-.23-2.04-.23-4.09-.01-6.12.08-.78-.75-1.53-1.5-1.5-.89.04-1.41.66-1.5,1.5h0Z"/>
    <path class="cls-3" d="M527.92,249.8c-.31,2.1-.48,4.21-.45,6.33.01.78.68,1.54,1.5,1.5s1.51-.66,1.5-1.5c-.01-.97.01-1.95.07-2.92.03-.47.07-.93.12-1.4.02-.23.05-.46.08-.7,0-.04.07-.5.03-.26s.03-.22.04-.26c.06-.42.07-.78-.15-1.16-.18-.31-.54-.61-.9-.69-.71-.16-1.72.22-1.85,1.05h0Z"/>
    <path class="cls-3" d="M562.51,250.2c-.28,2.18-.22,4.35.1,6.52.05.35.4.73.69.9.32.19.8.27,1.16.15s.71-.34.9-.69c.2-.38.21-.73.15-1.16-.02-.17-.02-.16,0,.05,0-.06-.02-.12-.02-.18-.01-.12-.03-.23-.04-.35-.03-.25-.05-.51-.07-.76-.03-.49-.05-.98-.06-1.48,0-1,.06-2.01.19-3,.05-.35-.2-.82-.44-1.06-.26-.26-.69-.46-1.06-.44s-.79.14-1.06.44c-.29.31-.38.64-.44,1.06h0Z"/>
    <path class="cls-3" d="M598.11,250.77c-.09,2.24-.19,4.47-.28,6.71-.03.78.71,1.54,1.5,1.5.84-.04,1.46-.66,1.5-1.5.09-2.24.19-4.47.28-6.71.03-.78-.71-1.54-1.5-1.5-.84.04-1.46.66-1.5,1.5h0Z"/>
    <path class="cls-3" d="M532.66,295.78c-.23,1.91-.24,3.83-.01,5.74.05.41.14.76.44,1.06.26.26.69.46,1.06.44.73-.03,1.6-.67,1.5-1.5-.22-1.91-.22-3.83.01-5.74.04-.35-.2-.82-.44-1.06-.26-.26-.69-.46-1.06-.44s-.79.14-1.06.44c-.29.31-.39.64-.44,1.06h0Z"/>
    <path class="cls-3" d="M562.76,291.74c-.32,2.39-.32,4.73.01,7.11.05.34.4.73.69.9.32.19.8.27,1.16.15s.71-.34.9-.69c.2-.38.21-.73.15-1.16.05.37,0,0,0-.08-.02-.14-.03-.28-.05-.42-.02-.24-.04-.49-.06-.73-.03-.51-.05-1.01-.05-1.52s.01-.97.04-1.46c.02-.24.03-.49.06-.73.01-.14.03-.28.04-.42,0-.08.07-.53.01-.15.06-.42.07-.77-.15-1.16-.18-.31-.54-.61-.9-.69-.7-.16-1.73.22-1.85,1.05h0Z"/>
    <path class="cls-3" d="M598.2,292.5c-.31,2.1-.48,4.21-.45,6.33.01.78.68,1.54,1.5,1.5s1.51-.66,1.5-1.5c-.01-.97.01-1.95.07-2.92.03-.47.07-.93.12-1.4.02-.23.05-.46.08-.7,0-.04.07-.5.03-.26s.03-.22.04-.26c.06-.42.07-.78-.15-1.16-.18-.31-.54-.61-.9-.69-.71-.16-1.72.22-1.85,1.05h0Z"/>
    <path class="cls-3" d="M527.81,333.3l-.21,6.7c-.02.79.71,1.54,1.5,1.5.83-.04,1.47-.66,1.5-1.5l.21-6.7c.02-.79-.71-1.54-1.5-1.5-.83.04-1.47.66-1.5,1.5h0Z"/>
    <path class="cls-3" d="M563.08,335.22c-.28,2.31-.16,4.63.27,6.91.14.77,1.12,1.28,1.85,1.05.83-.27,1.2-1.02,1.05-1.85-.05-.27-.1-.54-.14-.81,0-.06-.02-.12-.03-.19.03.19.03.2,0,.02-.01-.12-.03-.25-.04-.37-.05-.52-.09-1.04-.11-1.57-.03-1.07.02-2.14.15-3.2.04-.36-.2-.82-.44-1.06-.26-.26-.69-.46-1.06-.44-.89.04-1.4.66-1.5,1.5h0Z"/>
    <path class="cls-3" d="M598.22,334.07c-.68,2.02-.95,4.21-.75,6.33.04.41.14.76.44,1.06.26.26.69.46,1.06.44.75-.03,1.58-.66,1.5-1.5-.09-.98-.09-1.97.03-2.95.01-.1,0-.42,0-.04,0-.12.04-.26.06-.38.04-.23.09-.47.14-.7.11-.5.25-.99.42-1.47.25-.74-.29-1.67-1.05-1.85-.83-.19-1.58.25-1.85,1.05h0Z"/>
    <path class="cls-3" d="M527.29,376.58c.12,1.85.24,3.7.36,5.55.05.78.65,1.54,1.5,1.5.77-.03,1.55-.66,1.5-1.5-.12-1.85-.24-3.7-.36-5.55-.05-.78-.65-1.54-1.5-1.5-.77.03-1.55.66-1.5,1.5h0Z"/>
    <path class="cls-3" d="M563.35,377.72c-.16.99-.27,1.98-.28,2.98s.08,1.99.21,2.99c.05.34.41.73.69.9.32.19.8.27,1.16.15s.71-.34.9-.69c.2-.38.21-.73.15-1.16v-.1c0,.13.02.27.04.4-.2-1.52-.19-3.06,0-4.58l-.05.4c.02-.16.05-.33.07-.49.07-.41.07-.78-.15-1.16-.18-.31-.54-.61-.9-.69-.72-.16-1.71.22-1.85,1.05h0Z"/>
    <path class="cls-3" d="M597.2,380.6c.13,1.66.27,3.32.4,4.98.03.4.15.77.44,1.06.26.26.69.46,1.06.44.76-.03,1.57-.66,1.5-1.5-.13-1.66-.27-3.32-.4-4.98-.03-.4-.15-.77-.44-1.06-.26-.26-.69-.46-1.06-.44-.76.03-1.57.66-1.5,1.5h0Z"/>
    <path class="cls-3" d="M416.38,423.88l-.2,6.51c-.02.79.71,1.54,1.5,1.5.83-.04,1.47-.66,1.5-1.5l.2-6.51c.02-.79-.71-1.54-1.5-1.5-.83.04-1.47.66-1.5,1.5h0Z"/>
    <path class="cls-3" d="M416.62,470.99c-.1,1.6-.05,3.2.15,4.79.05.41.13.76.44,1.06.26.26.69.46,1.06.44s.79-.14,1.06-.44c.25-.27.49-.68.44-1.06-.19-1.59-.24-3.19-.15-4.79.05-.78-.72-1.53-1.5-1.5-.85.04-1.45.66-1.5,1.5h0Z"/>
    <path class="cls-3" d="M417.39,523.65c-.25,2.16-.29,4.34-.12,6.51.06.78.65,1.54,1.5,1.5.76-.03,1.56-.66,1.5-1.5-.17-2.17-.13-4.35.12-6.51.09-.78-.75-1.53-1.5-1.5-.89.04-1.4.66-1.5,1.5h0Z"/>
    <path class="cls-3" d="M563.35,421c-.68,1.85-.79,3.84-.47,5.78.06.35.4.73.69.9.32.19.8.27,1.16.15s.71-.34.9-.69c.2-.38.22-.74.15-1.16-.02-.12-.04-.24-.05-.36l.05.4c-.11-.84-.11-1.68,0-2.52l-.05.4c.1-.72.27-1.42.52-2.1.13-.35.03-.85-.15-1.16s-.54-.61-.9-.69c-.85-.19-1.56.26-1.85,1.05h0Z"/>
    <path class="cls-3" d="M528.13,416.78c-.52,2.56-.54,5.13-.07,7.69.14.77,1.12,1.28,1.85,1.05.83-.27,1.2-1.02,1.05-1.85-.03-.15-.05-.3-.08-.45,0-.04-.06-.45-.04-.25s-.03-.28-.03-.32c-.01-.13-.03-.26-.04-.39-.04-.54-.06-1.09-.06-1.63s.04-1.09.09-1.63c.01-.12.02-.27.04-.39-.08.34,0-.04.02-.12.05-.3.1-.6.16-.9.16-.77-.22-1.66-1.05-1.85-.75-.17-1.68.23-1.85,1.05h0Z"/>
    <path class="cls-3" d="M597.56,422.16c-.2,1.72-.27,3.44-.19,5.17.03.78.67,1.54,1.5,1.5.78-.04,1.54-.66,1.5-1.5-.08-1.73-.01-3.45.19-5.17.04-.36-.2-.82-.44-1.06-.26-.26-.69-.46-1.06-.44s-.79.14-1.06.44c-.29.31-.39.64-.44,1.06h0Z"/>
    <path class="cls-3" d="M564.12,465.61c-.28,2.04-.43,4.08-.38,6.14.02.78.68,1.54,1.5,1.5s1.52-.66,1.5-1.5c-.02-.94,0-1.88.04-2.82.03-.45.06-.9.1-1.35.02-.22.04-.45.07-.67.02-.13.03-.26.05-.39.05-.41-.03.21.01-.11.06-.42.07-.78-.15-1.16-.18-.31-.54-.61-.9-.69-.38-.09-.81-.07-1.16.15-.3.2-.64.52-.69.9h0Z"/>
    <path class="cls-3" d="M598.68,465.81l-.2,5.94c-.03.79.71,1.54,1.5,1.5.84-.04,1.47-.66,1.5-1.5l.2-5.94c.03-.79-.71-1.54-1.5-1.5-.84.04-1.47.66-1.5,1.5h0Z"/>
  </g>
</svg>