<svg
  id="Layer_1"
  data-name="Layer 1"
  xmlns="http://www.w3.org/2000/svg"
  viewBox="0 0 912.7 486.9"
>
  <defs>
    <style>
      .cls-1 {
        fill: #4d4d4d;
      }
      .cls-1,
      .cls-2,
      .cls-3,
      .cls-4,
      .cls-5,
      .cls-6,
      .cls-7,
      .cls-8 {
        stroke-width: 0;
      }
      .cls-12,
      .cls-2 {
        fill: #666;
      }
      .cls-5 {
        fill: #1a1a1a;
      }
      .cls-12 {
        stroke-miterlimit: 10;
      }
      .cls-4 {
        fill: #29abe2;
      }
      .cls-6 {
        fill: red;
      }
      .cls-7 {
        fill: none;
      }
      .cls-8 {
        fill: gray;
      }
      .cls-12 {
        stroke: #666;
      }

      .truck__wheel{
        animation: wheel 1.5s infinite linear;
        transform-origin: center;
        transform-box: fill-box;
        }
        
        @keyframes wheel{
          from{
        transform: rotateZ(360deg);
          }
          to {
            transform: rotateZ(0);
          }
        }
    </style>
  </defs>
  <path
    class="cls-7"
    d="M0 379.3V0h654l-1 .4c-3 .9-6.1 1.5-9 2.5-5.1 1.7-9.7 4.3-13.8 7.6-2.8 2-2.8 2.3-1.7 5.5a209 209 0 0 0 11.7 26.8l1.2 2.4c-2.7.6-19.4.5-21.2 0v-2.4c-.2-7.5-4.3-11.5-11.9-11.6h-19a23 23 0 0 0-4.3.4c-4.3.8-6.6 4-6.1 8.4 0 1 .3 2.1.4 3.2-3.6.4-217 .2-218.8-.2 0-1.6.2-3.1 0-4.7-.4-4.7-3-7.3-7.7-7.7a26 26 0 0 0-3.3 0c-5 .1-10 .2-15 .7-3 .2-6 .7-8.8 1.6-5.7 1.8-8.6 6.2-8.5 12.1l-.2 1-1.4.1-12.8.2-15 .2c-2.3 0-2.6.4-2.7 2.7v2.3l-.1 62.3-.2 2.2-2.6.2c-5 0-10-.2-14.8-1-2-.4-2.4-.2-3 1.4-3.8 10.7 1.9 22.7 13.8 25 2 .3 4.2.3 6.3.5 1.7 5.8 3 47.3 1.5 52.6h-7.7c-1.1 0-1.7.6-1.7 1.8v36.6c0 2 1 3 3 3h5.5l1.7.3v7.5l-1 57.3c0 1.2.3 2.4.7 3.6.6 1.9.6 1.8 2.6 1.7 10.5-.6 21-1.4 31.6-1.7 7.9-.3 15.8-.2 23.8-.2l3.3.2v2.3c0 2.2-.2 4.4 0 6.6.3 2.5 1.7 3.7 4.3 3.8h18.4l2.3.1v19.2l-2.7.1h-56.3c-.8 0-1.6-.2-2.4-.4-1.8-.3-2.3 0-2.3 1.8v8.5l-.2 2c-3 .4-30.7.3-32.5-.2 0-.5-.3-1.1-.3-1.7-1-9.5-2.2-19-2.7-28.4-1.4-22.1-.4-44.2.6-66.3 1-22.3 2.3-44.6 1.7-67-.2-9.3-.9-18.6-1.4-28 0-.6 0-1.5-.5-2-2.4-2-4.6-4.5-8.1-4.8-1.5-.1-3-.4-4.4-.3l-24.8.2H230l.1-2.2c.4-3 .8-6.1 1-9.2.5-3.6-.7-5-4.4-5.3h-1l-13 .4c-3.8.2-5.5 1.7-6 5.6-.4 3.8-.6 7.6-.9 11.5v2.9l-2.3.3c-12.1 1.3-24.4 2.4-36.5 3.8-7.8 1-15.5 3-22.8 6a35.4 35.4 0 0 0-9.7 5.7 18.7 18.7 0 0 0-6.3 10 6 6 0 0 1-.7 1.7l-37.8 61.2c-3.4 5.5-7 11-10.3 16-1.8.5-3 .7-4.2 1.2a10875 10875 0 0 0-34.7 16c-4.4 2-8.9 4-13.2 6.3a16.2 16.2 0 0 0-9.3 12.5 121 121 0 0 0-1.3 12.9l-1 29.2c0 3.8 0 7.6 1.1 11.2.2.5.2 1 .3 1.6h-6c-5.8.4-9.5 4-10 9.7l-.1 5-1 15ZM657.4 0h255.3v213.3c-.2-.6-.4-1-.4-1.6-1.1-7-4.6-12.2-11.7-14.5-.2 0-.4-.3-.6-.4l.2-2c.1-2.2.4-4.5.4-6.7.1-5.9-2-11-5.9-15.3L880 156.6l-1.6-2 2.8-2.1c3.7-2.5 4.9-6 4.3-10.3a18 18 0 0 0-3.3-8c-3.3-4.6-7.1-8.8-11.2-12.7a9268.8 9268.8 0 0 0-32.4-30.3l-23.1-21.5a62 62 0 0 0-20.3-13.2c-5.2-2-9-1.2-12.7 3l-1.6 2-1.3 1.4-1.8-2.1-10.1-11.6c-.8-1-1.6-1.5-3-1.4l-5.9-.1-72.1-2-6.1-.3c-1.8-.1-3.1-1.1-4-2.6l-1.1-2.4-9.6-21.5-8.5-19Z"
  />
  <path
    class="cls-3"
    d="m657.4 0 8.5 19 9.6 21.4 1.1 2.4a4.8 4.8 0 0 0 4 2.6l6 .3 72.2 2c2 0 4 .2 6 0 1.3 0 2 .6 2.9 1.6l10.1 11.5 1.8 2.1 1.3-1.4 1.6-2c3.8-4.1 7.5-5 12.7-3a62 62 0 0 1 20.3 13.2l23.1 21.5 32.3 30.3c4.2 4 8 8 11.2 12.8 1.7 2.4 3 5 3.4 8 .6 4.1-.6 7.7-4.3 10.2l-2.8 2.2 1.6 2 14.7 16.2c4 4.3 6 9.3 5.9 15.2 0 2.3-.3 4.5-.4 6.8l-.2 1.9c.2.1.4.4.6.4 7 2.3 10.6 7.4 11.7 14.5 0 .6.2 1 .4 1.6v9.4c-.2.4-.4.9-.4 1.3-1 11.4-2 22.9-3.2 34.3l-3 27.9c-.9 6.6-2.3 13.2-4.2 19.6a14 14 0 0 1-10.8 10.4c-1.9.4-3.7 1.2-5.6 1.7-1.3.4-1.9 1.2-2 2.5l-2 15-.2 1.4c-.3 1.5-1 1.8-2.3 1.5-1-.2-2-.4-3-.4h-43.6l-4.3 7.5-13.1 23.7a20.8 20.8 0 0 0-3.1 8.4c-.1 1.1-.8 1.4-1.9 1.7-4 1-8 .6-12.1 1l-7.3.3H789c-4.8-.2-6.5-1.7-7.6-6.4-1.8-8.6-3.7-17.2-5.7-25.7l-2.9-11.7-.5-1.5-.8-.2c-4.5.3-7.2-2-8.9-6-.9-2-1.4-4-2-6.2a42 42 0 0 0-7-14.5c-3.5-4.4-3.6-4.4-9.1-4.4H742v46.5l2.1.1 20.3.1c1.4 0 2.8.3 4.2.5 2.4.4 4 2 4.7 4.2a79.8 79.8 0 0 1 3.8 36c-.4 4-1.5 5.4-5.4 6a164.7 164.7 0 0 1-35.8 1.4c-4-.3-7.8-1.3-10.7-4.5-.3-.4-1-.7-1.4-.7h-16a58.5 58.5 0 0 1-115.7.1h-76l-.4 1.3c-.6 6.4-4.4 10.3-10 12.8-3.8 1.6-7.8 2-11.8 2a9816.5 9816.5 0 0 1-65.8-.7c-19-.3-37.8-.5-56.7-1-3 0-5.9-.6-8.8-1.3a13 13 0 0 1-9.4-7.9c-.7-1.6-1.7-3.1-2.6-4.7-.4-.8-1.2-1-1.7-.4-1 1.1-2 1-3.3.9a760 760 0 0 0-51.4-.4c-8.3.2-16.6.7-25 1-1 .1-1.8.2-2.4-.8-.3-.4-1-.7-1.6-.7l-18 .4c-.4 0-.9 0-1.3.2a1.6 1.6 0 0 0-.8 2.6l1 .9 1.5.8c2 1.2 3.5 2.8 3 5.4a5.8 5.8 0 0 1-5 4.5 62 62 0 0 1-6.9.5l-40 1.2-20.1.7h-2.2c-3.8 0-7.3-.7-9.7-4.4l-.5 1.2a51.6 51.6 0 0 1-28.4 31 70.8 70.8 0 0 1-45.8 4.8 43 43 0 0 1-18.6-9.3 85.3 85.3 0 0 1-17.4-20 51.8 51.8 0 0 1-6-13.5l-.7-2H20.5c-4.7-.2-9.3-1.3-13.7-2.9-2.8-1-5.2-2.4-6.1-5.4 0-.3-.5-.4-.7-.7v-10.3l1-15v-5c.6-5.8 4.2-9.4 10-9.8h6l-.3-1.5c-1-3.7-1-7.5-1-11.3.3-9.7.5-19.4 1-29.2 0-4.3.5-8.6 1.2-12.9.9-5.7 4.1-10 9.3-12.5 4.4-2.2 8.8-4.2 13.2-6.2l34.7-16c1.2-.6 2.5-.8 4.2-1.3 3.3-5 6.9-10.4 10.3-16 12.7-20.3 25.2-40.8 37.8-61.2a6 6 0 0 0 .7-1.7c1-4 3.2-7.2 6.4-10 2.9-2.4 6.2-4.2 9.7-5.7 7.3-3 14.9-5 22.7-5.9 12.2-1.5 24.4-2.6 36.6-3.9l2.2-.3v-2.9c.3-3.8.5-7.7 1-11.5.5-3.9 2.1-5.4 6-5.6 4.3-.2 8.6-.2 13-.3h.9c3.7.2 5 1.6 4.5 5.3l-1 9.1-.2 2.3h6.5l24.8-.3c1.5 0 3 .2 4.4.3 3.5.4 5.8 2.8 8.1 5 .4.3.5 1.2.5 2 .6 9.3 1.2 18.6 1.5 28 .5 22.3-.8 44.6-1.8 66.9-1 22-2 44.1-.6 66.2.6 9.5 1.8 19 2.7 28.4 0 .6.3 1.2.4 1.8 1.8.5 29.4.6 32.4.1l.2-2v-8.4c0-1.9.5-2.2 2.4-1.8.7.1 1.5.3 2.3.3h59v-19.2l-2.3-.2H352c-2.5 0-4-1.3-4.2-3.8-.2-2.2-.1-4.4-.2-6.6l.2-2.3-3.4-.1c-8 0-15.9-.2-23.8.1-10.5.4-21 1.1-31.6 1.7-2 .1-2 .2-2.6-1.7a12 12 0 0 1-.7-3.6l1-57.3v-7.5l-1.7-.2h-5.4c-2 0-3-1-3-3v-36.7c0-1.1.5-1.7 1.7-1.7h7.6c1.5-5.4.2-46.9-1.5-52.6-2-.2-4.2-.3-6.2-.6-12-2.3-17.6-14.2-13.9-25 .6-1.5 1-1.8 3-1.4 4.9.9 9.8 1.1 14.8 1l2.7-.1v-2.2l.2-62.3v-2.4c.2-2.3.4-2.6 2.7-2.6l15-.3 12.8-.1 1.5-.2.1-.9c0-6 2.8-10.3 8.5-12.2a40 40 0 0 1 8.8-1.6c5-.4 10-.5 15-.7h3.3c4.7.5 7.3 3.1 7.7 7.8.2 1.5 0 3 0 4.6 1.8.5 215.2.7 218.9.2l-.5-3.2c-.5-4.3 1.8-7.5 6.1-8.3 1.4-.3 2.8-.4 4.3-.4h19c7.6 0 11.7 4 12 11.6v2.3c1.7.5 18.4.6 21.1 0l-1.2-2.4A209 209 0 0 1 628.5 16c-1.2-3.2-1.1-3.4 1.6-5.5 4.2-3.3 8.7-5.9 13.8-7.6 3-1 6-1.6 9-2.4L654 0h3.3ZM137.8 259c-3.6 1-7 .6-10.1-1.3l-1.7-.8c-1.1-.5-1.8-.1-2 1-.2 1.4.6 2.6 2.2 3.3 3.2 1.5 8.8.4 11.6-2.2 2.7-1 4.2-3.3 5.5-5.7l1.9-3.4c-1.6-1.7-3-1.8-4.1 0a9 9 0 0 0-1.3 3.8c-.2 2-.7 3.8-2 5.3ZM631.1 13.7l.8 2.4c4 10.4 8 20.8 14.1 30.2.6.9.4 1.9-.2 2.6-.6.7-1.3.6-2.1.2-.7-.3-1.7-.5-2.5-.5h-21c-3.2 0-3.1 0-3-3.3 0-1.7 0-3.3-.4-5-.8-3.8-3.1-5.8-7.1-6h-22.4c-4.5.3-6.3 2.8-5 7.2l.8 2.5c.2.4.5.9.5 1.3 0 .6-.2 1.4-.6 1.8-.6.6-1.4.5-1.9-.2-.4-.7-1-.6-1.6-.6H366.7c-2.6 0-5.2.3-7.7.4-2 0-2.9-1.2-2-3a9 9 0 0 0 .1-6.9 4.4 4.4 0 0 0-3.3-3c-1-.2-2-.4-3-.3a668.2 668.2 0 0 0-21 1.4c-2.4.4-4.6 1.2-6.4 2.7-2.8 2.3-3.7 5.5-2.5 8.4 1 2.4.5 3-2 3l-28 .5-2.5.1-.1 2.5-.2 41.5-.1 22.8c0 2.3-.2 2.6-2.4 2.7h-11.3c-2.3-.1-4.7-.5-7-.8l-.5 1a15.5 15.5 0 0 0 18.1 19.2c2.3-.4 2.8-.1 3 2.2a433 433 0 0 1 1.5 55.8c-.2 1.8-1.2 2.6-2.5 1.9-2.3-1.4-4.6-.4-7-.7V233l1.2.2h7c1.7.1 2 .5 2 2v2.6l-1.3 63v2.5h2.2c10.2-.5 20.4-1.3 30.6-1.6 8.3-.3 16.5 0 24.8 0 1 0 2.1.2 3-1 .4-.8 1.5-.8 2 0 .7 1.1 1.8 1 2.9 1h100.5c.6 0 1.2 0 1.9-.2 1.3-.1 2.6-.5 3.8-.5h83.1c2 0 4 .4 6-.7h1c1.3 1 2.8.6 4.3.6h193.5c1.5 0 2.7.5 3.8 1.4 1 .9 1.9 1.7 2.7 2.7 4 4.5 6.6 9.8 8.3 15.5l1.8 6c.5 1.2 1 2.4 1.8 3.3 1.3 1.7 3 2.9 5.3 2.1.5-.2 1.3.2 2 .5 1 .5 1.3 1.6 1.6 2.7l6.7 28c1 3.7 1.6 7.5 2.5 11.2.5 2.4 1.5 3.1 4 3.2h2l13.7-.7 3.7-.2c1.5-3.4 2.7-6.5 4.3-9.4 3.3-6.2 6.8-12.3 10.2-18.5l7.2-13c1-1.7 1-1.6 2.8-1.2.6.2 1.2.3 1.9.3h41.7l2-.2.3-1.3 3.4-25.5 4.6-33.1 4.4-33.7 4.5-33.6c0-.6-.3-1.3-.4-2 0-.7 0-1.3.2-2 .3-.8.8-1.6 1-2.5.4-3.1.8-6.2 1-9.4a21 21 0 0 0-5.8-17.5l-1.4-1.6-21.3-23.3c-.4-.4-1-.8-1-1.3-.6-1.8-2-2.8-3.2-4l-6.8-6.5-57.3-51c-7.2-6.4-14.5-12.8-21.4-19.5-4.6-4.4-8.6-9.4-12.8-14.2a4 4 0 0 0-3.4-1.7l-25.2-.6-47.4-1.3-9.4-.3c-3-.2-5.3-1.5-6.8-4-.7-1.2-1.3-2.4-1.8-3.7L657.9 8.4l-2.4-5.2a46.7 46.7 0 0 0-24.4 10.5ZM21.3 350h3.5l25.3.7c1.6 0 2.5-.5 3.5-1.7a99 99 0 0 1 6.4-8.2c15.7-17.1 35-24 58-19.5 15.8 3 28.5 12 38.4 24.7 9.4 12 14.6 25.9 16.8 41l.7 4.9h1.8c8-.4 15.8-.8 23.8-1l44.6-.7c.6 0 1.3-.2 1.8.1 1.6 1 3.2.6 4.8.6a1071.5 1071.5 0 0 0 20.3-.7c2.4-.2 3.8-1.7 4.5-3.9.3-.9.5-1.8.5-2.7v-14.4c-.3-4.9-.8-9.7-2.2-14.5-.6-1.9-1.5-3.8-.6-5.9.1-.3 0-.8-.1-1.2l-1.7-13c-1.3-12.9-2-25.8-1.8-38.7.2-13.7.7-27.5 1.2-41.2.5-15.3 1.3-30.6 1.8-46a478.2 478.2 0 0 0-1.1-47.6c-.7-5.6-2.7-7.4-8.3-8-1.5 0-3.1-.2-4.7-.1l-13.9.2h-15.1c-.4 1.8-1.4 2.1-2.8 2.1-3.9 0-7.7.1-11.6.3-1.5 0-3 .1-4.4.6-2 .6-4 .8-6 1l-27.7 2.6c-8.5.9-17 2.3-25.2 4.8a48.4 48.4 0 0 0-13.7 6.1c-2.6 1.9-4.9 4-6.2 7l-.8 3 1.9.1 75.5-.2c7.7 0 12.7 3.8 15.7 10.7 1.8 4 2.1 8.2 2 12.4l-.1 5.5c0 1.3.4 2.6.2 3.9-1.5 8.2-1 16.4 1 24.5.7 3 1.1 6 1.3 9.1.6 8.3-3.5 13.7-11.6 15.6a27 27 0 0 1-5.3.8c-8.7.2-17.5.5-26.2.4-12.7-.1-25.4-1-38.1-2.2-2-.2-3.4-.7-3.5-2.9l-.4.1c-.4.5-.9 1-1.4 1.3-4 3.8-9 5.5-14.5 4.8-1.5-.2-3.2-.9-4.5-1.8a5.4 5.4 0 0 1-1.2-7.7c1-1.5 2.6-2 4.3-1.9l.3-.7c2-4.6 3.3-9.5 6-13.8v-1.2l-1-5.1-1 1.8-10.2 21.5-3 6.2c-.8 1.7-1.3 1.7-2.8.7a3 3 0 0 0-1.6-.6l-30.7.5c-1.2 0-2.1.3-2.7 1.4-.3.6-.7 1.3-1.2 1.7-.5.3-1.4.4-2 .3-.7-.2-1-1-.6-1.8l.6-1.3-2.5 1-10.9 5c-10.8 5-21.6 10.2-32.5 15-6.6 3-9.8 8.2-10.2 15.2v1c-.4 8.2-.8 16.4-1 24.7a506 506 0 0 0-.3 17c0 3 .4 6 2.4 8.4Zm701.1 40.1V359c0-5.2 2.7-8.1 8-8.5h6l2.4-.1c.4-4.7.3-44.7-.2-46.4H551.5v43.3c-.1 3-1.4 4.2-4.1 4.1h-33.7l.8 1.7a19 19 0 0 1 2.7 8.4c.2 2.7.3 5.4.2 8-.1 6.2-.4 12.3-.7 18.4v2.3c4.4.5 73.3.3 75-.3a57.9 57.9 0 0 1 14.3-44.4 56.6 56.6 0 0 1 42.3-20 56.3 56.3 0 0 1 41 15.1 58.3 58.3 0 0 1 19.1 49.6h14Zm-289.9 15.6v.2h14.2l30.2.4 17.7.2a25 25 0 0 0 9.9-1.8c3.5-1.5 6.4-3.8 7.6-7.5.8-2.3 1.2-4.7 1.4-7.1.4-5.7.6-11.5.8-17.2v-9.7a16 16 0 0 0-3-9.5c-2-2.5-4-4.8-6.3-7a8 8 0 0 0-6.1-2.4h-5.5c-11 .3-22 .8-33 .9H367c-.8 0-1.6.2-2.3 0-1.3-.5-2.3 0-3.4.4-5.5 2-8.4 6-8.8 12-.3 3.8-1 7.7-1.3 11.6-.3 3.6-.6 7.2-.7 10.9 0 3.5.8 7 2.2 10.3.8 2 2.2 4 3 6 1.5 4 4.4 6.3 8.3 7.4 3.8 1 7.6 1.2 11.5 1.3l57 .6Zm23.2-101H350.8c0 2.6-.2 5-.1 7.4 0 2 .4 2.2 2.3 2.2H367l4.3-.1c3.2 0 4.5 1.4 4.6 4.6v18.2c0 2.5-.4 3-2.8 3l-58-.2H312v8.5c0 2.4-.9 3.4-3.3 3.6h-32c0 .4-.2.5-.2.7l1 3.9a94.4 94.4 0 0 1 1.6 22c0 4.5.3 9-3 13h5.3c21-1 42-1 63 0 1.9 0 3.5-.2 4.7-1.9-1.6-5.4-2.1-11-1.4-16.7.8-5.6 1.4-11.2 2-16.9.4-4.9 2.6-8.6 6.8-11.2 3-2 6.3-3 9.8-4 .4 0 1.3 0 1.5.3.9 1.3 2.1 1 3.4 1h60.4c12 0 24.2.2 36.3 0 8.2 0 16.5-.4 24.8-.7l1.3-.2V338l-.9-.2h-57.5c-.8 0-1.4 0-1.9.8-.6.8-1.6 1-2.2.2-.8-.8-1.4-1.9-1-3.2.2-1.1.4-2.3.4-3.4v-15.6c0-1.9.8-2.3 2.6-1.8a8 8 0 0 0 2.3.4h18.1l1.8-.2v-10.1Zm-285 87.2a82.2 82.2 0 0 0-2.8-15.7c-4-15-11.4-28.1-23.4-38.2a57.1 57.1 0 0 0-51.6-13.5 60 60 0 0 0-37.3 27c2.2 1.8 2.7 4.2 3 6.7l1.7 16.2c.3 4 .8 7.9 1 11.8 0 2.2-.6 4.5-1.2 6.7a7.8 7.8 0 0 1-5.6 5.3l-2 .7c1.2 3 2.2 5.8 3.5 8.4 4.3 9 10.7 16.5 18 23a41.8 41.8 0 0 0 18.3 10c7.4 1.8 15 2 22.5 1.3 9.5-1 18.5-3.6 26.7-8.5a47.2 47.2 0 0 0 23.4-32.7l.6-5.4c.3-2 .9-2.5 2.9-2.7l2.2-.4Zm-30.2-172.6h7.9c6.4.4 10.3 4 11.2 10.3.3 2 .3 4 .2 5.9l-1.6 18c-.2 2.1-.4 4.1-2.9 5.3 18.3 1.7 36.1 2 54 1.4 2.6 0 5.2-.5 7.7-1.1 6-1.5 8.8-5.3 8.6-11.5 0-3-.6-6-1.2-8.8A64.4 64.4 0 0 1 223 214v-1.9l-.2-2.7c0-3 .4-6.2.2-9.2-.1-4-1.2-7.8-3.6-11-2.2-3.1-5-5.2-9-5.4l-9.4-.1-42.9.1h-2c1 2 1 2-.1 4-3.9 7.3-7.7 14.5-11.4 22-1.6 3-2.8 6.2-4.2 9.5Zm509.7 109.1a55.5 55.5 0 1 0-.2 111 55.5 55.5 0 0 0 .2-111Zm-102-24.6h-85.5c-4 0-3.9-.6-3.9 4v8c0 2-.3 2.3-2.4 2.3h-19.8l-2.4.2a83 83 0 0 0 .3 16.3h61.4c1.8.1 2.4.8 1.7 2.4a7.7 7.7 0 0 0-.2 4l3.3.4c2.2.1 4.2 1 5.8 2.4 1 .8 2 1.8 2.9 2.8a4 4 0 0 0 3.4 1.5h33.3l2.1-.1v-44.3ZM4 373.9h-.2l-.4 13c0 3.3.7 4.5 3.9 5.7a49 49 0 0 0 25.5 2.8c6.3 0 12.5.3 18.8.2 4-.1 6-2.3 6.4-6.2.2-1.5.3-3 .1-4.5l-2.5-26.5c-.1-1-.4-1.9-.7-2.7-.2-.5-.8-1.2-1.3-1.3-1.3-.3-2.7-.5-4-.6l-15.2-.4-10.1-.1-10.2-.8h-1.2c-6.6.2-9 3.1-9 8.7V374Zm146.6-189.8-2.3-.1h-16.7c-1.6 0-2.4.4-3.2 1.7a1899.4 1899.4 0 0 1-44.7 72l-1 1.6 1.1.2 30-.5c1.3 0 2-.6 2.4-1.8L121 247c3.3-7.4 7.4-14.4 10-22 .1-.5.5-.9.7-1.3l1.9-3.3 16-34 1-2.3ZM748 353.6h-15.3c-1 0-2.2 0-3.3.3-2 .3-3.2 1.5-3.6 3.5a13 13 0 0 0-.3 2.5v24c0 1.9.2 3.6.8 5.3a7.6 7.6 0 0 0 5 5.3c2 .6 4 1.1 6.1 1.2 11.1.5 22.2 0 33.2-1.3 2.8-.3 3.2-.8 3.7-3.6l.1-1.2a73.5 73.5 0 0 0-4-33.4c-.4-1.3-1.3-2.3-3-1.8h-.9c-1.2-1-2.7-.8-4-.8h-14.5Zm125-206.2 3-2.5c1.2-1 1.8-2.5 1-4-.8-1.7-1.8-3.3-2.9-4.8-5.6-7.2-12.5-13.2-19-19.6l-8.7-8c-5.7-5.3-11.3-11-17.3-16-9.5-8-19.3-15.8-29-23.6a18 18 0 0 0-3.4-2.2 8.3 8.3 0 0 0-5.5-.8c-2.2.4-3.1 2-4.4 3.6l1.3 1.2 39.3 35 39.7 35.9 6 5.8Zm25.8 59.4-13.2 99.3-.2 2 .1.3.3.2a8 8 0 0 0 6-4.7 31 31 0 0 0 2.5-7.3c1.2-6.1 2.3-12.2 3.2-18.4A972.2 972.2 0 0 0 903 229c.4-4.7 1-9.3.2-14-.5-3-1.4-5.9-4.5-8ZM184.1 394.5c-1.2.2-2.6.1-3.3.8-1.5 1.4-3 1.8-5 2-2 .2-4 .8-5.2 2.6-1.2 1.5-1.7 3.2-.9 5 .8 1.9 2.3 2.6 4.1 2.7h4.3l64.8-1.8c1 0 1.9-.2 2.7-.5 1-.3 2-1 2-2 0-.8-.9-1.5-1.5-2s-1.4-.8-2-1.2c-1.8-1.3-2.8-3-2.5-5.3l.3-1.4h-4.2l-3.9.1c-.1 3.8-1.4 5-4.9 5.3h-39.3c-3.4 0-4.4-.8-5.5-4.3ZM129 254.9c1 .4 1.7 1 2.5 1.1 4.3 1.2 5.2.5 5.4-3.4 0-1 .4-2.3 1-3.3a9.4 9.4 0 0 1 2.8-3c3-1.9 6.8-.2 7.6 3.2.3 1.3.2 2.5-.9 3.4-1.3 1.1-1.7 2.7-2.6 4.5l10-1.8.3-1 1.6-20.2a23 23 0 0 0 0-4.2c-.6-4-3-6.7-6.6-7.4a29 29 0 0 0-13.3 1c-1.1.3-1.8 1-2.4 2-1 1.9-1 3.7-.2 5.5 1.9 3.6 1.9 7.4 1.2 11.3-.6 3.8-1 7.7-1.4 11.5-.1 1-.6 1.7-1.7 1.6-1-.2-1.4-.9-1.3-2l.4-4.3a4 4 0 0 1-.3 0l-2.1 5.5Zm770-51.5c5.5 3.2 7.4 8 7.6 13.8v1l-.3 8.2a626.5 626.5 0 0 1-6.5 56.1c-1 6.3-2.1 12.6-3.6 18.8-1.5 5.8-5 9.8-11.4 10.7-.3 1-.7 1.8-.1 2.8l6.1-1.7c4.3-1.2 7-3.9 8-8.1 1-3.3 1.8-6.5 2.5-9.8 2.9-13.9 3.7-28 5.2-42l1.7-17.2 1.5-15.7c.3-3.8 0-7.5-1.3-11.2-.8-2.5-2.1-4.9-4.2-6.6a8 8 0 0 0-4.7-2.2l-.4 3.1Zm-114.4-136a8.2 8.2 0 0 1 6-4.6c2.5-.4 5-.1 7.3 1.2 1.8 1 3.6 2.2 5.2 3.5 7 5.5 13.7 11 20.6 16.6 2.8 2.3 5.8 4.5 8.5 7l31.5 29.5c4.9 4.5 9.5 9.4 13.5 14.7 1 1.3 1.9 2.8 2.5 4.3 1.3 3.1.4 5.8-2.1 8-.6.5-1.2.9-1.6 1.4-1 1-1 1.7.1 3.2l3.3-2.2a6 6 0 0 0 3-5c.3-2.2-.1-4.4-1.3-6.3-1.3-2.2-2.6-4.4-4.2-6.2-2.9-3.4-5.9-6.6-9-9.6a4814.3 4814.3 0 0 0-57.7-53.7 52 52 0 0 0-16.2-9.8c-3.8-1.5-6.3-1-9 2l-3 3.7 2.6 2.3Zm-556.3 69.3H220c-2.4 0-4.7 0-7 .3-2.4.2-3.2 1-3.4 3.2-.4 4-.5 8.2-.8 12.2l.2.6 17.5-.8 1.8-15.4Zm-40.6 258.4c1 .7 2.1.6 3.2.6a42864.8 42864.8 0 0 0 38.4 0c1.4-.3 1.5-.5 1-2.3-14 0-28 .4-42 1.1l-.6.6Zm-17.3.7c-1.7-.7-1.7-.6-1.7 1.2l1.7-1.2Z"
  />
  <path
    d="M631.1 13.7a46.8 46.8 0 0 1 24.4-10.5l2.4 5.3L672.4 41c.5 1.2 1.1 2.4 1.8 3.5a7.9 7.9 0 0 0 6.8 4l9.4.4 47.4 1.3 25.2.7c1.5 0 2.4.5 3.4 1.6 4.2 4.8 8.2 9.8 12.8 14.2 6.9 6.7 14.2 13 21.4 19.5l57.3 51c2.3 2 4.6 4.3 6.8 6.5 1.2 1.2 2.6 2.2 3.1 4 .2.5.7.9 1 1.3l21.4 23.3 1.4 1.6a21 21 0 0 1 5.9 17.5l-1.1 9.4c-.2.9-.7 1.7-1 2.5a6 6 0 0 0-.2 2c0 .7.4 1.4.3 2l-4.4 33.6-4.4 33.7-4.6 33.1-3.4 25.5-.2 1.3-2 .2a29065 29065 0 0 1-43.7-.2c-1.8-.5-1.8-.6-2.8 1.1l-7.2 13c-3.4 6.2-7 12.3-10.2 18.6-1.6 2.9-2.8 6-4.3 9.3l-3.7.2-13.7.8h-2c-2.6-.2-3.5-.9-4-3.3-1-3.7-1.6-7.5-2.5-11.2l-6.7-28c-.3-1.1-.6-2.2-1.7-2.7-.6-.3-1.4-.6-2-.5-2.3.8-3.9-.4-5.2-2a12 12 0 0 1-1.8-3.3c-.7-2-1.2-4-1.8-6.1a39.8 39.8 0 0 0-11-18.1c-1-1-2.3-1.6-3.9-1.5H555c-1.5 0-3 .3-4.4-.5-.2-.2-.7-.2-.9 0-2 1-4 .5-6 .5h-83c-1.4 0-2.7.5-4 .6l-1.8.2H354.3c-1.1 0-2.2.1-3-1-.4-.8-1.5-.7-2 0-.8 1.2-1.9 1-3 1-8.2 0-16.5-.2-24.7 0-10.2.4-20.4 1-30.6 1.6h-2.2v-2.5l1.3-63v-2.6c0-1.5-.3-1.9-2-2h-7c-.4 0-.8 0-1.3-.2v-35.2c2.4.3 4.8-.7 7.1.7 1.3.8 2.3 0 2.4-1.8l.5-10.4c.2-13.7-.7-27.5-1.7-41.2l-.3-4.2c-.2-2.4-.7-2.7-3-2.3a15.5 15.5 0 0 1-18-19.2c0-.3.3-.6.5-1 2.3.3 4.6.7 7 .8h11.3c2.2 0 2.3-.4 2.4-2.6l.1-23 .1-41.4.2-2.4 2.4-.2 28.1-.4c2.5 0 2.9-.7 2-3-1.2-3-.3-6.2 2.4-8.4 2-1.6 4.1-2.4 6.5-2.8l6.8-.7 14.1-.7 3 .3c1.7.3 2.8 1.4 3.4 3a9 9 0 0 1-.2 7c-.8 1.8 0 3 2 2.9l7.8-.3H579.5c.7-.1 1.2-.2 1.6.5.5.7 1.3.8 1.9.2.4-.4.5-1.2.6-1.8 0-.4-.3-.9-.5-1.3l-.9-2.5c-1.2-4.4.6-7 5-7.1h22.5c4 .1 6.3 2.1 7 6 .4 1.6.4 3.2.4 4.9 0 3.3-.1 3.3 3.1 3.3h21c.8 0 1.7.2 2.5.5.8.4 1.5.5 2-.2.7-.7.9-1.7.3-2.6-6.2-9.4-10.2-19.8-14.1-30.2l-.8-2.4ZM821.6 313c3.6.2 6.8.4 10.1.4l25.5.3c1.6 0 2.3-.5 2.8-2l.3-1.6 12.5-66.8c2.2-11.7 3.9-23.4 3.7-35.3-.1-9.2-1.5-18-4.8-26.6-.8-2-1.3-4-3.6-5-.3 0-.6-.4-.8-.7l-22.2-22c-27.8-27.3-56-54.2-84.4-81a10.5 10.5 0 0 0-8-3h-59.2c-3.8 0-4.2.7-3 4.1l22.6 60.8 40.6 109.6 18.2 50c1 2.5 2.1 5 3.5 7.5 2.3 4.2 5.9 7 10.6 8.3 3.8 1.1 7.7 1.6 11.6 1.8 5 .3 10 .3 15 .5l5.4.5 1.5 3.4c.6 1.2 1.5 1.7 2.4 1.2 1-.5.8-1.4.5-2.2l-.8-2.2ZM473.8 175v101.5q0 4 4 4H534c4 0 8.1.8 12-.5h.5c2.6.5 2.7.4 2.7-2.1V72.5c0-1.6-1-2.6-2.6-2.8h-68.7q-4 0-4 4.2V175Zm163.6 2V76c0-2.9-1.5-4.1-4-4.1h-65.9c-2.8 0-4 1.6-4 4.1v199.8c0 1 0 2-.3 2.8-.6 2.2-.3 2.6 2 2.7h68q4.2 0 4.2-4.1V176.9Zm-266.6.6V75.9l-.1-2.8c-.2-1.5-.4-1.8-1.9-1.8h-53.6c-.5 0-1-.1-1.6 0-.4 0-1 .2-1.2.5-.8 1.8-2 3.3-2 5.7l.1 201c0 3.7-1.1 4.4 4.3 4.4H368c2.5.8 2.8.6 2.9-2V177.6Zm16.5-1v100.8q0 3.9 4 3.9h66.2c.8 0 1.4-.4 2-1 1.5-1 1.6-2.4 1.6-4V73.9c-.2-2.5-1.3-3.5-3.7-3.5H391c-2.6 0-3.6 1-3.8 3.4v102.9Zm265 1.3v97.6c0 1.1.4 2.4-1 3.2-.3.3-.4 1.3-.2 1.7.2.4 1 .7 1.5.8.5.2 1 0 1.6 0h75.5c1.5-.1 2-.9 1.5-2.2-.4-1-1-2-1.3-3l-13.1-35.4L657.3 80l-1-2.2c-.3-.8-2-1.5-2.7-1.3-1.2.3-1.3 1.2-1.3 2.2V177.9Z"
    style="stroke-miterlimit: 10; fill: #1a1a1a; stroke: #1a1a1a"
  />
  <path
    d="M21.3 350.1c-2-2.4-2.4-5.3-2.4-8.4 0-5.6 0-11.3.2-17l1-24.7.1-1c.4-7 3.6-12 10.2-15l32.5-15c3.7-1.8 7.3-3.5 11-5.1l2.4-1-.6 1.3c-.3.8 0 1.5.7 1.7.5.2 1.4.1 1.9-.2.5-.4.9-1.1 1.2-1.7.6-1.2 1.5-1.4 2.7-1.5 10.2 0 20.4-.3 30.7-.4.5 0 1.1.3 1.6.6 1.5 1 2 1 2.9-.8l3-6.1 10.1-21.6 1-1.7 1 5.1v1.1c-2.7 4.4-4 9.3-6 13.9l-.3.7c-1.7 0-3.2.4-4.3 1.9a5.4 5.4 0 0 0 1.2 7.7c1.3 1 3 1.5 4.5 1.7 5.6.8 10.4-1 14.5-4.7l1.4-1.3.4-.1c.1 2.2 1.6 2.7 3.5 2.8 12.7 1.3 25.4 2.1 38.1 2.3 8.7 0 17.5-.2 26.2-.4 1.8 0 3.6-.4 5.3-.8 8.1-2 12.2-7.3 11.6-15.6-.2-3-.6-6.1-1.3-9-2-8.2-2.4-16.4-1-24.7.2-1.2-.3-2.6-.2-3.9l.2-5.4c0-4.3-.3-8.5-2-12.5-3-6.8-8.1-10.6-15.8-10.6l-75.5.2-2-.2 1-3c1.2-2.9 3.5-5 6-6.9 4.3-2.9 9-4.7 13.8-6.2 8.2-2.5 16.7-3.9 25.2-4.7 9.2-1 18.5-1.8 27.7-2.7 2-.1 4-.4 6-1 1.4-.4 3-.5 4.4-.5 3.9-.2 7.7-.3 11.6-.3 1.4 0 2.4-.4 2.8-2.1h15.1l14-.3c1.5 0 3 0 4.6.2 5.6.5 7.6 2.4 8.3 8a478.2 478.2 0 0 1 1 47.6c-.4 15.3-1.2 30.6-1.7 46-.5 13.7-1 27.5-1.2 41.2a341 341 0 0 0 1.8 38.6l1.7 13.1c0 .4.2.9 0 1.2-.8 2 .2 4 .7 6 1.4 4.6 2 9.5 2.1 14.3.2 4.8.1 9.6.1 14.4 0 1-.2 2-.5 2.8-.7 2.2-2 3.7-4.5 3.9l-6.3.3-14 .4c-1.6 0-3.2.3-4.8-.6-.5-.3-1.2-.2-1.8-.1-14.9.2-29.8.3-44.6.7-8 .2-15.9.6-23.8 1h-1.8l-.7-5c-2.2-15-7.3-29-16.8-41a63.9 63.9 0 0 0-38.5-24.6 58.8 58.8 0 0 0-57.8 19.5 99 99 0 0 0-6.5 8.1c-1 1.3-2 1.8-3.5 1.8l-25.3-.7h-3.5Z"
    style="fill: #006837; stroke-width: 0"
  />
  <path
    class="cls-1"
    d="M722.4 390.2h-14a58.3 58.3 0 0 0-19.1-49.6 56.3 56.3 0 0 0-41-15c-17 .5-31.1 7.2-42.3 19.9a57.9 57.9 0 0 0-14.3 44.4c-1.7.6-70.6.8-75 .3v-2.3l.7-18.4c0-2.6 0-5.3-.2-8a19 19 0 0 0-2.7-8.4l-.8-1.8h2.8l30.9.1c2.7 0 4-1 4-4.1.2-5.1 0-10.2 0-15.3v-28h187.2c.4 1.7.6 41.7.2 46.4h-2.5l-5.9.1c-5.3.4-8 3.2-8 8.5V390.2Z"
  />
  <path
    class="cls-2"
    d="m432.6 405.8-57.1-.6c-3.9 0-7.7-.3-11.5-1.3-4-1-6.8-3.3-8.3-7.3-.8-2-2.2-4-3-6a26.9 26.9 0 0 1-2.1-10.4c0-3.6.3-7.2.6-10.8.4-4 1-7.8 1.3-11.7.4-6 3.3-9.9 8.8-12 1.1-.4 2.1-.8 3.4-.4.7.2 1.6 0 2.3 0h93.5c11 0 22-.5 33-.8l5.4-.1a8 8 0 0 1 6.2 2.4c2.1 2.3 4.3 4.6 6.2 7 2.1 2.8 3 6.1 3 9.6v9.6c-.2 5.8-.4 11.5-.8 17.2-.2 2.4-.6 4.8-1.4 7.1-1.2 3.7-4 6-7.6 7.5a25.1 25.1 0 0 1-10 1.8c-5.8 0-11.7 0-17.6-.2l-30.2-.3h-14.1v-.3Z"
  />
  <path
    class="cls-1"
    d="M455.7 304.9v10l-1.8.3h-18.2a8 8 0 0 1-2.3-.4c-1.7-.6-2.5-.1-2.5 1.8v15.6c0 1.1-.3 2.3-.5 3.4-.3 1.3.3 2.3 1 3.2.7.8 1.7.6 2.3-.2.5-.7 1.1-.8 1.8-.8h57.6l.8.2v3.2c-.4.1-.8.3-1.3.3-8.2.3-16.5.7-24.7.8l-36.4-.1h-60.4c-1.2 0-2.5.3-3.4-1-.2-.3-1-.4-1.5-.3a34 34 0 0 0-9.8 4 14.2 14.2 0 0 0-6.8 11.2c-.5 5.6-1.2 11.3-2 16.9-.7 5.7-.1 11.2 1.5 16.7-1.3 1.6-2.9 1.9-4.8 1.8-21-1-42-1-63 0h-5.2c3.3-4 2.9-8.5 3-12.9 0-7.4 0-14.8-1.7-22l-1-4 .3-.6h31.9c2.5-.2 3.4-1.2 3.4-3.6v-8.5h3.1l58 .1c2.5 0 2.9-.4 2.9-3V319c-.2-3.3-1.4-4.5-4.7-4.6H353c-1.9 0-2.2-.2-2.3-2l.2-7.5h104.8Z"
  />
  <path
    class="cls-5"
    d="m170.6 392-2.2.4c-2 .2-2.6.7-2.9 2.7l-.6 5.4a47.2 47.2 0 0 1-23.4 32.7c-8.2 5-17.2 7.5-26.7 8.5-7.6.8-15 .5-22.5-1.3-7-1.7-13-5.2-18.3-10a74.7 74.7 0 0 1-18-23c-1.3-2.6-2.3-5.5-3.5-8.4.9-.3 1.4-.6 2-.7a7.8 7.8 0 0 0 5.6-5.3c.6-2.2 1.1-4.5 1.1-6.7v-1.5L61 383c-.1-2.8-.5-5.7-.7-8.5l-1.7-16.2c-.3-2.5-.8-5-3-6.7a60 60 0 0 1 37.3-27c19.5-4.4 36.6.8 51.6 13.5a73.7 73.7 0 0 1 23.4 38.2 83 83 0 0 1 2.7 15.7Z"
  />
  <path
    class="cls-4"
    d="M140.5 219.4c1.4-3.3 2.6-6.5 4.2-9.6l11.4-22c1-2 1-1.9.2-3.9h2l42.8-.1 9.4.1c4 .2 6.8 2.3 9 5.3 2.5 3.3 3.5 7.1 3.6 11.1.2 3-.1 6.1-.2 9.2l.2 2.7v2a64.3 64.3 0 0 0 1.3 24.7 48 48 0 0 1 1.2 8.8c.2 6.2-2.7 10-8.6 11.5-2.5.6-5.1 1-7.7 1.1-17.8.5-35.7.3-54-1.4 2.5-1.2 2.7-3.1 2.9-5.2l1.6-18c.1-2 0-4-.2-6-.8-6.3-4.8-9.9-11.2-10.3h-7.9Z"
  />
  <path
    class="cls-5"
    d="M705.5 384.2a55.4 55.4 0 1 1-110.9-.4 55.4 55.4 0 0 1 111 .4Z"
  />
  <path
    class="cls-7"
    d="M548.2 303.9V348l-2.1.1h-33.3a4 4 0 0 1-3.4-1.5c-.8-1-1.9-2-2.9-2.8a10 10 0 0 0-5.7-2.4l-3.4-.3c-.2-1.4-.3-2.7.2-4 .7-1.7.2-2.3-1.6-2.5h-61.5a83 83 0 0 1-.3-16.3l2.4-.1h19.9c2-.1 2.3-.4 2.3-2.4v-8c0-4.5 0-4 4-4h85.5Z"
  />
  <path
    class="cls-1"
    d="M4 374V361.1c0-5.6 2.3-8.5 8.9-8.7H14l10.2.8 10.1.1 15.1.4c1.4 0 2.8.3 4.1.6.5.1 1 .8 1.3 1.3.3.8.5 1.8.6 2.7 1 8.8 1.8 17.7 2.6 26.5.2 1.5 0 3-.1 4.5-.5 3.9-2.5 6-6.4 6.2-6.3.1-12.6-.2-18.8-.2-1.1 0-2.2 0-3.3.2-7.7.7-15-.4-22.3-3-3-1.2-3.9-2.4-3.8-5.7l.3-13H4Z"
  />
  <path
    class="cls-4"
    d="M150.6 184c-.3 1-.6 1.7-1 2.4l-16 34c-.6 1.2-1.3 2.2-2 3.3l-.6 1.2c-2.6 7.7-6.7 14.7-10 22.1l-4.8 10.2c-.5 1.2-1.1 1.8-2.5 1.8l-29.9.5c-.3 0-.6 0-1.1-.2l1-1.7C99 234 114 210.1 128.4 185.8c.8-1.3 1.6-1.9 3.2-1.8h19Z"
  />
  <path
    class="cls-2"
    d="M748 353.6h14.3c1.4 0 2.8-.2 4.1.7.2.2.6.2 1 .1 1.6-.5 2.5.5 3 1.9a74.1 74.1 0 0 1 3.8 34.5c-.5 2.8-1 3.3-3.7 3.6-11 1.4-22.1 1.8-33.2 1.3-2 0-4.2-.6-6.2-1.2a7.6 7.6 0 0 1-5-5.3c-.5-1.7-.7-3.4-.7-5.2v-24c0-1 .1-1.8.3-2.6.4-2 1.7-3.2 3.6-3.5 1.1-.2 2.2-.4 3.3-.4H748v.1Z"
  />
  <path
    class="cls-7"
    d="m873 147.4-6-5.8-39.7-36L788 70.8l-1.3-1.2c1.3-1.5 2.2-3.2 4.4-3.6 2-.4 3.7 0 5.4.8A18 18 0 0 1 800 69c9.8 7.8 19.6 15.5 29.1 23.6 6 5 11.6 10.7 17.3 16l8.7 8c6.5 6.4 13.4 12.4 19 19.6 1.1 1.5 2 3.2 3 4.8.7 1.5 0 3-1.1 4l-3 2.5ZM898.7 206.9c3.1 2.2 4 5 4.5 8.1.9 4.6.2 9.3-.2 13.9-.5 7.5-1.3 15-2.1 22.5-1 9-2.2 18-3.5 26.9-1 6.1-2 12.2-3.2 18.3-.5 2.5-1.3 5-2.5 7.3a8 8 0 0 1-6 4.7l-.3-.2v-2.2l13.3-99.3Z"
  />
  <path
    class="cls-8"
    d="M184.2 394.5c1 3.5 2 4.2 5.4 4.2h26.9l9.6.1h2.9c3.5-.3 4.7-1.5 4.8-5.3h8.2l-.3 1.3c-.4 2.3.6 4 2.4 5.2l2 1.3c.6.5 1.5 1.2 1.5 1.9.1 1.1-1 1.8-2 2-.8.3-1.8.5-2.7.6a35037.6 35037.6 0 0 1-69 1.8c-1.8-.1-3.4-.9-4.2-2.6-.8-1.9-.2-3.6 1-5.1 1.2-1.8 3.1-2.4 5.2-2.7 1.8-.1 3.5-.5 5-2 .6-.6 2-.5 3.3-.7Z"
  />
  <path
    class="cls-2"
    d="m129 254.9 2.1-5.6h.3l-.4 4.5c-.1 1 .2 1.7 1.3 1.8 1 .2 1.6-.5 1.7-1.5.5-3.8.8-7.7 1.4-11.5.7-4 .6-7.7-1.2-11.4-.9-1.7-.9-3.5.2-5.4.6-1 1.3-1.8 2.4-2a29 29 0 0 1 13.3-1c3.6.7 6 3.4 6.5 7.4.2 1.4.2 2.8.1 4.2l-1.6 20.2-.3 1-10 1.7c.9-1.8 1.3-3.3 2.6-4.4 1.1-.9 1.2-2.1 1-3.5-.9-3.3-4.7-5-7.7-3.2-1.2.7-2.1 2-2.8 3-.6 1-1 2.3-1 3.4-.2 3.9-1 4.6-5.4 3.4-.8-.2-1.6-.7-2.5-1.1Z"
  />
  <path
    class="cls-5"
    d="m899 203.4.6-3a8 8 0 0 1 4.6 2c2.1 1.8 3.4 4.2 4.3 6.7 1.2 3.7 1.5 7.4 1.2 11.2l-1.5 15.7c-.5 5.7-1 11.4-1.7 17.1-1.5 14-2.3 28.2-5.2 42-.6 3.4-1.6 6.6-2.4 9.9-1 4.2-3.8 7-8 8l-6.2 1.8c-.5-1-.1-1.8.1-2.8 6.4-.9 10-4.9 11.4-10.7 1.5-6.2 2.7-12.5 3.6-18.8 3-18.6 5.3-37.3 6.5-56.1l.3-8.3v-1c-.2-5.7-2-10.5-7.5-13.7ZM784.6 67.4l-2.5-2.3c1-1.3 1.8-2.6 2.8-3.7 2.8-3 5.3-3.6 9.1-2 6 2.3 11.5 5.5 16.2 9.8a3767 3767 0 0 1 57.6 53.7c3.2 3 6.2 6.2 9.1 9.5 1.7 2 3 4.1 4.2 6.3 1.2 1.9 1.6 4 1.4 6.3a6 6 0 0 1-3.1 5l-3.3 2.2c-1-1.5-1-2.2-.1-3.2.4-.5 1-1 1.6-1.4 2.5-2.2 3.4-5 2.1-8-.6-1.5-1.5-3-2.5-4.3-4-5.3-8.6-10.2-13.5-14.7L832.2 91c-2.7-2.5-5.6-4.7-8.5-7L803 67.5a40.8 40.8 0 0 0-5.2-3.6 10.6 10.6 0 0 0-7.3-1c-2.7.4-4.6 2-6 4.5Z"
  />
  <path
    d="m228.3 136.8-1.8 15.3-17.5 1-.2-.7c.3-4 .4-8.1.8-12.2.2-2.3 1-3 3.3-3.2l7-.3h8.4Z"
    style="fill: #f7931e; stroke-width: 0"
  />
  <path
    class="cls-7"
    d="M187.7 395c.3-.2.5-.5.7-.5 14-.7 28-1 41.9-1 .5 1.7.4 1.9-1 2.1-.8.2-1.7.2-2.5.2h-35.9c-1 0-2.1 0-3.2-.7Z"
  />
  <path
    class="cls-8"
    d="M137.8 259c-2.8 2.6-8.4 3.7-11.6 2.2-1.6-.7-2.4-2-2.2-3.2.2-1.2.9-1.6 2-1.1l1.6.8c3.2 2 6.6 2.3 10.2 1.3Z"
  />
  <path
    class="cls-2"
    d="M137.8 259a9.6 9.6 0 0 0 2-5.3c.2-1.3.6-2.6 1.3-3.7 1.1-1.9 2.5-1.8 4-.1-.5 1.1-1.1 2.3-1.8 3.4-1.3 2.4-2.8 4.6-5.5 5.7Z"
  />
  <path
    d="m170.4 395.8-1.7 1.2c0-1.8 0-1.9 1.7-1.2Z"
    style="fill: #fff; stroke-width: 0"
  />
  <path
    class="cls-3"
    d="m821.6 313 .8 2.2c.2.8.6 1.7-.5 2.2-1 .5-1.8 0-2.4-1.2l-1.5-3.4-5.3-.5c-5-.2-10-.2-15.1-.5-4-.2-7.8-.7-11.6-1.8a17.1 17.1 0 0 1-10.7-8.3 55 55 0 0 1-3.4-7.5l-18.2-50L713 134.6l-22.5-60.8c-1.3-3.4-.9-4 3-4 19.6 0 39.4 0 59.1-.2 3.3 0 5.6 1 8 3.2 28.4 26.7 56.6 53.6 84.4 81l22.1 21.9c.3.3.6.7.9.8 2.3.9 2.8 3 3.6 5a75.8 75.8 0 0 1 4.8 26.5c.2 12-1.6 23.6-3.7 35.3l-12.5 66.8-.3 1.6c-.6 1.5-1.2 2-2.8 2l-25.5-.3c-3.3 0-6.5-.2-10-.4ZM742.8 72.7l.9 2.3 72 174.6 14.5 34.8 9.7 24.1c.6 1.6 1.4 2.4 3.2 2.3l13.4-.3c.2 0 .3-.1.5-.3l.4-1.5c4.5-24.2 9.1-48.4 13.5-72.7 2-11.5 3.3-23.2 2.2-35-.7-6.5-2-12.8-4.5-19-.3-.7-.8-1.4-1.4-2l-12-11.8c-25-24.4-50.1-48.7-75.3-73l-22.3-21c-.8-.7-1.4-1.5-2.6-1.5h-12.2Zm73.8 236.7-1-2.5L746.7 141l-27.5-66.4c-.6-1.4-1.3-2-3-2h-20.5l-2.1.2 1 2.7 13.2 35.8 53 143 13.7 38a63 63 0 0 0 3 6.9c2.1 4.1 5.5 6.8 10 7.9a51 51 0 0 0 8.1 1.4l19.4.9 1.6-.1Zm-38.1-141.8a57 57 0 0 0-18.6-2.9l7.6 18.4c6.2.7 12 2 18.3 2.3l-7.3-17.8ZM741 119.3c6.1 1 12.1 1.9 18.6 2.5l-7.1-17.3c-6.2-1.5-12.1-3.5-18.8-3l7.3 17.8Zm24.5 16.9c-6-2-12-3.1-18.3-2.8 0 .3-.1.4 0 .4 2 5.3 4.3 10.6 6.4 16 .4.8 1 1.1 2 1.3l12.6 1.7 4.4.4-7-17ZM837 310.5v-1l-6-14.7a3 3 0 0 0-1.7-1.5 51.3 51.3 0 0 0-16.6-2.2l.1 1 6.8 16.4c.4 1.1 1.1 1.4 2.2 1.4l12.2.6h3ZM798.5 217v-.7c-2-5.3-4.2-10.5-6.4-15.7-.2-.5-.9-1.1-1.5-1.3a47.8 47.8 0 0 0-17.2-2.1l7.2 17.3 18 2.5Zm-11.7 11.6v.8l6.4 15.4c.3 1 1 1.3 2 1.4l12.5 1.8 3.8.4v-.6c-1.7-4.3-3.7-8.6-5.2-13-1-3-2.6-4.3-5.5-4.9-4.7-1-9.3-1.4-14-1.3Zm12.7 31.3 7.1 17.2c6 .6 11.7 1.9 18 2.2l-6.6-15.8c-.2-.5-.8-1-1.3-1.2a52.8 52.8 0 0 0-17.2-2.4ZM722 72.8l.1 1 5.2 12.6c.4 1 1 1.2 2 1.3l15.6 2.1h1.5l-7-17H722Zm74 176.8 2 4.9c1 2.4 1.2 2.4 3.9 2.6 3.1.1 6.2.4 9.3.7 1.3.1 2.6.5 4.2.8-.5-1.2-.8-2.2-1-3.1-.8-2.7-2.2-4.5-5.3-4.2h-.7l-12.3-1.8Zm-40.2-95.4 1.9 5c.6 2 1.8 2.5 3.7 2.5 3 0 6.1.4 9.2.7l4.6 1-2.2-5.6c-.4-1-1.2-1.5-2.3-1.6-2.3-.2-4.5-.6-6.8-.9l-8.1-1Zm31.4 34.7c-5.6-.6-11-1.7-16.6-2l1.8 4.7c.6 1.8 1.7 2.5 3.7 2.5 4-.2 7.8.4 11.7 1.3l2.1.3-2.7-6.8Zm41.6 100.9c-.8-2-1.5-3.6-2-5.3-.5-1.3-1.3-1.8-2.7-2-4.2-.4-8.4-1-12.5-1.6h-2l1.9 4.8c.5 1.8 1.7 2.4 3.5 2.4l9.6.8c1.3.1 2.5.5 4.2.9ZM783.3 218l2 5.2c.6 1.6 1.6 2.3 3.4 2.3 2.9 0 5.8.3 8.6.6 1.6.1 3.2.6 5 1-.3-2.2-1.1-3.9-1.8-5.6-.4-.9-1-1.3-1.9-1.4l-15.3-2Zm-21-86.2c-.7-2-1.3-3.4-1.7-4.9-.6-1.5-1.5-2.2-3-2.3l-8.5-1.1-6-.8 1.9 5.1c.6 1.8 1.8 2.4 3.6 2.4 2.8 0 5.7.3 8.6.6 1.6.1 3 .6 5.2 1Zm-32.4-41c.9 2.1 1.5 3.7 2 5.3.6 1.5 1.5 2 3.1 2l12.2 1.4 2.1.4-2-5.3c-.5-1.2-1.2-1.7-2.5-1.8-2-.1-4-.5-6-.8l-8.9-1.1ZM473.8 175V74q0-4.3 4.1-4.3h68.7c1.5.2 2.5 1.2 2.6 2.8v205.4c0 2.5-.1 2.6-2.7 2.2l-.4-.1c-4 1.3-8.1.5-12.2.6h-56q-4.1 0-4-4V175ZM546 277.6V72.9h-68.6c-.6 2.3-.5 202.6 0 204.6H546ZM637.4 177v100.2q0 4-4.2 4h-68c-2.3 0-2.6-.4-2-2.6.2-.9.3-1.9.3-2.8V76c0-2.5 1.2-4.2 4-4.2 22 .2 44 .1 65.9 0 2.5 0 4 1.3 4 4.1v101Zm-70.7 100.9.5.3H633.8l.1-.2.2-.2V75.3c-2.8-.5-65.7-.4-67.4.1V278ZM370.8 177.6v103.3c0 2.6-.4 2.8-3 2h-53c-5.4 0-4.3-.7-4.3-4.5l-.1-201c0-2.3 1.2-3.8 2-5.6.1-.3.8-.4 1.2-.5.5-.1 1 0 1.6 0h53.6c1.5 0 1.7.3 1.8 1.8l.1 2.8v101.7Zm-3.4 102.1c.5-3.7.3-203.6-.2-205.2h-53.6v205.2h53.8ZM387.3 176.7V73.8c.2-2.5 1.3-3.4 3.8-3.4h66.3c2.4 0 3.5 1 3.7 3.5v202.4c0 1.6 0 3-1.6 4-.6.6-1.2 1-2 1h-66.2q-4 0-4-3.9V176.7Zm3.1 101.2c2.7.6 65.8.5 67.5 0 .4-3.1.2-202.5-.2-204.2h-67.2V278ZM652.3 177.9V78.7c0-1 .1-1.8 1.3-2.1.8-.2 2.4.5 2.8 1.3l.9 2.2 59.5 160.5 13.1 35.4 1.3 3c.5 1.3 0 2.1-1.5 2.2H654.4c-.6 0-1.2.2-1.7 0-.5-.1-1.3-.4-1.5-.8-.2-.4 0-1.4.3-1.7 1.3-.8.9-2 .9-3.2V178ZM727.4 278 656 85.4h-.4v192.7h72Z"
  />
  <path
    class="cls-2"
    d="M742.8 72.7H755c1.2 0 1.8.8 2.6 1.5 7.4 7 15 13.9 22.3 21l75.4 73 11.9 11.8c.6.6 1 1.3 1.4 2 2.5 6.2 3.8 12.5 4.4 19 1.2 11.8 0 23.5-2.1 35-4.4 24.3-9 48.5-13.5 72.7 0 .5-.3 1-.4 1.5-.2.1-.3.3-.5.3-4.4 0-9 .1-13.4.3-1.8 0-2.6-.7-3.2-2.3l-9.7-24-14.6-34.9-72-174.6-.8-2.3ZM816.6 309.4H815c-6.5-.2-13-.4-19.4-.9-2.7-.1-5.4-.7-8-1.3-4.6-1-8-3.8-10-8a61.4 61.4 0 0 1-3-6.9c-4.7-12.6-9.2-25.3-13.8-37.9l-53-143-13.3-35.8-.9-2.8h2.1l20.6-.1c1.6 0 2.3.5 2.9 2l27.5 66.4 68.9 165.7 1 2.6Z"
  />
  <path
    class="cls-6"
    d="m796 249.6 12.4 1.6c.2 0 .5.2.7.1 3.1-.3 4.5 1.5 5.2 4.2l1 3.2-4-.9c-3.2-.3-6.3-.6-9.4-.7-2.7-.2-3-.2-3.9-2.6l-2-5ZM755.8 154.2c3 .4 5.6.8 8.1 1l6.8 1c1.1 0 1.9.5 2.3 1.6l2.2 5.5c-2-.4-3.3-.8-4.6-.9-3-.3-6.1-.6-9.2-.7-1.9 0-3.1-.6-3.7-2.5-.5-1.6-1.2-3-2-5ZM787.2 188.9l2.7 6.8c-1-.2-1.6-.2-2.1-.4-3.9-.8-7.8-1.4-11.7-1.2-2 0-3.1-.7-3.7-2.5l-1.9-4.8c5.7.4 11 1.5 16.7 2ZM828.8 289.8l-4.2-1c-3.2-.2-6.4-.6-9.6-.7-1.9 0-3-.6-3.6-2.4l-1.8-4.8h2l12.5 1.7c1.4.1 2.2.6 2.6 1.9l2.1 5.3ZM783.3 218.1l15.3 2c1 .2 1.5.6 1.9 1.5.7 1.7 1.5 3.4 1.8 5.5-1.8-.3-3.4-.8-5-1-2.9-.2-5.8-.5-8.6-.5-1.8 0-2.8-.7-3.4-2.3l-2-5.2ZM762.4 131.9c-2.1-.5-3.7-.9-5.2-1-2.9-.3-5.8-.6-8.7-.6-1.8 0-3-.6-3.5-2.4-.5-1.6-1.2-3.2-2-5.1l6.1.8c2.8.4 5.6.8 8.4 1 1.6.2 2.6 1 3 2.4l1.9 4.9ZM730 91l8.7 1.1c2 .3 4 .7 6 .8 1.4 0 2 .6 2.5 1.8l2.1 5.3-2.1-.4c-4.1-.5-8.1-1-12.2-1.3-1.6-.2-2.5-.6-3-2l-2-5.3Z"
  />
  <path
    class="cls-2"
    d="M546 277.5h-68.6c-.6-2-.7-202.3-.1-204.6h68.6v204.6Z"
  />
  <path
    class="cls-12"
    d="M566.7 278V75.3c1.7-.5 64.6-.6 67.4 0v202.4l-.2.2-.1.2h-66.5l-.6-.3Z"
  />
  <path
    class="cls-2"
    d="M367.4 279.7h-53.8V74.5h53.6c.5 1.6.7 201.5.2 205.2Z"
  />
  <path
    class="cls-12"
    d="M390.4 278V73.6h67.3c.4 1.7.6 201 .1 204.1-1.6.6-64.7.7-67.4.1Z"
  />
  <path class="cls-2" d="M727.4 278.1h-71.9V85.5l.4-.1L727.4 278Z" />
  <path
    class="cls-7"
    d="M0 486.9v-97.2l.7.6c1 3 3.3 4.5 6 5.5 4.5 1.5 9.1 2.7 13.9 2.8 8.6.2 17.3.1 25.9.1h2.9l.6 2c1.4 4.7 3.4 9.2 6 13.4a85.5 85.5 0 0 0 17.5 20 42.8 42.8 0 0 0 18.6 9.4 70.8 70.8 0 0 0 45.8-5 51.6 51.6 0 0 0 28.4-30.8l.5-1.3c2.3 3.8 5.9 4.5 9.7 4.5h2.2l20-.8 40-1.1c2.4 0 4.6-.2 6.9-.5a5.9 5.9 0 0 0 5.1-4.6c.5-2.6-1-4-3-5.3l-1.5-.9a5 5 0 0 1-1-.9c-.8-.9-.4-2.2.8-2.6h1.4l17.9-.5c.5 0 1.3.2 1.6.6.6 1 1.5 1 2.4 1 8.4-.5 16.7-1 25-1.2 17.2-.5 34.3-.3 51.4.4 1.2 0 2.3.3 3.3-.8.5-.7 1.2-.4 1.7.4.9 1.5 2 3 2.6 4.7a13 13 0 0 0 9.4 7.8c2.9.8 5.9 1.4 8.8 1.4l56.6 1c10 0 19.8.2 29.8.3l36 .3c4 0 8-.3 11.8-2 5.6-2.4 9.5-6.4 10.1-12.8 0-.4.2-.7.4-1.2h76a58.3 58.3 0 0 0 55.4 48.9 58.5 58.5 0 0 0 60.3-49h16c.4 0 1 .3 1.4.6 2.8 3.3 6.6 4.2 10.8 4.6a164.7 164.7 0 0 0 35.7-1.4c3.9-.6 5-2 5.4-6a86.6 86.6 0 0 0-3.8-36c-.8-2.3-2.3-3.8-4.7-4.2-1.4-.2-2.8-.5-4.2-.5l-20.3-.1-2-.1v-46.6h2.4c5.5 0 5.6 0 9 4.4 3.5 4.3 5.5 9.3 7 14.6.7 2 1.2 4.2 2.1 6.2 1.7 3.9 4.4 6.3 9 6l.7.1.5 1.6 3 11.6 5.6 25.8c1 4.7 2.8 6.1 7.6 6.4h1.4c2.5-.1 5 0 7.3-.3 4-.5 8.2 0 12.2-1 1-.3 1.8-.6 1.9-1.8.2-3 1.6-5.7 3-8.3l13.2-23.7 4.3-7.6H876c1 0 2 .3 3 .5 1.4.3 2 0 2.3-1.5 0-.5 0-1 .2-1.4l2-15c.1-1.3.7-2.1 2-2.5 1.9-.5 3.7-1.3 5.6-1.7 5.7-1.4 9-5 10.8-10.5 1.9-6.4 3.3-12.9 4.1-19.5 1.1-9.3 2.2-18.6 3-28l3.3-34.2c0-.5.2-.9.4-1.3v264.2"
  />
  <g class="truck__wheel">
    <path
      class="cls-3"
      d="M96 398.8c0-2.6 2-4.5 4.5-4.5s4.3 1.9 4.4 4.3c0 2.5-2 4.6-4.4 4.6-2.5 0-4.4-2-4.5-4.5Zm7.8 0c0-2-1.6-3.5-3.5-3.4a3.4 3.4 0 0 0-3.2 3.3c0 2 1.6 3.4 3.5 3.4 1.8 0 3.2-1.5 3.2-3.4Z"
    />
    <g>
      <path
        class="cls-3"
        d="M96 372.1c0-2.5 2-4.4 4.6-4.3 2.4 0 4.3 2 4.3 4.4 0 2.5-1.9 4.4-4.5 4.4a4.3 4.3 0 0 1-4.3-4.5Zm7.8 0c0-1.7-1.4-3.2-3.3-3.2s-3.4 1.4-3.4 3.3c0 2 1.6 3.5 3.5 3.4 1.8-.1 3.2-1.6 3.2-3.4ZM110.8 372.2c0-2.6 2-4.5 4.5-4.4 2.4 0 4.4 2 4.4 4.5 0 2.4-2 4.3-4.4 4.3a4.3 4.3 0 0 1-4.5-4.4Zm7.8 0c0-1.8-1.4-3.2-3.2-3.3-2 0-3.6 1.4-3.6 3.3 0 1.7 1.5 3.3 3.2 3.4 2 0 3.5-1.5 3.5-3.4ZM110.8 398.7c0-2.6 2-4.4 4.5-4.4s4.4 2.1 4.4 4.6c-.1 2.4-2 4.3-4.5 4.3-2.4 0-4.4-2-4.4-4.5Zm7.8.1c0-1.8-1.6-3.4-3.4-3.4a3.4 3.4 0 0 0-3.4 3.3c0 1.8 1.5 3.4 3.4 3.4s3.3-1.5 3.4-3.3ZM92.7 380.5c2.5 0 4.4 2.1 4.4 4.6-.1 2.5-2.2 4.4-4.7 4.3-2.5 0-4.3-2-4.2-4.4 0-2.5 2-4.5 4.5-4.5Zm-.4 7.8c1.8.2 3.5-1.3 3.6-3.1a3.4 3.4 0 0 0-3-3.5 3.5 3.5 0 0 0-3.7 3.1 3.5 3.5 0 0 0 3 3.5ZM122 380.5c2.6 0 4.5 2 4.5 4.5s-2 4.5-4.5 4.4c-2.4 0-4.3-2-4.4-4.3 0-2.5 2-4.5 4.5-4.6Zm0 1.2a3.3 3.3 0 1 0 0 6.6c1.9 0 3.4-1.4 3.5-3.2 0-1.9-1.5-3.4-3.4-3.4Z"
      />
      <path
        class="cls-1"
        d="M143 384.2a35.7 35.7 0 1 1-71.4-.1 35.8 35.8 0 1 1 71.5 0Zm-32.2-12c0 2.6 1.9 4.5 4.5 4.4 2.4 0 4.3-1.9 4.4-4.3 0-2.4-2-4.5-4.4-4.5a4.4 4.4 0 0 0-4.5 4.4Zm0 26.5c0 2.6 2 4.6 4.4 4.5 2.4 0 4.4-2 4.5-4.3 0-2.5-1.9-4.5-4.4-4.6a4.3 4.3 0 0 0-4.5 4.4Zm-18.1-18.2c-2.5 0-4.5 2-4.5 4.5 0 2.4 1.8 4.3 4.2 4.4a4.4 4.4 0 1 0 .3-8.9Zm29.3 0c-2.4 0-4.4 2.1-4.4 4.6 0 2.4 2 4.3 4.4 4.3 2.5 0 4.5-1.9 4.5-4.4 0-2.5-2-4.5-4.5-4.5Zm-26 18.2a4.4 4.4 0 1 0 8.9 0c0-2.5-2-4.3-4.4-4.4a4.3 4.3 0 0 0-4.4 4.4Zm0-26.6c0 2.6 1.9 4.5 4.4 4.5 2.6 0 4.5-1.9 4.5-4.4 0-2.5-1.9-4.4-4.3-4.4A4.3 4.3 0 0 0 96 372Z"
      />
      <path
        class="cls-8"
        d="M118.5 372.3c0 1.8-1.6 3.4-3.5 3.3a3.4 3.4 0 0 1-3.2-3.4c0-2 1.6-3.4 3.5-3.3 1.9 0 3.3 1.5 3.2 3.4ZM118.6 398.8c0 1.8-1.5 3.3-3.4 3.3s-3.4-1.6-3.3-3.4c0-1.8 1.5-3.3 3.3-3.3 1.8 0 3.4 1.6 3.4 3.4ZM92.3 388.3a3.5 3.5 0 0 1-3-3.5 3.4 3.4 0 0 1 3.6-3.1c1.8.1 3.1 1.7 3 3.5a3.4 3.4 0 0 1-3.6 3.1ZM122 381.6c2 0 3.5 1.6 3.5 3.5a3.4 3.4 0 0 1-6.7-.2c0-1.8 1.5-3.3 3.3-3.3ZM103.8 398.8c0 1.8-1.4 3.2-3.2 3.3a3.4 3.4 0 0 1-3.5-3.4 3.4 3.4 0 0 1 6.7 0ZM103.8 372.2c0 1.8-1.4 3.3-3.2 3.4a3.4 3.4 0 0 1-3.5-3.4c0-1.9 1.5-3.3 3.4-3.3s3.3 1.5 3.3 3.3Z"
      />
    </g>
  </g>
  <g class="truck__wheel">
    <path
      class="cls-3"
      d="M643.3 395.3c2.5 0 4.4 2 4.3 4.6-.1 2.5-2 4.3-4.4 4.3-2.5 0-4.5-2-4.5-4.5s2-4.4 4.6-4.4Zm3.2 4.5c0-1.9-1.5-3.4-3.4-3.4a3.4 3.4 0 0 0-3.3 3.3c0 1.9 1.5 3.4 3.4 3.4 1.8 0 3.3-1.5 3.3-3.3ZM657.8 368.8c2.5-.1 4.6 1.9 4.6 4.4 0 2.4-1.9 4.3-4.3 4.4a4.3 4.3 0 0 1-4.6-4.2c0-2.6 1.8-4.6 4.3-4.6Zm.1 1.1c-1.9 0-3.4 1.6-3.3 3.4 0 1.8 1.6 3.3 3.3 3.3 1.9 0 3.4-1.6 3.3-3.5 0-1.9-1.4-3.2-3.3-3.2ZM669.2 386c0 2.5-2 4.5-4.5 4.4a4.4 4.4 0 0 1 0-8.9c2.5 0 4.5 2 4.5 4.5Zm-1 0c0-1.8-1.6-3.4-3.4-3.4a3.3 3.3 0 0 0-3.3 3.3c0 1.9 1.3 3.3 3.1 3.4 1.9.1 3.5-1.4 3.6-3.3ZM631 386c0-2.6 1.8-4.5 4.4-4.4 2.5 0 4.5 2 4.4 4.5 0 2.4-2 4.3-4.4 4.3a4.3 4.3 0 0 1-4.5-4.4Zm4.2 3.3a3.3 3.3 0 1 0 .2-6.6 3.3 3.3 0 0 0-.2 6.6ZM658 395.3c2.4 0 4.4 2 4.4 4.5s-2.1 4.5-4.6 4.4c-2.4 0-4.2-2-4.3-4.4 0-2.6 1.8-4.5 4.4-4.5Zm3.2 4.4c0-1.9-1.6-3.4-3.4-3.3a3.5 3.5 0 0 0-3.3 3.4c0 1.8 1.6 3.3 3.5 3.3s3.2-1.5 3.2-3.4ZM647.6 373.3c0 2.6-2 4.4-4.6 4.3-2.4 0-4.3-2-4.3-4.4 0-2.5 2-4.5 4.5-4.4 2.5 0 4.4 2 4.4 4.5ZM643 370a3.3 3.3 0 0 0-3.3 3.3c0 1.9 1.6 3.4 3.5 3.4 1.8 0 3.2-1.6 3.2-3.4 0-2-1.5-3.4-3.5-3.3Z"
    />
    <path
      class="cls-1"
      d="M685.8 385.2a35.7 35.7 0 1 1-71.5-.2 35.7 35.7 0 0 1 71.5.2Zm-42.5 10.1a4.4 4.4 0 0 0-4.6 4.4c0 2.5 2 4.5 4.5 4.5 2.4 0 4.3-1.8 4.4-4.3 0-2.5-1.8-4.5-4.3-4.6Zm14.5-26.5c-2.5 0-4.3 2-4.3 4.6.1 2.5 2 4.3 4.6 4.2 2.4 0 4.3-2 4.3-4.4 0-2.5-2-4.5-4.6-4.4Zm11.4 17.2c0-2.5-2-4.5-4.5-4.5a4.4 4.4 0 0 0 0 8.9c2.5 0 4.5-2 4.5-4.4Zm-38.3 0c0 2.5 2 4.5 4.5 4.4 2.4 0 4.3-1.9 4.4-4.3 0-2.5-2-4.5-4.4-4.5a4.3 4.3 0 0 0-4.5 4.4Zm27 9.3a4.2 4.2 0 0 0-4.4 4.5c0 2.5 1.9 4.4 4.3 4.4 2.5.1 4.6-2 4.6-4.4 0-2.5-2-4.5-4.5-4.4Zm-10.3-22c0-2.5-1.9-4.5-4.4-4.5-2.5 0-4.5 2-4.5 4.4 0 2.5 1.9 4.4 4.3 4.4 2.6.1 4.5-1.7 4.6-4.3Z"
    />
    <path
      class="cls-8"
      d="M646.5 399.8c0 1.8-1.4 3.2-3.3 3.3-1.9 0-3.4-1.5-3.4-3.4 0-1.8 1.6-3.3 3.3-3.3 2 0 3.5 1.5 3.4 3.4ZM658 369.9c1.8 0 3.2 1.4 3.2 3.2.1 1.9-1.4 3.5-3.3 3.5a3.4 3.4 0 0 1-3.4-3.3c0-1.8 1.5-3.4 3.4-3.4ZM668.2 386c0 1.9-1.7 3.4-3.6 3.3a3.3 3.3 0 0 1-3.1-3.4c0-1.8 1.4-3.2 3.3-3.2 1.8 0 3.4 1.5 3.4 3.4ZM635.2 389.3a3.3 3.3 0 0 1-3.3-3.3c0-1.9 1.6-3.4 3.5-3.4 1.8 0 3.2 1.5 3.3 3.4 0 1.9-1.6 3.4-3.5 3.3ZM661.3 399.7c0 1.9-1.4 3.3-3.2 3.4-2 0-3.5-1.5-3.6-3.3 0-1.8 1.5-3.4 3.3-3.4 1.9-.1 3.4 1.4 3.5 3.3ZM643 369.9c2 0 3.5 1.4 3.5 3.3 0 1.8-1.4 3.3-3.2 3.4a3.4 3.4 0 0 1-3.5-3.4c0-1.8 1.4-3.3 3.3-3.3Z"
    />
  </g>
</svg>
