<?xml version="1.0" encoding="UTF-8"?>
<svg id="Layer_1" data-name="Layer 1" xmlns="http://www.w3.org/2000/svg" viewBox="0 0 912.68 486.9">
  <defs>
    <style>
      .cls-1 {
        fill: #4d4d4d;
      }

      .cls-1, .cls-2, .cls-3, .cls-4, .cls-5, .cls-6, .cls-7, .cls-8, .cls-9, .cls-10 {
        stroke-width: 0px;
      }

      .cls-2 {
        fill: #666;
      }

      .cls-4 {
        fill: #29abe2;
      }

      .cls-5 {
        fill: #1a1a1a;
      }

      .cls-6 {
        fill: red;
      }

      .cls-7 {
        fill: gray;
      }

      .cls-8 {
        fill: #f7931e;
      }

      .cls-9 {
        fill: #fff;
      }

      .cls-10 {
        fill: #006837;
      }
    </style>
  </defs>
  <path class="cls-9" d="m0,379.33C0,252.92,0,126.5,0,0,218.02,0,436.05,0,654.07,0c-.35.15-.68.34-1.05.44-3.03.81-6.12,1.44-9.09,2.43-5.04,1.68-9.59,4.33-13.77,7.59-2.72,2.12-2.75,2.31-1.62,5.5,3.25,9.2,7.12,18.13,11.62,26.79.42.8.8,1.63,1.23,2.49-2.74.54-19.39.45-21.18-.09,0-.75.02-1.53,0-2.31-.23-7.52-4.36-11.58-11.88-11.62-6.37-.03-12.74-.03-19.11.01-1.41,0-2.83.15-4.22.41-4.31.81-6.61,3.98-6.13,8.33.12,1.07.3,2.13.46,3.19-3.66.45-217.03.28-218.8-.18,0-1.54.12-3.11-.02-4.67-.43-4.67-3.08-7.28-7.7-7.71-1.09-.1-2.2-.13-3.3-.09-5.03.22-10.07.34-15.08.77-2.95.25-5.96.72-8.77,1.62-5.71,1.82-8.56,6.16-8.47,12.15,0,.29-.1.58-.17.95-.54.05-1,.13-1.46.13-4.25.06-8.49.09-12.74.15-5.03.07-10.06.15-15.09.26-2.27.05-2.5.32-2.6,2.64-.03.79-.04,1.57-.04,2.36-.05,20.76-.09,41.51-.14,62.27,0,.69-.08,1.37-.13,2.22-.98.05-1.82.12-2.67.14-4.96.12-9.9-.15-14.8-1.03-1.99-.36-2.39-.13-2.94,1.45-3.8,10.72,1.84,22.71,13.81,24.93,2.06.38,4.19.4,6.29.59,1.69,5.77,2.92,47.27,1.49,52.57-.78,0-1.63-.01-2.48,0-1.73.03-3.46.09-5.18.11-1.16,0-1.75.55-1.76,1.71,0,.55,0,1.1,0,1.65,0,9.36,0,18.71,0,28.07,0,2.28-.03,4.56.01,6.84.03,2.02,1,3.01,3.03,3.07,1.81.06,3.62,0,5.43.03.59.01,1.18.16,1.78.24,0,2.61.04,5.04,0,7.46-.36,19.1-.75,38.2-1.07,57.3-.02,1.2.35,2.44.71,3.61.58,1.9.65,1.82,2.63,1.7,10.51-.61,21.03-1.34,31.55-1.72,7.93-.28,15.88-.1,23.82-.1,1.08,0,2.16.08,3.35.12-.05.94-.12,1.64-.11,2.33.02,2.19-.07,4.4.15,6.57.25,2.53,1.68,3.69,4.25,3.82.63.03,1.26,0,1.89,0,5.5-.02,11.01-.04,16.51-.04.75,0,1.49.12,2.3.19v19.16c-.98.05-1.83.13-2.68.13-18.79-.03-37.59-.06-56.38-.11-.77,0-1.55-.16-2.32-.31-1.82-.35-2.33-.02-2.36,1.8-.04,2.83,0,5.66-.02,8.49,0,.68-.11,1.35-.16,1.98-3.01.45-30.66.34-32.46-.14-.12-.56-.3-1.16-.36-1.77-.93-9.46-2.13-18.91-2.7-28.4-1.34-22.08-.41-44.17.59-66.24,1.01-22.3,2.33-44.6,1.77-66.94-.24-9.35-.92-18.68-1.42-28.02-.04-.68-.1-1.58-.53-1.98-2.35-2.17-4.61-4.56-8.08-4.89-1.48-.14-2.97-.36-4.45-.35-8.26.05-16.51.17-24.77.26-2.11.02-4.21,0-6.51,0,.06-.88.08-1.56.15-2.24.35-3.05.75-6.09,1.07-9.14.38-3.68-.83-5.06-4.53-5.29-.31-.02-.63-.02-.94-.02-4.32.12-8.64.17-12.96.38-3.86.18-5.54,1.67-6.03,5.58-.48,3.81-.64,7.66-.92,11.5-.07.92,0,1.85,0,2.89-.91.13-1.59.24-2.27.32-12.19,1.27-24.41,2.37-36.57,3.86-7.81.95-15.43,2.94-22.74,5.95-3.51,1.45-6.81,3.25-9.7,5.73-3.12,2.68-5.41,5.88-6.38,9.95-.14.59-.38,1.19-.7,1.71-12.57,20.41-25.13,40.83-37.76,61.2-3.43,5.54-7.07,10.95-10.31,15.97-1.74.51-3.05.72-4.21,1.25-11.57,5.31-23.12,10.66-34.67,16.01-4.42,2.05-8.86,4.05-13.22,6.23-5.18,2.59-8.46,6.78-9.33,12.54-.64,4.26-1.1,8.58-1.28,12.88-.42,9.74-.65,19.48-.88,29.23-.09,3.77-.05,7.55,1.02,11.23.14.47.19.97.3,1.54-2.17,0-4.14-.12-6.08.02-5.77.41-9.4,4-9.92,9.75-.15,1.64-.05,3.3-.14,4.95-.28,5.01-.59,10.02-.89,15.03Z"/>
  <path class="cls-9" d="m657.37,0c85.06,0,170.12,0,255.3,0v213.26c-.14-.51-.34-1.01-.42-1.53-1.09-7.1-4.58-12.26-11.68-14.53-.2-.06-.36-.26-.57-.43.06-.64.14-1.26.19-1.88.15-2.27.37-4.55.41-6.82.1-5.85-1.92-10.91-5.87-15.23-4.93-5.4-9.83-10.82-14.74-16.25-.55-.61-1.05-1.26-1.62-1.95,1.12-.85,1.97-1.54,2.87-2.17,3.62-2.52,4.82-6.06,4.3-10.28-.37-2.96-1.73-5.53-3.39-7.95-3.22-4.69-7.07-8.84-11.2-12.73-10.75-10.14-21.54-20.23-32.34-30.32-7.7-7.19-15.45-14.32-23.14-21.53-5.97-5.59-12.55-10.2-20.24-13.14-5.26-2.01-8.96-1.18-12.74,2.97-.58.64-1.08,1.35-1.63,2.01-.33.39-.68.75-1.3,1.42-.66-.82-1.19-1.51-1.76-2.16-3.37-3.84-6.77-7.65-10.1-11.52-.82-.96-1.6-1.55-2.97-1.47-1.96.11-3.93-.04-5.89-.1-24.05-.65-48.1-1.29-72.15-1.95-2.04-.06-4.08-.17-6.12-.32-1.79-.13-3.07-1.12-3.93-2.65-.42-.75-.81-1.53-1.16-2.32-3.2-7.18-6.38-14.36-9.59-21.54-2.82-6.31-5.68-12.6-8.52-18.91Z"/>
  <path class="cls-3" d="m657.37,0c2.84,6.3,5.7,12.6,8.52,18.91,3.21,7.17,6.39,14.36,9.59,21.54.35.79.74,1.56,1.16,2.32.86,1.54,2.14,2.52,3.93,2.65,2.04.15,4.08.26,6.12.32,24.05.66,48.1,1.3,72.15,1.95,1.96.05,3.94.21,5.89.1,1.37-.08,2.14.51,2.97,1.47,3.33,3.87,6.74,7.68,10.1,11.52.57.65,1.09,1.34,1.76,2.16.61-.66.97-1.03,1.3-1.42.55-.66,1.05-1.37,1.63-2.01,3.78-4.15,7.48-4.98,12.74-2.97,7.69,2.94,14.27,7.55,20.24,13.14,7.68,7.21,15.44,14.34,23.14,21.53,10.8,10.09,21.59,20.18,32.34,30.32,4.12,3.89,7.98,8.03,11.2,12.73,1.66,2.42,3.02,4.99,3.39,7.95.52,4.22-.68,7.76-4.3,10.28-.9.63-1.75,1.32-2.87,2.17.57.69,1.07,1.34,1.62,1.95,4.91,5.42,9.81,10.85,14.74,16.25,3.95,4.32,5.97,9.38,5.87,15.23-.04,2.28-.26,4.55-.41,6.82-.04.62-.12,1.24-.19,1.88.21.16.37.37.57.43,7.1,2.27,10.59,7.43,11.68,14.53.08.52.28,1.02.42,1.53v9.44c-.13.43-.33.86-.38,1.3-1.07,11.43-2.07,22.86-3.2,34.28-.92,9.31-1.94,18.61-3.05,27.9-.8,6.64-2.23,13.16-4.17,19.58-1.67,5.52-5.04,9.1-10.74,10.43-1.91.44-3.74,1.18-5.63,1.72-1.3.37-1.86,1.16-2.03,2.51-.61,4.99-1.33,9.97-2,14.96-.06.47-.09.94-.19,1.4-.33,1.48-.9,1.81-2.33,1.5-.98-.21-1.98-.44-2.97-.44-13.29-.03-26.58-.02-39.87-.02-1.17,0-2.34,0-3.74,0-1.34,2.4-2.8,5-4.24,7.6-4.39,7.9-8.76,15.82-13.16,23.71-1.46,2.62-2.84,5.26-3.1,8.33-.09,1.13-.77,1.47-1.84,1.74-4.01,1-8.12.56-12.17.98-2.42.25-4.87.23-7.3.32-.47.02-.94.03-1.41,0-4.88-.26-6.56-1.69-7.6-6.41-1.89-8.59-3.77-17.18-5.72-25.75-.89-3.9-1.92-7.77-2.91-11.66-.13-.52-.35-1.02-.53-1.52-.3-.06-.53-.16-.75-.14-4.51.3-7.26-2.13-8.92-5.97-.87-2.01-1.39-4.16-2.02-6.27-1.55-5.24-3.62-10.22-7.05-14.54-3.47-4.36-3.56-4.4-9.07-4.38-.77,0-1.53,0-2.45,0v46.51c.75.05,1.43.14,2.11.14,6.76.03,13.53.01,20.29.08,1.39.01,2.77.33,4.15.53,2.46.36,3.96,1.9,4.7,4.13.89,2.68,1.71,5.4,2.31,8.16,2,9.21,2.53,18.52,1.51,27.9-.43,3.96-1.5,5.41-5.37,5.99-4.27.63-8.58,1.02-12.89,1.27-7.61.44-15.24.75-22.87.13-4.1-.33-7.91-1.28-10.79-4.53-.32-.36-.92-.66-1.39-.66-5.26-.05-10.52-.03-15.95-.03-3.11,16.42-11.28,29.59-25.07,39.01-10.59,7.23-22.4,10.56-35.21,10-13.83-.61-26.06-5.45-36.45-14.66-10.31-9.15-16.52-20.63-18.98-34.2h-76.05c-.14.48-.31.83-.35,1.21-.65,6.42-4.47,10.36-10.1,12.82-3.74,1.64-7.75,2.04-11.77,2.01-12.03-.08-24.06-.23-36.09-.37-9.91-.11-19.81-.23-29.72-.37-18.87-.27-37.74-.49-56.61-.88-2.95-.06-5.94-.66-8.81-1.39-4.33-1.08-7.6-3.59-9.39-7.86-.69-1.65-1.76-3.13-2.64-4.7-.44-.79-1.17-1.03-1.71-.39-.94,1.12-2.08.9-3.24.85-17.13-.7-34.28-.88-51.42-.42-8.33.23-16.65.73-24.98,1.11-.96.04-1.83.1-2.47-.91-.25-.39-1.04-.63-1.58-.62-5.98.1-11.95.26-17.92.41-.47.01-.96,0-1.4.13-1.17.35-1.57,1.66-.8,2.6.29.36.69.64,1.07.91.45.31.95.55,1.42.84,1.99,1.22,3.5,2.73,3.05,5.33-.39,2.28-2.4,4.21-5.1,4.58-2.25.32-4.54.43-6.82.5-13.36.4-26.72.75-40.09,1.15-6.68.2-13.36.48-20.04.72-.71.03-1.42.01-2.12.02-3.84,0-7.38-.69-9.71-4.45-.25.58-.42.92-.54,1.27-5.01,14.39-14.7,24.59-28.4,30.87-14.66,6.73-30,8.4-45.81,4.92-6.96-1.53-13.11-4.8-18.55-9.37-6.85-5.76-12.69-12.42-17.45-20-2.65-4.21-4.71-8.7-6.07-13.5-.17-.59-.4-1.17-.65-1.88-.99,0-1.92,0-2.86,0-8.64-.03-17.29.05-25.93-.14-4.73-.1-9.33-1.27-13.8-2.84-2.75-.97-5.15-2.38-6.09-5.42-.08-.26-.44-.43-.67-.64,0-3.46,0-6.92,0-10.38.3-5.01.61-10.02.89-15.03.09-1.65-.01-3.31.14-4.95.52-5.75,4.15-9.34,9.92-9.75,1.95-.14,3.91-.02,6.08-.02-.11-.56-.16-1.06-.3-1.54-1.07-3.68-1.11-7.46-1.02-11.23.23-9.74.47-19.49.88-29.23.18-4.31.64-8.62,1.28-12.88.87-5.76,4.15-9.95,9.33-12.54,4.35-2.18,8.8-4.18,13.22-6.23,11.55-5.35,23.1-10.71,34.67-16.01,1.16-.53,2.46-.74,4.21-1.25,3.25-5.02,6.88-10.43,10.31-15.97,12.63-20.38,25.19-40.79,37.76-61.2.32-.52.56-1.12.7-1.71.96-4.07,3.25-7.27,6.38-9.95,2.89-2.48,6.2-4.28,9.7-5.73,7.31-3.01,14.93-5,22.74-5.95,12.17-1.48,24.38-2.59,36.57-3.86.69-.07,1.37-.19,2.27-.32,0-1.04-.06-1.97,0-2.89.27-3.84.44-7.69.92-11.5.49-3.91,2.17-5.39,6.03-5.58,4.32-.2,8.64-.26,12.96-.38.31,0,.63,0,.94.02,3.71.23,4.91,1.61,4.53,5.29-.31,3.05-.72,6.09-1.07,9.14-.08.68-.1,1.37-.15,2.24,2.3,0,4.41.02,6.51,0,8.26-.08,16.51-.2,24.77-.26,1.48,0,2.97.21,4.45.35,3.47.33,5.74,2.72,8.08,4.89.43.39.49,1.3.53,1.98.51,9.34,1.19,18.67,1.42,28.02.57,22.34-.76,44.64-1.77,66.94-1,22.07-1.93,44.16-.59,66.24.58,9.49,1.77,18.93,2.7,28.4.06.61.25,1.21.36,1.77,1.81.47,29.45.59,32.46.14.05-.63.16-1.31.16-1.98.02-2.83-.03-5.66.02-8.49.03-1.82.54-2.15,2.36-1.8.76.15,1.54.31,2.32.31,18.79.05,37.59.09,56.38.11.85,0,1.69-.08,2.68-.13v-19.16c-.81-.07-1.56-.19-2.3-.19-5.5,0-11.01.03-16.51.04-.63,0-1.26.03-1.89,0-2.58-.13-4-1.29-4.25-3.82-.21-2.17-.13-4.38-.15-6.57,0-.69.06-1.39.11-2.33-1.19-.05-2.27-.12-3.35-.12-7.94,0-15.89-.18-23.82.1-10.52.38-21.04,1.11-31.55,1.72-1.98.12-2.05.19-2.63-1.7-.36-1.17-.73-2.41-.71-3.61.32-19.1.71-38.2,1.07-57.3.05-2.43,0-4.85,0-7.46-.6-.09-1.19-.23-1.78-.24-1.81-.04-3.62.02-5.43-.03-2.03-.06-3-1.06-3.03-3.07-.04-2.28-.01-4.56-.01-6.84,0-9.36,0-18.71,0-28.07,0-.55,0-1.1,0-1.65,0-1.16.6-1.7,1.76-1.71,1.73-.01,3.46-.08,5.18-.11.85-.01,1.7,0,2.48,0,1.44-5.3.2-46.8-1.49-52.57-2.1-.19-4.23-.21-6.29-.59-11.96-2.22-17.6-14.21-13.81-24.93.56-1.57.96-1.8,2.94-1.45,4.9.88,9.83,1.15,14.8,1.03.85-.02,1.69-.09,2.67-.14.05-.85.13-1.53.13-2.22.05-20.76.1-41.51.14-62.27,0-.79,0-1.57.04-2.36.1-2.32.34-2.59,2.6-2.64,5.03-.11,10.06-.19,15.09-.26,4.25-.06,8.49-.1,12.74-.15.46,0,.92-.08,1.46-.13.07-.37.18-.66.17-.95-.09-5.99,2.75-10.33,8.47-12.15,2.81-.9,5.82-1.37,8.77-1.62,5.01-.43,10.05-.55,15.08-.77,1.1-.05,2.2-.01,3.3.09,4.63.43,7.27,3.05,7.7,7.71.14,1.55.02,3.13.02,4.67,1.77.47,215.14.63,218.8.18-.16-1.06-.34-2.13-.46-3.19-.48-4.36,1.82-7.52,6.13-8.33,1.38-.26,2.81-.4,4.22-.41,6.37-.04,12.74-.04,19.11-.01,7.52.04,11.65,4.1,11.88,11.62.02.78,0,1.56,0,2.31,1.78.55,18.44.64,21.18.09-.43-.87-.81-1.69-1.23-2.49-4.5-8.66-8.37-17.59-11.62-26.79-1.13-3.19-1.1-3.38,1.62-5.5,4.18-3.26,8.73-5.91,13.77-7.59,2.97-.99,6.06-1.62,9.09-2.43.36-.1.7-.29,1.05-.44,1.1,0,2.2,0,3.3,0ZM137.8,259.04c-3.57,1-6.95.57-10.15-1.34-.53-.32-1.12-.56-1.69-.81-1.11-.48-1.79-.1-1.96,1.07-.2,1.32.61,2.51,2.21,3.25,3.18,1.48,8.83.4,11.55-2.22,2.72-1.06,4.21-3.33,5.57-5.71.64-1.12,1.23-2.27,1.85-3.41-1.57-1.69-2.96-1.75-4.1.09-.67,1.09-1.13,2.44-1.26,3.72-.21,2-.73,3.8-2.02,5.36ZM631.1,13.68c.3.92.5,1.67.78,2.39,3.98,10.42,7.93,20.84,14.14,30.22.58.87.43,1.86-.23,2.63-.58.68-1.28.61-2.11.19-.72-.36-1.63-.48-2.45-.49-7-.04-14-.02-21-.02-3.22,0-3.17,0-3.1-3.33.03-1.64-.01-3.31-.34-4.91-.79-3.86-3.13-5.83-7.09-5.97-3.53-.12-7.08-.04-10.61-.04-3.93,0-7.87-.12-11.79.03-4.52.17-6.28,2.75-5.06,7.14.23.83.57,1.63.87,2.44.16.44.53.89.5,1.3-.06.64-.23,1.39-.63,1.84-.54.59-1.41.47-1.84-.21-.44-.71-.95-.61-1.6-.58-1.41.07-2.83.06-4.25.06-69.52,0-139.05,0-208.57.01-2.58,0-5.17.19-7.75.3-2.01.09-2.84-1.14-2.01-2.99,1.01-2.28.95-4.59.15-6.88-.55-1.57-1.68-2.68-3.35-3.02-.99-.2-2.02-.34-3.03-.3-4.71.2-9.42.43-14.13.73-2.27.14-4.54.37-6.8.7-2.36.35-4.57,1.17-6.44,2.72-2.75,2.27-3.69,5.45-2.5,8.41.95,2.36.57,2.97-1.95,3.01-9.36.16-18.71.3-28.07.46-.77.01-1.54.07-2.45.12-.05.89-.12,1.65-.13,2.42-.05,13.84-.09,27.68-.14,41.51-.03,7.63-.08,15.25-.14,22.88-.02,2.21-.18,2.55-2.38,2.63-3.76.13-7.54.09-11.3-.03-2.34-.08-4.66-.46-7.01-.7-.21.38-.41.64-.48.92-2.89,11.65,6.88,21.38,18.09,19.23,2.26-.43,2.76-.12,2.91,2.25.09,1.41.18,2.82.29,4.24,1.04,13.72,1.94,27.45,1.67,41.23-.07,3.46-.23,6.91-.42,10.37-.1,1.74-1.15,2.56-2.41,1.81-2.33-1.38-4.68-.37-7.09-.69v35.22c.48.06.86.14,1.23.15,2.36.03,4.72,0,7.08.08,1.61.06,1.93.41,1.99,1.96.03.86-.03,1.73-.05,2.59-.42,20.99-.83,41.97-1.25,62.96-.02.84,0,1.68,0,2.55.9,0,1.52.03,2.14,0,10.21-.55,20.4-1.28,30.62-1.61,8.25-.27,16.51-.05,24.77-.06,1.07,0,2.14.21,2.93-.95.51-.75,1.57-.76,2.05-.06.79,1.17,1.85,1.01,2.92,1.01,33.5,0,67.01,0,100.51,0,.62,0,1.25-.04,1.87-.12,1.3-.18,2.6-.57,3.89-.57,27.68-.03,55.37-.01,83.05-.05,2.01,0,4.09.48,6.02-.6.23-.13.68-.1.9.04,1.38.87,2.91.56,4.37.56,63.55.01,127.1.01,190.64.01.94,0,1.89.05,2.83,0,1.51-.1,2.78.45,3.88,1.42.94.83,1.86,1.7,2.69,2.64,4.01,4.49,6.54,9.77,8.25,15.48.61,2.03,1.14,4.09,1.86,6.08.42,1.16,1.02,2.32,1.77,3.3,1.31,1.68,2.9,2.85,5.29,2.08.54-.17,1.33.18,1.92.46,1.1.52,1.42,1.6,1.68,2.69,2.24,9.32,4.52,18.64,6.72,27.97.89,3.75,1.57,7.54,2.44,11.29.55,2.39,1.5,3.09,3.97,3.21.71.03,1.42.03,2.12,0,4.56-.23,9.11-.46,13.66-.71,1.39-.08,2.79-.2,3.68-.27,1.53-3.35,2.74-6.41,4.28-9.31,3.33-6.24,6.82-12.39,10.25-18.58,2.4-4.33,4.8-8.66,7.23-12.98.94-1.66.97-1.62,2.76-1.14.6.16,1.23.24,1.85.24,13.92.01,27.84.01,41.76,0,.68,0,1.35-.13,2.07-.2.09-.57.16-.94.21-1.32,1.15-8.48,2.3-16.97,3.45-25.45,1.51-11.05,3.05-22.1,4.53-33.15,1.5-11.21,2.93-22.43,4.41-33.64,1.48-11.21,3-22.42,4.47-33.64.08-.64-.28-1.33-.31-2.01-.03-.65,0-1.33.18-1.95.25-.87.82-1.67.95-2.55.45-3.11.84-6.23,1.11-9.36.59-6.67-1.06-12.63-5.88-17.51-.5-.5-.95-1.05-1.42-1.58-7.1-7.79-14.2-15.57-21.3-23.36-.37-.41-.9-.78-1.04-1.26-.51-1.79-1.94-2.82-3.15-4.02-2.24-2.21-4.49-4.41-6.83-6.51-19.07-17.01-38.18-33.98-57.25-50.99-7.21-6.44-14.51-12.8-21.45-19.52-4.56-4.41-8.6-9.38-12.77-14.18-.96-1.11-1.86-1.62-3.36-1.65-8.41-.16-16.82-.47-25.23-.69-15.8-.42-31.6-.82-47.4-1.24-3.14-.08-6.29-.2-9.43-.35-2.96-.14-5.27-1.47-6.78-4.05-.67-1.15-1.27-2.35-1.82-3.57-4.84-10.83-9.66-21.67-14.49-32.5-.76-1.71-1.54-3.42-2.39-5.28-9.23,1.15-17.26,4.66-24.39,10.5ZM21.27,350.15c1.39,0,2.48-.02,3.57,0,8.41.19,16.82.34,25.23.63,1.61.05,2.58-.44,3.52-1.72,2.05-2.78,4.13-5.56,6.46-8.11,15.66-17.18,35.01-24.04,57.87-19.57,15.93,3.11,28.55,12,38.48,24.68,9.45,12.05,14.62,25.92,16.79,40.99.23,1.61.44,3.22.67,4.92.74,0,1.28.02,1.82,0,7.93-.33,15.87-.8,23.8-.97,14.86-.33,29.72-.5,44.58-.72.63,0,1.37-.14,1.86.15,1.56.91,3.2.62,4.83.59,4.64-.09,9.28-.2,13.91-.35,2.12-.07,4.24-.19,6.35-.36,2.43-.19,3.83-1.66,4.5-3.88.27-.89.48-1.85.49-2.77.03-4.8.13-9.6-.08-14.39-.21-4.86-.76-9.71-2.12-14.43-.55-1.92-1.51-3.83-.62-5.93.13-.32-.05-.77-.1-1.16-.56-4.36-1.21-8.71-1.66-13.09-1.32-12.84-1.94-25.72-1.8-38.61.15-13.75.69-27.5,1.17-41.25.54-15.32,1.27-30.63,1.78-45.95.43-12.81.23-25.63-.37-38.43-.14-3.06-.33-6.13-.7-9.17-.69-5.62-2.67-7.49-8.28-8-1.56-.14-3.14-.21-4.71-.19-4.64.05-9.28.2-13.91.25-5.03.05-10.06.01-15.13.01-.33,1.74-1.39,2.09-2.81,2.1-3.85.03-7.71.13-11.55.28-1.48.06-3.02.14-4.42.57-1.97.61-3.96.82-5.99,1.01-9.24.83-18.47,1.73-27.7,2.65-8.53.85-16.98,2.23-25.2,4.75-4.82,1.48-9.53,3.25-13.71,6.16-2.62,1.82-4.88,3.99-6.16,6.98-.38.89-.55,1.86-.87,2.95.86.06,1.4.13,1.94.13,25.17-.05,50.33-.1,75.5-.16,7.66-.02,12.74,3.77,15.73,10.63,1.74,3.98,2.11,8.2,2.05,12.47-.02,1.81-.23,3.61-.23,5.42,0,1.31.49,2.66.26,3.91-1.47,8.27-.95,16.42.96,24.57.7,2.97,1.16,6.03,1.35,9.08.53,8.3-3.52,13.66-11.6,15.58-1.75.41-3.56.78-5.34.83-8.72.21-17.45.49-26.18.39-12.74-.14-25.45-1.02-38.13-2.24-1.93-.19-3.35-.67-3.48-2.86-.23.07-.33.07-.38.12-.46.42-.91.87-1.37,1.29-4.13,3.75-8.97,5.48-14.52,4.74-1.57-.21-3.24-.82-4.54-1.72-2.59-1.77-2.98-5.25-1.19-7.74,1.06-1.47,2.57-1.97,4.26-1.86.18-.34.29-.54.38-.75,1.94-4.62,3.29-9.49,5.9-13.82.18-.3.21-.78.14-1.14-.29-1.54-.64-3.07-1.08-5.15-.55.97-.8,1.35-.99,1.77-3.4,7.17-6.79,14.35-10.18,21.53-.97,2.06-1.91,4.14-2.93,6.18-.84,1.69-1.35,1.76-2.88.73-.47-.32-1.1-.59-1.65-.58-10.22.13-20.43.33-30.65.46-1.22.02-2.12.28-2.71,1.42-.32.62-.68,1.34-1.23,1.7-.5.33-1.33.45-1.91.28-.74-.21-1-.94-.65-1.74.14-.33.28-.66.56-1.33-1.04.43-1.75.69-2.44,1-3.64,1.67-7.27,3.36-10.91,5.04-10.84,5.01-21.64,10.11-32.53,15.01-6.62,2.98-9.74,8.12-10.15,15.16-.02.31-.06.63-.07.94-.36,8.25-.78,16.49-1.06,24.74-.19,5.66-.23,11.32-.23,16.98,0,3.02.43,5.96,2.39,8.4Zm701.14,40.09c0-.98,0-1.82,0-2.66,0-9.51-.03-19.02.01-28.53.02-5.28,2.73-8.15,8.03-8.51,1.96-.13,3.93-.02,5.89-.04.83,0,1.66-.06,2.44-.1.45-4.66.27-44.66-.19-46.39h-187.11c0,1.01,0,1.87,0,2.73,0,8.41,0,16.82,0,25.23,0,5.11.1,10.22-.04,15.33-.08,3.08-1.33,4.17-4.06,4.13-10.3-.17-20.6-.07-30.9-.07-.84,0-1.68,0-2.81,0,.38.78.58,1.28.85,1.72,1.57,2.61,2.46,5.46,2.69,8.47.2,2.66.27,5.34.2,8-.16,6.13-.45,12.25-.67,18.38-.03.75,0,1.51,0,2.23,4.34.56,73.29.33,74.99-.25-1.33-16.75,3.16-31.76,14.3-44.45,11.14-12.68,25.32-19.38,42.24-19.92,15.65-.5,29.42,4.55,40.99,15.06,14.59,13.26,20.51,30.06,19.16,49.65h14Zm-289.86,15.57c0,.08,0,.16,0,.24,4.72,0,9.43-.04,14.15,0,10.06.1,20.12.24,30.19.37,5.89.07,11.79.22,17.68.2,3.39,0,6.75-.45,9.91-1.8,3.54-1.51,6.42-3.8,7.65-7.54.75-2.27,1.19-4.7,1.36-7.08.39-5.72.58-11.46.78-17.19.11-3.22.16-6.45.06-9.67-.11-3.43-.92-6.75-3.05-9.51-1.92-2.48-4.06-4.79-6.23-7.05-1.65-1.72-3.8-2.46-6.19-2.42-1.81.03-3.61.07-5.42.11-11,.27-21.99.75-32.99.79-31.13.11-62.27.04-93.41.04-.79,0-1.63.17-2.35-.06-1.26-.4-2.28.07-3.38.48-5.53,2.06-8.37,6.04-8.81,11.91-.29,3.91-.94,7.8-1.29,11.71-.33,3.59-.61,7.2-.66,10.81-.04,3.56.78,7.04,2.11,10.34.85,2.1,2.23,3.99,3.04,6.1,1.51,3.96,4.38,6.19,8.34,7.28,3.75,1.03,7.6,1.25,11.45,1.3,19.02.24,38.05.41,57.07.61Zm23.13-100.96h-104.86c-.06,2.55-.2,4.97-.14,7.38.04,1.91.39,2.14,2.28,2.14,4.72,0,9.44-.02,14.15-.04,1.42,0,2.83-.06,4.25-.03,3.23.08,4.52,1.38,4.67,4.63,0,.16,0,.31,0,.47,0,5.9.01,11.79,0,17.69,0,2.53-.38,2.94-2.83,2.93-19.34-.05-38.69-.11-58.03-.17-.99,0-1.98.06-3.16.1,0,2.99,0,5.73,0,8.47-.01,2.4-.91,3.39-3.3,3.6-.7.06-1.41.02-2.12.02-9.12,0-18.25,0-27.37,0-.86,0-1.71,0-2.5,0-.11.34-.23.5-.2.63.3,1.3.64,2.59.93,3.89,1.62,7.27,1.76,14.66,1.65,22.06-.06,4.44.3,8.99-2.97,12.89,1.99,0,3.63.06,5.26,0,20.99-.95,41.97-1,62.96,0,1.93.09,3.51-.15,4.74-1.78-1.58-5.47-2.12-11.04-1.37-16.75.74-5.6,1.37-11.23,1.92-16.85.47-4.89,2.71-8.61,6.84-11.23,3.02-1.91,6.36-3.06,9.79-3.96.47-.12,1.3-.07,1.5.23.9,1.31,2.18,1.02,3.4,1.02,20.13,0,40.26,0,60.4.01,12.11.01,24.22.18,36.33.08,8.25-.07,16.5-.47,24.76-.74.45-.01.89-.18,1.32-.28v-3.25c-.4-.08-.63-.17-.85-.17-19.19-.01-38.38-.01-57.57-.02-.73,0-1.34.06-1.83.76-.59.84-1.58.98-2.23.23-.75-.86-1.35-1.91-1.07-3.21.24-1.13.47-2.29.49-3.43.05-5.19,0-10.38.04-15.57.01-1.89.75-2.34,2.53-1.8.73.22,1.51.39,2.27.39,6.06.03,12.11.02,18.17,0,.6,0,1.19-.12,1.79-.19v-10.13Zm-285.04,87.19c-.4-5.53-1.34-10.7-2.72-15.78-4.06-15.02-11.46-28.06-23.43-38.18-15-12.68-32.11-17.84-51.57-13.49-16.24,3.63-28.1,13.42-37.27,27.06,2.2,1.71,2.68,4.14,2.93,6.69.54,5.4,1.16,10.79,1.69,16.19.38,3.91.87,7.83.94,11.74.04,2.23-.46,4.54-1.12,6.68-.83,2.7-2.77,4.51-5.56,5.32-.57.17-1.12.42-1.97.75,1.16,2.91,2.12,5.74,3.4,8.42,4.31,9.01,10.74,16.41,18.09,23.04,5.28,4.75,11.29,8.24,18.25,9.92,7.42,1.79,14.91,2.09,22.49,1.29,9.5-1,18.53-3.55,26.73-8.52,12.45-7.54,20.67-18.17,23.39-32.69.33-1.77.35-3.6.6-5.38.28-1.98.88-2.51,2.86-2.75.69-.08,1.38-.18,2.28-.31Zm-30.12-172.63c2.87,0,5.38-.12,7.87.02,6.4.37,10.35,3.99,11.22,10.3.26,1.93.29,3.93.15,5.87-.46,6.03-1.08,12.05-1.57,18.08-.17,2.06-.35,4.04-2.87,5.23,18.3,1.69,36.13,1.91,53.97,1.38,2.57-.08,5.18-.48,7.67-1.11,5.97-1.52,8.87-5.31,8.66-11.47-.1-2.95-.61-5.93-1.26-8.83-1.84-8.2-2.62-16.42-1.25-24.78.1-.6.01-1.24-.02-1.86-.05-.92-.19-1.85-.17-2.77.06-3.06.34-6.13.21-9.18-.17-3.97-1.18-7.76-3.58-11.05-2.24-3.06-5.14-5.11-9.02-5.32-3.13-.17-6.27-.14-9.41-.14-14.3.03-28.61.09-42.91.13-.62,0-1.24,0-1.93,0,.92,1.97.84,1.93-.21,3.94-3.83,7.3-7.67,14.59-11.38,21.96-1.54,3.07-2.75,6.31-4.17,9.59Zm509.66,109.11c-30.56-.04-55.52,24.73-55.59,55.18-.08,30.85,24.76,55.81,55.46,55.75,30.63-.06,55.43-24.77,55.46-55.27.04-30.68-24.76-55.62-55.34-55.66Zm-101.94-24.67c-1.13,0-2.06,0-2.99,0-27.51,0-55.02,0-82.53,0-4,0-3.92-.53-3.9,4,0,2.67.03,5.34-.01,8.02-.03,1.99-.36,2.28-2.37,2.37-.55.02-1.1,0-1.65,0-6.05,0-12.11,0-18.16,0-.82,0-1.65.09-2.42.13-.45,4.54-.28,14.55.28,16.33h3c18.79,0,37.57,0,56.36,0,.71,0,1.42-.03,2.12.01,1.77.12,2.28.77,1.65,2.43-.5,1.32-.39,2.58-.19,4,1.15.12,2.23.25,3.31.33,2.19.17,4.12,1,5.78,2.41,1.01.86,2.02,1.77,2.85,2.8.92,1.14,1.94,1.57,3.43,1.56,11.08-.06,22.17-.03,33.25-.04.69,0,1.37-.08,2.18-.13v-44.25ZM3.96,373.94c-.07,0-.13,0-.2,0-.12,4.32-.27,8.64-.35,12.96-.07,3.31.73,4.53,3.85,5.68,7.18,2.64,14.58,3.76,22.23,2.97,1.09-.11,2.19-.21,3.29-.2,6.27.07,12.55.35,18.82.22,3.91-.08,5.95-2.28,6.42-6.2.18-1.47.26-2.99.12-4.47-.82-8.84-1.7-17.67-2.59-26.5-.09-.93-.32-1.87-.67-2.73-.22-.52-.74-1.13-1.24-1.25-1.34-.33-2.74-.55-4.12-.6-5.03-.18-10.06-.28-15.09-.38-3.38-.07-6.76-.02-10.14-.17-3.4-.16-6.8-.5-10.2-.76-.39-.03-.79-.06-1.18-.04-6.57.2-8.97,3.14-8.93,8.74,0,.08,0,.16,0,.24,0,4.16,0,8.33,0,12.49Zm146.67-189.87c-.97-.05-1.66-.11-2.34-.11-5.58,0-11.16.07-16.74-.02-1.55-.03-2.38.5-3.16,1.81-14.35,24.29-29.29,48.23-44.71,71.86-.33.5-.6,1.04-.98,1.71.53.09.82.19,1.11.19,9.98-.18,19.96-.39,29.94-.54,1.3-.02,1.96-.6,2.47-1.73,1.56-3.43,3.27-6.79,4.8-10.24,3.28-7.38,7.38-14.39,9.98-22.08.15-.44.45-.82.69-1.23.63-1.08,1.34-2.12,1.88-3.25,5.39-11.35,10.75-22.72,16.11-34.08.32-.68.58-1.39.95-2.29Zm597.31,169.56v-.1c-5.11,0-10.21-.02-15.32.01-1.09,0-2.2.12-3.28.32-1.96.35-3.26,1.5-3.66,3.5-.17.84-.26,1.71-.26,2.57-.02,8.01,0,16.02-.02,24.03,0,1.8.18,3.51.75,5.27.86,2.64,2.48,4.41,4.97,5.24,1.99.66,4.11,1.14,6.2,1.23,11.08.47,22.14.05,33.16-1.25,2.79-.33,3.26-.85,3.71-3.64.06-.39.12-.78.15-1.17.57-8.42.28-16.8-1.51-25.07-.61-2.82-1.53-5.59-2.47-8.32-.45-1.31-1.34-2.35-3.05-1.85-.28.08-.69.06-.9-.09-1.26-.93-2.7-.66-4.1-.67-4.79-.02-9.58,0-14.37,0Zm124.98-206.19c1.18-.98,2.11-1.7,2.98-2.5,1.2-1.11,1.78-2.52,1.02-4.04-.83-1.67-1.78-3.31-2.92-4.78-5.59-7.25-12.51-13.23-19.01-19.6-2.81-2.75-5.8-5.31-8.68-7.98-5.75-5.36-11.28-10.99-17.27-16.06-9.54-8.07-19.38-15.79-29.12-23.62-1.03-.83-2.18-1.57-3.37-2.15-1.71-.83-3.51-1.25-5.48-.84-2.13.45-3.11,2.09-4.36,3.62.49.46.89.85,1.3,1.21,13.1,11.65,26.24,23.26,39.29,34.97,13.28,11.92,26.48,23.93,39.69,35.93,2.02,1.84,3.9,3.83,5.94,5.84Zm25.81,59.41c-4.46,33.37-8.87,66.31-13.27,99.24-.09.7-.1,1.4-.14,2.1,0,.07.06.15.11.2.05.05.12.07.3.18,2.78-.46,4.81-2.21,6-4.67,1.11-2.3,1.98-4.81,2.48-7.32,1.21-6.08,2.26-12.2,3.15-18.34,1.29-8.94,2.47-17.9,3.51-26.87.87-7.49,1.6-15,2.15-22.52.34-4.61,1.05-9.23.22-13.87-.55-3.07-1.43-5.93-4.52-8.14ZM184.15,394.46c-1.21.27-2.67.17-3.36.84-1.44,1.41-3.08,1.76-4.9,1.95-2.1.21-4.01.86-5.31,2.65-1.13,1.54-1.68,3.23-.88,5.08.78,1.78,2.34,2.5,4.15,2.65,1.4.12,2.83.1,4.24.06,21.6-.62,43.2-1.26,64.8-1.91.93-.03,1.88-.22,2.76-.5,1-.32,2.04-.96,1.94-2.07-.06-.69-.88-1.39-1.49-1.93-.58-.51-1.38-.76-2.01-1.22-1.77-1.28-2.81-2.94-2.45-5.23.06-.41.17-.81.3-1.41-1.6,0-2.93-.02-4.26,0-1.3.02-2.6.07-3.88.11-.15,3.77-1.35,5.02-4.86,5.25-.94.06-1.88.05-2.83.05-3.22-.02-6.44-.06-9.67-.07-8.96-.01-17.92.02-26.88-.02-3.41-.01-4.32-.74-5.44-4.27Zm-55.17-139.56c.96.45,1.68.94,2.48,1.15,4.36,1.15,5.29.43,5.43-3.4.04-1.14.41-2.38,1-3.34.72-1.17,1.66-2.35,2.8-3.06,2.96-1.85,6.82-.13,7.64,3.22.32,1.31.18,2.57-.88,3.46-1.32,1.11-1.78,2.64-2.67,4.43,3.56-.63,6.79-1.2,10-1.76.15-.4.33-.69.35-.98.54-6.73,1.1-13.46,1.58-20.2.1-1.4.06-2.84-.1-4.23-.46-3.92-2.86-6.71-6.54-7.4-4.49-.85-8.92-.24-13.28.97-1.1.3-1.78,1.08-2.39,2.1-1.09,1.83-1.07,3.67-.2,5.4,1.85,3.68,1.86,7.43,1.2,11.38-.63,3.79-.94,7.64-1.41,11.46-.12.96-.62,1.68-1.69,1.55-1.05-.13-1.4-.85-1.29-1.87.16-1.45.27-2.91.41-4.37-.11-.03-.21-.06-.32-.1-.68,1.8-1.36,3.6-2.12,5.61Zm770.11-51.45c5.44,3.13,7.29,8,7.51,13.74.01.31.02.63,0,.94-.1,2.75-.15,5.5-.33,8.24-1.23,18.83-3.53,37.54-6.45,56.17-.98,6.28-2.13,12.55-3.65,18.72-1.44,5.84-5.05,9.87-11.38,10.78-.25.92-.65,1.78-.11,2.8,2.11-.6,4.13-1.2,6.17-1.75,4.26-1.14,6.92-3.85,8.02-8.1.84-3.27,1.75-6.52,2.44-9.82,2.89-13.87,3.7-28,5.18-42.05.6-5.7,1.14-11.41,1.7-17.11.51-5.24,1.08-10.47,1.5-15.71.3-3.78-.02-7.53-1.26-11.16-.87-2.57-2.16-4.89-4.26-6.66-1.32-1.11-2.75-2-4.64-2.14-.17,1.1-.3,2.01-.47,3.11Zm-114.45-136.01c1.37-2.58,3.28-4.12,5.91-4.61,2.55-.48,5.06-.17,7.31,1.12,1.83,1.05,3.63,2.21,5.28,3.53,6.88,5.49,13.7,11.05,20.54,16.59,2.87,2.32,5.86,4.52,8.56,7.02,10.54,9.78,20.96,19.68,31.46,29.49,4.89,4.57,9.46,9.44,13.53,14.75.99,1.29,1.86,2.74,2.47,4.25,1.26,3.12.44,5.86-2.14,8.02-.54.45-1.13.87-1.6,1.39-.93,1.05-.89,1.67.18,3.24,1.07-.74,2.1-1.55,3.23-2.2,1.96-1.12,2.87-2.83,3.08-4.99.21-2.25-.15-4.43-1.31-6.36-1.29-2.15-2.59-4.34-4.22-6.22-2.88-3.32-5.89-6.55-9.08-9.57-10.66-10.11-21.41-20.13-32.16-30.14-8.45-7.87-16.93-15.72-25.45-23.52-4.75-4.34-10.25-7.5-16.23-9.86-3.84-1.51-6.31-.97-9.09,2.06-.99,1.08-1.8,2.33-2.82,3.69.89.81,1.63,1.49,2.55,2.33ZM228.27,136.75c-3.13,0-5.71-.03-8.29,0-2.35.03-4.71.03-7.05.25-2.29.22-3.09.94-3.31,3.24-.39,4.05-.55,8.12-.79,12.19-.02.27.15.55.16.58,5.88-.29,11.56-.57,17.49-.86.58-5.01,1.16-10.01,1.79-15.4Zm-40.56,258.32c1.05.76,2.14.67,3.2.67,11.95.02,23.91.04,35.86.05.86,0,1.74-.02,2.58-.17,1.38-.24,1.41-.38.91-2.18-13.96,0-27.94.38-41.91,1.07-.17,0-.32.27-.64.56Zm-17.29.75c-1.69-.68-1.74-.65-1.75,1.19.62-.42,1.17-.79,1.75-1.19Z"/>
  <path class="cls-3" d="m319.48,486.9c-.19-.41-.49-.8-.56-1.23-.17-1.08.32-1.78,1.19-1.87.94-.09,1.67.69,1.59,1.78-.03.44-.22.88-.34,1.32h-1.89Z"/>
  <path class="cls-5" d="m631.1,13.68c7.13-5.83,15.16-9.35,24.39-10.5.84,1.86,1.62,3.57,2.39,5.28,4.83,10.83,9.65,21.67,14.49,32.5.54,1.22,1.14,2.42,1.82,3.57,1.51,2.57,3.82,3.9,6.78,4.05,3.14.15,6.29.27,9.43.35,15.8.42,31.6.82,47.4,1.24,8.41.23,16.82.53,25.23.69,1.5.03,2.4.55,3.36,1.65,4.17,4.8,8.21,9.76,12.77,14.18,6.94,6.72,14.24,13.08,21.45,19.52,19.07,17.02,38.18,33.98,57.25,50.99,2.35,2.09,4.59,4.3,6.83,6.51,1.21,1.19,2.64,2.23,3.15,4.02.14.48.67.86,1.04,1.26,7.1,7.79,14.2,15.57,21.3,23.36.48.52.93,1.07,1.42,1.58,4.81,4.88,6.46,10.83,5.88,17.51-.28,3.13-.67,6.25-1.11,9.36-.13.88-.7,1.68-.95,2.55-.18.62-.21,1.3-.18,1.95.03.67.39,1.36.31,2.01-1.46,11.22-2.98,22.42-4.47,33.64-1.48,11.21-2.91,22.43-4.41,33.64-1.48,11.06-3.02,22.1-4.53,33.15-1.16,8.48-2.3,16.97-3.45,25.45-.05.38-.12.76-.21,1.32-.72.07-1.4.2-2.07.2-13.92.01-27.84.01-41.76,0-.62,0-1.25-.08-1.85-.24-1.79-.47-1.83-.52-2.76,1.14-2.43,4.31-4.82,8.65-7.23,12.98-3.43,6.19-6.92,12.34-10.25,18.58-1.54,2.89-2.75,5.96-4.28,9.31-.89.07-2.29.2-3.68.27-4.55.25-9.11.48-13.66.71-.71.04-1.42.04-2.12,0-2.47-.12-3.42-.82-3.97-3.21-.86-3.75-1.55-7.55-2.44-11.29-2.2-9.33-4.48-18.65-6.72-27.97-.26-1.09-.58-2.17-1.68-2.69-.6-.28-1.38-.63-1.92-.46-2.4.77-3.98-.4-5.29-2.08-.76-.97-1.35-2.13-1.77-3.3-.72-1.99-1.25-4.05-1.86-6.08-1.71-5.71-4.24-11-8.25-15.48-.84-.94-1.75-1.81-2.69-2.64-1.09-.97-2.36-1.51-3.88-1.42-.94.06-1.89,0-2.83,0-63.55,0-127.1,0-190.64-.01-1.47,0-2.99.31-4.37-.56-.23-.14-.68-.17-.9-.04-1.93,1.08-4.01.6-6.02.6-27.68.03-55.37.01-83.05.05-1.3,0-2.59.39-3.89.57-.62.08-1.25.12-1.87.12-33.5,0-67.01,0-100.51,0-1.08,0-2.13.16-2.92-1.01-.48-.71-1.54-.7-2.05.06-.78,1.16-1.86.95-2.93.95-8.26,0-16.52-.21-24.77.06-10.21.33-20.41,1.06-30.62,1.61-.61.03-1.23,0-2.14,0,0-.87-.01-1.71,0-2.55.41-20.99.83-41.97,1.25-62.96.02-.86.08-1.73.05-2.59-.06-1.55-.37-1.91-1.99-1.96-2.36-.08-4.72-.05-7.08-.08-.38,0-.75-.09-1.23-.15v-35.22c2.41.32,4.77-.68,7.09.69,1.25.74,2.31-.08,2.41-1.81.2-3.45.36-6.91.42-10.37.27-13.77-.63-27.5-1.67-41.23-.11-1.41-.19-2.82-.29-4.24-.16-2.37-.65-2.68-2.91-2.25-11.21,2.14-20.98-7.58-18.09-19.23.07-.29.28-.54.48-.92,2.35.25,4.67.62,7.01.7,3.77.13,7.54.17,11.3.03,2.2-.08,2.36-.42,2.38-2.63.06-7.63.11-15.25.14-22.88.05-13.84.09-27.68.14-41.51,0-.76.08-1.53.13-2.42.91-.04,1.68-.1,2.45-.12,9.36-.16,18.71-.3,28.07-.46,2.52-.04,2.9-.65,1.95-3.01-1.19-2.96-.25-6.14,2.5-8.41,1.87-1.55,4.08-2.37,6.44-2.72,2.25-.33,4.52-.56,6.8-.7,4.71-.3,9.42-.53,14.13-.73,1.01-.04,2.04.1,3.03.3,1.68.34,2.8,1.44,3.35,3.02.8,2.29.87,4.61-.15,6.88-.83,1.86,0,3.08,2.01,2.99,2.58-.11,5.17-.3,7.75-.3,69.52-.02,139.05-.01,208.57-.01,1.42,0,2.83.02,4.25-.06.65-.03,1.16-.13,1.6.58.43.68,1.3.8,1.84.21.41-.45.58-1.2.63-1.84.04-.42-.33-.86-.5-1.3-.3-.81-.64-1.61-.87-2.44-1.22-4.39.54-6.97,5.06-7.14,3.93-.14,7.86-.03,11.79-.03,3.54,0,7.08-.08,10.61.04,3.96.14,6.3,2.11,7.09,5.97.33,1.59.37,3.27.34,4.91-.07,3.33-.13,3.33,3.1,3.33,7,0,14-.02,21,.02.83,0,1.73.12,2.45.49.84.42,1.53.49,2.11-.19.67-.77.81-1.76.23-2.63-6.2-9.38-10.16-19.81-14.14-30.22-.28-.72-.48-1.47-.78-2.39Zm190.54,299.35c3.53.14,6.81.34,10.1.39,8.48.13,16.97.21,25.45.27,1.61.01,2.27-.52,2.77-2.03.17-.52.24-1.07.34-1.61,4.16-22.25,8.34-44.49,12.48-66.74,2.17-11.68,3.9-23.41,3.71-35.35-.14-9.12-1.51-18-4.82-26.53-.76-1.95-1.3-4.05-3.56-4.95-.34-.13-.57-.53-.85-.81-7.38-7.3-14.74-14.61-22.14-21.89-27.79-27.35-55.97-54.3-84.38-81.01-2.41-2.26-4.69-3.17-8.01-3.14-19.73.18-39.47.08-59.21.09-3.8,0-4.22.63-2.93,4.12,7.5,20.25,15,40.5,22.5,60.75,13.53,36.52,27.09,73.03,40.58,109.57,6.15,16.65,12.13,33.35,18.25,50.01.94,2.57,2.1,5.09,3.43,7.48,2.35,4.24,5.93,7.02,10.64,8.37,3.8,1.1,7.69,1.6,11.62,1.79,5.02.25,10.06.33,15.08.53,1.79.07,3.57.28,5.31.42.55,1.29.98,2.38,1.49,3.44.58,1.21,1.48,1.65,2.41,1.19,1.07-.53.76-1.4.47-2.24-.22-.64-.44-1.28-.73-2.13Zm-347.82-137.95c0,33.8,0,67.61,0,101.41q0,4.09,4,4.09c18.71,0,37.43.06,56.14-.05,4.04-.02,8.15.8,12.13-.56.12-.04.29.08.44.1,2.54.42,2.66.32,2.69-2.2,0-.31,0-.63,0-.94,0-67.61,0-135.21,0-202.82,0-.55.03-1.1,0-1.65-.1-1.6-1.07-2.6-2.63-2.73-.55-.04-1.1-.02-1.65-.02-22.33,0-44.66,0-66.99,0q-4.13,0-4.13,4.18c0,33.72,0,67.45,0,101.17Zm163.56,1.84c0-33.65-.03-67.31.05-100.96,0-2.86-1.49-4.1-4.08-4.09-21.94.09-43.88.11-65.83-.03-2.79-.02-4.01,1.7-4.05,4.19,0,.39,0,.79,0,1.18,0,16.67,0,33.34,0,50.01,0,49.54,0,99.07-.01,148.61,0,.93-.04,1.89-.27,2.78-.57,2.19-.29,2.62,2.03,2.67.24,0,.47,0,.71,0,22.41,0,44.83,0,67.24,0q4.2,0,4.2-4.09c0-33.42,0-66.83,0-100.25Zm-266.63.64c0-33.89,0-67.78,0-101.67,0-.94-.02-1.89-.09-2.82-.12-1.5-.38-1.73-1.85-1.82-.39-.02-.79,0-1.18,0-17.46,0-34.92,0-52.38,0-.55,0-1.11-.07-1.65.03-.43.07-1.07.24-1.21.54-.8,1.81-2.01,3.3-2,5.63.12,66.99.09,133.99.11,200.98,0,3.8-1.1,4.44,4.34,4.43,17.15-.02,34.29,0,51.44,0,.54,0,1.11-.04,1.61.11,2.48.75,2.83.52,2.87-2.09,0-.24,0-.47,0-.71,0-34.2,0-68.41,0-102.61Zm16.52-.88h0c0,33.57,0,67.15,0,100.72q0,3.85,3.94,3.85c21.71,0,43.41,0,65.12,0,.39,0,.79,0,1.18,0,.82.02,1.35-.38,2.02-.89,1.48-1.11,1.57-2.49,1.57-4.1-.02-66.91-.02-133.83-.02-200.74,0-.55.03-1.1-.01-1.65-.18-2.47-1.24-3.46-3.71-3.47-22.1,0-44.2,0-66.3,0-2.51,0-3.52.92-3.77,3.42-.06.55-.03,1.1-.03,1.65,0,33.73,0,67.46,0,101.2Zm265.02,1.18c0,9.28,0,18.56,0,27.84,0,23.28,0,46.55-.02,69.83,0,1.1.41,2.34-.89,3.2-.34.23-.48,1.22-.28,1.65.2.43.94.69,1.49.84.51.14,1.09.04,1.64.04,24.62,0,49.24,0,73.85,0,.55,0,1.11.03,1.65-.02,1.44-.14,1.93-.9,1.43-2.24-.38-1.03-.88-2.01-1.26-3.04-4.38-11.79-8.75-23.58-13.12-35.37-19.84-53.51-39.68-107.02-59.52-160.53-.27-.74-.52-1.49-.88-2.19-.41-.8-1.99-1.51-2.82-1.3-1.17.29-1.3,1.22-1.29,2.22,0,.63,0,1.26,0,1.89,0,32.4,0,64.79,0,97.19Z"/>
  <path class="cls-10" d="m21.27,350.15c-1.96-2.43-2.4-5.38-2.39-8.4,0-5.66.04-11.32.23-16.98.28-8.25.7-16.49,1.06-24.74.01-.31.05-.63.07-.94.41-7.04,3.53-12.17,10.15-15.16,10.89-4.91,21.69-10,32.53-15.01,3.64-1.68,7.27-3.37,10.91-5.04.69-.32,1.4-.58,2.44-1-.28.66-.42,1-.56,1.33-.35.8-.09,1.52.65,1.74.58.17,1.41.05,1.91-.28.55-.36.91-1.08,1.23-1.7.59-1.14,1.49-1.4,2.71-1.42,10.22-.13,20.43-.33,30.65-.46.55,0,1.18.27,1.65.58,1.53,1.03,2.04.96,2.88-.73,1.02-2.04,1.95-4.12,2.93-6.18,3.39-7.18,6.78-14.35,10.18-21.53.19-.41.45-.8.99-1.77.44,2.08.79,3.61,1.08,5.15.07.36.04.84-.14,1.14-2.62,4.33-3.96,9.21-5.9,13.82-.09.21-.21.41-.38.75-1.69-.11-3.19.38-4.26,1.86-1.8,2.49-1.4,5.97,1.19,7.74,1.31.89,2.97,1.51,4.54,1.72,5.55.74,10.39-.99,14.52-4.74.46-.42.91-.86,1.37-1.29.05-.05.15-.05.38-.12.13,2.19,1.56,2.67,3.48,2.86,12.68,1.22,25.39,2.1,38.13,2.24,8.72.1,17.45-.18,26.18-.39,1.79-.04,3.59-.41,5.34-.83,8.08-1.92,12.13-7.27,11.6-15.58-.19-3.05-.66-6.11-1.35-9.08-1.91-8.14-2.42-16.3-.96-24.57.22-1.25-.27-2.61-.26-3.91,0-1.81.21-3.61.23-5.42.06-4.27-.31-8.49-2.05-12.47-2.99-6.86-8.07-10.65-15.73-10.63-25.17.06-50.33.11-75.5.16-.54,0-1.07-.07-1.94-.13.31-1.09.49-2.07.87-2.95,1.28-2.99,3.54-5.16,6.16-6.98,4.18-2.91,8.89-4.67,13.71-6.16,8.22-2.53,16.66-3.9,25.2-4.75,9.23-.92,18.46-1.82,27.7-2.65,2.03-.18,4.02-.4,5.99-1.01,1.4-.43,2.94-.51,4.42-.57,3.85-.15,7.7-.25,11.55-.28,1.42-.01,2.48-.36,2.81-2.1,5.07,0,10.1.03,15.13-.01,4.64-.04,9.28-.19,13.91-.25,1.57-.02,3.14.05,4.71.19,5.61.51,7.59,2.37,8.28,8,.37,3.04.56,6.11.7,9.17.6,12.81.8,25.62.37,38.43-.51,15.32-1.25,30.63-1.78,45.95-.48,13.75-1.02,27.5-1.17,41.25-.14,12.89.48,25.78,1.8,38.61.45,4.37,1.1,8.73,1.66,13.09.05.39.23.84.1,1.16-.89,2.11.07,4.01.62,5.93,1.36,4.72,1.91,9.56,2.12,14.43.21,4.79.11,9.59.08,14.39,0,.93-.22,1.88-.49,2.77-.67,2.22-2.08,3.69-4.5,3.88-2.11.16-4.23.29-6.35.36-4.64.15-9.27.26-13.91.35-1.63.03-3.27.33-4.83-.59-.48-.28-1.23-.16-1.86-.15-14.86.23-29.72.39-44.58.72-7.94.18-15.87.64-23.8.97-.54.02-1.08,0-1.82,0-.23-1.69-.44-3.31-.67-4.92-2.17-15.06-7.34-28.93-16.79-40.99-9.94-12.68-22.56-21.56-38.48-24.68-22.86-4.47-42.2,2.39-57.87,19.57-2.33,2.55-4.41,5.33-6.46,8.11-.94,1.28-1.91,1.77-3.52,1.72-8.41-.28-16.82-.44-25.23-.63-1.09-.02-2.18,0-3.57,0Z"/>
  <path class="cls-1" d="m722.42,390.24h-14c1.35-19.59-4.57-36.38-19.16-49.65-11.56-10.51-25.34-15.56-40.99-15.06-16.92.54-31.1,7.24-42.24,19.92-11.14,12.69-15.63,27.71-14.3,44.45-1.7.57-70.65.8-74.99.25,0-.72-.02-1.47,0-2.23.23-6.13.51-12.25.67-18.38.07-2.66,0-5.34-.2-8-.23-3.01-1.12-5.86-2.69-8.47-.27-.45-.47-.94-.85-1.72,1.13,0,1.97,0,2.81,0,10.3,0,20.6-.1,30.9.07,2.73.04,3.98-1.05,4.06-4.13.14-5.11.04-10.22.04-15.33,0-8.41,0-16.82,0-25.23,0-.86,0-1.71,0-2.73h187.11c.46,1.73.64,41.73.19,46.39-.78.03-1.61.09-2.44.1-1.96.02-3.94-.09-5.89.04-5.3.36-8.01,3.22-8.03,8.51-.04,9.51-.01,19.02-.01,28.53,0,.84,0,1.68,0,2.66Z"/>
  <path class="cls-2" d="m432.56,405.81c-19.02-.19-38.05-.36-57.07-.61-3.85-.05-7.7-.27-11.45-1.3-3.96-1.09-6.83-3.31-8.34-7.28-.81-2.11-2.19-4-3.04-6.1-1.33-3.3-2.15-6.78-2.11-10.34.04-3.61.33-7.21.66-10.81.35-3.91,1-7.8,1.29-11.71.44-5.88,3.27-9.85,8.81-11.91,1.1-.41,2.12-.89,3.38-.48.71.23,1.56.06,2.35.06,31.14,0,62.27.07,93.41-.04,11-.04,22-.51,32.99-.79,1.81-.04,3.61-.08,5.42-.11,2.4-.04,4.55.7,6.19,2.42,2.17,2.26,4.31,4.58,6.23,7.05,2.13,2.75,2.94,6.07,3.05,9.51.1,3.22.05,6.45-.06,9.67-.19,5.73-.38,11.47-.78,17.19-.16,2.39-.61,4.82-1.36,7.08-1.23,3.74-4.12,6.03-7.65,7.54-3.16,1.35-6.52,1.79-9.91,1.8-5.89.02-11.79-.13-17.68-.2-10.06-.13-20.12-.27-30.19-.37-4.72-.05-9.43,0-14.15,0,0-.08,0-.16,0-.24Z"/>
  <path class="cls-1" d="m455.68,304.85v10.13c-.6.07-1.19.19-1.79.19-6.06.01-12.11.02-18.17,0-.76,0-1.54-.17-2.27-.39-1.78-.54-2.52-.09-2.53,1.8-.04,5.19.01,10.38-.04,15.57-.01,1.15-.25,2.3-.49,3.43-.28,1.31.33,2.35,1.07,3.21.65.76,1.64.61,2.23-.23.49-.7,1.11-.76,1.83-.76,19.19,0,38.38.01,57.57.02.23,0,.45.09.85.17v3.25c-.43.09-.87.26-1.32.28-8.25.27-16.5.68-24.76.74-12.11.1-24.22-.06-36.33-.08-20.13-.02-40.26,0-60.4-.01-1.22,0-2.5.28-3.4-1.02-.2-.29-1.03-.35-1.5-.23-3.43.9-6.77,2.04-9.79,3.96-4.13,2.62-6.36,6.34-6.84,11.23-.54,5.63-1.18,11.25-1.92,16.85-.75,5.71-.21,11.28,1.37,16.75-1.22,1.63-2.81,1.88-4.74,1.78-20.98-.99-41.97-.94-62.96,0-1.63.07-3.27,0-5.26,0,3.27-3.9,2.91-8.46,2.97-12.89.11-7.4-.03-14.78-1.65-22.06-.29-1.3-.63-2.59-.93-3.89-.03-.13.09-.29.2-.63.79,0,1.65,0,2.5,0,9.12,0,18.25,0,27.37,0,.71,0,1.42.04,2.12-.02,2.39-.21,3.29-1.2,3.3-3.6.01-2.74,0-5.48,0-8.47,1.18-.04,2.17-.1,3.16-.1,19.34.05,38.69.12,58.03.17,2.45,0,2.82-.4,2.83-2.93.02-5.9,0-11.79,0-17.69,0-.16,0-.31,0-.47-.15-3.26-1.44-4.55-4.67-4.63-1.41-.03-2.83.03-4.25.03-4.72.02-9.44.04-14.15.04-1.89,0-2.24-.24-2.28-2.14-.05-2.42.08-4.84.14-7.38h104.86Z"/>
  <path class="cls-5" d="m170.64,392.04c-.89.12-1.59.22-2.28.31-1.98.24-2.58.77-2.86,2.75-.25,1.79-.27,3.61-.6,5.38-2.72,14.52-10.94,25.15-23.39,32.69-8.21,4.97-17.23,7.52-26.73,8.52-7.57.8-15.07.5-22.49-1.29-6.96-1.68-12.97-5.17-18.25-9.92-7.36-6.63-13.79-14.02-18.09-23.04-1.28-2.68-2.23-5.51-3.4-8.42.84-.32,1.39-.58,1.97-.75,2.78-.81,4.73-2.62,5.56-5.32.66-2.15,1.16-4.46,1.12-6.68-.06-3.92-.55-7.83-.94-11.74-.53-5.4-1.15-10.79-1.69-16.19-.25-2.55-.73-4.98-2.93-6.69,9.17-13.64,21.03-23.43,37.27-27.06,19.47-4.35,36.57.81,51.57,13.49,11.98,10.13,19.37,23.16,23.43,38.18,1.37,5.08,2.32,10.25,2.72,15.78Zm-62.37-46.85c-21.3-.04-38.84,17.33-38.82,38.62.03,22.27,18.27,39.01,38.45,39.06,20.56.05,39.13-15.74,39.25-38.91.11-21.51-17.23-38.72-38.88-38.76Z"/>
  <path class="cls-4" d="m140.52,219.41c1.41-3.28,2.62-6.52,4.17-9.59,3.71-7.36,7.55-14.66,11.38-21.96,1.05-2,1.12-1.96.21-3.94.69,0,1.31,0,1.93,0,14.3-.05,28.61-.1,42.91-.13,3.14,0,6.28-.03,9.41.14,3.88.21,6.78,2.26,9.02,5.32,2.4,3.29,3.41,7.08,3.58,11.05.13,3.05-.15,6.12-.21,9.18-.02.92.13,1.85.17,2.77.03.62.12,1.26.02,1.86-1.37,8.35-.6,16.58,1.25,24.78.65,2.89,1.16,5.87,1.26,8.83.2,6.17-2.69,9.95-8.66,11.47-2.49.64-5.1,1.04-7.67,1.11-17.84.53-35.67.31-53.97-1.38,2.52-1.19,2.71-3.17,2.87-5.23.49-6.03,1.11-12.05,1.57-18.08.15-1.94.12-3.94-.15-5.87-.86-6.31-4.81-9.93-11.22-10.3-2.49-.15-4.99-.02-7.87-.02Z"/>
  <path class="cls-5" d="m650.18,328.53c30.58.04,55.37,24.98,55.34,55.66-.04,30.5-24.83,55.21-55.46,55.27-30.7.06-55.54-24.9-55.46-55.75.08-30.45,25.03-55.22,55.59-55.18Zm-.2,16.66c-21.29-.05-38.83,17.3-38.83,38.61,0,22.11,18.1,39.08,38.44,39.04,21.89-.04,39.19-16.97,39.26-38.64.07-21.71-17.12-38.96-38.88-39.01Z"/>
  <path class="cls-9" d="m548.24,303.85v44.25c-.8.05-1.49.13-2.18.13-11.08,0-22.17-.02-33.25.04-1.49,0-2.5-.42-3.43-1.56-.83-1.03-1.84-1.94-2.85-2.8-1.66-1.41-3.59-2.23-5.78-2.41-1.08-.09-2.16-.22-3.31-.33-.2-1.42-.31-2.68.19-4,.62-1.66.12-2.31-1.65-2.43-.7-.05-1.41-.01-2.12-.01-18.79,0-37.57,0-56.36,0h-3c-.56-1.78-.73-11.79-.28-16.33.77-.04,1.59-.13,2.42-.13,6.05-.01,12.11,0,18.16,0,.55,0,1.1.02,1.65,0,2-.09,2.33-.38,2.37-2.37.05-2.67.02-5.34.01-8.02-.01-4.53-.09-4,3.9-4,27.51,0,55.02,0,82.53,0,.93,0,1.86,0,2.99,0Z"/>
  <path class="cls-1" d="m3.96,373.94c0-4.16,0-8.33,0-12.49,0-.08,0-.16,0-.24-.03-5.61,2.36-8.54,8.93-8.74.39-.01.79.01,1.18.04,3.4.26,6.79.6,10.2.76,3.38.16,6.76.1,10.14.17,5.03.11,10.06.21,15.09.38,1.38.05,2.78.26,4.12.6.5.12,1.02.74,1.24,1.25.36.86.58,1.8.67,2.73.89,8.83,1.77,17.66,2.59,26.5.14,1.47.06,2.99-.12,4.47-.47,3.92-2.51,6.12-6.42,6.2-6.27.13-12.54-.14-18.82-.22-1.1-.01-2.2.09-3.29.2-7.65.78-15.05-.34-22.23-2.97-3.12-1.15-3.92-2.37-3.85-5.68.09-4.32.23-8.64.35-12.96.07,0,.13,0,.2,0Z"/>
  <path class="cls-4" d="m150.63,184.08c-.37.89-.63,1.61-.95,2.29-5.36,11.36-10.72,22.73-16.11,34.08-.53,1.13-1.25,2.17-1.88,3.25-.24.41-.54.79-.69,1.23-2.6,7.69-6.71,14.7-9.98,22.08-1.53,3.44-3.25,6.81-4.8,10.24-.51,1.13-1.16,1.71-2.47,1.73-9.98.15-19.96.36-29.94.54-.29,0-.58-.09-1.11-.19.38-.67.66-1.21.98-1.71,15.42-23.63,30.35-47.56,44.71-71.86.78-1.31,1.61-1.83,3.16-1.81,5.58.09,11.16.02,16.74.02.69,0,1.37.06,2.34.11Z"/>
  <path class="cls-2" d="m747.94,353.64c4.79,0,9.58-.01,14.37,0,1.39,0,2.83-.26,4.1.67.21.16.63.17.9.09,1.71-.5,2.6.53,3.05,1.85.94,2.74,1.86,5.5,2.47,8.32,1.79,8.27,2.08,16.65,1.51,25.07-.03.39-.08.78-.15,1.17-.45,2.79-.92,3.31-3.71,3.64-11.02,1.3-22.08,1.73-33.16,1.25-2.08-.09-4.21-.57-6.2-1.23-2.49-.83-4.11-2.6-4.97-5.24-.57-1.77-.75-3.47-.75-5.27.01-8.01,0-16.02.02-24.03,0-.86.09-1.73.26-2.57.4-2,1.7-3.15,3.66-3.5,1.08-.19,2.18-.31,3.28-.32,5.11-.03,10.21-.01,15.32-.01v.1Z"/>
  <path class="cls-9" d="m872.92,147.45c-2.03-2.01-3.91-4.01-5.94-5.84-13.21-12-26.41-24.01-39.69-35.93-13.05-11.71-26.19-23.32-39.29-34.97-.41-.36-.8-.75-1.3-1.21,1.25-1.53,2.22-3.17,4.36-3.62,1.97-.41,3.77.01,5.48.84,1.19.58,2.34,1.32,3.37,2.15,9.74,7.84,19.58,15.55,29.12,23.62,6,5.07,11.52,10.7,17.27,16.06,2.88,2.68,5.87,5.23,8.68,7.98,6.5,6.37,13.42,12.35,19.01,19.6,1.13,1.47,2.09,3.12,2.92,4.78.76,1.52.18,2.93-1.02,4.04-.87.8-1.8,1.52-2.98,2.5Z"/>
  <path class="cls-9" d="m898.73,206.86c3.09,2.21,3.97,5.07,4.52,8.14.83,4.64.12,9.27-.22,13.87-.55,7.52-1.28,15.03-2.15,22.52-1.04,8.97-2.23,17.93-3.51,26.87-.88,6.14-1.94,12.26-3.15,18.34-.5,2.51-1.36,5.01-2.48,7.32-1.19,2.46-3.22,4.22-6,4.67-.18-.1-.26-.13-.3-.18-.05-.06-.12-.14-.11-.2.04-.7.05-1.41.14-2.1,4.4-32.94,8.8-65.87,13.27-99.24Z"/>
  <path class="cls-7" d="m184.15,394.46c1.12,3.53,2.03,4.26,5.44,4.27,8.96.04,17.92,0,26.88.02,3.22,0,6.44.05,9.67.07.94,0,1.89.02,2.83-.05,3.51-.23,4.71-1.47,4.86-5.25,1.28-.04,2.58-.09,3.88-.11,1.33-.02,2.66,0,4.26,0-.13.6-.24,1-.3,1.41-.36,2.29.68,3.95,2.45,5.23.63.46,1.43.71,2.01,1.22.61.54,1.43,1.24,1.49,1.93.1,1.11-.94,1.76-1.94,2.07-.89.28-1.84.47-2.76.5-21.6.66-43.2,1.29-64.8,1.91-1.41.04-2.83.06-4.24-.06-1.81-.15-3.37-.87-4.15-2.65-.81-1.86-.25-3.55.88-5.08,1.31-1.78,3.21-2.43,5.31-2.65,1.82-.18,3.46-.54,4.9-1.95.69-.68,2.15-.57,3.36-.84Z"/>
  <path class="cls-2" d="m128.98,254.9c.76-2.01,1.44-3.81,2.12-5.61.11.03.21.06.32.1-.13,1.46-.25,2.91-.41,4.37-.11,1.02.24,1.75,1.29,1.87,1.07.13,1.57-.58,1.69-1.55.47-3.82.78-7.67,1.41-11.46.66-3.94.65-7.7-1.2-11.38-.87-1.73-.89-3.57.2-5.4.61-1.02,1.29-1.8,2.39-2.1,4.36-1.21,8.79-1.82,13.28-.97,3.68.7,6.08,3.48,6.54,7.4.16,1.4.2,2.83.1,4.23-.49,6.73-1.04,13.46-1.58,20.2-.02.3-.2.58-.35.98-3.21.57-6.43,1.13-10,1.76.89-1.79,1.35-3.32,2.67-4.43,1.07-.89,1.2-2.15.88-3.46-.82-3.35-4.67-5.06-7.64-3.22-1.14.71-2.09,1.9-2.8,3.06-.59.96-.96,2.21-1,3.34-.14,3.83-1.08,4.55-5.43,3.4-.8-.21-1.52-.69-2.48-1.15Z"/>
  <path class="cls-5" d="m899.09,203.45c.17-1.09.3-2.01.47-3.11,1.9.14,3.33,1.03,4.64,2.14,2.11,1.77,3.39,4.09,4.26,6.66,1.23,3.63,1.56,7.38,1.26,11.16-.42,5.24-.99,10.47-1.5,15.71-.56,5.7-1.1,11.41-1.7,17.11-1.48,14.05-2.29,28.18-5.18,42.05-.69,3.3-1.6,6.55-2.44,9.82-1.09,4.25-3.76,6.96-8.02,8.1-2.04.55-4.07,1.15-6.17,1.75-.55-1.02-.15-1.88.11-2.8,6.33-.91,9.94-4.93,11.38-10.78,1.52-6.17,2.66-12.44,3.65-18.72,2.92-18.63,5.22-37.34,6.45-56.17.18-2.74.23-5.49.33-8.24.01-.31,0-.63,0-.94-.22-5.74-2.07-10.61-7.51-13.74Z"/>
  <path class="cls-5" d="m784.64,67.44c-.92-.84-1.66-1.52-2.55-2.33,1.03-1.35,1.83-2.61,2.82-3.69,2.78-3.03,5.25-3.58,9.09-2.06,5.97,2.35,11.48,5.51,16.23,9.86,8.52,7.8,17,15.64,25.45,23.52,10.75,10.01,21.49,20.03,32.16,30.14,3.19,3.02,6.2,6.25,9.08,9.57,1.63,1.88,2.93,4.07,4.22,6.22,1.16,1.93,1.52,4.11,1.31,6.36-.2,2.16-1.12,3.87-3.08,4.99-1.13.65-2.16,1.46-3.23,2.2-1.07-1.57-1.11-2.19-.18-3.24.46-.52,1.06-.93,1.6-1.39,2.57-2.16,3.4-4.9,2.14-8.02-.61-1.51-1.48-2.96-2.47-4.25-4.07-5.31-8.63-10.18-13.53-14.75-10.5-9.81-20.93-19.71-31.46-29.49-2.7-2.51-5.69-4.7-8.56-7.02-6.84-5.54-13.66-11.1-20.54-16.59-1.65-1.32-3.44-2.48-5.28-3.53-2.26-1.29-4.77-1.59-7.31-1.12-2.63.49-4.54,2.03-5.91,4.61Z"/>
  <path class="cls-8" d="m228.27,136.75c-.63,5.39-1.21,10.39-1.79,15.4-5.93.29-11.62.57-17.49.86,0-.02-.18-.31-.16-.58.24-4.06.4-8.14.79-12.19.22-2.3,1.02-3.02,3.31-3.24,2.34-.22,4.7-.22,7.05-.25,2.58-.04,5.16,0,8.29,0Z"/>
  <path class="cls-9" d="m187.71,395.07c.32-.29.48-.55.64-.56,13.97-.69,27.96-1.06,41.91-1.07.5,1.8.47,1.94-.91,2.18-.84.15-1.72.17-2.58.17-11.95,0-23.91-.03-35.86-.05-1.06,0-2.15.09-3.2-.67Z"/>
  <path class="cls-7" d="m137.76,258.99c-2.72,2.61-8.37,3.7-11.55,2.22-1.6-.74-2.41-1.93-2.21-3.25.18-1.18.86-1.55,1.96-1.07.57.25,1.16.49,1.69.81,3.19,1.91,6.57,2.34,10.15,1.34l-.04-.04Z"/>
  <path class="cls-2" d="m137.8,259.04c1.29-1.56,1.81-3.35,2.02-5.36.13-1.28.59-2.62,1.26-3.72,1.13-1.84,2.52-1.78,4.1-.09-.62,1.14-1.21,2.29-1.85,3.41-1.36,2.39-2.85,4.65-5.57,5.71,0,0,.04.04.04.04Z"/>
  <path class="cls-9" d="m170.41,395.82c-.59.4-1.13.77-1.75,1.19.01-1.83.06-1.86,1.75-1.19Z"/>
  <path class="cls-3" d="m821.63,313.03c.29.86.51,1.49.73,2.13.28.84.59,1.71-.47,2.24-.93.46-1.84.01-2.41-1.19-.5-1.06-.93-2.15-1.49-3.44-1.74-.14-3.52-.35-5.31-.42-5.03-.2-10.06-.29-15.08-.53-3.92-.19-7.81-.69-11.62-1.79-4.71-1.36-8.29-4.13-10.64-8.37-1.32-2.39-2.48-4.91-3.43-7.48-6.12-16.65-12.11-33.36-18.25-50.01-13.49-36.54-27.05-73.05-40.58-109.57-7.5-20.25-15-40.5-22.5-60.75-1.29-3.48-.87-4.11,2.93-4.12,19.74,0,39.47.09,59.21-.09,3.33-.03,5.61.88,8.01,3.14,28.4,26.72,56.59,53.66,84.38,81.01,7.4,7.28,14.76,14.59,22.14,21.89.28.28.51.68.85.81,2.26.89,2.8,3,3.56,4.95,3.31,8.53,4.68,17.41,4.82,26.53.19,11.94-1.54,23.67-3.71,35.35-4.14,22.25-8.32,44.5-12.48,66.74-.1.54-.16,1.09-.34,1.61-.5,1.51-1.16,2.04-2.77,2.03-8.48-.07-16.97-.14-25.45-.27-3.28-.05-6.56-.25-10.1-.39Zm-78.8-240.29c.36,1,.56,1.66.83,2.3,23.99,58.2,47.98,116.41,71.99,174.6,4.8,11.62,9.72,23.19,14.53,34.81,3.3,7.99,6.54,16,9.71,24.05.63,1.61,1.42,2.38,3.23,2.3,4.47-.19,8.94-.21,13.41-.31.14,0,.27-.14.5-.27.12-.45.3-.97.4-1.5,4.5-24.24,9.1-48.46,13.45-72.72,2.07-11.54,3.32-23.18,2.17-34.95-.64-6.53-1.98-12.88-4.45-18.96-.31-.77-.82-1.52-1.41-2.11-3.94-3.95-7.9-7.89-11.9-11.78-25.12-24.35-50.23-48.7-75.4-73-7.35-7.1-14.87-14.02-22.32-21.02-.73-.69-1.39-1.46-2.58-1.45-3.93.04-7.85.02-12.15.02Zm73.74,236.65c-.38-.96-.68-1.74-1.01-2.52-22.95-55.26-45.91-110.52-68.86-165.79-9.19-22.12-18.39-44.23-27.53-66.37-.59-1.44-1.27-2.04-2.91-2.02-6.84.1-13.68.04-20.52.05-.61,0-1.23.06-2.14.11.35,1.02.62,1.9.94,2.76,4.42,11.94,8.85,23.87,13.27,35.81,17.66,47.68,35.33,95.35,52.96,143.04,4.66,12.6,9.15,25.27,13.76,37.89.86,2.35,1.84,4.68,2.98,6.92,2.11,4.15,5.48,6.86,10.02,7.93,2.67.63,5.39,1.18,8.11,1.37,6.43.44,12.87.63,19.31.92.45.02.9-.05,1.62-.09Zm-38.07-141.76c-6.19-1.87-12.12-3.09-18.61-2.89,2.64,6.36,5.16,12.41,7.64,18.38,6.18.7,12.04,1.91,18.32,2.32-2.57-6.24-4.99-12.1-7.35-17.82Zm-37.51-48.34c6.15.94,12.15,1.88,18.6,2.49-2.48-6.02-4.8-11.65-7.1-17.23-6.16-1.56-12.11-3.57-18.84-2.98,2.47,5.98,4.86,11.75,7.33,17.72Zm24.55,16.91c-6.12-2.02-12.13-3.13-18.29-2.82-.1.3-.17.39-.14.44,2.17,5.3,4.36,10.59,6.52,15.9.38.93,1.01,1.22,1.97,1.34,4.2.54,8.39,1.18,12.59,1.76,1.29.18,2.59.26,4.37.43-2.47-6.01-4.78-11.63-7.01-17.05Zm71.48,174.29c0-.45.07-.71-.01-.91-2.01-4.95-4.01-9.9-6.1-14.82-.26-.62-1-1.25-1.65-1.46-5.35-1.72-10.87-2.25-16.59-2.17.07.47.06.79.18,1.06,2.25,5.45,4.54,10.88,6.76,16.34.43,1.07,1.14,1.34,2.17,1.39,4.09.16,8.17.38,12.25.56.99.04,1.99,0,2.99,0Zm-38.47-93.41c0-.41.05-.58,0-.72-2.13-5.23-4.25-10.46-6.45-15.66-.23-.55-.89-1.12-1.48-1.3-5.49-1.78-11.14-2.43-17.22-2.15,2.44,5.89,4.81,11.6,7.19,17.35,6.03.83,11.98,1.65,17.96,2.48Zm-11.75,11.59c0,.38-.07.63.01.83,2.12,5.15,4.27,10.28,6.36,15.44.38.94,1.01,1.25,1.95,1.37,4.2.55,8.38,1.18,12.58,1.75,1.27.17,2.54.28,3.77.41.08-.39.14-.48.11-.54-1.78-4.35-3.77-8.63-5.28-13.07-.98-2.88-2.6-4.25-5.54-4.84-4.62-.94-9.24-1.45-13.96-1.34Zm12.68,31.36c2.44,5.89,4.78,11.51,7.12,17.16,5.98.58,11.75,1.88,17.99,2.2-2.28-5.53-4.38-10.67-6.55-15.78-.21-.5-.82-1-1.35-1.17-5.47-1.81-11.11-2.45-17.21-2.41Zm-77.44-187.22c.03.49,0,.74.07.94,1.73,4.21,3.49,8.4,5.19,12.62.38.95,1.05,1.25,1.97,1.37,5.21.69,10.41,1.4,15.62,2.1.37.05.74,0,1.53,0-2.42-5.86-4.73-11.47-7.03-17.04h-17.35Zm74.04,176.75c.73,1.87,1.31,3.41,1.93,4.92.96,2.37,1.23,2.44,3.86,2.57,3.13.16,6.25.45,9.36.77,1.29.13,2.56.5,4.14.83-.43-1.27-.81-2.2-1.06-3.16-.72-2.7-2.1-4.5-5.23-4.15-.22.03-.46-.09-.69-.12-3.95-.54-7.9-1.07-12.32-1.67Zm-40.3-95.33c.75,1.93,1.43,3.43,1.91,4.99.59,1.91,1.84,2.44,3.73,2.49,3.05.08,6.11.39,9.15.71,1.37.14,2.72.54,4.6.93-.84-2.12-1.54-3.81-2.18-5.53-.41-1.11-1.16-1.52-2.31-1.64-2.26-.22-4.51-.58-6.77-.88-2.55-.34-5.11-.67-8.13-1.07Zm31.4,34.64c-5.58-.57-10.91-1.64-16.61-2.06.72,1.84,1.38,3.27,1.85,4.76.58,1.87,1.71,2.58,3.68,2.51,3.94-.14,7.84.4,11.69,1.28.57.13,1.16.2,2.14.36-.97-2.44-1.81-4.53-2.74-6.84Zm41.64,100.91c-.8-2-1.52-3.62-2.1-5.28-.45-1.28-1.22-1.77-2.58-1.92-4.2-.47-8.39-1.12-12.58-1.67-.56-.07-1.15-.01-1.95-.01.68,1.75,1.35,3.25,1.85,4.81.57,1.77,1.71,2.37,3.52,2.44,3.2.12,6.4.43,9.6.76,1.3.13,2.57.52,4.25.88Zm-45.52-71.67c.78,2.01,1.44,3.59,2.01,5.21.57,1.62,1.62,2.27,3.37,2.3,2.89.04,5.78.27,8.66.56,1.6.16,3.18.6,5.03.96-.32-2.16-1.17-3.81-1.87-5.51-.37-.9-.92-1.32-1.9-1.45-4.95-.63-9.9-1.33-15.29-2.07Zm-20.93-86.23c-.73-1.93-1.34-3.36-1.82-4.83-.5-1.51-1.43-2.24-3.04-2.39-2.8-.27-5.59-.7-8.39-1.06-1.91-.25-3.82-.51-6.09-.81.76,1.95,1.44,3.52,1.97,5.14.59,1.77,1.75,2.33,3.56,2.36,2.89.05,5.78.29,8.66.58,1.54.16,3.04.59,5.15,1.01Zm-32.43-40.91c.81,2.07,1.49,3.66,2.05,5.28.51,1.48,1.45,1.9,3.01,2.02,4.07.3,8.11.88,12.16,1.36.59.07,1.16.21,2.15.4-.79-2.01-1.45-3.67-2.08-5.34-.43-1.16-1.16-1.7-2.45-1.79-2.03-.14-4.05-.52-6.07-.79-2.79-.37-5.58-.73-8.77-1.14Z"/>
  <path class="cls-3" d="m473.81,175.08c0-33.72,0-67.45,0-101.17q0-4.18,4.13-4.18c22.33,0,44.66,0,66.99,0,.55,0,1.1-.03,1.65.02,1.56.13,2.53,1.13,2.63,2.73.04.55,0,1.1,0,1.65,0,67.61,0,135.21,0,202.82,0,.31,0,.63,0,.94-.04,2.52-.15,2.62-2.69,2.2-.15-.02-.32-.14-.44-.1-3.99,1.35-8.1.53-12.13.56-18.71.11-37.43.05-56.14.05q-4.01,0-4-4.09c0-33.8,0-67.61,0-101.41Zm72.13,102.39V72.86h-68.66c-.54,2.35-.47,202.62.09,204.61h68.57Z"/>
  <path class="cls-3" d="m637.38,176.92c0,33.42,0,66.83,0,100.25q0,4.09-4.2,4.09c-22.41,0-44.83,0-67.24,0-.24,0-.47,0-.71,0-2.32-.05-2.59-.47-2.03-2.67.23-.89.27-1.85.27-2.78.01-49.54.01-99.07.01-148.61,0-16.67,0-33.34,0-50.01,0-.39,0-.79,0-1.18.04-2.49,1.25-4.21,4.05-4.19,21.94.14,43.88.12,65.83.03,2.59-.01,4.09,1.23,4.08,4.09-.08,33.65-.05,67.3-.05,100.96Zm-70.67,100.98c.26.14.39.28.53.28,21.47.03,42.94.05,64.41.07.7,0,1.41-.07,2.11-.12.06,0,.12-.09.18-.15.06-.05.11-.1.18-.17V75.31c-2.81-.52-65.76-.41-67.42.1v202.5Z"/>
  <path class="cls-3" d="m370.75,177.57c0,34.2,0,68.41,0,102.61,0,.24,0,.47,0,.71-.04,2.61-.39,2.84-2.87,2.09-.5-.15-1.07-.11-1.61-.11-17.15,0-34.29-.01-51.44,0-5.45,0-4.34-.64-4.34-4.43-.02-66.99,0-133.99-.11-200.98,0-2.33,1.2-3.82,2-5.63.13-.31.77-.47,1.21-.54.53-.09,1.1-.03,1.65-.03,17.46,0,34.92,0,52.38,0,.39,0,.79-.02,1.18,0,1.48.08,1.74.32,1.85,1.82.07.94.09,1.88.09,2.82,0,33.89,0,67.78,0,101.67Zm-3.35,102.13c.51-3.71.33-203.56-.17-205.23h-53.59v205.23h53.76Z"/>
  <path class="cls-3" d="m387.27,176.69c0-33.73,0-67.46,0-101.2,0-.55-.03-1.1.03-1.65.25-2.5,1.26-3.42,3.77-3.42,22.1,0,44.2,0,66.3,0,2.47,0,3.53,1,3.71,3.47.04.55.01,1.1.01,1.65,0,66.91,0,133.83.02,200.74,0,1.61-.09,2.99-1.57,4.1-.67.5-1.2.9-2.02.89-.39,0-.79,0-1.18,0-21.71,0-43.41,0-65.12,0q-3.94,0-3.94-3.85c0-33.57,0-67.15,0-100.72h0Zm3.18,101.25c2.69.54,65.74.43,67.4-.09.45-3.08.29-202.45-.17-204.14h-67.23v204.23Z"/>
  <path class="cls-3" d="m652.29,177.87c0-32.4,0-64.79,0-97.19,0-.63,0-1.26,0-1.89-.01-1,.12-1.93,1.29-2.22.83-.21,2.42.5,2.82,1.3.35.7.61,1.45.88,2.19,19.84,53.51,39.68,107.02,59.52,160.53,4.37,11.79,8.74,23.58,13.12,35.37.38,1.03.88,2.02,1.26,3.04.5,1.34,0,2.1-1.43,2.24-.55.05-1.1.02-1.65.02-24.62,0-49.24,0-73.85,0-.55,0-1.13.1-1.64-.04-.55-.15-1.28-.42-1.49-.84-.21-.43-.06-1.43.28-1.65,1.3-.86.88-2.1.89-3.2.02-23.28.02-46.55.02-69.83,0-9.28,0-18.56,0-27.84Zm75.12,100.24c-23.91-64.47-47.69-128.6-71.47-192.73-.14.04-.27.07-.41.11v192.62h71.88Z"/>
  <path class="cls-3" d="m108.27,345.19c21.65.04,38.98,17.26,38.88,38.76-.12,23.17-18.69,38.96-39.25,38.91-20.18-.05-38.42-16.78-38.45-39.06-.03-21.29,17.52-38.66,38.82-38.62Zm35.78,38.98c.26-19.56-15.4-35.81-35.91-35.93-19.55-.11-35.58,16.15-35.59,35.85,0,19.45,16.1,35.8,35.51,35.74,20.22-.06,36.13-16.18,35.98-35.66Z"/>
  <path class="cls-3" d="m649.99,345.19c21.75.05,38.94,17.3,38.88,39.01-.07,21.67-17.37,38.6-39.26,38.64-20.34.04-38.44-16.93-38.44-39.04,0-21.31,17.54-38.66,38.83-38.61Zm35.8,39c.07-19.88-15.77-35.86-35.67-35.98-19.54-.12-35.76,15.99-35.85,35.62-.09,19.59,16.01,36.05,35.5,36,19.82-.05,36.03-15.67,36.03-35.64Z"/>
  <path class="cls-2" d="m742.83,72.74c4.3,0,8.22.03,12.15-.02,1.19-.01,1.84.76,2.58,1.45,7.45,7,14.97,13.93,22.32,21.02,25.17,24.3,50.28,48.66,75.4,73,4.01,3.88,7.96,7.83,11.9,11.78.59.59,1.1,1.34,1.41,2.11,2.47,6.09,3.81,12.44,4.45,18.96,1.15,11.77-.1,23.41-2.17,34.95-4.35,24.26-8.95,48.48-13.45,72.72-.1.53-.28,1.05-.4,1.5-.23.13-.37.26-.5.27-4.47.1-8.94.12-13.41.31-1.81.08-2.6-.69-3.23-2.3-3.17-8.04-6.4-16.06-9.71-24.05-4.81-11.62-9.73-23.19-14.53-34.81-24.01-58.19-48-116.4-71.99-174.6-.26-.64-.47-1.3-.83-2.3Z"/>
  <path class="cls-2" d="m816.57,309.38c-.72.04-1.17.11-1.62.09-6.44-.28-12.88-.48-19.31-.92-2.72-.19-5.45-.74-8.11-1.37-4.54-1.07-7.91-3.78-10.02-7.93-1.14-2.23-2.12-4.56-2.98-6.92-4.62-12.62-9.1-25.28-13.76-37.89-17.63-47.69-35.3-95.36-52.96-143.04-4.42-11.94-8.85-23.87-13.27-35.81-.32-.86-.59-1.73-.94-2.76.91-.05,1.52-.11,2.14-.11,6.84,0,13.68.06,20.52-.05,1.64-.03,2.32.58,2.91,2.02,9.14,22.14,18.35,44.25,27.53,66.37,22.95,55.26,45.91,110.52,68.86,165.79.32.78.62,1.56,1.01,2.52Z"/>
  <path class="cls-9" d="m778.5,167.63c2.36,5.72,4.77,11.58,7.35,17.82-6.28-.41-12.14-1.62-18.32-2.32-2.48-5.98-5-12.03-7.64-18.38,6.49-.21,12.42,1.01,18.61,2.89Z"/>
  <path class="cls-9" d="m740.98,119.29c-2.47-5.96-4.86-11.74-7.33-17.72,6.72-.6,12.68,1.42,18.84,2.98,2.3,5.58,4.62,11.21,7.1,17.23-6.45-.62-12.45-1.55-18.6-2.49Z"/>
  <path class="cls-9" d="m765.54,136.19c2.23,5.42,4.54,11.03,7.01,17.05-1.78-.17-3.08-.25-4.37-.43-4.2-.58-8.39-1.22-12.59-1.76-.96-.12-1.59-.41-1.97-1.34-2.16-5.31-4.35-10.6-6.52-15.9-.02-.05.04-.15.14-.44,6.16-.31,12.17.8,18.29,2.82Z"/>
  <path class="cls-9" d="m837.01,310.48c-1,0-2,.04-2.99,0-4.09-.18-8.17-.39-12.25-.56-1.04-.04-1.74-.31-2.17-1.39-2.21-5.46-4.5-10.9-6.76-16.34-.11-.27-.1-.59-.18-1.06,5.72-.08,11.24.46,16.59,2.17.65.21,1.38.84,1.65,1.46,2.1,4.91,4.09,9.87,6.1,14.82.08.2.01.45.01.91Z"/>
  <path class="cls-9" d="m798.54,217.07c-5.98-.83-11.93-1.65-17.96-2.48-2.39-5.76-4.75-11.46-7.19-17.35,6.08-.28,11.73.37,17.22,2.15.58.19,1.24.75,1.48,1.3,2.2,5.2,4.32,10.43,6.45,15.66.05.13,0,.31,0,.72Z"/>
  <path class="cls-9" d="m786.79,228.67c4.72-.11,9.34.39,13.96,1.34,2.94.6,4.56,1.97,5.54,4.84,1.51,4.44,3.5,8.72,5.28,13.07.02.06-.03.15-.11.54-1.22-.13-2.5-.23-3.77-.41-4.19-.58-8.38-1.2-12.58-1.75-.95-.12-1.57-.43-1.95-1.37-2.1-5.16-4.25-10.29-6.36-15.44-.08-.19-.01-.45-.01-.83Z"/>
  <path class="cls-9" d="m799.47,260.02c6.1-.05,11.74.6,17.21,2.41.53.18,1.13.67,1.35,1.17,2.17,5.11,4.27,10.25,6.55,15.78-6.23-.33-12.01-1.62-17.99-2.2-2.34-5.65-4.68-11.27-7.12-17.16Z"/>
  <path class="cls-9" d="m722.03,72.8h17.35c2.3,5.57,4.61,11.17,7.03,17.04-.79,0-1.16.04-1.53,0-5.21-.7-10.41-1.41-15.62-2.1-.92-.12-1.59-.42-1.97-1.37-1.7-4.22-3.46-8.41-5.19-12.62-.08-.2-.04-.45-.07-.94Z"/>
  <path class="cls-6" d="m796.07,249.55c4.42.6,8.37,1.13,12.32,1.67.23.03.47.15.69.12,3.13-.36,4.51,1.45,5.23,4.15.26.96.63,1.89,1.06,3.16-1.59-.33-2.85-.7-4.14-.83-3.11-.32-6.24-.61-9.36-.77-2.64-.13-2.9-.2-3.86-2.57-.62-1.52-1.2-3.05-1.93-4.92Z"/>
  <path class="cls-6" d="m755.78,154.22c3.02.4,5.58.73,8.13,1.07,2.26.3,4.51.65,6.77.88,1.15.11,1.9.53,2.31,1.64.63,1.72,1.34,3.42,2.18,5.53-1.88-.39-3.23-.79-4.6-.93-3.04-.32-6.09-.63-9.15-.71-1.89-.05-3.14-.57-3.73-2.49-.48-1.56-1.17-3.07-1.91-4.99Z"/>
  <path class="cls-6" d="m787.17,188.86c.92,2.31,1.76,4.41,2.74,6.84-.98-.16-1.56-.23-2.14-.36-3.85-.87-7.74-1.42-11.69-1.28-1.97.07-3.1-.64-3.68-2.51-.46-1.49-1.12-2.92-1.85-4.76,5.7.41,11.03,1.49,16.61,2.06Z"/>
  <path class="cls-6" d="m828.81,289.77c-1.69-.36-2.96-.75-4.25-.88-3.19-.33-6.39-.64-9.6-.76-1.81-.07-2.95-.67-3.52-2.44-.5-1.56-1.17-3.06-1.85-4.81.81,0,1.39-.06,1.95.01,4.19.55,8.38,1.2,12.58,1.67,1.36.15,2.14.64,2.58,1.92.58,1.66,1.3,3.28,2.1,5.28Z"/>
  <path class="cls-6" d="m783.29,218.1c5.39.74,10.34,1.43,15.29,2.07.98.13,1.53.56,1.9,1.45.7,1.7,1.55,3.35,1.87,5.51-1.86-.37-3.43-.8-5.03-.96-2.88-.29-5.77-.52-8.66-.56-1.75-.03-2.8-.67-3.37-2.3-.57-1.61-1.23-3.2-2.01-5.21Z"/>
  <path class="cls-6" d="m762.36,131.87c-2.11-.43-3.62-.86-5.15-1.01-2.88-.29-5.77-.54-8.66-.58-1.81-.03-2.98-.59-3.56-2.36-.53-1.62-1.22-3.19-1.97-5.14,2.27.3,4.18.56,6.09.81,2.79.37,5.58.8,8.39,1.06,1.61.15,2.55.89,3.04,2.39.49,1.47,1.09,2.9,1.82,4.83Z"/>
  <path class="cls-6" d="m729.93,90.96c3.2.42,5.99.77,8.77,1.14,2.02.27,4.04.65,6.07.79,1.29.09,2.02.63,2.45,1.79.62,1.67,1.29,3.33,2.08,5.34-.98-.19-1.56-.33-2.15-.4-4.05-.48-8.1-1.06-12.16-1.36-1.55-.12-2.5-.54-3.01-2.02-.56-1.63-1.24-3.21-2.05-5.28Z"/>
  <path class="cls-2" d="m545.94,277.48h-68.57c-.56-1.99-.63-202.26-.09-204.61h68.66v204.61Z"/>
  <path class="cls-2" d="m566.71,277.91V75.41c1.66-.51,64.6-.62,67.42-.1v202.52c-.07.06-.12.11-.18.17-.06.05-.12.14-.18.15-.7.05-1.41.12-2.11.12-21.47-.02-42.94-.04-64.41-.07-.14,0-.27-.14-.53-.28Z"/>
  <path class="cls-2" d="m367.39,279.69h-53.76V74.46h53.59c.5,1.67.69,201.52.17,205.23Z"/>
  <path class="cls-2" d="m390.44,277.94V73.71h67.23c.46,1.69.62,201.06.17,204.14-1.66.52-64.71.63-67.4.09Z"/>
  <path class="cls-2" d="m727.41,278.11h-71.88V85.49c.14-.04.27-.07.41-.11,23.78,64.13,47.56,128.26,71.47,192.73Z"/>
  <path class="cls-9" d="m319.48,486.9H0C0,454.5,0,422.11,0,389.71c.23.21.59.38.67.64.94,3.04,3.34,4.46,6.09,5.42,4.47,1.57,9.07,2.74,13.8,2.84,8.64.19,17.29.11,25.93.14.94,0,1.87,0,2.86,0,.25.71.48,1.29.65,1.88,1.36,4.8,3.42,9.28,6.07,13.5,4.77,7.58,10.6,14.24,17.45,20,5.44,4.58,11.58,7.84,18.55,9.37,15.81,3.48,31.15,1.81,45.81-4.92,13.7-6.29,23.39-16.49,28.4-30.87.12-.35.29-.69.54-1.27,2.33,3.77,5.87,4.46,9.71,4.45.71,0,1.42,0,2.12-.02,6.68-.24,13.36-.52,20.04-.72,13.36-.4,26.72-.75,40.09-1.15,2.28-.07,4.56-.18,6.82-.5,2.69-.38,4.71-2.31,5.1-4.58.45-2.61-1.06-4.11-3.05-5.33-.47-.29-.97-.53-1.42-.84-.38-.26-.78-.55-1.07-.91-.77-.94-.37-2.25.8-2.6.44-.13.93-.12,1.4-.13,5.97-.15,11.95-.31,17.92-.41.54,0,1.33.23,1.58.62.64,1.02,1.52.96,2.47.91,8.33-.38,16.65-.88,24.98-1.11,17.14-.47,34.28-.29,51.42.42,1.16.05,2.31.28,3.24-.85.54-.65,1.27-.4,1.71.39.88,1.57,1.95,3.05,2.64,4.7,1.79,4.28,5.07,6.78,9.39,7.86,2.88.72,5.86,1.33,8.81,1.39,18.87.39,37.74.62,56.61.88,9.91.14,19.81.25,29.72.37,12.03.14,24.06.29,36.09.37,4.03.03,8.03-.37,11.77-2.01,5.63-2.46,9.45-6.41,10.1-12.82.04-.37.21-.73.35-1.21h76.05c2.46,13.57,8.67,25.06,18.98,34.2,10.39,9.21,22.61,14.05,36.45,14.66,12.81.57,24.62-2.76,35.21-10,13.8-9.42,21.96-22.59,25.07-39.01,5.43,0,10.69-.02,15.95.03.47,0,1.07.3,1.39.66,2.88,3.25,6.68,4.19,10.79,4.53,7.63.62,15.25.31,22.87-.13,4.31-.25,8.62-.64,12.89-1.27,3.87-.57,4.94-2.03,5.37-5.99,1.02-9.39.49-18.69-1.51-27.9-.6-2.76-1.42-5.48-2.31-8.16-.74-2.22-2.24-3.77-4.7-4.13-1.38-.2-2.77-.51-4.15-.53-6.76-.07-13.53-.06-20.29-.08-.68,0-1.36-.09-2.11-.14v-46.51c.92,0,1.68,0,2.45,0,5.51-.02,5.6.02,9.07,4.38,3.44,4.32,5.5,9.3,7.05,14.54.62,2.11,1.15,4.26,2.02,6.27,1.66,3.84,4.41,6.27,8.92,5.97.22-.02.45.08.75.14.18.5.4,1,.53,1.52.98,3.88,2.02,7.75,2.91,11.66,1.95,8.57,3.82,17.17,5.72,25.75,1.04,4.72,2.72,6.15,7.6,6.41.47.03.94.02,1.41,0,2.44-.09,4.88-.07,7.3-.32,4.05-.42,8.15.02,12.17-.98,1.06-.27,1.74-.6,1.84-1.74.26-3.07,1.64-5.71,3.1-8.33,4.4-7.9,8.77-15.81,13.16-23.71,1.45-2.61,2.9-5.2,4.24-7.6,1.4,0,2.57,0,3.74,0,13.29,0,26.58-.01,39.87.02.99,0,2,.23,2.97.44,1.43.31,2.01-.01,2.33-1.5.1-.46.13-.93.19-1.4.68-4.99,1.39-9.97,2-14.96.17-1.35.73-2.13,2.03-2.51,1.89-.54,3.72-1.28,5.63-1.72,5.7-1.33,9.07-4.91,10.74-10.43,1.94-6.42,3.37-12.94,4.17-19.58,1.11-9.29,2.13-18.59,3.05-27.9,1.13-11.42,2.13-22.85,3.2-34.28.04-.44.25-.87.38-1.3v264.21H321.37c.12-.44.3-.87.34-1.32.08-1.09-.65-1.87-1.59-1.78-.87.08-1.36.79-1.19,1.87.07.43.37.82.56,1.23Z"/>
  <g>
    <path class="cls-3" d="m97.05,398.75c0-2.58,1.88-4.44,4.47-4.41,2.45.03,4.32,1.86,4.37,4.3.05,2.5-1.92,4.56-4.39,4.6-2.47.04-4.44-1.95-4.45-4.5Zm7.74,0c0-1.89-1.59-3.44-3.45-3.37-1.76.06-3.25,1.6-3.25,3.36,0,1.89,1.57,3.4,3.47,3.34,1.83-.06,3.23-1.5,3.23-3.33Z"/>
    <g>
      <path class="cls-3" d="m97.06,372.14c.03-2.55,2-4.46,4.52-4.38,2.42.07,4.29,1.98,4.32,4.4.03,2.54-1.89,4.47-4.45,4.47-2.57,0-4.42-1.89-4.39-4.49Zm7.74.05c-.02-1.83-1.43-3.26-3.25-3.3-1.94-.04-3.47,1.44-3.45,3.35.02,1.87,1.65,3.43,3.5,3.34,1.77-.08,3.22-1.62,3.21-3.39Z"/>
      <path class="cls-3" d="m111.8,372.21c0-2.56,1.95-4.5,4.46-4.45,2.48.04,4.48,2.11,4.41,4.57-.06,2.39-1.98,4.27-4.41,4.3-2.57.04-4.47-1.85-4.46-4.42Zm7.75.04c.02-1.83-1.37-3.29-3.2-3.36-1.94-.07-3.5,1.39-3.51,3.28,0,1.78,1.44,3.32,3.2,3.4,1.88.08,3.49-1.44,3.51-3.32Z"/>
      <path class="cls-3" d="m111.8,398.73c.02-2.59,1.91-4.44,4.49-4.4,2.51.04,4.46,2.07,4.38,4.56-.08,2.37-2.04,4.3-4.43,4.34-2.48.04-4.46-1.96-4.44-4.5Zm7.76.1c.04-1.87-1.54-3.48-3.39-3.46-1.78.03-3.28,1.5-3.33,3.28-.05,1.89,1.49,3.44,3.39,3.42,1.83-.01,3.29-1.44,3.32-3.25Z"/>
      <path class="cls-3" d="m93.67,380.53c2.49.05,4.46,2.12,4.39,4.6-.07,2.46-2.17,4.39-4.67,4.29-2.44-.1-4.24-2-4.23-4.45.01-2.52,2.01-4.49,4.51-4.43Zm-.4,7.8c1.88.17,3.56-1.28,3.66-3.15.1-1.79-1.27-3.38-3.05-3.52-1.87-.15-3.57,1.3-3.69,3.14-.11,1.73,1.32,3.37,3.07,3.53Z"/>
      <path class="cls-3" d="m123.04,380.54c2.53-.01,4.48,1.93,4.48,4.47,0,2.53-1.97,4.45-4.51,4.41-2.41-.04-4.34-1.93-4.39-4.33-.05-2.48,1.95-4.53,4.43-4.55Zm.05,1.11c-1.81,0-3.29,1.42-3.35,3.22-.07,1.88,1.47,3.48,3.35,3.47,1.78,0,3.31-1.48,3.36-3.23.06-1.87-1.48-3.45-3.36-3.46Z"/>
      <path class="cls-2" d="m144.04,384.16c.15,19.48-15.76,35.6-35.98,35.66-19.41.05-35.51-16.29-35.51-35.74,0-19.7,16.04-35.97,35.59-35.85,20.51.12,36.17,16.37,35.91,35.93Zm-32.24-11.95c0,2.57,1.9,4.46,4.46,4.42,2.43-.04,4.35-1.91,4.41-4.3.06-2.46-1.93-4.53-4.41-4.57-2.51-.04-4.45,1.9-4.46,4.45Zm0,26.52c-.02,2.54,1.97,4.54,4.44,4.5,2.39-.04,4.35-1.96,4.43-4.34.08-2.49-1.87-4.52-4.38-4.56-2.59-.04-4.47,1.81-4.49,4.4Zm-18.12-18.2c-2.5-.05-4.5,1.91-4.51,4.43-.01,2.45,1.79,4.35,4.23,4.45,2.5.11,4.6-1.82,4.67-4.29.07-2.48-1.9-4.54-4.39-4.6Zm29.37,0c-2.48.01-4.48,2.07-4.43,4.55.05,2.4,1.98,4.29,4.39,4.33,2.54.04,4.51-1.88,4.51-4.41,0-2.53-1.95-4.48-4.48-4.47Zm-25.99,18.21c0,2.54,1.98,4.53,4.45,4.5,2.47-.04,4.44-2.1,4.39-4.6-.05-2.44-1.91-4.27-4.37-4.3-2.59-.03-4.48,1.83-4.47,4.41Zm0-26.6c-.03,2.6,1.83,4.49,4.39,4.49,2.56,0,4.48-1.93,4.45-4.47-.03-2.42-1.9-4.32-4.32-4.4-2.52-.08-4.49,1.84-4.52,4.38Z"/>
      <path class="cls-7" d="m119.55,372.25c-.02,1.88-1.62,3.41-3.51,3.32-1.76-.08-3.21-1.62-3.2-3.4,0-1.89,1.57-3.35,3.51-3.28,1.83.07,3.22,1.53,3.2,3.36Z"/>
      <path class="cls-7" d="m119.56,398.83c-.04,1.81-1.49,3.23-3.32,3.25-1.91.01-3.44-1.54-3.39-3.42.05-1.78,1.55-3.26,3.33-3.28,1.85-.03,3.43,1.58,3.39,3.46Z"/>
      <path class="cls-7" d="m93.28,388.33c-1.75-.16-3.18-1.8-3.07-3.53.12-1.85,1.82-3.3,3.69-3.14,1.78.14,3.15,1.73,3.05,3.52-.11,1.88-1.79,3.32-3.66,3.15Z"/>
      <path class="cls-7" d="m123.09,381.65c1.89,0,3.42,1.59,3.36,3.46-.06,1.75-1.59,3.23-3.36,3.23-1.88,0-3.42-1.59-3.35-3.47.06-1.8,1.55-3.23,3.35-3.22Z"/>
      <path class="cls-7" d="m104.8,398.75c0,1.82-1.4,3.27-3.23,3.33-1.9.06-3.47-1.45-3.47-3.34,0-1.76,1.48-3.3,3.25-3.36,1.87-.06,3.45,1.48,3.45,3.37Z"/>
      <path class="cls-7" d="m104.8,372.19c.02,1.78-1.43,3.31-3.21,3.39-1.85.08-3.49-1.47-3.5-3.34-.02-1.91,1.51-3.39,3.45-3.35,1.82.04,3.24,1.47,3.25,3.3Z"/>
    </g>
  </g>
  <g>
    <path class="cls-3" d="m643.28,394.34c2.55.05,4.39,2.01,4.3,4.59-.09,2.43-2.02,4.32-4.41,4.31-2.48-.01-4.48-2.05-4.45-4.54.02-2.51,2.01-4.41,4.57-4.36Zm3.23,4.47c.03-1.9-1.51-3.45-3.4-3.43-1.75.02-3.27,1.53-3.31,3.31-.04,1.9,1.49,3.43,3.41,3.4,1.83-.03,3.27-1.45,3.29-3.27Z"/>
    <path class="cls-3" d="m657.83,367.76c2.48-.06,4.52,1.93,4.55,4.42.02,2.4-1.84,4.36-4.25,4.45-2.59.1-4.54-1.71-4.6-4.27-.06-2.6,1.76-4.54,4.3-4.6Zm.08,1.14c-1.91,0-3.43,1.56-3.36,3.44.07,1.77,1.6,3.25,3.37,3.24,1.88,0,3.38-1.58,3.32-3.49-.06-1.84-1.48-3.2-3.33-3.2Z"/>
    <path class="cls-3" d="m669.23,384.97c0,2.51-1.98,4.48-4.49,4.45-2.41-.03-4.35-1.92-4.42-4.31-.07-2.47,1.92-4.55,4.4-4.58,2.51-.04,4.5,1.93,4.51,4.44Zm-1.05.08c.04-1.85-1.56-3.43-3.43-3.41-1.81.02-3.25,1.46-3.28,3.28-.03,1.84,1.34,3.32,3.15,3.4,1.88.09,3.52-1.43,3.56-3.28Z"/>
    <path class="cls-3" d="m630.91,384.99c0-2.56,1.94-4.49,4.46-4.44,2.5.04,4.48,2.09,4.41,4.56-.07,2.38-2,4.28-4.41,4.32-2.52.05-4.46-1.89-4.46-4.44Zm4.31,3.35c1.91.04,3.45-1.49,3.43-3.39-.02-1.82-1.45-3.27-3.27-3.31-1.89-.04-3.45,1.5-3.43,3.39.01,1.8,1.47,3.27,3.27,3.3Z"/>
    <path class="cls-3" d="m657.91,394.34c2.53,0,4.49,1.95,4.46,4.46-.03,2.47-2.11,4.49-4.56,4.43-2.43-.06-4.26-1.95-4.28-4.41-.03-2.61,1.8-4.47,4.38-4.48Zm3.33,4.38c-.02-1.9-1.6-3.42-3.48-3.34-1.75.07-3.24,1.63-3.23,3.39.01,1.87,1.6,3.37,3.51,3.31,1.82-.06,3.21-1.52,3.19-3.35Z"/>
    <path class="cls-3" d="m647.59,372.31c-.05,2.55-2.02,4.4-4.58,4.32-2.44-.08-4.29-1.98-4.3-4.4,0-2.51,1.99-4.49,4.5-4.47,2.52.02,4.43,2.01,4.38,4.55Zm-4.54-3.42c-1.82.05-3.25,1.52-3.24,3.33,0,1.88,1.62,3.43,3.48,3.36,1.78-.07,3.23-1.58,3.22-3.37-.01-1.94-1.5-3.37-3.47-3.32Z"/>
    <path class="cls-1" d="m685.79,384.19c0,19.97-16.21,35.59-36.03,35.64-19.49.05-35.59-16.41-35.5-36,.09-19.63,16.32-35.75,35.85-35.62,19.9.13,35.74,16.1,35.67,35.98Zm-42.5,10.15c-2.56-.05-4.55,1.85-4.57,4.36-.02,2.49,1.98,4.53,4.45,4.54,2.39,0,4.33-1.88,4.41-4.31.09-2.58-1.75-4.55-4.3-4.59Zm14.55-26.58c-2.54.06-4.36,2-4.3,4.6.06,2.56,2,4.37,4.6,4.27,2.41-.09,4.27-2.05,4.25-4.45-.02-2.49-2.07-4.48-4.55-4.42Zm11.4,17.22c0-2.51-2-4.48-4.51-4.44-2.48.04-4.47,2.11-4.4,4.58.07,2.39,2.01,4.28,4.42,4.31,2.5.03,4.49-1.95,4.49-4.45Zm-38.32.02c0,2.55,1.94,4.49,4.46,4.44,2.41-.05,4.34-1.94,4.41-4.32.07-2.47-1.91-4.52-4.41-4.56-2.52-.04-4.46,1.89-4.46,4.44Zm27,9.35c-2.59,0-4.41,1.88-4.38,4.48.03,2.46,1.86,4.34,4.28,4.41,2.46.06,4.54-1.95,4.56-4.43.03-2.51-1.93-4.47-4.46-4.46Zm-10.33-22.03c.05-2.54-1.86-4.53-4.38-4.55-2.51-.02-4.5,1.96-4.5,4.47,0,2.42,1.85,4.32,4.3,4.4,2.56.09,4.53-1.77,4.58-4.32Z"/>
    <path class="cls-7" d="m646.52,398.81c-.03,1.82-1.46,3.24-3.29,3.27-1.92.03-3.45-1.5-3.41-3.4.04-1.77,1.56-3.29,3.31-3.31,1.89-.02,3.43,1.54,3.4,3.43Z"/>
    <path class="cls-7" d="m657.91,368.89c1.85,0,3.27,1.36,3.33,3.2.06,1.9-1.45,3.48-3.32,3.49-1.76,0-3.3-1.48-3.37-3.24-.07-1.88,1.45-3.44,3.36-3.44Z"/>
    <path class="cls-7" d="m668.18,385.05c-.04,1.85-1.68,3.37-3.56,3.28-1.81-.08-3.19-1.56-3.15-3.4.03-1.83,1.46-3.26,3.28-3.28,1.88-.02,3.47,1.56,3.43,3.41Z"/>
    <path class="cls-7" d="m635.22,388.34c-1.8-.03-3.26-1.5-3.27-3.3-.02-1.89,1.54-3.43,3.43-3.39,1.82.04,3.25,1.49,3.27,3.31.02,1.9-1.52,3.42-3.43,3.39Z"/>
    <path class="cls-7" d="m661.25,398.72c.02,1.83-1.37,3.29-3.19,3.35-1.91.06-3.5-1.43-3.51-3.31,0-1.76,1.47-3.32,3.23-3.39,1.88-.08,3.46,1.44,3.48,3.34Z"/>
    <path class="cls-7" d="m643.05,368.89c1.96-.05,3.46,1.38,3.47,3.32,0,1.78-1.44,3.3-3.22,3.37-1.87.07-3.47-1.48-3.48-3.36,0-1.81,1.42-3.28,3.24-3.33Z"/>
  </g>
</svg>