<?xml version="1.0" encoding="UTF-8"?>
<svg id="Layer_2" data-name="Layer 2" xmlns="http://www.w3.org/2000/svg" viewBox="0 0 812.82 1003.04">
  <defs>
    <style>
      .cls-1 {
        fill: #222;
        stroke: #000;
        stroke-miterlimit: 10;
      }
    </style>
  </defs>
  <g id="Layer_1-2" data-name="Layer 1">
    <path class="cls-1" d="m505.5,51.53c12.42,1.79,140.32,24.2,157,77,8.75,27.7-8.82,47.2,3.63,93,10.67,39.26,26.57,39.65,37,69,24.33,68.48-61.88,116.41-41.63,186,12.9,44.33,53.23,43.26,62,96,2.87,17.26-.54,37.84-7.37,79-8.76,52.79-16.86,66.32-15.36,79.9.25,2.3,1.19,5.4,2.36,9.1,11.76,37.08,39.6,40.92,52.37,64,19.41,35.05-22.3,66.87-2,99,12.81,20.27,33.92,14.76,49,38,12.12,18.69,10.83,41.32,7.63,58-269.88,1-539.75,2-809.63,3V.53c96.41,6.48,303.69,21.99,505,51Z"/>
  </g>
</svg>