<?xml version="1.0" encoding="UTF-8"?>
<svg xmlns="http://www.w3.org/2000/svg" viewBox="0 0 785.71 1011.03">
  <defs>
    <style>
      .rightTrench-1 {
        fill: #222;
        stroke: #000;
        stroke-miterlimit: 10;
      }
    </style>
  </defs>
  <g>
    <path class="rightTrench-1" d="m276.21,62.53c-30.31,7.11-111.52,30.12-126,76-8.96,28.39,7.21,48.94-5.63,94-11.57,40.63-28.05,39.71-37,69-19.8,64.77,66.05,108.97,48.63,169-13.03,44.89-66.44,38.82-78.63,90-9.34,39.22,13.67,87.41,17,102,11.8,51.75,17.43,67.23,15.38,80.47-.45,2.94-1.16,5.28-2.38,8.53-11.6,30.78-43.94,27.26-58.37,49-14.8,22.29,10.83,38.61,1,82-5.62,24.81-15.85,27.6-31,63-11.4,26.62-16.28,49.98-18.63,65,261.54-2.33,523.08-4.67,784.63-7V.53c-65.49,3.75-330.08,20.04-509,62Z"/>
  </g>
</svg>